<?xml version="1.0" encoding="UTF-8"?>
<svg width="220px" height="61px" viewBox="0 0 220 61" version="1.1" xmlns="http://www.w3.org/2000/svg" xmlns:xlink="http://www.w3.org/1999/xlink">
    <title>decomposed</title>
    <g id="Page-1" stroke="none" stroke-width="1" fill="none" fill-rule="evenodd">
        <g id="top-rated" fill-rule="nonzero">
            <g id="decomposed">
                <path d="M94.2,5.2797 L91.4,4.8797 L90.2,2.3797 C90.2,2.2797 90.1,2.2797 90,2.1797 C89.8,2.0797 89.6,2.1797 89.5,2.3797 L88.3,4.8797 L85.6,5.2797 C85.5,5.2797 85.5,5.2797 85.4,5.3797 C85.3,5.4797 85.3,5.5797 85.3,5.5797 C85.3,5.6797 85.3,5.7797 85.4,5.7797 L87.4,7.6797 L86.9,10.3797 C86.9,10.4797 86.9,10.4797 86.9,10.5797 C86.9,10.6797 87,10.6797 87,10.7797 C87.1,10.7797 87.1,10.8797 87.2,10.8797 C87.3,10.8797 87.3,10.8797 87.4,10.8797 L89.9,9.5797 L92.4,10.8797 C92.5,10.8797 92.5,10.8797 92.6,10.8797 C92.8,10.8797 92.9,10.6797 92.9,10.4797 L92.4,7.7797 L94.4,5.8797 C94.5,5.7797 94.5,5.7797 94.5,5.6797 C94.5,5.4797 94.4,5.2797 94.2,5.2797 Z" id="Path" fill="#F6C244"></path>
                <path d="M109.5,5.2797 L106.7,4.8797 L105.5,2.3797 C105.5,2.2797 105.4,2.2797 105.3,2.1797 C105.1,2.0797 104.9,2.1797 104.8,2.3797 L103.6,4.8797 L100.9,5.2797 C100.8,5.2797 100.8,5.2797 100.7,5.3797 C100.6,5.3797 100.6,5.4797 100.6,5.5797 C100.6,5.6797 100.6,5.7797 100.7,5.7797 L102.7,7.6797 L102.2,10.3797 C102.2,10.4797 102.2,10.4797 102.2,10.5797 C102.2,10.6797 102.3,10.6797 102.3,10.7797 C102.4,10.7797 102.4,10.8797 102.5,10.8797 C102.6,10.8797 102.6,10.8797 102.7,10.8797 L105.2,9.5797 L107.7,10.8797 C107.8,10.8797 107.8,10.8797 107.9,10.8797 C108.1,10.8797 108.2,10.6797 108.2,10.4797 L107.7,7.7797 L109.7,5.8797 C109.8,5.7797 109.8,5.7797 109.8,5.6797 C109.8,5.4797 109.7,5.2797 109.5,5.2797 Z" id="Path" fill="#F6C244"></path>
                <path d="M124.8,5.2797 L122,4.8797 L120.8,2.3797 C120.8,2.2797 120.7,2.2797 120.6,2.1797 C120.4,2.0797 120.2,2.1797 120.1,2.3797 L118.9,4.8797 L116.1,5.2797 C116,5.2797 116,5.2797 115.9,5.3797 C115.8,5.4797 115.8,5.5797 115.8,5.5797 C115.8,5.6797 115.8,5.7797 115.9,5.7797 L117.9,7.6797 L117.4,10.3797 C117.4,10.4797 117.4,10.4797 117.4,10.5797 C117.4,10.6797 117.5,10.6797 117.5,10.7797 C117.6,10.7797 117.6,10.8797 117.7,10.8797 C117.8,10.8797 117.8,10.8797 117.9,10.8797 L120.4,9.5797 L122.9,10.8797 C123,10.8797 123,10.8797 123.1,10.8797 C123.3,10.8797 123.4,10.6797 123.4,10.4797 L122.9,7.7797 L124.9,5.8797 C125,5.7797 125,5.7797 125,5.6797 C125.1,5.4797 125,5.2797 124.8,5.2797 Z" id="Path" fill="#F6C244"></path>
                <path d="M140.1,5.2797 L137.3,4.8797 L136.1,2.3797 C136.1,2.2797 136,2.2797 135.9,2.1797 C135.7,2.0797 135.5,2.1797 135.4,2.3797 L134.2,4.8797 L131.4,5.2797 C131.3,5.2797 131.3,5.2797 131.2,5.3797 C131.1,5.4797 131.1,5.5797 131.1,5.5797 C131.1,5.6797 131.1,5.7797 131.2,5.7797 L133.2,7.6797 L132.7,10.3797 C132.7,10.4797 132.7,10.4797 132.7,10.5797 C132.7,10.6797 132.8,10.6797 132.8,10.7797 C132.9,10.7797 132.9,10.8797 133,10.8797 C133.1,10.8797 133.1,10.8797 133.2,10.8797 L135.7,9.5797 L138.2,10.8797 C138.3,10.8797 138.3,10.8797 138.4,10.8797 C138.6,10.8797 138.7,10.6797 138.7,10.4797 L138.2,7.7797 L140.2,5.8797 C140.3,5.7797 140.3,5.7797 140.3,5.6797 C140.4,5.4797 140.3,5.2797 140.1,5.2797 Z" id="Path" fill="#F6C244"></path>
                <path d="M155.4,5.2797 L152.6,4.8797 L151.4,2.3797 C151.4,2.2797 151.3,2.2797 151.2,2.1797 C151,2.0797 150.8,2.1797 150.7,2.3797 L149.5,4.8797 L146.7,5.2797 C146.6,5.2797 146.6,5.2797 146.5,5.3797 C146.4,5.4797 146.4,5.5797 146.4,5.5797 C146.4,5.6797 146.4,5.7797 146.5,5.7797 L148.5,7.6797 L148,10.3797 C148,10.4797 148,10.4797 148,10.5797 C148,10.6797 148.1,10.6797 148.1,10.7797 C148.2,10.7797 148.2,10.8797 148.3,10.8797 C148.4,10.8797 148.4,10.8797 148.5,10.8797 L151,9.5797 L153.5,10.8797 C153.6,10.8797 153.6,10.8797 153.7,10.8797 C153.9,10.8797 154,10.6797 154,10.4797 L153.5,7.7797 L155.5,5.8797 C155.6,5.7797 155.6,5.7797 155.6,5.6797 C155.7,5.4797 155.6,5.2797 155.4,5.2797 Z" id="Path" fill="#F6C244"></path>
                <path d="M202,3.4797 C202,3.4797 202,3.4797 202,3.4797 C202,3.5797 202.1,3.6797 202.1,3.7797 C202.2,3.8797 202.3,3.9797 202.4,4.0797 C202.3,3.7797 202.1,3.5797 202,3.4797 Z M190.9,59.7797 C192.3,59.3797 193.7,58.9797 195,58.3797 C195,58.3797 195,58.2797 195.1,58.2797 C195.1,58.2797 195.1,58.2797 195.1,58.2797 C195.2,55.9797 197,53.5797 198.6,52.0797 C198.8,51.8797 199.3,51.9797 199.2,52.3797 C199,54.2797 198.2,56.0797 196.9,57.4797 C199.1,56.2797 201,54.6797 202.8,52.8797 C202.8,52.7797 202.7,52.7797 202.7,52.6797 C202.7,51.1797 202.9,49.5797 203.4,48.1797 C203.8,47.0797 204.3,45.7797 205.3,45.1797 C205.5,45.0797 205.8,45.1797 205.8,45.4797 C205.8,47.2797 205.4,49.0797 204.6,50.7797 C204.9,50.3797 205.2,50.0797 205.5,49.6797 C207.3,47.2797 208.9,44.6797 210.3,41.9797 C210.3,41.9797 210.3,41.8797 210.3,41.8797 C210.3,41.7797 210.3,41.7797 210.3,41.6797 C210.2,41.6797 210.2,41.5797 210.1,41.5797 C208.4,39.0797 208.7,35.3797 209.5,32.6797 C209.6,32.3797 210,32.3797 210.2,32.5797 C211.7,34.7797 211.8,37.3797 211.3,39.8797 C212.2,37.7797 212.9,35.5797 213.3,33.3797 C213.5,32.4797 213.6,31.4797 213.7,30.5797 C213.6,30.5797 213.6,30.5797 213.5,30.5797 C211,29.0797 209.7,25.7797 209.3,23.0797 C209.2,22.6797 209.6,22.4797 209.9,22.6797 C211.6,24.2797 213,26.2797 213.7,28.4797 C213.7,24.9797 212.8,21.5797 211.5,18.3797 C211.4,18.3797 211.4,18.4797 211.3,18.4797 C208.4,18.3797 205.7,15.7797 204.2,13.4797 C204,13.1797 204.3,12.7797 204.6,12.8797 C206.7,13.5797 208.6,14.5797 210.3,15.9797 C208.7,12.9797 206.7,10.1797 204.5,7.5797 C204.5,7.5797 204.5,7.5797 204.5,7.5797 C203.1,6.8797 201.4,6.2797 200.3,5.1797 C199.3,4.1797 198.8,2.8797 198.3,1.5797 C198.1,1.1797 198.6,0.9797 198.9,1.1797 C198.9,1.1797 199,1.1797 199,1.1797 C200.3,1.2797 201.4,1.7797 202.4,2.7797 C203.4,3.7797 203.9,5.1797 204.7,6.3797 C206.4,8.2797 208,10.2797 209.4,12.4797 C209,9.3797 208.5,6.0797 209.3,2.9797 C209.4,2.5797 209.8,2.5797 210,2.8797 C212.2,6.0797 212.5,10.4797 210.1,13.6797 C211.6,16.2797 212.8,18.9797 213.5,21.8797 C213.6,20.6797 213.7,19.4797 213.8,18.2797 C213.9,17.4797 213.7,15.8797 214.4,15.3797 C214.5,15.2797 214.7,15.1797 214.9,15.2797 C217.5,16.8797 216.4,22.8797 214.1,24.2797 C214.1,24.2797 214.1,24.2797 214,24.2797 C214.4,26.4797 214.5,28.6797 214.3,30.8797 C214.3,30.8797 214.3,30.8797 214.3,30.8797 C214.3,30.8797 214.3,30.9797 214.3,30.9797 C214.2,31.7797 214.1,32.5797 214,33.2797 C213.9,33.7797 213.8,34.3797 213.6,34.8797 C214.2,33.8797 215,32.8797 215.7,31.9797 C216.5,30.9797 217.5,30.0797 218.8,29.7797 C219.1,29.6797 219.3,29.9797 219.3,30.2797 C218.7,33.2797 216.4,35.8797 213.4,36.7797 C213.3,36.7797 213.3,36.7797 213.2,36.7797 C212.3,39.7797 210.9,42.6797 209.3,45.3797 C210,44.8797 210.6,44.3797 211.4,43.9797 C212.4,43.3797 213.8,42.5797 214.9,42.9797 C215.1,43.0797 215.2,43.2797 215.2,43.4797 C214.2,46.4797 211.1,48.4797 208,47.6797 L208,47.6797 C208,47.6797 208,47.6797 208,47.6797 C207.3,48.6797 206.6,49.6797 205.8,50.6797 C204.6,52.1797 203.3,53.6797 201.8,54.9797 C203.6,54.0797 206,53.8797 207.9,53.9797 C208.2,53.9797 208.4,54.3797 208.2,54.6797 C206.1,56.7797 202.9,57.5797 200.1,56.4797 C200.1,56.4797 200,56.4797 200,56.4797 C197.3,58.4797 194.3,59.9797 191,60.4797 C190.7,60.1797 190.6,59.8797 190.9,59.7797 Z" id="Shape" fill="#317AF3"></path>
                <path d="M17.4,3.4797 C17.4,3.4797 17.4,3.4797 17.4,3.4797 C17.4,3.5797 17.3,3.6797 17.3,3.7797 C17.2,3.8797 17.1,3.9797 17,4.0797 C17.1,3.7797 17.2,3.5797 17.4,3.4797 Z M28.5,59.7797 C27.1,59.3797 25.7,58.9797 24.4,58.3797 C24.4,58.3797 24.4,58.2797 24.3,58.2797 C24.3,58.2797 24.3,58.2797 24.3,58.2797 C24.2,55.9797 22.4,53.5797 20.8,52.0797 C20.6,51.8797 20.1,51.9797 20.2,52.3797 C20.4,54.2797 21.2,56.0797 22.5,57.4797 C20.3,56.2797 18.4,54.6797 16.6,52.8797 C16.6,52.7797 16.6,52.6797 16.6,52.6797 C16.6,51.1797 16.4,49.5797 15.9,48.1797 C15.5,47.0797 15,45.7797 14,45.1797 C13.8,45.0797 13.5,45.1797 13.5,45.4797 C13.5,47.2797 13.9,49.0797 14.7,50.7797 C14.4,50.3797 14.1,50.0797 13.8,49.6797 C12,47.2797 10.4,44.6797 9,41.9797 C9,41.9797 9,41.8797 9,41.8797 C9,41.7797 9,41.7797 9,41.6797 C9.1,41.6797 9.1,41.5797 9.2,41.5797 C10.9,39.0797 10.6,35.3797 9.9,32.6797 C9.7,32.2797 9.3,32.2797 9.1,32.4797 C7.6,34.7797 7.6,37.2797 8.1,39.7797 C7.2,37.6797 6.5,35.4797 6.1,33.2797 C5.9,32.3797 5.8,31.3797 5.7,30.4797 C5.8,30.4797 5.8,30.4797 5.9,30.4797 C8.4,28.9797 9.7,25.6797 10.1,22.9797 C10.1,22.5797 9.8,22.3797 9.5,22.5797 C7.7,24.2797 6.4,26.1797 5.6,28.3797 C5.6,24.8797 6.5,21.4797 7.8,18.2797 C7.9,18.2797 7.9,18.3797 8,18.3797 C10.9,18.2797 13.6,15.6797 15.1,13.3797 C15.3,13.0797 15,12.6797 14.7,12.7797 C12.6,13.4797 10.7,14.4797 9,15.8797 C10.6,12.8797 12.6,10.0797 14.8,7.4797 C14.8,7.4797 14.8,7.4797 14.8,7.4797 C16.2,6.7797 17.9,6.1797 19,5.0797 C20,4.0797 20.5,2.7797 21,1.4797 C21.2,1.0797 20.7,0.8797 20.4,1.0797 C20.4,1.0797 20.3,1.0797 20.3,1.0797 C19,1.1797 17.9,1.6797 16.9,2.6797 C15.9,3.6797 15.4,5.0797 14.6,6.2797 C12.9,8.1797 11.3,10.1797 9.9,12.3797 C10.3,9.2797 10.8,5.9797 10,2.8797 C9.9,2.4797 9.5,2.4797 9.3,2.7797 C7.1,5.9797 6.8,10.3797 9.2,13.5797 C7.7,16.1797 6.5,18.8797 5.8,21.7797 C5.7,20.5797 5.6,19.3797 5.5,18.1797 C5.4,17.3797 5.6,15.7797 4.9,15.2797 C4.8,15.1797 4.6,15.0797 4.4,15.1797 C1.8,16.7797 2.9,22.7797 5.2,24.1797 C5.2,24.1797 5.2,24.1797 5.3,24.1797 C4.9,26.3797 4.8,28.5797 5,30.7797 C5,30.7797 5,30.7797 5,30.7797 C5,30.7797 5,30.8797 5,30.8797 C5.1,31.6797 5.2,32.4797 5.3,33.1797 C5.4,33.6797 5.5,34.2797 5.7,34.7797 C5.1,33.7797 4.3,32.7797 3.6,31.8797 C2.8,30.8797 1.8,29.9797 0.5,29.6797 C0.2,29.5797 5.68434189e-14,29.8797 5.68434189e-14,30.1797 C0.6,33.1797 2.9,35.7797 5.9,36.6797 C6,36.6797 6,36.6797 6.1,36.6797 C7,39.6797 8.4,42.5797 10,45.2797 C9.4,44.7797 8.7,44.2797 7.9,43.8797 C6.9,43.2797 5.5,42.4797 4.4,42.8797 C4.2,42.9797 4.1,43.1797 4.1,43.3797 C5.1,46.3797 8.2,48.3797 11.3,47.5797 L11.3,47.5797 C11.3,47.5797 11.3,47.5797 11.3,47.5797 C12,48.5797 12.7,49.5797 13.5,50.5797 C14.7,52.0797 16,53.5797 17.5,54.8797 C15.7,53.9797 13.3,53.7797 11.4,53.8797 C11.1,53.8797 10.9,54.2797 11.1,54.5797 C13.2,56.6797 16.4,57.4797 19.2,56.3797 C19.2,56.3797 19.3,56.3797 19.3,56.3797 C22,58.3797 25,59.8797 28.3,60.3797 C28.7,60.1797 28.8,59.8797 28.5,59.7797 Z" id="Shape" fill="#317AF3"></path>
                <text id="4.8" fill="#317AF3" font-family="ProductSans-Bold, Product Sans" font-size="11.1466" font-weight="bold">
                    <tspan x="64.2347" y="11">4.8</tspan>
                </text>
                <text id="from-4-million-users" fill="#317AF3" font-family="ProductSans-Bold, Product Sans" font-size="8" font-weight="bold">
                    <tspan x="72.3697" y="19.9471">from 4 million users</tspan>
                </text>
                <text id="Best-Rated-in-2022" fill="#317AF3" font-family="ProductSans-Bold, Product Sans" font-size="17.084" font-weight="bold">
                    <tspan x="38.1692" y="41.2888">Best Rated in 2022</tspan>
                </text>
                <text id="Google-Workspace-Marketplace" fill="#317AF3" font-family="ProductSans-Bold, Product Sans" font-size="9.1115" font-weight="bold">
                    <tspan x="43.7817" y="52.9871">Google Workspace Marketplace</tspan>
                </text>
            </g>
        </g>
    </g>
</svg>