<svg viewBox="0 0 220 61" version="1.1" xmlns="http://www.w3.org/2000/svg" xmlns:xlink="http://www.w3.org/1999/xlink">
    <title>top rated 2022</title>
    <g id="Page-1" stroke="none" stroke-width="1" fill="none" fill-rule="evenodd">
        <g id="top-rated" transform="translate(0.400000, 0.721539)" fill-rule="nonzero">
            <g id="top-rated-2022">
                <path d="M94.2,4.27846097 L91.4,3.87846097 L90.2,1.37846097 C90.2,1.27846097 90.1,1.27846097 90,1.17846097 C89.8,1.07846097 89.6,1.17846097 89.5,1.37846097 L88.3,3.87846097 L85.6,4.27846097 C85.5,4.27846097 85.5,4.27846097 85.4,4.37846097 C85.3,4.47846097 85.3,4.57846097 85.3,4.57846097 C85.3,4.67846097 85.3,4.77846097 85.4,4.77846097 L87.4,6.67846097 L86.9,9.37846097 C86.9,9.47846097 86.9,9.47846097 86.9,9.57846097 C86.9,9.67846097 87,9.67846097 87,9.77846097 C87.1,9.77846097 87.1,9.87846097 87.2,9.87846097 C87.3,9.87846097 87.3,9.87846097 87.4,9.87846097 L89.9,8.57846097 L92.4,9.87846097 C92.5,9.87846097 92.5,9.87846097 92.6,9.87846097 C92.8,9.87846097 92.9,9.67846097 92.9,9.47846097 L92.4,6.77846097 L94.4,4.87846097 C94.5,4.77846097 94.5,4.77846097 94.5,4.67846097 C94.5,4.47846097 94.4,4.27846097 94.2,4.27846097 Z" id="Path" fill="#F6C244"></path>
                <path d="M109.5,4.27846097 L106.7,3.87846097 L105.5,1.37846097 C105.5,1.27846097 105.4,1.27846097 105.3,1.17846097 C105.1,1.07846097 104.9,1.17846097 104.8,1.37846097 L103.6,3.87846097 L100.9,4.27846097 C100.8,4.27846097 100.8,4.27846097 100.7,4.37846097 C100.6,4.37846097 100.6,4.47846097 100.6,4.57846097 C100.6,4.67846097 100.6,4.77846097 100.7,4.77846097 L102.7,6.67846097 L102.2,9.37846097 C102.2,9.47846097 102.2,9.47846097 102.2,9.57846097 C102.2,9.67846097 102.3,9.67846097 102.3,9.77846097 C102.4,9.77846097 102.4,9.87846097 102.5,9.87846097 C102.6,9.87846097 102.6,9.87846097 102.7,9.87846097 L105.2,8.57846097 L107.7,9.87846097 C107.8,9.87846097 107.8,9.87846097 107.9,9.87846097 C108.1,9.87846097 108.2,9.67846097 108.2,9.47846097 L107.7,6.77846097 L109.7,4.87846097 C109.8,4.77846097 109.8,4.77846097 109.8,4.67846097 C109.8,4.47846097 109.7,4.27846097 109.5,4.27846097 Z" id="Path" fill="#F6C244"></path>
                <path d="M124.8,4.27846097 L122,3.87846097 L120.8,1.37846097 C120.8,1.27846097 120.7,1.27846097 120.6,1.17846097 C120.4,1.07846097 120.2,1.17846097 120.1,1.37846097 L118.9,3.87846097 L116.1,4.27846097 C116,4.27846097 116,4.27846097 115.9,4.37846097 C115.8,4.47846097 115.8,4.57846097 115.8,4.57846097 C115.8,4.67846097 115.8,4.77846097 115.9,4.77846097 L117.9,6.67846097 L117.4,9.37846097 C117.4,9.47846097 117.4,9.47846097 117.4,9.57846097 C117.4,9.67846097 117.5,9.67846097 117.5,9.77846097 C117.6,9.77846097 117.6,9.87846097 117.7,9.87846097 C117.8,9.87846097 117.8,9.87846097 117.9,9.87846097 L120.4,8.57846097 L122.9,9.87846097 C123,9.87846097 123,9.87846097 123.1,9.87846097 C123.3,9.87846097 123.4,9.67846097 123.4,9.47846097 L122.9,6.77846097 L124.9,4.87846097 C125,4.77846097 125,4.77846097 125,4.67846097 C125.1,4.47846097 125,4.27846097 124.8,4.27846097 Z" id="Path" fill="#F6C244"></path>
                <path d="M140.1,4.27846097 L137.3,3.87846097 L136.1,1.37846097 C136.1,1.27846097 136,1.27846097 135.9,1.17846097 C135.7,1.07846097 135.5,1.17846097 135.4,1.37846097 L134.2,3.87846097 L131.4,4.27846097 C131.3,4.27846097 131.3,4.27846097 131.2,4.37846097 C131.1,4.47846097 131.1,4.57846097 131.1,4.57846097 C131.1,4.67846097 131.1,4.77846097 131.2,4.77846097 L133.2,6.67846097 L132.7,9.37846097 C132.7,9.47846097 132.7,9.47846097 132.7,9.57846097 C132.7,9.67846097 132.8,9.67846097 132.8,9.77846097 C132.9,9.77846097 132.9,9.87846097 133,9.87846097 C133.1,9.87846097 133.1,9.87846097 133.2,9.87846097 L135.7,8.57846097 L138.2,9.87846097 C138.3,9.87846097 138.3,9.87846097 138.4,9.87846097 C138.6,9.87846097 138.7,9.67846097 138.7,9.47846097 L138.2,6.77846097 L140.2,4.87846097 C140.3,4.77846097 140.3,4.77846097 140.3,4.67846097 C140.4,4.47846097 140.3,4.27846097 140.1,4.27846097 Z" id="Path" fill="#F6C244"></path>
                <path d="M155.4,4.27846097 L152.6,3.87846097 L151.4,1.37846097 C151.4,1.27846097 151.3,1.27846097 151.2,1.17846097 C151,1.07846097 150.8,1.17846097 150.7,1.37846097 L149.5,3.87846097 L146.7,4.27846097 C146.6,4.27846097 146.6,4.27846097 146.5,4.37846097 C146.4,4.47846097 146.4,4.57846097 146.4,4.57846097 C146.4,4.67846097 146.4,4.77846097 146.5,4.77846097 L148.5,6.67846097 L148,9.37846097 C148,9.47846097 148,9.47846097 148,9.57846097 C148,9.67846097 148.1,9.67846097 148.1,9.77846097 C148.2,9.77846097 148.2,9.87846097 148.3,9.87846097 C148.4,9.87846097 148.4,9.87846097 148.5,9.87846097 L151,8.57846097 L153.5,9.87846097 C153.6,9.87846097 153.6,9.87846097 153.7,9.87846097 C153.9,9.87846097 154,9.67846097 154,9.47846097 L153.5,6.77846097 L155.5,4.87846097 C155.6,4.77846097 155.6,4.77846097 155.6,4.67846097 C155.7,4.47846097 155.6,4.27846097 155.4,4.27846097 Z" id="Path" fill="#F6C244"></path>
                <path d="M28.5,58.778461 C27.1,58.378461 25.7,57.978461 24.4,57.378461 C24.4,57.378461 24.4,57.278461 24.3,57.278461 C24.3,57.278461 24.3,57.278461 24.3,57.278461 C24.2,54.978461 22.4,52.578461 20.8,51.078461 C20.6,50.878461 20.1,50.978461 20.2,51.378461 C20.4,53.278461 21.2,55.078461 22.5,56.478461 C20.3,55.278461 18.4,53.678461 16.6,51.878461 C16.6,51.778461 16.6,51.678461 16.6,51.678461 C16.6,50.178461 16.4,48.578461 15.9,47.178461 C15.5,46.078461 15,44.778461 14,44.178461 C13.8,44.078461 13.5,44.178461 13.5,44.478461 C13.5,46.278461 13.9,48.078461 14.7,49.778461 C14.4,49.378461 14.1,49.078461 13.8,48.678461 C12,46.278461 10.4,43.678461 9,40.978461 C9,40.978461 9,40.878461 9,40.878461 C9,40.778461 9,40.778461 9,40.678461 C9.1,40.678461 9.1,40.578461 9.2,40.578461 C10.9,38.078461 10.6,34.378461 9.9,31.678461 C9.7,31.278461 9.3,31.278461 9.1,31.478461 C7.6,33.778461 7.6,36.278461 8.1,38.778461 C7.2,36.678461 6.5,34.478461 6.1,32.278461 C5.9,31.378461 5.8,30.378461 5.7,29.478461 C5.8,29.478461 5.8,29.478461 5.9,29.478461 C8.4,27.978461 9.7,24.678461 10.1,21.978461 C10.1,21.578461 9.8,21.378461 9.5,21.578461 C7.7,23.278461 6.4,25.178461 5.6,27.378461 C5.6,23.878461 6.5,20.478461 7.8,17.278461 C7.9,17.278461 7.9,17.378461 8,17.378461 C10.9,17.278461 13.6,14.678461 15.1,12.378461 C15.3,12.078461 15,11.678461 14.7,11.778461 C12.6,12.478461 10.7,13.478461 9,14.878461 C10.6,11.878461 12.6,9.07846097 14.8,6.47846097 C14.8,6.47846097 14.8,6.47846097 14.8,6.47846097 C16.2,5.77846097 17.9,5.17846097 19,4.07846097 C20,3.07846097 20.5,1.77846097 21,0.478460969 C21.2,0.0784609691 20.7,-0.121539031 20.4,0.0784609691 C20.4,0.0784609691 20.3,0.0784609691 20.3,0.0784609691 C19,0.178460969 17.9,0.678460969 16.9,1.67846097 C15.9,2.67846097 15.4,4.07846097 14.6,5.27846097 C12.9,7.17846097 11.3,9.17846097 9.9,11.378461 C10.3,8.27846097 10.8,4.97846097 10,1.87846097 C9.9,1.47846097 9.5,1.47846097 9.3,1.77846097 C7.1,4.97846097 6.8,9.37846097 9.2,12.578461 C7.7,15.178461 6.5,17.878461 5.8,20.778461 C5.7,19.578461 5.6,18.378461 5.5,17.178461 C5.4,16.378461 5.6,14.778461 4.9,14.278461 C4.8,14.178461 4.6,14.078461 4.4,14.178461 C1.8,15.778461 2.9,21.778461 5.2,23.178461 C5.2,23.178461 5.2,23.178461 5.3,23.178461 C4.9,25.378461 4.8,27.578461 5,29.778461 C5,29.778461 5,29.778461 5,29.778461 C5,29.778461 5,29.878461 5,29.878461 C5.1,30.678461 5.2,31.478461 5.3,32.178461 C5.4,32.678461 5.5,33.278461 5.7,33.778461 C5.1,32.778461 4.3,31.778461 3.6,30.878461 C2.8,29.878461 1.8,28.978461 0.5,28.678461 C0.2,28.578461 -5.32907052e-15,28.878461 -5.32907052e-15,29.178461 C0.6,32.178461 2.9,34.778461 5.9,35.678461 C6,35.678461 6,35.678461 6.1,35.678461 C7,38.678461 8.4,41.578461 10,44.278461 C9.4,43.778461 8.7,43.278461 7.9,42.878461 C6.9,42.278461 5.5,41.478461 4.4,41.878461 C4.2,41.978461 4.1,42.178461 4.1,42.378461 C5.1,45.378461 8.2,47.378461 11.3,46.578461 L11.3,46.578461 C11.3,46.578461 11.3,46.578461 11.3,46.578461 C12,47.578461 12.7,48.578461 13.5,49.578461 C14.7,51.078461 16,52.578461 17.5,53.878461 C15.7,52.978461 13.3,52.778461 11.4,52.878461 C11.1,52.878461 10.9,53.278461 11.1,53.578461 C13.2,55.678461 16.4,56.478461 19.2,55.378461 C19.2,55.378461 19.3,55.378461 19.3,55.378461 C22,57.378461 25,58.878461 28.3,59.378461 C28.7,59.178461 28.8,58.878461 28.5,58.778461 Z" id="Path" fill="#317AF3"></path>
                <path d="M190.9,58.778461 C192.3,58.378461 193.7,57.978461 195,57.378461 C195,57.378461 195,57.278461 195.1,57.278461 C195.1,57.278461 195.1,57.278461 195.1,57.278461 C195.2,54.978461 197,52.578461 198.6,51.078461 C198.8,50.878461 199.3,50.978461 199.2,51.378461 C199,53.278461 198.2,55.078461 196.9,56.478461 C199.1,55.278461 201,53.678461 202.8,51.878461 C202.8,51.778461 202.7,51.778461 202.7,51.678461 C202.7,50.178461 202.9,48.578461 203.4,47.178461 C203.8,46.078461 204.3,44.778461 205.3,44.178461 C205.5,44.078461 205.8,44.178461 205.8,44.478461 C205.8,46.278461 205.4,48.078461 204.6,49.778461 C204.9,49.378461 205.2,49.078461 205.5,48.678461 C207.3,46.278461 208.9,43.678461 210.3,40.978461 C210.3,40.978461 210.3,40.878461 210.3,40.878461 C210.3,40.778461 210.3,40.778461 210.3,40.678461 C210.2,40.678461 210.2,40.578461 210.1,40.578461 C208.4,38.078461 208.7,34.378461 209.5,31.678461 C209.6,31.378461 210,31.378461 210.2,31.578461 C211.7,33.778461 211.8,36.378461 211.3,38.878461 C212.2,36.778461 212.9,34.578461 213.3,32.378461 C213.5,31.478461 213.6,30.478461 213.7,29.578461 C213.6,29.578461 213.6,29.578461 213.5,29.578461 C211,28.078461 209.7,24.778461 209.3,22.078461 C209.2,21.678461 209.6,21.478461 209.9,21.678461 C211.6,23.278461 213,25.278461 213.7,27.478461 C213.7,23.978461 212.8,20.578461 211.5,17.378461 C211.4,17.378461 211.4,17.478461 211.3,17.478461 C208.4,17.378461 205.7,14.778461 204.2,12.478461 C204,12.178461 204.3,11.778461 204.6,11.878461 C206.7,12.578461 208.6,13.578461 210.3,14.978461 C208.7,11.978461 206.7,9.17846097 204.5,6.57846097 C204.5,6.57846097 204.5,6.57846097 204.5,6.57846097 C203.1,5.87846097 201.4,5.27846097 200.3,4.17846097 C199.3,3.17846097 198.8,1.87846097 198.3,0.578460969 C198.1,0.178460969 198.6,-0.0215390309 198.9,0.178460969 C198.9,0.178460969 199,0.178460969 199,0.178460969 C200.3,0.278460969 201.4,0.778460969 202.4,1.77846097 C203.4,2.77846097 203.9,4.17846097 204.7,5.37846097 C206.4,7.27846097 208,9.27846097 209.4,11.478461 C209,8.37846097 208.5,5.07846097 209.3,1.97846097 C209.4,1.57846097 209.8,1.57846097 210,1.87846097 C212.2,5.07846097 212.5,9.47846097 210.1,12.678461 C211.6,15.278461 212.8,17.978461 213.5,20.878461 C213.6,19.678461 213.7,18.478461 213.8,17.278461 C213.9,16.478461 213.7,14.878461 214.4,14.378461 C214.5,14.278461 214.7,14.178461 214.9,14.278461 C217.5,15.878461 216.4,21.878461 214.1,23.278461 C214.1,23.278461 214.1,23.278461 214,23.278461 C214.4,25.478461 214.5,27.678461 214.3,29.878461 C214.3,29.878461 214.3,29.878461 214.3,29.878461 C214.3,29.878461 214.3,29.978461 214.3,29.978461 C214.2,30.778461 214.1,31.578461 214,32.278461 C213.9,32.778461 213.8,33.378461 213.6,33.878461 C214.2,32.878461 215,31.878461 215.7,30.978461 C216.5,29.978461 217.5,29.078461 218.8,28.778461 C219.1,28.678461 219.3,28.978461 219.3,29.278461 C218.7,32.278461 216.4,34.878461 213.4,35.778461 C213.3,35.778461 213.3,35.778461 213.2,35.778461 C212.3,38.778461 210.9,41.678461 209.3,44.378461 C210,43.878461 210.6,43.378461 211.4,42.978461 C212.4,42.378461 213.8,41.578461 214.9,41.978461 C215.1,42.078461 215.2,42.278461 215.2,42.478461 C214.2,45.478461 211.1,47.478461 208,46.678461 L208,46.678461 C208,46.678461 208,46.678461 208,46.678461 C207.3,47.678461 206.6,48.678461 205.8,49.678461 C204.6,51.178461 203.3,52.678461 201.8,53.978461 C203.6,53.078461 206,52.878461 207.9,52.978461 C208.2,52.978461 208.4,53.378461 208.2,53.678461 C206.1,55.778461 202.9,56.578461 200.1,55.478461 C200.1,55.478461 200,55.478461 200,55.478461 C197.3,57.478461 194.3,58.978461 191,59.478461 C190.7,59.178461 190.6,58.878461 190.9,58.778461 Z" id="Path" fill="#317AF3"></path>
                <g id="4.8" transform="translate(64.680564, 2.196141)" fill="#317AF3">
                    <path d="M3.5223256,7.80262 L3.5223256,6.3981484 L0,6.3981484 L0,5.2166088 L3.3885664,0.1783456 L4.9713836,0.1783456 L4.9713836,5.0382632 L5.9299912,5.0382632 L5.9299912,6.3981484 L4.9713836,6.3981484 L4.9713836,7.80262 L3.5223256,7.80262 Z M3.5223256,2.3519326 L3.4331528,2.3519326 L1.616257,5.0382632 L3.5223256,5.0382632 L3.5223256,2.3519326 Z" id="Shape"></path>
                    <path d="M7.9252326,7.8694996 C7.6577142,7.8694996 7.4292089,7.7747535 7.2397167,7.5852613 C7.0502245,7.3957691 6.9554784,7.1672638 6.9554784,6.8997454 C6.9554784,6.632227 7.0502245,6.40557947 7.2397167,6.2198028 C7.4292089,6.03402613 7.6577142,5.9411378 7.9252326,5.9411378 C8.192751,5.9411378 8.41939853,6.03402613 8.6051752,6.2198028 C8.79095187,6.40557947 8.8838402,6.632227 8.8838402,6.8997454 C8.8838402,7.1672638 8.79095187,7.3957691 8.6051752,7.5852613 C8.41939853,7.7747535 8.192751,7.8694996 7.9252326,7.8694996 Z" id="Path"></path>
                    <path d="M12.6290978,7.9809656 C12.2203891,7.9809656 11.846978,7.92151707 11.5088645,7.80262 C11.170751,7.68372293 10.8790816,7.52209723 10.6338564,7.3177429 C10.3886312,7.11338857 10.199139,6.8718789 10.0653798,6.5932139 C9.9316206,6.3145489 9.864741,6.01173293 9.864741,5.684766 C9.864741,5.461834 9.89632303,5.25376413 9.9594871,5.0605564 C10.0226512,4.86734867 10.1081084,4.6927186 10.2158589,4.5366662 C10.3236094,4.3806138 10.4480797,4.24313907 10.58927,4.124242 C10.7304603,4.00534493 10.8790816,3.90502553 11.035134,3.8232838 L11.035134,3.734111 C10.7899088,3.57062753 10.5762656,3.3551266 10.3942045,3.0876082 C10.2121434,2.8200898 10.1211128,2.507985 10.1211128,2.1512938 C10.1211128,1.84662007 10.1842769,1.56238177 10.310605,1.2985789 C10.4369331,1.03477603 10.6115632,0.806270733 10.8344952,0.613063 C11.0574272,0.419855267 11.3212301,0.269376167 11.6259038,0.1616257 C11.9305775,0.0538752333 12.2649755,0 12.6290978,0 C12.9932201,0 13.3276181,0.0538752333 13.6322918,0.1616257 C13.9369655,0.269376167 14.2007684,0.419855267 14.4237004,0.613063 C14.6466324,0.806270733 14.8212625,1.03477603 14.9475906,1.2985789 C15.0739187,1.56238177 15.1370828,1.84662007 15.1370828,2.1512938 C15.1370828,2.507985 15.0460522,2.8200898 14.8639911,3.0876082 C14.68193,3.3551266 14.4682868,3.57062753 14.2230616,3.734111 L14.2230616,3.8232838 C14.379114,3.90502553 14.5277353,4.00534493 14.6689256,4.124242 C14.8101159,4.24313907 14.9345862,4.3806138 15.0423367,4.5366662 C15.1500872,4.6927186 15.2355444,4.86734867 15.2987085,5.0605564 C15.3618726,5.25376413 15.3934546,5.461834 15.3934546,5.684766 C15.3934546,6.01173293 15.326575,6.3145489 15.1928158,6.5932139 C15.0590566,6.8718789 14.8695644,7.11338857 14.6243392,7.3177429 C14.379114,7.52209723 14.0874446,7.68372293 13.7493311,7.80262 C13.4112176,7.92151707 13.0378065,7.9809656 12.6290978,7.9809656 Z M12.6290978,3.1879276 C12.9412026,3.1879276 13.2012899,3.10061257 13.4093598,2.9259825 C13.6174297,2.75135243 13.7214646,2.52284713 13.7214646,2.2404666 C13.7214646,1.950655 13.6174297,1.7221497 13.4093598,1.5549507 C13.2012899,1.3877517 12.9412026,1.3041522 12.6290978,1.3041522 C12.316993,1.3041522 12.0569057,1.3877517 11.8488358,1.5549507 C11.6407659,1.7221497 11.536731,1.950655 11.536731,2.2404666 C11.536731,2.52284713 11.6407659,2.75135243 11.8488358,2.9259825 C12.0569057,3.10061257 12.316993,3.1879276 12.6290978,3.1879276 Z M12.6290978,6.632227 C13.0080822,6.632227 13.320187,6.53376537 13.5654122,6.3368421 C13.8106374,6.13991883 13.93325,5.8742582 13.93325,5.5398602 C13.93325,5.3838078 13.8998102,5.24075977 13.8329306,5.1107161 C13.766051,4.98067243 13.6750204,4.86734867 13.5598389,4.7707448 C13.4446574,4.67414093 13.3071826,4.59983027 13.1474147,4.5478128 C12.9876468,4.49579533 12.8148745,4.4697866 12.6290978,4.4697866 C12.4433211,4.4697866 12.2705488,4.49579533 12.1107809,4.5478128 C11.951013,4.59983027 11.8135382,4.67414093 11.6983567,4.7707448 C11.5831752,4.86734867 11.4921446,4.98067243 11.425265,5.1107161 C11.3583854,5.24075977 11.3249456,5.3838078 11.3249456,5.5398602 C11.3249456,5.8742582 11.4475582,6.13991883 11.6927834,6.3368421 C11.9380086,6.53376537 12.2501134,6.632227 12.6290978,6.632227 Z" id="Shape"></path>
                </g>
                <g id="from-4-million-users" transform="translate(72.561700, 13.113861)" fill="#317AF3">
                    <path d="M2.192,0.04 C2.34133333,0.04 2.48,0.0533333333 2.608,0.08 C2.736,0.106666667 2.85066667,0.141333333 2.952,0.184 L2.656,1.12 C2.60266667,1.09333333 2.54533333,1.072 2.484,1.056 C2.42266667,1.04 2.34666667,1.032 2.256,1.032 C2.10133333,1.032 1.97866667,1.08133333 1.888,1.18 C1.79733333,1.27866667 1.752,1.416 1.752,1.592 L1.752,1.912 L2.728,1.912 L2.728,2.808 L1.752,2.808 L1.752,5.832 L0.704,5.832 L0.704,2.808 L1.42108547e-14,2.808 L1.42108547e-14,1.912 L0.704,1.912 L0.704,1.528 C0.704,1.288 0.74,1.076 0.812,0.892 C0.884,0.708 0.986666667,0.553333333 1.12,0.428 C1.25333333,0.302666667 1.41066667,0.206666667 1.592,0.14 C1.77333333,0.0733333333 1.97333333,0.04 2.192,0.04 Z" id="Path"></path>
                    <path d="M3.432,1.912 L4.416,1.912 L4.416,2.456 L4.48,2.456 C4.528,2.36 4.592,2.272 4.672,2.192 C4.752,2.112 4.84133333,2.04266667 4.94,1.984 C5.03866667,1.92533333 5.14533333,1.88 5.26,1.848 C5.37466667,1.816 5.488,1.8 5.6,1.8 C5.73866667,1.8 5.85733333,1.81333333 5.956,1.84 C6.05466667,1.86666667 6.13866667,1.90133333 6.208,1.944 L5.928,2.896 C5.864,2.864 5.79333333,2.83866667 5.716,2.82 C5.63866667,2.80133333 5.544,2.792 5.432,2.792 C5.288,2.792 5.15733333,2.82 5.04,2.876 C4.92266667,2.932 4.82266667,3.01066667 4.74,3.112 C4.65733333,3.21333333 4.59333333,3.332 4.548,3.468 C4.50266667,3.604 4.48,3.752 4.48,3.912 L4.48,5.832 L3.432,5.832 L3.432,1.912 Z" id="Path"></path>
                    <path d="M8.304,1.784 C8.608,1.784 8.88666667,1.836 9.14,1.94 C9.39333333,2.044 9.612,2.188 9.796,2.372 C9.98,2.556 10.124,2.776 10.228,3.032 C10.332,3.288 10.384,3.568 10.384,3.872 C10.384,4.176 10.332,4.456 10.228,4.712 C10.124,4.968 9.98,5.188 9.796,5.372 C9.612,5.556 9.39333333,5.7 9.14,5.804 C8.88666667,5.908 8.608,5.96 8.304,5.96 C8,5.96 7.72133333,5.908 7.468,5.804 C7.21466667,5.7 6.996,5.556 6.812,5.372 C6.628,5.188 6.484,4.968 6.38,4.712 C6.276,4.456 6.224,4.176 6.224,3.872 C6.224,3.568 6.276,3.288 6.38,3.032 C6.484,2.776 6.628,2.556 6.812,2.372 C6.996,2.188 7.21466667,2.044 7.468,1.94 C7.72133333,1.836 8,1.784 8.304,1.784 Z M8.304,4.992 C8.43733333,4.992 8.56666667,4.96666667 8.692,4.916 C8.81733333,4.86533333 8.928,4.792 9.024,4.696 C9.12,4.6 9.196,4.48266667 9.252,4.344 C9.308,4.20533333 9.336,4.048 9.336,3.872 C9.336,3.696 9.308,3.53866667 9.252,3.4 C9.196,3.26133333 9.12,3.144 9.024,3.048 C8.928,2.952 8.81733333,2.87866667 8.692,2.828 C8.56666667,2.77733333 8.43733333,2.752 8.304,2.752 C8.16533333,2.752 8.03466667,2.77733333 7.912,2.828 C7.78933333,2.87866667 7.68,2.952 7.584,3.048 C7.488,3.144 7.412,3.26133333 7.356,3.4 C7.3,3.53866667 7.272,3.696 7.272,3.872 C7.272,4.048 7.3,4.20533333 7.356,4.344 C7.412,4.48266667 7.488,4.6 7.584,4.696 C7.68,4.792 7.78933333,4.86533333 7.912,4.916 C8.03466667,4.96666667 8.16533333,4.992 8.304,4.992 Z" id="Shape"></path>
                    <path d="M10.976,1.912 L11.96,1.912 L11.96,2.424 L12.024,2.424 C12.1466667,2.232 12.3133333,2.07733333 12.524,1.96 C12.7346667,1.84266667 12.968,1.784 13.224,1.784 C13.5226667,1.784 13.7733333,1.85333333 13.976,1.992 C14.1786667,2.13066667 14.3226667,2.30133333 14.408,2.504 C14.5306667,2.30666667 14.704,2.13733333 14.928,1.996 C15.152,1.85466667 15.424,1.784 15.744,1.784 C15.984,1.784 16.192,1.82266667 16.368,1.9 C16.544,1.97733333 16.6893333,2.08533333 16.804,2.224 C16.9186667,2.36266667 17.0053333,2.52933333 17.064,2.724 C17.1226667,2.91866667 17.152,3.13066667 17.152,3.36 L17.152,5.832 L16.104,5.832 L16.104,3.552 C16.104,3.01866667 15.8853333,2.752 15.448,2.752 C15.3093333,2.752 15.1866667,2.78266667 15.08,2.844 C14.9733333,2.90533333 14.884,2.988 14.812,3.092 C14.74,3.196 14.684,3.32 14.644,3.464 C14.604,3.608 14.584,3.76266667 14.584,3.928 L14.584,5.832 L13.536,5.832 L13.536,3.552 C13.536,3.01866667 13.3066667,2.752 12.848,2.752 C12.7146667,2.752 12.5973333,2.78266667 12.496,2.844 C12.3946667,2.90533333 12.3093333,2.988 12.24,3.092 C12.1706667,3.196 12.1173333,3.32 12.08,3.464 C12.0426667,3.608 12.024,3.76266667 12.024,3.928 L12.024,5.832 L10.976,5.832 L10.976,1.912 Z" id="Path"></path>
                    <path d="M22.176,5.832 L22.176,4.824 L19.648,4.824 L19.648,3.976 L22.08,0.36 L23.216,0.36 L23.216,3.848 L23.904,3.848 L23.904,4.824 L23.216,4.824 L23.216,5.832 L22.176,5.832 Z M22.176,1.92 L22.112,1.92 L20.808,3.848 L22.176,3.848 L22.176,1.92 Z" id="Shape"></path>
                    <path d="M26.464,1.912 L27.448,1.912 L27.448,2.424 L27.512,2.424 C27.6346667,2.232 27.8013333,2.07733333 28.012,1.96 C28.2226667,1.84266667 28.456,1.784 28.712,1.784 C29.0106667,1.784 29.2613333,1.85333333 29.464,1.992 C29.6666667,2.13066667 29.8106667,2.30133333 29.896,2.504 C30.0186667,2.30666667 30.192,2.13733333 30.416,1.996 C30.64,1.85466667 30.912,1.784 31.232,1.784 C31.472,1.784 31.68,1.82266667 31.856,1.9 C32.032,1.97733333 32.1773333,2.08533333 32.292,2.224 C32.4066667,2.36266667 32.4933333,2.52933333 32.552,2.724 C32.6106667,2.91866667 32.64,3.13066667 32.64,3.36 L32.64,5.832 L31.592,5.832 L31.592,3.552 C31.592,3.01866667 31.3733333,2.752 30.936,2.752 C30.7973333,2.752 30.6746667,2.78266667 30.568,2.844 C30.4613333,2.90533333 30.372,2.988 30.3,3.092 C30.228,3.196 30.172,3.32 30.132,3.464 C30.092,3.608 30.072,3.76266667 30.072,3.928 L30.072,5.832 L29.024,5.832 L29.024,3.552 C29.024,3.01866667 28.7946667,2.752 28.336,2.752 C28.2026667,2.752 28.0853333,2.78266667 27.984,2.844 C27.8826667,2.90533333 27.7973333,2.988 27.728,3.092 C27.6586667,3.196 27.6053333,3.32 27.568,3.464 C27.5306667,3.608 27.512,3.76266667 27.512,3.928 L27.512,5.832 L26.464,5.832 L26.464,1.912 Z" id="Path"></path>
                    <path d="M34.088,1.344 C33.9973333,1.344 33.9106667,1.32666667 33.828,1.292 C33.7453333,1.25733333 33.6733333,1.20933333 33.612,1.148 C33.5506667,1.08666667 33.5026667,1.016 33.468,0.936 C33.4333333,0.856 33.416,0.768 33.416,0.672 C33.416,0.576 33.4333333,0.488 33.468,0.408 C33.5026667,0.328 33.5506667,0.257333333 33.612,0.196 C33.6733333,0.134666667 33.7453333,0.0866666667 33.828,0.052 C33.9106667,0.0173333333 33.9973333,0 34.088,0 C34.2746667,0 34.4346667,0.0653333333 34.568,0.196 C34.7013333,0.326666667 34.768,0.485333333 34.768,0.672 C34.768,0.858666667 34.7013333,1.01733333 34.568,1.148 C34.4346667,1.27866667 34.2746667,1.344 34.088,1.344 Z M33.568,5.832 L33.568,1.912 L34.616,1.912 L34.616,5.832 L33.568,5.832 Z" id="Shape"></path>
                    <polygon id="Path" points="35.576 5.832 35.576 0.104 36.624 0.104 36.624 5.832"></polygon>
                    <polygon id="Path" points="37.52 5.832 37.52 0.104 38.568 0.104 38.568 5.832"></polygon>
                    <path d="M40.048,1.344 C39.9573333,1.344 39.8706667,1.32666667 39.788,1.292 C39.7053333,1.25733333 39.6333333,1.20933333 39.572,1.148 C39.5106667,1.08666667 39.4626667,1.016 39.428,0.936 C39.3933333,0.856 39.376,0.768 39.376,0.672 C39.376,0.576 39.3933333,0.488 39.428,0.408 C39.4626667,0.328 39.5106667,0.257333333 39.572,0.196 C39.6333333,0.134666667 39.7053333,0.0866666667 39.788,0.052 C39.8706667,0.0173333333 39.9573333,0 40.048,0 C40.2346667,0 40.3946667,0.0653333333 40.528,0.196 C40.6613333,0.326666667 40.728,0.485333333 40.728,0.672 C40.728,0.858666667 40.6613333,1.01733333 40.528,1.148 C40.3946667,1.27866667 40.2346667,1.344 40.048,1.344 Z M39.528,5.832 L39.528,1.912 L40.576,1.912 L40.576,5.832 L39.528,5.832 Z" id="Shape"></path>
                    <path d="M43.352,1.784 C43.656,1.784 43.9346667,1.836 44.188,1.94 C44.4413333,2.044 44.66,2.188 44.844,2.372 C45.028,2.556 45.172,2.776 45.276,3.032 C45.38,3.288 45.432,3.568 45.432,3.872 C45.432,4.176 45.38,4.456 45.276,4.712 C45.172,4.968 45.028,5.188 44.844,5.372 C44.66,5.556 44.4413333,5.7 44.188,5.804 C43.9346667,5.908 43.656,5.96 43.352,5.96 C43.048,5.96 42.7693333,5.908 42.516,5.804 C42.2626667,5.7 42.044,5.556 41.86,5.372 C41.676,5.188 41.532,4.968 41.428,4.712 C41.324,4.456 41.272,4.176 41.272,3.872 C41.272,3.568 41.324,3.288 41.428,3.032 C41.532,2.776 41.676,2.556 41.86,2.372 C42.044,2.188 42.2626667,2.044 42.516,1.94 C42.7693333,1.836 43.048,1.784 43.352,1.784 Z M43.352,4.992 C43.4853333,4.992 43.6146667,4.96666667 43.74,4.916 C43.8653333,4.86533333 43.976,4.792 44.072,4.696 C44.168,4.6 44.244,4.48266667 44.3,4.344 C44.356,4.20533333 44.384,4.048 44.384,3.872 C44.384,3.696 44.356,3.53866667 44.3,3.4 C44.244,3.26133333 44.168,3.144 44.072,3.048 C43.976,2.952 43.8653333,2.87866667 43.74,2.828 C43.6146667,2.77733333 43.4853333,2.752 43.352,2.752 C43.2133333,2.752 43.0826667,2.77733333 42.96,2.828 C42.8373333,2.87866667 42.728,2.952 42.632,3.048 C42.536,3.144 42.46,3.26133333 42.404,3.4 C42.348,3.53866667 42.32,3.696 42.32,3.872 C42.32,4.048 42.348,4.20533333 42.404,4.344 C42.46,4.48266667 42.536,4.6 42.632,4.696 C42.728,4.792 42.8373333,4.86533333 42.96,4.916 C43.0826667,4.96666667 43.2133333,4.992 43.352,4.992 Z" id="Shape"></path>
                    <path d="M47.008,2.424 L47.072,2.424 C47.1946667,2.22666667 47.36,2.07066667 47.568,1.956 C47.776,1.84133333 48.0133333,1.784 48.28,1.784 C48.5253333,1.784 48.7413333,1.824 48.928,1.904 C49.1146667,1.984 49.268,2.09733333 49.388,2.244 C49.508,2.39066667 49.5986667,2.56666667 49.66,2.772 C49.7213333,2.97733333 49.752,3.20533333 49.752,3.456 L49.752,5.832 L48.704,5.832 L48.704,3.584 C48.704,3.30133333 48.6413333,3.092 48.516,2.956 C48.3906667,2.82 48.208,2.752 47.968,2.752 C47.824,2.752 47.6973333,2.78266667 47.588,2.844 C47.4786667,2.90533333 47.3853333,2.988 47.308,3.092 C47.2306667,3.196 47.172,3.31866667 47.132,3.46 C47.092,3.60133333 47.072,3.752 47.072,3.912 L47.072,5.832 L46.024,5.832 L46.024,1.912 L47.008,1.912 L47.008,2.424 Z" id="Path"></path>
                    <path d="M55.088,5.32 L55.024,5.32 C54.9013333,5.51733333 54.736,5.67333333 54.528,5.788 C54.32,5.90266667 54.0826667,5.96 53.816,5.96 C53.32,5.96 52.9506667,5.808 52.708,5.504 C52.4653333,5.2 52.344,4.79466667 52.344,4.288 L52.344,1.912 L53.392,1.912 L53.392,4.16 C53.392,4.44266667 53.4546667,4.652 53.58,4.788 C53.7053333,4.924 53.888,4.992 54.128,4.992 C54.272,4.992 54.3986667,4.96133333 54.508,4.9 C54.6173333,4.83866667 54.7106667,4.756 54.788,4.652 C54.8653333,4.548 54.924,4.42533333 54.964,4.284 C55.004,4.14266667 55.024,3.992 55.024,3.832 L55.024,1.912 L56.072,1.912 L56.072,5.832 L55.088,5.832 L55.088,5.32 Z" id="Path"></path>
                    <path d="M58.48,5.96 C58.224,5.96 57.996,5.928 57.796,5.864 C57.596,5.8 57.4226667,5.716 57.276,5.612 C57.1293333,5.508 57.0053333,5.388 56.904,5.252 C56.8026667,5.116 56.7253333,4.97866667 56.672,4.84 L57.608,4.44 C57.6986667,4.64266667 57.82,4.79333333 57.972,4.892 C58.124,4.99066667 58.2933333,5.04 58.48,5.04 C58.672,5.04 58.824,5.00533333 58.936,4.936 C59.048,4.86666667 59.104,4.784 59.104,4.688 C59.104,4.58133333 59.0573333,4.49466667 58.964,4.428 C58.8706667,4.36133333 58.7093333,4.30133333 58.48,4.248 L57.928,4.128 C57.8053333,4.10133333 57.6786667,4.05866667 57.548,4 C57.4173333,3.94133333 57.2986667,3.86666667 57.192,3.776 C57.0853333,3.68533333 56.9973333,3.576 56.928,3.448 C56.8586667,3.32 56.824,3.17066667 56.824,3 C56.824,2.808 56.8653333,2.63733333 56.948,2.488 C57.0306667,2.33866667 57.144,2.212 57.288,2.108 C57.432,2.004 57.6013333,1.924 57.796,1.868 C57.9906667,1.812 58.2,1.784 58.424,1.784 C58.7973333,1.784 59.1306667,1.85733333 59.424,2.004 C59.7173333,2.15066667 59.9333333,2.384 60.072,2.704 L59.168,3.072 C59.0933333,2.91733333 58.984,2.80533333 58.84,2.736 C58.696,2.66666667 58.552,2.632 58.408,2.632 C58.2586667,2.632 58.128,2.66266667 58.016,2.724 C57.904,2.78533333 57.848,2.864 57.848,2.96 C57.848,3.05066667 57.8946667,3.12266667 57.988,3.176 C58.0813333,3.22933333 58.208,3.27733333 58.368,3.32 L58.968,3.464 C59.368,3.56 59.6653333,3.71333333 59.86,3.924 C60.0546667,4.13466667 60.152,4.384 60.152,4.672 C60.152,4.84266667 60.112,5.00533333 60.032,5.16 C59.952,5.31466667 59.8386667,5.452 59.692,5.572 C59.5453333,5.692 59.3693333,5.78666667 59.164,5.856 C58.9586667,5.92533333 58.7306667,5.96 58.48,5.96 Z" id="Path"></path>
                    <path d="M64.544,4.888 C64.3626667,5.208 64.1186667,5.46666667 63.812,5.664 C63.5053333,5.86133333 63.1306667,5.96 62.688,5.96 C62.3893333,5.96 62.1133333,5.908 61.86,5.804 C61.6066667,5.7 61.3866667,5.55466667 61.2,5.368 C61.0133333,5.18133333 60.868,4.96133333 60.764,4.708 C60.66,4.45466667 60.608,4.176 60.608,3.872 C60.608,3.58933333 60.6586667,3.32133333 60.76,3.068 C60.8613333,2.81466667 61.0026667,2.59333333 61.184,2.404 C61.3653333,2.21466667 61.58,2.064 61.828,1.952 C62.076,1.84 62.3493333,1.784 62.648,1.784 C62.9626667,1.784 63.2426667,1.836 63.488,1.94 C63.7333333,2.044 63.9386667,2.188 64.104,2.372 C64.2693333,2.556 64.3946667,2.77333333 64.48,3.024 C64.5653333,3.27466667 64.608,3.54666667 64.608,3.84 C64.608,3.87733333 64.608,3.90933333 64.608,3.936 C64.6026667,3.968 64.6,3.99733333 64.6,4.024 C64.5946667,4.05066667 64.592,4.08 64.592,4.112 L61.64,4.112 C61.6613333,4.272 61.7053333,4.40933333 61.772,4.524 C61.8386667,4.63866667 61.9213333,4.73466667 62.02,4.812 C62.1186667,4.88933333 62.2266667,4.94533333 62.344,4.98 C62.4613333,5.01466667 62.5813333,5.032 62.704,5.032 C62.944,5.032 63.1426667,4.97733333 63.3,4.868 C63.4573333,4.75866667 63.5813333,4.62133333 63.672,4.456 L64.544,4.888 Z M63.592,3.368 C63.5866667,3.29866667 63.564,3.22133333 63.524,3.136 C63.484,3.05066667 63.4253333,2.97066667 63.348,2.896 C63.2706667,2.82133333 63.1746667,2.76 63.06,2.712 C62.9453333,2.664 62.808,2.64 62.648,2.64 C62.424,2.64 62.2266667,2.704 62.056,2.832 C61.8853333,2.96 61.7653333,3.13866667 61.696,3.368 L63.592,3.368 Z" id="Shape"></path>
                    <path d="M65.28,1.912 L66.264,1.912 L66.264,2.456 L66.328,2.456 C66.376,2.36 66.44,2.272 66.52,2.192 C66.6,2.112 66.6893333,2.04266667 66.788,1.984 C66.8866667,1.92533333 66.9933333,1.88 67.108,1.848 C67.2226667,1.816 67.336,1.8 67.448,1.8 C67.5866667,1.8 67.7053333,1.81333333 67.804,1.84 C67.9026667,1.86666667 67.9866667,1.90133333 68.056,1.944 L67.776,2.896 C67.712,2.864 67.6413333,2.83866667 67.564,2.82 C67.4866667,2.80133333 67.392,2.792 67.28,2.792 C67.136,2.792 67.0053333,2.82 66.888,2.876 C66.7706667,2.932 66.6706667,3.01066667 66.588,3.112 C66.5053333,3.21333333 66.4413333,3.332 66.396,3.468 C66.3506667,3.604 66.328,3.752 66.328,3.912 L66.328,5.832 L65.28,5.832 L65.28,1.912 Z" id="Path"></path>
                    <path d="M69.928,5.96 C69.672,5.96 69.444,5.928 69.244,5.864 C69.044,5.8 68.8706667,5.716 68.724,5.612 C68.5773333,5.508 68.4533333,5.388 68.352,5.252 C68.2506667,5.116 68.1733333,4.97866667 68.12,4.84 L69.056,4.44 C69.1466667,4.64266667 69.268,4.79333333 69.42,4.892 C69.572,4.99066667 69.7413333,5.04 69.928,5.04 C70.12,5.04 70.272,5.00533333 70.384,4.936 C70.496,4.86666667 70.552,4.784 70.552,4.688 C70.552,4.58133333 70.5053333,4.49466667 70.412,4.428 C70.3186667,4.36133333 70.1573333,4.30133333 69.928,4.248 L69.376,4.128 C69.2533333,4.10133333 69.1266667,4.05866667 68.996,4 C68.8653333,3.94133333 68.7466667,3.86666667 68.64,3.776 C68.5333333,3.68533333 68.4453333,3.576 68.376,3.448 C68.3066667,3.32 68.272,3.17066667 68.272,3 C68.272,2.808 68.3133333,2.63733333 68.396,2.488 C68.4786667,2.33866667 68.592,2.212 68.736,2.108 C68.88,2.004 69.0493333,1.924 69.244,1.868 C69.4386667,1.812 69.648,1.784 69.872,1.784 C70.2453333,1.784 70.5786667,1.85733333 70.872,2.004 C71.1653333,2.15066667 71.3813333,2.384 71.52,2.704 L70.616,3.072 C70.5413333,2.91733333 70.432,2.80533333 70.288,2.736 C70.144,2.66666667 70,2.632 69.856,2.632 C69.7066667,2.632 69.576,2.66266667 69.464,2.724 C69.352,2.78533333 69.296,2.864 69.296,2.96 C69.296,3.05066667 69.3426667,3.12266667 69.436,3.176 C69.5293333,3.22933333 69.656,3.27733333 69.816,3.32 L70.416,3.464 C70.816,3.56 71.1133333,3.71333333 71.308,3.924 C71.5026667,4.13466667 71.6,4.384 71.6,4.672 C71.6,4.84266667 71.56,5.00533333 71.48,5.16 C71.4,5.31466667 71.2866667,5.452 71.14,5.572 C70.9933333,5.692 70.8173333,5.78666667 70.612,5.856 C70.4066667,5.92533333 70.1786667,5.96 69.928,5.96 Z" id="Path"></path>
                </g>
                <g id="Best-Rated-in-2022" transform="translate(39.399248, 27.833325)" fill="#317AF3">
                    <path d="M0,0.222092 L4.78352,0.222092 C5.30742933,0.222092 5.79717067,0.304664667 6.252744,0.46981 C6.70831733,0.634955333 7.10409667,0.862742 7.440082,1.15317 C7.77606733,1.443598 8.04086933,1.78243067 8.234488,2.169668 C8.42810667,2.55690533 8.524916,2.972616 8.524916,3.4168 C8.524916,4.065992 8.36831267,4.60983267 8.055106,5.048322 C7.74189933,5.48681133 7.35181467,5.81994933 6.884852,6.047736 L6.884852,6.184408 C7.51126533,6.41219467 8.01524333,6.76811133 8.396786,7.252158 C8.77832867,7.73620467 8.9691,8.336992 8.9691,9.05452 C8.9691,9.57842933 8.86374867,10.0482393 8.653046,10.46395 C8.44234333,10.8796607 8.15476267,11.2355773 7.790304,11.5317 C7.42584533,11.8278227 7.00159267,12.0556093 6.517546,12.21506 C6.03349933,12.3745107 5.51243733,12.454236 4.95436,12.454236 L0,12.454236 L0,0.222092 Z M4.61268,5.21062 C5.14797867,5.21062 5.560842,5.065406 5.85127,4.774978 C6.141698,4.48455 6.286912,4.14002267 6.286912,3.741396 C6.286912,3.34276933 6.14454533,3.00108933 5.859812,2.716356 C5.57507867,2.43162267 5.18214667,2.289256 4.681016,2.289256 L2.30634,2.289256 L2.30634,5.21062 L4.61268,5.21062 Z M4.86894,10.33582 C5.449796,10.33582 5.89398,10.190606 6.201492,9.900178 C6.509004,9.60975 6.66276,9.23674933 6.66276,8.781176 C6.66276,8.32560267 6.50615667,7.94690733 6.19295,7.64509 C5.87974333,7.34327267 5.415628,7.192364 4.800604,7.192364 L2.30634,7.192364 L2.30634,10.33582 L4.86894,10.33582 Z" id="Shape"></path>
                    <path d="M18.399468,10.438324 C18.0122307,11.121684 17.4911687,11.6740667 16.836282,12.095472 C16.1813953,12.5168773 15.3812947,12.72758 14.43598,12.72758 C13.7981773,12.72758 13.2087793,12.616534 12.667786,12.394442 C12.1267927,12.17235 11.6569827,11.8619907 11.258356,11.463364 C10.8597293,11.0647373 10.54937,10.5949273 10.327278,10.053934 C10.105186,9.51294067 9.99414,8.917848 9.99414,8.268656 C9.99414,7.66502133 10.1023387,7.09270733 10.318736,6.551714 C10.5351333,6.01072067 10.8369507,5.53806333 11.224188,5.133742 C11.6114253,4.72942067 12.069846,4.407672 12.59945,4.168496 C13.129054,3.92932 13.7127573,3.809732 14.35056,3.809732 C15.0225307,3.809732 15.6204707,3.920778 16.14438,4.14287 C16.6682893,4.364962 17.1067787,4.672474 17.459848,5.065406 C17.8129173,5.458338 18.0805667,5.92245333 18.262796,6.457752 C18.4450253,6.99305067 18.53614,7.57390667 18.53614,8.20032 C18.53614,8.28004533 18.53614,8.34838133 18.53614,8.405328 C18.5247507,8.473664 18.519056,8.53630533 18.519056,8.593252 C18.5076667,8.65019867 18.501972,8.71284 18.501972,8.781176 L12.197976,8.781176 C12.2435333,9.122856 12.3374953,9.41613133 12.479862,9.661002 C12.6222287,9.90587267 12.7987633,10.1108807 13.009466,10.276026 C13.2201687,10.4411713 13.4508027,10.5607593 13.701368,10.63479 C13.9519333,10.7088207 14.2081933,10.745836 14.470148,10.745836 C14.982668,10.745836 15.4069207,10.6290953 15.742906,10.395614 C16.0788913,10.1621327 16.3436933,9.86885733 16.537312,9.515788 L18.399468,10.438324 Z M16.366472,7.192364 C16.3550827,7.04430267 16.306678,6.87915733 16.221258,6.696928 C16.135838,6.51469867 16.0105553,6.34385867 15.84541,6.184408 C15.6802647,6.02495733 15.4752567,5.89398 15.230386,5.791476 C14.9855153,5.688972 14.69224,5.63772 14.35056,5.63772 C13.872208,5.63772 13.4508027,5.774392 13.086344,6.047736 C12.7218853,6.32108 12.4656253,6.70262267 12.317564,7.192364 L16.366472,7.192364 Z" id="Shape"></path>
                    <path d="M23.370912,12.72758 C22.824224,12.72758 22.33733,12.659244 21.91023,12.522572 C21.48313,12.3859 21.1129767,12.206518 20.79977,11.984426 C20.4865633,11.762334 20.2217613,11.506074 20.005364,11.215646 C19.7889667,10.925218 19.6238213,10.6319427 19.509928,10.33582 L21.508756,9.48162 C21.7023747,9.91441467 21.961482,10.2361633 22.286078,10.446866 C22.610674,10.6575687 22.9722853,10.76292 23.370912,10.76292 C23.780928,10.76292 24.105524,10.6888893 24.3447,10.540828 C24.583876,10.3927667 24.703464,10.216232 24.703464,10.011224 C24.703464,9.78343733 24.6038073,9.59836067 24.404494,9.455994 C24.2051807,9.31362733 23.8606533,9.18549733 23.370912,9.071604 L22.192116,8.815344 C21.9301613,8.75839733 21.6596647,8.66728267 21.380626,8.542 C21.1015873,8.41671733 20.8481747,8.25726667 20.620388,8.063648 C20.3926013,7.87002933 20.2046773,7.636548 20.056616,7.363204 C19.9085547,7.08986 19.834524,6.77095867 19.834524,6.4065 C19.834524,5.996484 19.9227913,5.63202533 20.099326,5.313124 C20.2758607,4.99422267 20.517884,4.723726 20.825396,4.501634 C21.132908,4.279542 21.4945193,4.108702 21.91023,3.989114 C22.3259407,3.869526 22.772972,3.809732 23.251324,3.809732 C24.0485773,3.809732 24.7604107,3.96633533 25.386824,4.279542 C26.0132373,4.59274867 26.4745053,5.091032 26.770628,5.774392 L24.840136,6.560256 C24.6806853,6.22996533 24.447204,5.99078933 24.139692,5.842728 C23.83218,5.69466667 23.524668,5.620636 23.217156,5.620636 C22.8982547,5.620636 22.619216,5.68612467 22.38004,5.817102 C22.140864,5.94807933 22.021276,6.116072 22.021276,6.32108 C22.021276,6.51469867 22.1209327,6.66845467 22.320246,6.782348 C22.5195593,6.89624133 22.790056,6.99874533 23.131736,7.08986 L24.413036,7.397372 C25.267236,7.60238 25.9021913,7.92982333 26.317902,8.379702 C26.7336127,8.82958067 26.941468,9.362032 26.941468,9.977056 C26.941468,10.3415147 26.856048,10.6888893 26.685208,11.01918 C26.514368,11.3494707 26.2723447,11.642746 25.959138,11.899006 C25.6459313,12.155266 25.2700833,12.3574267 24.831594,12.505488 C24.3931047,12.6535493 23.9062107,12.72758 23.370912,12.72758 Z" id="Path"></path>
                    <path d="M29.145304,5.996484 L27.67608,5.996484 L27.67608,4.083076 L29.145304,4.083076 L29.145304,1.520476 L31.383308,1.520476 L31.383308,4.083076 L33.433388,4.083076 L33.433388,5.996484 L31.383308,5.996484 L31.383308,9.242444 C31.383308,9.43606267 31.4032393,9.61544467 31.443102,9.78059 C31.4829647,9.94573533 31.5598427,10.0852547 31.673736,10.199148 C31.8331867,10.3813773 32.0609733,10.472492 32.357096,10.472492 C32.5507147,10.472492 32.7044707,10.4525607 32.818364,10.412698 C32.9322573,10.3728353 33.040456,10.318736 33.14296,10.2504 L33.775068,12.21506 C33.5131133,12.3403427 33.2312273,12.4343047 32.92941,12.496946 C32.6275927,12.5595873 32.2944547,12.590908 31.929996,12.590908 C31.5085907,12.590908 31.1298953,12.5254193 30.79391,12.394442 C30.4579247,12.2634647 30.1760387,12.0840827 29.948252,11.856296 C29.4129533,11.343776 29.145304,10.6148587 29.145304,9.669544 L29.145304,5.996484 Z" id="Path"></path>
                    <path d="M39.105276,0.222092 L43.5642,0.222092 C44.179224,0.222092 44.7373013,0.318901333 45.238432,0.51252 C45.7395627,0.706138667 46.16951,0.973788 46.528274,1.315468 C46.887038,1.657148 47.1632293,2.06431667 47.356848,2.536974 C47.5504667,3.00963133 47.647276,3.52499867 47.647276,4.083076 C47.647276,4.493092 47.57894,4.877482 47.442268,5.236246 C47.305596,5.59501 47.117672,5.919606 46.878496,6.210034 C46.63932,6.500462 46.3602813,6.756722 46.04138,6.978814 C45.7224787,7.200906 45.3864933,7.37459333 45.033424,7.499876 L45.01634,7.619464 L48.296468,12.317564 L48.296468,12.454236 L45.648448,12.454236 L42.487908,7.85864 L41.411616,7.85864 L41.411616,12.454236 L39.105276,12.454236 L39.105276,0.222092 Z M43.547116,5.740224 C44.0710253,5.740224 44.5009727,5.58077333 44.836958,5.261872 C45.1729433,4.94297067 45.340936,4.53864933 45.340936,4.048908 C45.340936,3.83251067 45.3039207,3.621808 45.22989,3.4168 C45.1558593,3.211792 45.0448133,3.02956267 44.896752,2.870112 C44.7486907,2.71066133 44.563614,2.58253133 44.341522,2.485722 C44.11943,2.38891267 43.8660173,2.340508 43.581284,2.340508 L41.411616,2.340508 L41.411616,5.740224 L43.547116,5.740224 Z" id="Shape"></path>
                    <path d="M54.49796,11.565868 L54.361288,11.565868 C54.0993333,11.8847693 53.7832793,12.1581133 53.413126,12.3859 C53.0429727,12.6136867 52.567468,12.72758 51.986612,12.72758 C51.5538173,12.72758 51.1466487,12.6563967 50.765106,12.51403 C50.3835633,12.3716633 50.0504253,12.1751973 49.765692,11.924632 C49.4809587,11.6740667 49.2588667,11.3722493 49.099416,11.01918 C48.9399653,10.6661107 48.86024,10.2788733 48.86024,9.857468 C48.86024,9.42467333 48.94566,9.03458867 49.1165,8.687214 C49.28734,8.33983933 49.526516,8.04086933 49.834028,7.790304 C50.14154,7.53973867 50.5031513,7.34896733 50.918862,7.21799 C51.3345727,7.08701267 51.7872987,7.021524 52.27704,7.021524 C52.823728,7.021524 53.2736067,7.064234 53.626676,7.149654 C53.9797453,7.235074 54.2701733,7.32334133 54.49796,7.414456 L54.49796,7.158196 C54.49796,6.714012 54.3214253,6.346706 53.968356,6.056278 C53.6152867,5.76585 53.1767973,5.620636 52.652888,5.620636 C51.8784133,5.620636 51.2235267,5.945232 50.688228,6.594424 L49.065248,5.483964 C49.953616,4.36780933 51.16658,3.809732 52.70414,3.809732 C54.002524,3.809732 54.993396,4.11439667 55.676756,4.723726 C56.360116,5.33305533 56.701796,6.23566 56.701796,7.43154 L56.701796,12.454236 L54.49796,12.454236 L54.49796,11.565868 Z M54.49796,9.05452 C54.2360053,8.92923733 53.9655087,8.82958067 53.68647,8.75555 C53.4074313,8.68151933 53.1027667,8.644504 52.772476,8.644504 C52.2371773,8.644504 51.824314,8.76124467 51.533886,8.994726 C51.243458,9.22820733 51.098244,9.515788 51.098244,9.857468 C51.098244,10.199148 51.2377633,10.472492 51.516802,10.6775 C51.7958407,10.882508 52.1175893,10.985012 52.482048,10.985012 C52.7781707,10.985012 53.0515147,10.9309127 53.30208,10.822714 C53.5526453,10.7145153 53.7661953,10.5721487 53.94273,10.395614 C54.1192647,10.2190793 54.2559367,10.0140713 54.352746,9.78059 C54.4495553,9.54710867 54.49796,9.30508533 54.49796,9.05452 Z" id="Shape"></path>
                    <path d="M59.230228,5.996484 L57.761004,5.996484 L57.761004,4.083076 L59.230228,4.083076 L59.230228,1.520476 L61.468232,1.520476 L61.468232,4.083076 L63.518312,4.083076 L63.518312,5.996484 L61.468232,5.996484 L61.468232,9.242444 C61.468232,9.43606267 61.4881633,9.61544467 61.528026,9.78059 C61.5678887,9.94573533 61.6447667,10.0852547 61.75866,10.199148 C61.9181107,10.3813773 62.1458973,10.472492 62.44202,10.472492 C62.6356387,10.472492 62.7893947,10.4525607 62.903288,10.412698 C63.0171813,10.3728353 63.12538,10.318736 63.227884,10.2504 L63.859992,12.21506 C63.5980373,12.3403427 63.3161513,12.4343047 63.014334,12.496946 C62.7125167,12.5595873 62.3793787,12.590908 62.01492,12.590908 C61.5935147,12.590908 61.2148193,12.5254193 60.878834,12.394442 C60.5428487,12.2634647 60.2609627,12.0840827 60.033176,11.856296 C59.4978773,11.343776 59.230228,10.6148587 59.230228,9.669544 L59.230228,5.996484 Z" id="Path"></path>
                    <path d="M72.999932,10.438324 C72.6126947,11.121684 72.0916327,11.6740667 71.436746,12.095472 C70.7818593,12.5168773 69.9817587,12.72758 69.036444,12.72758 C68.3986413,12.72758 67.8092433,12.616534 67.26825,12.394442 C66.7272567,12.17235 66.2574467,11.8619907 65.85882,11.463364 C65.4601933,11.0647373 65.149834,10.5949273 64.927742,10.053934 C64.70565,9.51294067 64.594604,8.917848 64.594604,8.268656 C64.594604,7.66502133 64.7028027,7.09270733 64.9192,6.551714 C65.1355973,6.01072067 65.4374147,5.53806333 65.824652,5.133742 C66.2118893,4.72942067 66.67031,4.407672 67.199914,4.168496 C67.729518,3.92932 68.3132213,3.809732 68.951024,3.809732 C69.6229947,3.809732 70.2209347,3.920778 70.744844,4.14287 C71.2687533,4.364962 71.7072427,4.672474 72.060312,5.065406 C72.4133813,5.458338 72.6810307,5.92245333 72.86326,6.457752 C73.0454893,6.99305067 73.136604,7.57390667 73.136604,8.20032 C73.136604,8.28004533 73.136604,8.34838133 73.136604,8.405328 C73.1252147,8.473664 73.11952,8.53630533 73.11952,8.593252 C73.1081307,8.65019867 73.102436,8.71284 73.102436,8.781176 L66.79844,8.781176 C66.8439973,9.122856 66.9379593,9.41613133 67.080326,9.661002 C67.2226927,9.90587267 67.3992273,10.1108807 67.60993,10.276026 C67.8206327,10.4411713 68.0512667,10.5607593 68.301832,10.63479 C68.5523973,10.7088207 68.8086573,10.745836 69.070612,10.745836 C69.583132,10.745836 70.0073847,10.6290953 70.34337,10.395614 C70.6793553,10.1621327 70.9441573,9.86885733 71.137776,9.515788 L72.999932,10.438324 Z M70.966936,7.192364 C70.9555467,7.04430267 70.907142,6.87915733 70.821722,6.696928 C70.736302,6.51469867 70.6110193,6.34385867 70.445874,6.184408 C70.2807287,6.02495733 70.0757207,5.89398 69.83085,5.791476 C69.5859793,5.688972 69.292704,5.63772 68.951024,5.63772 C68.472672,5.63772 68.0512667,5.774392 67.686808,6.047736 C67.3223493,6.32108 67.0660893,6.70262267 66.918028,7.192364 L70.966936,7.192364 Z" id="Shape"></path>
                    <path d="M80.89274,11.44628 L80.756068,11.44628 C80.55106,11.7993493 80.2321587,12.1011667 79.799364,12.351732 C79.3665693,12.6022973 78.8312707,12.72758 78.193468,12.72758 C77.6581693,12.72758 77.1484967,12.616534 76.66445,12.394442 C76.1804033,12.17235 75.7533033,11.864838 75.38315,11.471906 C75.0129967,11.078974 74.7197213,10.609164 74.503324,10.062476 C74.2869267,9.515788 74.178728,8.917848 74.178728,8.268656 C74.178728,7.619464 74.2869267,7.021524 74.503324,6.474836 C74.7197213,5.928148 75.0129967,5.458338 75.38315,5.065406 C75.7533033,4.672474 76.1804033,4.364962 76.66445,4.14287 C77.1484967,3.920778 77.6581693,3.809732 78.193468,3.809732 C78.8312707,3.809732 79.3665693,3.93501467 79.799364,4.18558 C80.2321587,4.43614533 80.55106,4.73796267 80.756068,5.091032 L80.89274,5.091032 L80.756068,3.895152 L80.756068,0.222092 L82.994072,0.222092 L82.994072,12.454236 L80.89274,12.454236 L80.89274,11.44628 Z M78.654736,10.660416 C78.9508587,10.660416 79.2327447,10.6063167 79.500394,10.498118 C79.7680433,10.3899193 80.004372,10.233316 80.20938,10.028308 C80.414388,9.8233 80.5795333,9.57273467 80.704816,9.276612 C80.8300987,8.98048933 80.89274,8.644504 80.89274,8.268656 C80.89274,7.892808 80.8300987,7.55682267 80.704816,7.2607 C80.5795333,6.96457733 80.414388,6.714012 80.20938,6.509004 C80.004372,6.303996 79.7680433,6.14739267 79.500394,6.039194 C79.2327447,5.93099533 78.9508587,5.876896 78.654736,5.876896 C78.3586133,5.876896 78.0767273,5.93384267 77.809078,6.047736 C77.5414287,6.16162933 77.3051,6.32108 77.100092,6.526088 C76.895084,6.731096 76.7299387,6.98166133 76.604656,7.277784 C76.4793733,7.57390667 76.416732,7.90419733 76.416732,8.268656 C76.416732,8.63311467 76.4793733,8.96340533 76.604656,9.259528 C76.7299387,9.55565067 76.895084,9.806216 77.100092,10.011224 C77.3051,10.216232 77.5414287,10.3756827 77.809078,10.489576 C78.0767273,10.6034693 78.3586133,10.660416 78.654736,10.660416 Z" id="Shape"></path>
                    <path d="M89.913092,2.870112 C89.7194733,2.870112 89.5343967,2.83309667 89.357862,2.759066 C89.1813273,2.68503533 89.0275713,2.58253133 88.896594,2.451554 C88.7656167,2.32057667 88.6631127,2.169668 88.589082,1.998828 C88.5150513,1.827988 88.478036,1.640064 88.478036,1.435056 C88.478036,1.230048 88.5150513,1.042124 88.589082,0.871284 C88.6631127,0.700444 88.7656167,0.549535333 88.896594,0.418558 C89.0275713,0.287580667 89.1813273,0.185076667 89.357862,0.111046 C89.5343967,0.0370153333 89.7194733,1.42108547e-14 89.913092,1.42108547e-14 C90.3117187,1.42108547e-14 90.6533987,0.139519333 90.938132,0.418558 C91.2228653,0.697596667 91.365232,1.03642933 91.365232,1.435056 C91.365232,1.83368267 91.2228653,2.17251533 90.938132,2.451554 C90.6533987,2.73059267 90.3117187,2.870112 89.913092,2.870112 Z M88.802632,12.454236 L88.802632,4.083076 L91.040636,4.083076 L91.040636,12.454236 L88.802632,12.454236 Z" id="Shape"></path>
                    <path d="M95.192048,5.176452 L95.32872,5.176452 C95.5906747,4.75504667 95.943744,4.42190867 96.387928,4.177038 C96.832112,3.93216733 97.3389373,3.809732 97.908404,3.809732 C98.4323133,3.809732 98.8935813,3.895152 99.292208,4.065992 C99.6908347,4.236832 100.018278,4.47885533 100.274538,4.792062 C100.530798,5.10526867 100.724417,5.48111667 100.855394,5.919606 C100.986371,6.35809533 101.05186,6.84498933 101.05186,7.380288 L101.05186,12.454236 L98.813856,12.454236 L98.813856,7.653632 C98.813856,7.04999733 98.6800313,6.602966 98.412382,6.312538 C98.1447327,6.02211 97.754648,5.876896 97.242128,5.876896 C96.934616,5.876896 96.6641193,5.94238467 96.430638,6.073362 C96.1971567,6.20433933 95.9978433,6.380874 95.832698,6.602966 C95.6675527,6.825058 95.54227,7.08701267 95.45685,7.38883 C95.37143,7.69064733 95.32872,8.012396 95.32872,8.354076 L95.32872,12.454236 L93.090716,12.454236 L93.090716,4.083076 L95.192048,4.083076 L95.192048,5.176452 Z" id="Path"></path>
                    <path d="M106.484572,12.454236 L106.484572,10.42124 C107.156543,9.76065867 107.777261,9.14563467 108.346728,8.576168 C108.585904,8.336992 108.830775,8.09212133 109.08134,7.841556 C109.331905,7.59099067 109.565387,7.35750933 109.781784,7.141112 C109.998181,6.92471467 110.1918,6.72824867 110.36264,6.551714 C110.53348,6.37517933 110.664457,6.23566 110.755572,6.133156 C110.937801,5.91675867 111.100099,5.72314 111.242466,5.5523 C111.384833,5.38146 111.498726,5.21346733 111.584146,5.048322 C111.669566,4.88317667 111.735055,4.71803133 111.780612,4.552886 C111.826169,4.38774067 111.848948,4.20835867 111.848948,4.01474 C111.848948,3.638892 111.700887,3.31144867 111.404764,3.03241 C111.108641,2.75337133 110.70432,2.613852 110.1918,2.613852 C109.67928,2.613852 109.280653,2.759066 108.99592,3.049494 C108.711187,3.339922 108.517568,3.66736533 108.415064,4.031824 L106.382068,3.194708 C106.473183,2.887196 106.621244,2.571142 106.826252,2.246546 C107.03126,1.92195 107.293215,1.631522 107.612116,1.375262 C107.931017,1.119002 108.309713,0.908299333 108.748202,0.743154 C109.186691,0.578008667 109.67928,0.495436 110.225968,0.495436 C110.818213,0.495436 111.353512,0.583703333 111.831864,0.760238 C112.310216,0.936772667 112.714537,1.178796 113.044828,1.486308 C113.375119,1.79382 113.631379,2.15543133 113.813608,2.571142 C113.995837,2.98685267 114.086952,3.433884 114.086952,3.912236 C114.086952,4.64115333 113.90757,5.31027667 113.548806,5.919606 C113.190042,6.52893533 112.7544,7.09555467 112.24188,7.619464 L110.772656,9.088688 C110.385419,9.47592533 109.946929,9.90872 109.457188,10.387072 L109.525524,10.489576 L114.257792,10.489576 L114.257792,12.454236 L106.484572,12.454236 Z" id="Path"></path>
                    <path d="M120.664292,12.72758 C119.912596,12.72758 119.234931,12.5709767 118.631296,12.25777 C118.027661,11.9445633 117.512294,11.514616 117.085194,10.967928 C116.658094,10.42124 116.330651,9.77489533 116.102864,9.028894 C115.875077,8.28289267 115.761184,7.47709733 115.761184,6.611508 C115.761184,5.74591867 115.875077,4.94012333 116.102864,4.194122 C116.330651,3.44812067 116.658094,2.801776 117.085194,2.255088 C117.512294,1.7084 118.027661,1.27845267 118.631296,0.965246 C119.234931,0.652039333 119.912596,0.495436 120.664292,0.495436 C121.415988,0.495436 122.093653,0.652039333 122.697288,0.965246 C123.300923,1.27845267 123.81629,1.7084 124.24339,2.255088 C124.67049,2.801776 124.997933,3.44812067 125.22572,4.194122 C125.453507,4.94012333 125.5674,5.74591867 125.5674,6.611508 C125.5674,7.47709733 125.453507,8.28289267 125.22572,9.028894 C124.997933,9.77489533 124.67049,10.42124 124.24339,10.967928 C123.81629,11.514616 123.300923,11.9445633 122.697288,12.25777 C122.093653,12.5709767 121.415988,12.72758 120.664292,12.72758 Z M120.664292,10.609164 C121.074308,10.609164 121.444461,10.5095073 121.774752,10.310194 C122.105043,10.1108807 122.386929,9.831842 122.62041,9.473078 C122.853891,9.114314 123.030426,8.69006133 123.150014,8.20032 C123.269602,7.71057867 123.329396,7.18097467 123.329396,6.611508 C123.329396,6.030652 123.269602,5.49820067 123.150014,5.014154 C123.030426,4.53010733 122.853891,4.108702 122.62041,3.749938 C122.386929,3.391174 122.105043,3.11213533 121.774752,2.912822 C121.444461,2.71350867 121.074308,2.613852 120.664292,2.613852 C120.242887,2.613852 119.867039,2.71350867 119.536748,2.912822 C119.206457,3.11213533 118.927419,3.391174 118.699632,3.749938 C118.471845,4.108702 118.298158,4.53010733 118.17857,5.014154 C118.058982,5.49820067 117.999188,6.030652 117.999188,6.611508 C117.999188,7.18097467 118.058982,7.71057867 118.17857,8.20032 C118.298158,8.69006133 118.471845,9.114314 118.699632,9.473078 C118.927419,9.831842 119.206457,10.1108807 119.536748,10.310194 C119.867039,10.5095073 120.242887,10.609164 120.664292,10.609164 Z" id="Shape"></path>
                    <path d="M126.93412,12.454236 L126.93412,10.42124 C127.606091,9.76065867 128.226809,9.14563467 128.796276,8.576168 C129.035452,8.336992 129.280323,8.09212133 129.530888,7.841556 C129.781453,7.59099067 130.014935,7.35750933 130.231332,7.141112 C130.447729,6.92471467 130.641348,6.72824867 130.812188,6.551714 C130.983028,6.37517933 131.114005,6.23566 131.20512,6.133156 C131.387349,5.91675867 131.549647,5.72314 131.692014,5.5523 C131.834381,5.38146 131.948274,5.21346733 132.033694,5.048322 C132.119114,4.88317667 132.184603,4.71803133 132.23016,4.552886 C132.275717,4.38774067 132.298496,4.20835867 132.298496,4.01474 C132.298496,3.638892 132.150435,3.31144867 131.854312,3.03241 C131.558189,2.75337133 131.153868,2.613852 130.641348,2.613852 C130.128828,2.613852 129.730201,2.759066 129.445468,3.049494 C129.160735,3.339922 128.967116,3.66736533 128.864612,4.031824 L126.831616,3.194708 C126.922731,2.887196 127.070792,2.571142 127.2758,2.246546 C127.480808,1.92195 127.742763,1.631522 128.061664,1.375262 C128.380565,1.119002 128.759261,0.908299333 129.19775,0.743154 C129.636239,0.578008667 130.128828,0.495436 130.675516,0.495436 C131.267761,0.495436 131.80306,0.583703333 132.281412,0.760238 C132.759764,0.936772667 133.164085,1.178796 133.494376,1.486308 C133.824667,1.79382 134.080927,2.15543133 134.263156,2.571142 C134.445385,2.98685267 134.5365,3.433884 134.5365,3.912236 C134.5365,4.64115333 134.357118,5.31027667 133.998354,5.919606 C133.63959,6.52893533 133.203948,7.09555467 132.691428,7.619464 L131.222204,9.088688 C130.834967,9.47592533 130.396477,9.90872 129.906736,10.387072 L129.975072,10.489576 L134.70734,10.489576 L134.70734,12.454236 L126.93412,12.454236 Z" id="Path"></path>
                    <path d="M136.2449,12.454236 L136.2449,10.42124 C136.916871,9.76065867 137.537589,9.14563467 138.107056,8.576168 C138.346232,8.336992 138.591103,8.09212133 138.841668,7.841556 C139.092233,7.59099067 139.325715,7.35750933 139.542112,7.141112 C139.758509,6.92471467 139.952128,6.72824867 140.122968,6.551714 C140.293808,6.37517933 140.424785,6.23566 140.5159,6.133156 C140.698129,5.91675867 140.860427,5.72314 141.002794,5.5523 C141.145161,5.38146 141.259054,5.21346733 141.344474,5.048322 C141.429894,4.88317667 141.495383,4.71803133 141.54094,4.552886 C141.586497,4.38774067 141.609276,4.20835867 141.609276,4.01474 C141.609276,3.638892 141.461215,3.31144867 141.165092,3.03241 C140.868969,2.75337133 140.464648,2.613852 139.952128,2.613852 C139.439608,2.613852 139.040981,2.759066 138.756248,3.049494 C138.471515,3.339922 138.277896,3.66736533 138.175392,4.031824 L136.142396,3.194708 C136.233511,2.887196 136.381572,2.571142 136.58658,2.246546 C136.791588,1.92195 137.053543,1.631522 137.372444,1.375262 C137.691345,1.119002 138.070041,0.908299333 138.50853,0.743154 C138.947019,0.578008667 139.439608,0.495436 139.986296,0.495436 C140.578541,0.495436 141.11384,0.583703333 141.592192,0.760238 C142.070544,0.936772667 142.474865,1.178796 142.805156,1.486308 C143.135447,1.79382 143.391707,2.15543133 143.573936,2.571142 C143.756165,2.98685267 143.84728,3.433884 143.84728,3.912236 C143.84728,4.64115333 143.667898,5.31027667 143.309134,5.919606 C142.95037,6.52893533 142.514728,7.09555467 142.002208,7.619464 L140.532984,9.088688 C140.145747,9.47592533 139.707257,9.90872 139.217516,10.387072 L139.285852,10.489576 L144.01812,10.489576 L144.01812,12.454236 L136.2449,12.454236 Z" id="Path"></path>
                </g>
                <g id="Google-Workspace-Marketplace" transform="translate(44.118825, 45.316243)" fill="#317AF3">
                    <path d="M3.4168125,3.0887985 L6.614949,3.0887985 C6.633172,3.1616905 6.64835783,3.24976833 6.6605065,3.353032 C6.67265517,3.45629567 6.6787295,3.55955933 6.6787295,3.662823 C6.6787295,4.081952 6.614949,4.47678367 6.487388,4.847318 C6.359827,5.21785233 6.159374,5.5489035 5.886029,5.8404715 C5.594461,6.1502625 5.24518683,6.39019867 4.8382065,6.56028 C4.43122617,6.73036133 3.96653967,6.815402 3.444147,6.815402 C2.970349,6.815402 2.5238855,6.73036133 2.1047565,6.56028 C1.6856275,6.39019867 1.3211675,6.15329967 1.0113765,5.849583 C0.7015855,5.54586633 0.455575,5.18596208 0.273345,4.76987025 C0.091115,4.35377842 0,3.899722 0,3.407701 C0,2.91568 0.091115,2.46162358 0.273345,2.04553175 C0.455575,1.62943992 0.7015855,1.26953567 1.0113765,0.965819 C1.3211675,0.662102333 1.6856275,0.425203333 2.1047565,0.255122 C2.5238855,0.0850406667 2.970349,0 3.444147,0 C3.972614,0 4.44489342,0.091115 4.86098525,0.273345 C5.27707708,0.455575 5.63394417,0.707659833 5.9315865,1.0295995 L5.084217,1.858746 C4.87161533,1.63399567 4.63471633,1.46239575 4.37352,1.34394625 C4.11232367,1.22549675 3.7994955,1.166272 3.4350355,1.166272 C3.13739317,1.166272 2.85493667,1.21942242 2.587666,1.32572325 C2.32039533,1.43202408 2.0865335,1.58236383 1.8860805,1.7767425 C1.6856275,1.97112117 1.52617625,2.20650158 1.40772675,2.48288375 C1.28927725,2.75926592 1.2300525,3.06753833 1.2300525,3.407701 C1.2300525,3.74786367 1.28927725,4.05613608 1.40772675,4.33251825 C1.52617625,4.60890042 1.68714608,4.84428083 1.89063625,5.0386595 C2.09412642,5.23303817 2.32950683,5.38337792 2.5967775,5.48967875 C2.86404817,5.59597958 3.14954183,5.64913 3.4532585,5.64913 C3.7994955,5.64913 4.09258208,5.59901675 4.33251825,5.49879025 C4.57245442,5.39856375 4.77746317,5.26948417 4.9475445,5.1115515 C5.06903117,5.0022135 5.17381342,4.86402242 5.26189125,4.69697825 C5.34996908,4.52993408 5.41830533,4.34314833 5.4669,4.136621 L3.4168125,4.136621 L3.4168125,3.0887985 Z" id="Path"></path>
                    <path d="M9.621744,2.059199 C9.967981,2.059199 10.2853649,2.11842375 10.5738957,2.23687325 C10.8624266,2.35532275 11.1114743,2.51932975 11.3210387,2.72889425 C11.5306032,2.93845875 11.6946103,3.189025 11.8130598,3.480593 C11.9315093,3.772161 11.990734,4.0910635 11.990734,4.4373005 C11.990734,4.7835375 11.9315093,5.10244 11.8130598,5.394008 C11.6946103,5.685576 11.5306032,5.93614225 11.3210387,6.14570675 C11.1114743,6.35527125 10.8624266,6.51927825 10.5738957,6.63772775 C10.2853649,6.75617725 9.967981,6.815402 9.621744,6.815402 C9.275507,6.815402 8.95812308,6.75617725 8.66959225,6.63772775 C8.38106142,6.51927825 8.13201375,6.35527125 7.92244925,6.14570675 C7.71288475,5.93614225 7.54887775,5.685576 7.43042825,5.394008 C7.31197875,5.10244 7.252754,4.7835375 7.252754,4.4373005 C7.252754,4.0910635 7.31197875,3.772161 7.43042825,3.480593 C7.54887775,3.189025 7.71288475,2.93845875 7.92244925,2.72889425 C8.13201375,2.51932975 8.38106142,2.35532275 8.66959225,2.23687325 C8.95812308,2.11842375 9.275507,2.059199 9.621744,2.059199 Z M9.621744,5.7129105 C9.77360233,5.7129105 9.92090492,5.68405742 10.0636517,5.62635125 C10.2063986,5.56864508 10.332441,5.485123 10.441779,5.375785 C10.551117,5.266447 10.6376763,5.13281167 10.7014567,4.974879 C10.7652373,4.81694633 10.7971275,4.6377535 10.7971275,4.4373005 C10.7971275,4.2368475 10.7652373,4.05765467 10.7014567,3.899722 C10.6376763,3.74178933 10.551117,3.608154 10.441779,3.498816 C10.332441,3.389478 10.2063986,3.30595592 10.0636517,3.24824975 C9.92090492,3.19054358 9.77360233,3.1616905 9.621744,3.1616905 C9.46381133,3.1616905 9.31499017,3.19054358 9.1752805,3.24824975 C9.03557083,3.30595592 8.911047,3.389478 8.801709,3.498816 C8.692371,3.608154 8.60581175,3.74178933 8.54203125,3.899722 C8.47825075,4.05765467 8.4463605,4.2368475 8.4463605,4.4373005 C8.4463605,4.6377535 8.47825075,4.81694633 8.54203125,4.974879 C8.60581175,5.13281167 8.692371,5.266447 8.801709,5.375785 C8.911047,5.485123 9.03557083,5.56864508 9.1752805,5.62635125 C9.31499017,5.68405742 9.46381133,5.7129105 9.621744,5.7129105 Z" id="Shape"></path>
                    <path d="M14.869968,2.059199 C15.216205,2.059199 15.5335889,2.11842375 15.8221197,2.23687325 C16.1106506,2.35532275 16.3596983,2.51932975 16.5692628,2.72889425 C16.7788272,2.93845875 16.9428343,3.189025 17.0612838,3.480593 C17.1797332,3.772161 17.238958,4.0910635 17.238958,4.4373005 C17.238958,4.7835375 17.1797332,5.10244 17.0612838,5.394008 C16.9428343,5.685576 16.7788272,5.93614225 16.5692628,6.14570675 C16.3596983,6.35527125 16.1106506,6.51927825 15.8221197,6.63772775 C15.5335889,6.75617725 15.216205,6.815402 14.869968,6.815402 C14.523731,6.815402 14.2063471,6.75617725 13.9178163,6.63772775 C13.6292854,6.51927825 13.3802377,6.35527125 13.1706733,6.14570675 C12.9611088,5.93614225 12.7971018,5.685576 12.6786522,5.394008 C12.5602028,5.10244 12.500978,4.7835375 12.500978,4.4373005 C12.500978,4.0910635 12.5602028,3.772161 12.6786522,3.480593 C12.7971018,3.189025 12.9611088,2.93845875 13.1706733,2.72889425 C13.3802377,2.51932975 13.6292854,2.35532275 13.9178163,2.23687325 C14.2063471,2.11842375 14.523731,2.059199 14.869968,2.059199 Z M14.869968,5.7129105 C15.0218263,5.7129105 15.1691289,5.68405742 15.3118757,5.62635125 C15.4546226,5.56864508 15.580665,5.485123 15.690003,5.375785 C15.799341,5.266447 15.8859003,5.13281167 15.9496807,4.974879 C16.0134612,4.81694633 16.0453515,4.6377535 16.0453515,4.4373005 C16.0453515,4.2368475 16.0134612,4.05765467 15.9496807,3.899722 C15.8859003,3.74178933 15.799341,3.608154 15.690003,3.498816 C15.580665,3.389478 15.4546226,3.30595592 15.3118757,3.24824975 C15.1691289,3.19054358 15.0218263,3.1616905 14.869968,3.1616905 C14.7120353,3.1616905 14.5632142,3.19054358 14.4235045,3.24824975 C14.2837948,3.30595592 14.159271,3.389478 14.049933,3.498816 C13.940595,3.608154 13.8540357,3.74178933 13.7902553,3.899722 C13.7264747,4.05765467 13.6945845,4.2368475 13.6945845,4.4373005 C13.6945845,4.6377535 13.7264747,4.81694633 13.7902553,4.974879 C13.8540357,5.13281167 13.940595,5.266447 14.049933,5.375785 C14.159271,5.485123 14.2837948,5.56864508 14.4235045,5.62635125 C14.5632142,5.68405742 14.7120353,5.7129105 14.869968,5.7129105 Z" id="Shape"></path>
                    <path d="M20.063523,8.783486 C19.7476577,8.783486 19.4667197,8.74248425 19.2207092,8.66048075 C18.9746987,8.57847725 18.7605785,8.47217642 18.5783485,8.34157825 C18.3961185,8.21098008 18.2442602,8.06671467 18.1227735,7.908782 C18.0012868,7.75084933 17.913209,7.59291667 17.85854,7.434984 L18.9974775,6.979409 C19.0825182,7.216308 19.2222278,7.40005658 19.4166065,7.53065475 C19.6109852,7.66125292 19.826624,7.726552 20.063523,7.726552 C20.4401317,7.726552 20.737774,7.60962108 20.95645,7.37575925 C21.175126,7.14189742 21.284464,6.815402 21.284464,6.396273 L21.284464,6.086482 L21.211572,6.086482 C21.0718623,6.28086067 20.8881138,6.43423758 20.6603262,6.54661275 C20.4325388,6.65898792 20.1637495,6.7151755 19.8539585,6.7151755 C19.5866878,6.7151755 19.3270101,6.6605065 19.0749252,6.5511685 C18.8228404,6.4418305 18.5996087,6.28541642 18.40523,6.08192625 C18.2108513,5.87843608 18.0529187,5.63394417 17.931432,5.3484505 C17.8099453,5.06295683 17.749202,4.74405433 17.749202,4.391743 C17.749202,4.03943167 17.8099453,3.71901058 17.931432,3.43047975 C18.0529187,3.14194892 18.2108513,2.89593842 18.40523,2.69244825 C18.5996087,2.48895808 18.8228404,2.332544 19.0749252,2.223206 C19.3270101,2.113868 19.5866878,2.059199 19.8539585,2.059199 C20.1637495,2.059199 20.4325388,2.11538658 20.6603262,2.22776175 C20.8881138,2.34013692 21.0718623,2.49351383 21.211572,2.6878925 L21.284464,2.6878925 L21.284464,2.204983 L22.4234015,2.204983 L22.4234015,6.3507155 C22.4234015,6.72732417 22.3656953,7.06596825 22.250283,7.36664775 C22.1348707,7.66732725 21.9739008,7.92244925 21.7673735,8.13201375 C21.5608462,8.34157825 21.3133171,8.50254808 21.0247862,8.61492325 C20.7362554,8.72729842 20.4158343,8.783486 20.063523,8.783486 Z M20.1090805,5.6400185 C20.2548645,5.6400185 20.3991299,5.612684 20.5418768,5.558015 C20.6846236,5.503346 20.810666,5.42286108 20.920004,5.31656025 C21.029342,5.21025942 21.1174198,5.07966125 21.1842375,4.92476575 C21.2510552,4.76987025 21.284464,4.592196 21.284464,4.391743 C21.284464,4.19129 21.2510552,4.01209717 21.1842375,3.8541645 C21.1174198,3.69623183 21.029342,3.56411508 20.920004,3.45781425 C20.810666,3.35151342 20.6846236,3.2710285 20.5418768,3.2163595 C20.3991299,3.1616905 20.2548645,3.134356 20.1090805,3.134356 C19.9632965,3.134356 19.8205497,3.1616905 19.68084,3.2163595 C19.5411303,3.2710285 19.4166065,3.353032 19.3072685,3.46237 C19.1979305,3.571708 19.1098527,3.70382475 19.043035,3.85872025 C18.9762173,4.01361575 18.9428085,4.19129 18.9428085,4.391743 C18.9428085,4.592196 18.9762173,4.76987025 19.043035,4.92476575 C19.1098527,5.07966125 19.1979305,5.21025942 19.3072685,5.31656025 C19.4166065,5.42286108 19.5411303,5.503346 19.68084,5.558015 C19.8205497,5.612684 19.9632965,5.6400185 20.1090805,5.6400185 Z" id="Shape"></path>
                    <polygon id="Path" points="23.4438895 6.669618 23.4438895 0.145784 24.637496 0.145784 24.637496 6.669618"></polygon>
                    <path d="M29.8401625,5.594461 C29.6336352,5.958921 29.3557344,6.25352617 29.0064603,6.4782765 C28.6571861,6.70302683 28.2304642,6.815402 27.7262945,6.815402 C27.3861318,6.815402 27.0717851,6.75617725 26.7832542,6.63772775 C26.4947234,6.51927825 26.2441572,6.35375267 26.0315555,6.141151 C25.8189538,5.92854933 25.6534283,5.67798308 25.5349788,5.38945225 C25.4165292,5.10092142 25.3573045,4.7835375 25.3573045,4.4373005 C25.3573045,4.11536083 25.4150107,3.81012558 25.530423,3.52159475 C25.6458353,3.23306392 25.8068052,2.98097908 26.0133325,2.76534025 C26.2198598,2.54970142 26.4643517,2.3781015 26.7468083,2.2505405 C27.0292648,2.1229795 27.3405743,2.059199 27.680737,2.059199 C28.0391227,2.059199 28.3580252,2.11842375 28.6374445,2.23687325 C28.9168638,2.35532275 29.1507257,2.51932975 29.33903,2.72889425 C29.5273343,2.93845875 29.6700812,3.18598783 29.7672705,3.4714815 C29.8644598,3.75697517 29.9130545,4.06676617 29.9130545,4.4008545 C29.9130545,4.44337483 29.9130545,4.47982083 29.9130545,4.5101925 C29.9069802,4.5466385 29.903943,4.58004733 29.903943,4.610419 C29.8978687,4.64079067 29.8948315,4.6741995 29.8948315,4.7106455 L26.532688,4.7106455 C26.5569853,4.8928755 26.6070986,5.04928958 26.6830277,5.17988775 C26.7589569,5.31048592 26.8531091,5.41982392 26.9654843,5.50790175 C27.0778594,5.59597958 27.2008647,5.65976008 27.3345,5.69924325 C27.4681353,5.73872642 27.6048078,5.758468 27.7445175,5.758468 C28.0178625,5.758468 28.2441314,5.69620608 28.4233242,5.57168225 C28.6025171,5.44715842 28.7437453,5.29074433 28.847009,5.10244 L29.8401625,5.594461 Z M28.755894,3.863276 C28.7498197,3.78430967 28.7240038,3.69623183 28.6784462,3.5990425 C28.6328888,3.50185317 28.5660711,3.41073817 28.4779932,3.3256975 C28.3899154,3.24065683 28.2805774,3.170802 28.1499793,3.116133 C28.0193811,3.061464 27.862967,3.0341295 27.680737,3.0341295 C27.425615,3.0341295 27.2008647,3.1070215 27.006486,3.2528055 C26.8121073,3.3985895 26.6754348,3.60207967 26.5964685,3.863276 L28.755894,3.863276 Z" id="Shape"></path>
                    <polygon id="Path" points="31.9540305 0.145784 33.256975 0.145784 34.2683515 3.954391 34.4141355 4.6559765 34.4870275 4.6559765 34.678369 3.954391 35.6168535 1.020488 36.7649025 1.020488 37.7124985 3.954391 37.8947285 4.646865 37.9676205 4.646865 38.104293 3.954391 39.051889 0.145784 40.3548335 0.145784 38.6236485 6.669618 37.4391535 6.669618 36.4186655 3.5261505 36.227324 2.806342 36.154432 2.806342 35.9630905 3.5261505 34.9426025 6.669618 33.7581075 6.669618"></polygon>
                    <path d="M42.623597,2.059199 C42.969834,2.059199 43.2872179,2.11842375 43.5757488,2.23687325 C43.8642796,2.35532275 44.1133272,2.51932975 44.3228917,2.72889425 C44.5324563,2.93845875 44.6964633,3.189025 44.8149128,3.480593 C44.9333623,3.772161 44.992587,4.0910635 44.992587,4.4373005 C44.992587,4.7835375 44.9333623,5.10244 44.8149128,5.394008 C44.6964633,5.685576 44.5324563,5.93614225 44.3228917,6.14570675 C44.1133272,6.35527125 43.8642796,6.51927825 43.5757488,6.63772775 C43.2872179,6.75617725 42.969834,6.815402 42.623597,6.815402 C42.27736,6.815402 41.9599761,6.75617725 41.6714452,6.63772775 C41.3829144,6.51927825 41.1338667,6.35527125 40.9243022,6.14570675 C40.7147377,5.93614225 40.5507307,5.685576 40.4322813,5.394008 C40.3138318,5.10244 40.254607,4.7835375 40.254607,4.4373005 C40.254607,4.0910635 40.3138318,3.772161 40.4322813,3.480593 C40.5507307,3.189025 40.7147377,2.93845875 40.9243022,2.72889425 C41.1338667,2.51932975 41.3829144,2.35532275 41.6714452,2.23687325 C41.9599761,2.11842375 42.27736,2.059199 42.623597,2.059199 Z M42.623597,5.7129105 C42.7754553,5.7129105 42.9227579,5.68405742 43.0655048,5.62635125 C43.2082516,5.56864508 43.334294,5.485123 43.443632,5.375785 C43.55297,5.266447 43.6395292,5.13281167 43.7033098,4.974879 C43.7670903,4.81694633 43.7989805,4.6377535 43.7989805,4.4373005 C43.7989805,4.2368475 43.7670903,4.05765467 43.7033098,3.899722 C43.6395292,3.74178933 43.55297,3.608154 43.443632,3.498816 C43.334294,3.389478 43.2082516,3.30595592 43.0655048,3.24824975 C42.9227579,3.19054358 42.7754553,3.1616905 42.623597,3.1616905 C42.4656643,3.1616905 42.3168432,3.19054358 42.1771335,3.24824975 C42.0374238,3.30595592 41.9129,3.389478 41.803562,3.498816 C41.694224,3.608154 41.6076648,3.74178933 41.5438843,3.899722 C41.4801037,4.05765467 41.4482135,4.2368475 41.4482135,4.4373005 C41.4482135,4.6377535 41.4801037,4.81694633 41.5438843,4.974879 C41.6076648,5.13281167 41.694224,5.266447 41.803562,5.375785 C41.9129,5.485123 42.0374238,5.56864508 42.1771335,5.62635125 C42.3168432,5.68405742 42.4656643,5.7129105 42.623597,5.7129105 Z" id="Shape"></path>
                    <path d="M45.666838,2.204983 L46.7875525,2.204983 L46.7875525,2.824565 L46.8604445,2.824565 C46.9151135,2.715227 46.9880055,2.6150005 47.0791205,2.5238855 C47.1702355,2.4327705 47.2719806,2.35380417 47.3843557,2.2869865 C47.4967309,2.22016883 47.6182176,2.168537 47.7488157,2.132091 C47.8794139,2.095645 48.0084935,2.077422 48.1360545,2.077422 C48.2939872,2.077422 48.4291411,2.09260783 48.5415163,2.1229795 C48.6538914,2.15335117 48.7495622,2.19283433 48.8285285,2.241429 L48.509626,3.3256975 C48.436734,3.2892515 48.3562491,3.26039842 48.2681712,3.23913825 C48.1800934,3.21787808 48.072274,3.207248 47.944713,3.207248 C47.780706,3.207248 47.6318848,3.23913825 47.4982495,3.30291875 C47.3646142,3.36669925 47.2507204,3.45629567 47.1565683,3.571708 C47.0624161,3.68712033 46.9895241,3.82227425 46.9378922,3.97716975 C46.8862604,4.13206525 46.8604445,4.300628 46.8604445,4.482858 L46.8604445,6.669618 L45.666838,6.669618 L45.666838,2.204983 Z" id="Path"></path>
                    <polygon id="Path" points="49.420776 0.145784 50.6143825 0.145784 50.6143825 3.699269 50.6690515 3.699269 52.1633375 2.204983 53.6394005 2.204983 53.6394005 2.277875 51.9811075 3.8906105 53.776073 6.596726 53.776073 6.669618 52.3637905 6.669618 51.1428495 4.7106455 50.6143825 5.230001 50.6143825 6.669618 49.420776 6.669618"></polygon>
                    <path d="M55.926387,6.815402 C55.634819,6.815402 55.3751412,6.778956 55.1473537,6.706064 C54.9195663,6.633172 54.7221504,6.53750125 54.5551062,6.41905175 C54.3880621,6.30060225 54.2468338,6.16392975 54.1314215,6.00903425 C54.0160092,5.85413875 53.9279313,5.69772467 53.867188,5.539792 L54.9332335,5.084217 C55.0364972,5.31504167 55.1746883,5.48664158 55.3478068,5.59901675 C55.5209253,5.71139192 55.7137853,5.7675795 55.926387,5.7675795 C56.145063,5.7675795 56.3181815,5.72809633 56.4457425,5.64913 C56.5733035,5.57016367 56.637084,5.4760115 56.637084,5.3666735 C56.637084,5.24518683 56.5839336,5.14647892 56.4776327,5.07054975 C56.3713319,4.99462058 56.1875833,4.92628433 55.926387,4.865541 L55.2976935,4.7288685 C55.1579838,4.69849683 55.0137184,4.64990217 54.8648972,4.5830845 C54.7160761,4.51626683 54.5809222,4.43122617 54.4594355,4.3279625 C54.3379488,4.22469883 54.2377223,4.100175 54.158756,3.954391 C54.0797897,3.808607 54.0403065,3.63852567 54.0403065,3.444147 C54.0403065,3.225471 54.0873826,3.03109233 54.1815347,2.861011 C54.2756869,2.69092967 54.4047665,2.54666425 54.5687735,2.42821475 C54.7327805,2.30976525 54.9256406,2.21865025 55.1473537,2.15486975 C55.3690669,2.09108925 55.6074845,2.059199 55.8626065,2.059199 C56.2878098,2.059199 56.6674557,2.14272108 57.001544,2.30976525 C57.3356323,2.47680942 57.5816428,2.7425615 57.7395755,3.1070215 L56.709976,3.5261505 C56.6249353,3.34999483 56.5004115,3.22243383 56.3364045,3.1434675 C56.1723975,3.06450117 56.0083905,3.025018 55.8443835,3.025018 C55.6743022,3.025018 55.525481,3.05994542 55.39792,3.12980025 C55.270359,3.19965508 55.2065785,3.2892515 55.2065785,3.3985895 C55.2065785,3.50185317 55.2597289,3.58385667 55.3660297,3.6446 C55.4723306,3.70534333 55.616596,3.76001233 55.798826,3.808607 L56.4821885,3.972614 C56.9377635,4.081952 57.2764076,4.25658908 57.4981207,4.49652525 C57.7198339,4.73646142 57.8306905,5.0204365 57.8306905,5.3484505 C57.8306905,5.54282917 57.785133,5.72809633 57.694018,5.904252 C57.602903,6.08040767 57.4738234,6.23682175 57.3067792,6.37349425 C57.1397351,6.51016675 56.9392821,6.61798617 56.7054202,6.6969525 C56.4715584,6.77591883 56.2118807,6.815402 55.926387,6.815402 Z" id="Path"></path>
                    <path d="M58.477607,2.204983 L59.5983215,2.204983 L59.5983215,2.7425615 L59.6712135,2.7425615 C59.7805515,2.55425717 59.9506328,2.39328733 60.1814575,2.259652 C60.4122822,2.12601667 60.6977758,2.059199 61.0379385,2.059199 C61.3234322,2.059199 61.5952586,2.11842375 61.8534177,2.23687325 C62.1115769,2.35532275 62.3393644,2.51932975 62.5367803,2.72889425 C62.7341961,2.93845875 62.8906102,3.189025 63.0060225,3.480593 C63.1214348,3.772161 63.179141,4.0910635 63.179141,4.4373005 C63.179141,4.7835375 63.1214348,5.10244 63.0060225,5.394008 C62.8906102,5.685576 62.7341961,5.93614225 62.5367803,6.14570675 C62.3393644,6.35527125 62.1115769,6.51927825 61.8534177,6.63772775 C61.5952586,6.75617725 61.3234322,6.815402 61.0379385,6.815402 C60.6977758,6.815402 60.4122822,6.74858433 60.1814575,6.614949 C59.9506328,6.48131367 59.7805515,6.32034383 59.6712135,6.1320395 L59.5983215,6.1320395 L59.6712135,6.7698445 L59.6712135,8.637702 L58.477607,8.637702 L58.477607,2.204983 Z M60.791928,5.7129105 C60.9498607,5.7129105 61.1002004,5.68253883 61.2429473,5.6217955 C61.3856941,5.56105217 61.5117365,5.4760115 61.6210745,5.3666735 C61.7304125,5.2573355 61.8184903,5.12370017 61.885308,4.9657675 C61.9521257,4.80783483 61.9855345,4.63167917 61.9855345,4.4373005 C61.9855345,4.24292183 61.9521257,4.06676617 61.885308,3.9088335 C61.8184903,3.75090083 61.7304125,3.6172655 61.6210745,3.5079275 C61.5117365,3.3985895 61.3856941,3.31354883 61.2429473,3.2528055 C61.1002004,3.19206217 60.9498607,3.1616905 60.791928,3.1616905 C60.6339953,3.1616905 60.4836556,3.19054358 60.3409087,3.24824975 C60.1981619,3.30595592 60.0721195,3.389478 59.9627815,3.498816 C59.8534435,3.608154 59.7653657,3.74178933 59.698548,3.899722 C59.6317303,4.05765467 59.5983215,4.2368475 59.5983215,4.4373005 C59.5983215,4.6377535 59.6317303,4.81694633 59.698548,4.974879 C59.7653657,5.13281167 59.8534435,5.266447 59.9627815,5.375785 C60.0721195,5.485123 60.1981619,5.56864508 60.3409087,5.62635125 C60.4836556,5.68405742 60.6339953,5.7129105 60.791928,5.7129105 Z" id="Shape"></path>
                    <path d="M66.69618,6.19582 L66.623288,6.19582 C66.4835783,6.36590133 66.3150156,6.51168533 66.1175997,6.633172 C65.9201839,6.75465867 65.6665805,6.815402 65.3567895,6.815402 C65.1259648,6.815402 64.9088074,6.77743742 64.7053172,6.70150825 C64.5018271,6.62557908 64.3241528,6.52079683 64.1722945,6.3871615 C64.0204362,6.25352617 63.9019867,6.09255633 63.816946,5.904252 C63.7319053,5.71594767 63.689385,5.50942033 63.689385,5.28467 C63.689385,5.05384533 63.7349425,4.84579942 63.8260575,4.66053225 C63.9171725,4.47526508 64.0447335,4.31581383 64.2087405,4.1821785 C64.3727475,4.04854317 64.5656076,3.94679808 64.7873207,3.87694325 C65.0090339,3.80708842 65.2504887,3.772161 65.511685,3.772161 C65.803253,3.772161 66.0431892,3.79493975 66.2314935,3.84049725 C66.4197978,3.88605475 66.5746933,3.93313083 66.69618,3.9817255 L66.69618,3.845053 C66.69618,3.608154 66.6020278,3.41225675 66.4137235,3.25736125 C66.2254192,3.10246575 65.9915573,3.025018 65.712138,3.025018 C65.2990833,3.025018 64.9498092,3.1981365 64.6643155,3.5443735 L63.798723,2.952126 C64.272521,2.35684133 64.9194375,2.059199 65.7394725,2.059199 C66.4319465,2.059199 66.9604135,2.22168742 67.3248735,2.54666425 C67.6893335,2.87164108 67.8715635,3.353032 67.8715635,3.990837 L67.8715635,6.669618 L66.69618,6.669618 L66.69618,6.19582 Z M66.69618,4.8564295 C66.5564703,4.78961183 66.4122049,4.73646142 66.2633837,4.69697825 C66.1145626,4.65749508 65.9520742,4.6377535 65.7759185,4.6377535 C65.4904248,4.6377535 65.2702302,4.70001542 65.1153347,4.82453925 C64.9604392,4.94906308 64.8829915,5.10244 64.8829915,5.28467 C64.8829915,5.4669 64.9574021,5.612684 65.1062232,5.722022 C65.2550444,5.83136 65.4266443,5.886029 65.621023,5.886029 C65.7789557,5.886029 65.9247397,5.85717592 66.058375,5.79946975 C66.1920103,5.74176358 66.3059041,5.66583442 66.4000562,5.57168225 C66.4942084,5.47753008 66.5671004,5.36819208 66.6187322,5.24366825 C66.6703641,5.11914442 66.69618,4.99006483 66.69618,4.8564295 Z" id="Shape"></path>
                    <path d="M73.0104495,5.5306805 C72.8160708,5.90728917 72.5442444,6.21556158 72.1949702,6.45549775 C71.8456961,6.69543392 71.4098627,6.815402 70.88747,6.815402 C70.541233,6.815402 70.2238491,6.75617725 69.9353182,6.63772775 C69.6467874,6.51927825 69.3977397,6.35375267 69.1881753,6.141151 C68.9786108,5.92854933 68.8146038,5.67798308 68.6961542,5.38945225 C68.5777047,5.10092142 68.51848,4.7835375 68.51848,4.4373005 C68.51848,4.0910635 68.5777047,3.772161 68.6961542,3.480593 C68.8146038,3.189025 68.9786108,2.93845875 69.1881753,2.72889425 C69.3977397,2.51932975 69.6467874,2.35532275 69.9353182,2.23687325 C70.2238491,2.11842375 70.541233,2.059199 70.88747,2.059199 C71.4037883,2.059199 71.8381032,2.1776485 72.1904145,2.4145475 C72.5427258,2.6514465 72.800885,2.95820033 72.964892,3.334809 L71.871512,3.790384 C71.7682483,3.58385667 71.6361316,3.42744258 71.4751617,3.32114175 C71.3141919,3.21484092 71.1122203,3.1616905 70.869247,3.1616905 C70.7113143,3.1616905 70.5624932,3.19206217 70.4227835,3.2528055 C70.2830738,3.31354883 70.1600686,3.3985895 70.0537677,3.5079275 C69.9474669,3.6172655 69.8639448,3.75090083 69.8032015,3.9088335 C69.7424582,4.06676617 69.7120865,4.24292183 69.7120865,4.4373005 C69.7120865,4.63167917 69.7424582,4.80783483 69.8032015,4.9657675 C69.8639448,5.12370017 69.9474669,5.2573355 70.0537677,5.3666735 C70.1600686,5.4760115 70.2830738,5.56105217 70.4227835,5.6217955 C70.5624932,5.68253883 70.7113143,5.7129105 70.869247,5.7129105 C71.1182947,5.7129105 71.3293777,5.65672292 71.5024962,5.54434775 C71.6756147,5.43197258 71.8138058,5.26948417 71.9170695,5.0568825 L73.0104495,5.5306805 Z" id="Path"></path>
                    <path d="M77.921548,5.594461 C77.7150207,5.958921 77.4371199,6.25352617 77.0878457,6.4782765 C76.7385716,6.70302683 76.3118497,6.815402 75.80768,6.815402 C75.4675173,6.815402 75.1531706,6.75617725 74.8646397,6.63772775 C74.5761089,6.51927825 74.3255427,6.35375267 74.112941,6.141151 C73.9003393,5.92854933 73.7348138,5.67798308 73.6163642,5.38945225 C73.4979147,5.10092142 73.43869,4.7835375 73.43869,4.4373005 C73.43869,4.11536083 73.4963962,3.81012558 73.6118085,3.52159475 C73.7272208,3.23306392 73.8881907,2.98097908 74.094718,2.76534025 C74.3012453,2.54970142 74.5457372,2.3781015 74.8281937,2.2505405 C75.1106502,2.1229795 75.4219598,2.059199 75.7621225,2.059199 C76.1205082,2.059199 76.4394107,2.11842375 76.71883,2.23687325 C76.9982493,2.35532275 77.2321112,2.51932975 77.4204155,2.72889425 C77.6087198,2.93845875 77.7514667,3.18598783 77.848656,3.4714815 C77.9458453,3.75697517 77.99444,4.06676617 77.99444,4.4008545 C77.99444,4.44337483 77.99444,4.47982083 77.99444,4.5101925 C77.9883657,4.5466385 77.9853285,4.58004733 77.9853285,4.610419 C77.9792542,4.64079067 77.976217,4.6741995 77.976217,4.7106455 L74.6140735,4.7106455 C74.6383708,4.8928755 74.6884841,5.04928958 74.7644132,5.17988775 C74.8403424,5.31048592 74.9344946,5.41982392 75.0468697,5.50790175 C75.1592449,5.59597958 75.2822502,5.65976008 75.4158855,5.69924325 C75.5495208,5.73872642 75.6861933,5.758468 75.825903,5.758468 C76.099248,5.758468 76.3255169,5.69620608 76.5047097,5.57168225 C76.6839026,5.44715842 76.8251308,5.29074433 76.9283945,5.10244 L77.921548,5.594461 Z M76.8372795,3.863276 C76.8312052,3.78430967 76.8053892,3.69623183 76.7598317,3.5990425 C76.7142742,3.50185317 76.6474566,3.41073817 76.5593787,3.3256975 C76.4713009,3.24065683 76.3619629,3.170802 76.2313647,3.116133 C76.1007666,3.061464 75.9443525,3.0341295 75.7621225,3.0341295 C75.5070005,3.0341295 75.2822502,3.1070215 75.0878715,3.2528055 C74.8934928,3.3985895 74.7568203,3.60207967 74.677854,3.863276 L76.8372795,3.863276 Z" id="Shape"></path>
                    <polygon id="Path" points="80.91012 0.145784 82.1219495 0.145784 84.117368 3.5990425 84.19026 3.5990425 86.1856785 0.145784 87.4066195 0.145784 87.4066195 6.669618 86.1856785 6.669618 86.1856785 3.4532585 86.2585705 2.3598785 86.1856785 2.3598785 84.5273855 5.28467 83.789354 5.28467 82.1219495 2.3598785 82.0490575 2.3598785 82.1219495 3.4532585 82.1219495 6.669618 80.91012 6.669618"></polygon>
                    <path d="M91.187892,6.19582 L91.115,6.19582 C90.9752903,6.36590133 90.8067276,6.51168533 90.6093117,6.633172 C90.4118959,6.75465867 90.1582925,6.815402 89.8485015,6.815402 C89.6176768,6.815402 89.4005194,6.77743742 89.1970292,6.70150825 C88.9935391,6.62557908 88.8158648,6.52079683 88.6640065,6.3871615 C88.5121482,6.25352617 88.3936987,6.09255633 88.308658,5.904252 C88.2236173,5.71594767 88.181097,5.50942033 88.181097,5.28467 C88.181097,5.05384533 88.2266545,4.84579942 88.3177695,4.66053225 C88.4088845,4.47526508 88.5364455,4.31581383 88.7004525,4.1821785 C88.8644595,4.04854317 89.0573196,3.94679808 89.2790328,3.87694325 C89.5007459,3.80708842 89.7422007,3.772161 90.003397,3.772161 C90.294965,3.772161 90.5349012,3.79493975 90.7232055,3.84049725 C90.9115098,3.88605475 91.0664053,3.93313083 91.187892,3.9817255 L91.187892,3.845053 C91.187892,3.608154 91.0937398,3.41225675 90.9054355,3.25736125 C90.7171312,3.10246575 90.4832693,3.025018 90.20385,3.025018 C89.7907953,3.025018 89.4415212,3.1981365 89.1560275,3.5443735 L88.290435,2.952126 C88.764233,2.35684133 89.4111495,2.059199 90.2311845,2.059199 C90.9236585,2.059199 91.4521255,2.22168742 91.8165855,2.54666425 C92.1810455,2.87164108 92.3632755,3.353032 92.3632755,3.990837 L92.3632755,6.669618 L91.187892,6.669618 L91.187892,6.19582 Z M91.187892,4.8564295 C91.0481823,4.78961183 90.9039169,4.73646142 90.7550957,4.69697825 C90.6062746,4.65749508 90.4437862,4.6377535 90.2676305,4.6377535 C89.9821368,4.6377535 89.7619423,4.70001542 89.6070468,4.82453925 C89.4521513,4.94906308 89.3747035,5.10244 89.3747035,5.28467 C89.3747035,5.4669 89.4491141,5.612684 89.5979352,5.722022 C89.7467564,5.83136 89.9183563,5.886029 90.112735,5.886029 C90.2706677,5.886029 90.4164517,5.85717592 90.550087,5.79946975 C90.6837223,5.74176358 90.7976161,5.66583442 90.8917682,5.57168225 C90.9859204,5.47753008 91.0588124,5.36819208 91.1104443,5.24366825 C91.1620761,5.11914442 91.187892,4.99006483 91.187892,4.8564295 Z" id="Shape"></path>
                    <path d="M93.3108715,2.204983 L94.431586,2.204983 L94.431586,2.824565 L94.504478,2.824565 C94.559147,2.715227 94.632039,2.6150005 94.723154,2.5238855 C94.814269,2.4327705 94.9160141,2.35380417 95.0283892,2.2869865 C95.1407644,2.22016883 95.2622511,2.168537 95.3928492,2.132091 C95.5234474,2.095645 95.652527,2.077422 95.780088,2.077422 C95.9380207,2.077422 96.0731746,2.09260783 96.1855497,2.1229795 C96.2979249,2.15335117 96.3935957,2.19283433 96.472562,2.241429 L96.1536595,3.3256975 C96.0807675,3.2892515 96.0002826,3.26039842 95.9122047,3.23913825 C95.8241269,3.21787808 95.7163075,3.207248 95.5887465,3.207248 C95.4247395,3.207248 95.2759183,3.23913825 95.142283,3.30291875 C95.0086477,3.36669925 94.8947539,3.45629567 94.8006017,3.571708 C94.7064496,3.68712033 94.6335576,3.82227425 94.5819257,3.97716975 C94.5302939,4.13206525 94.504478,4.300628 94.504478,4.482858 L94.504478,6.669618 L93.3108715,6.669618 L93.3108715,2.204983 Z" id="Path"></path>
                    <polygon id="Path" points="97.0648095 0.145784 98.258416 0.145784 98.258416 3.699269 98.313085 3.699269 99.807371 2.204983 101.283434 2.204983 101.283434 2.277875 99.625141 3.8906105 101.420106 6.596726 101.420106 6.669618 100.007824 6.669618 98.786883 4.7106455 98.258416 5.230001 98.258416 6.669618 97.0648095 6.669618"></polygon>
                    <path d="M105.984968,5.594461 C105.778441,5.958921 105.50054,6.25352617 105.151266,6.4782765 C104.801992,6.70302683 104.37527,6.815402 103.8711,6.815402 C103.530937,6.815402 103.216591,6.75617725 102.92806,6.63772775 C102.639529,6.51927825 102.388963,6.35375267 102.176361,6.141151 C101.963759,5.92854933 101.798234,5.67798308 101.679784,5.38945225 C101.561335,5.10092142 101.50211,4.7835375 101.50211,4.4373005 C101.50211,4.11536083 101.559816,3.81012558 101.675229,3.52159475 C101.790641,3.23306392 101.951611,2.98097908 102.158138,2.76534025 C102.364665,2.54970142 102.609157,2.3781015 102.891614,2.2505405 C103.17407,2.1229795 103.48538,2.059199 103.825542,2.059199 C104.183928,2.059199 104.502831,2.11842375 104.78225,2.23687325 C105.061669,2.35532275 105.295531,2.51932975 105.483836,2.72889425 C105.67214,2.93845875 105.814887,3.18598783 105.912076,3.4714815 C106.009265,3.75697517 106.05786,4.06676617 106.05786,4.4008545 C106.05786,4.44337483 106.05786,4.47982083 106.05786,4.5101925 C106.051786,4.5466385 106.048749,4.58004733 106.048749,4.610419 C106.042674,4.64079067 106.039637,4.6741995 106.039637,4.7106455 L102.677493,4.7106455 C102.701791,4.8928755 102.751904,5.04928958 102.827833,5.17988775 C102.903762,5.31048592 102.997915,5.41982392 103.11029,5.50790175 C103.222665,5.59597958 103.34567,5.65976008 103.479305,5.69924325 C103.612941,5.73872642 103.749613,5.758468 103.889323,5.758468 C104.162668,5.758468 104.388937,5.69620608 104.56813,5.57168225 C104.747323,5.44715842 104.888551,5.29074433 104.991814,5.10244 L105.984968,5.594461 Z M104.900699,3.863276 C104.894625,3.78430967 104.868809,3.69623183 104.823252,3.5990425 C104.777694,3.50185317 104.710877,3.41073817 104.622799,3.3256975 C104.534721,3.24065683 104.425383,3.170802 104.294785,3.116133 C104.164187,3.061464 104.007773,3.0341295 103.825542,3.0341295 C103.570421,3.0341295 103.34567,3.1070215 103.151291,3.2528055 C102.956913,3.3985895 102.82024,3.60207967 102.741274,3.863276 L104.900699,3.863276 Z" id="Shape"></path>
                    <path d="M107.178574,3.225471 L106.394986,3.225471 L106.394986,2.204983 L107.178574,2.204983 L107.178574,0.838258 L108.372181,0.838258 L108.372181,2.204983 L109.465561,2.204983 L109.465561,3.225471 L108.372181,3.225471 L108.372181,4.956656 C108.372181,5.05991967 108.382811,5.15559042 108.404071,5.24366825 C108.425331,5.33174608 108.466333,5.40615667 108.527077,5.4669 C108.612117,5.56408933 108.733604,5.612684 108.891536,5.612684 C108.9948,5.612684 109.076804,5.60205392 109.137547,5.58079375 C109.19829,5.55953358 109.255996,5.5306805 109.310665,5.4942345 L109.647791,6.542057 C109.508081,6.60887467 109.357742,6.65898792 109.196772,6.69239675 C109.035802,6.72580558 108.858128,6.74251 108.663749,6.74251 C108.438999,6.74251 108.237027,6.70758258 108.057834,6.63772775 C107.878641,6.56787292 107.728302,6.47220217 107.606815,6.3507155 C107.321321,6.0773705 107.178574,5.68861317 107.178574,5.1844435 L107.178574,3.225471 Z" id="Path"></path>
                    <path d="M110.349377,2.204983 L111.470091,2.204983 L111.470091,2.7425615 L111.542983,2.7425615 C111.652321,2.55425717 111.822402,2.39328733 112.053227,2.259652 C112.284052,2.12601667 112.569545,2.059199 112.909708,2.059199 C113.195202,2.059199 113.467028,2.11842375 113.725187,2.23687325 C113.983346,2.35532275 114.211134,2.51932975 114.40855,2.72889425 C114.605966,2.93845875 114.76238,3.189025 114.877792,3.480593 C114.993204,3.772161 115.050911,4.0910635 115.050911,4.4373005 C115.050911,4.7835375 114.993204,5.10244 114.877792,5.394008 C114.76238,5.685576 114.605966,5.93614225 114.40855,6.14570675 C114.211134,6.35527125 113.983346,6.51927825 113.725187,6.63772775 C113.467028,6.75617725 113.195202,6.815402 112.909708,6.815402 C112.569545,6.815402 112.284052,6.74858433 112.053227,6.614949 C111.822402,6.48131367 111.652321,6.32034383 111.542983,6.1320395 L111.470091,6.1320395 L111.542983,6.7698445 L111.542983,8.637702 L110.349377,8.637702 L110.349377,2.204983 Z M112.663697,5.7129105 C112.82163,5.7129105 112.97197,5.68253883 113.114717,5.6217955 C113.257464,5.56105217 113.383506,5.4760115 113.492844,5.3666735 C113.602182,5.2573355 113.69026,5.12370017 113.757077,4.9657675 C113.823895,4.80783483 113.857304,4.63167917 113.857304,4.4373005 C113.857304,4.24292183 113.823895,4.06676617 113.757077,3.9088335 C113.69026,3.75090083 113.602182,3.6172655 113.492844,3.5079275 C113.383506,3.3985895 113.257464,3.31354883 113.114717,3.2528055 C112.97197,3.19206217 112.82163,3.1616905 112.663697,3.1616905 C112.505765,3.1616905 112.355425,3.19054358 112.212678,3.24824975 C112.069931,3.30595592 111.943889,3.389478 111.834551,3.498816 C111.725213,3.608154 111.637135,3.74178933 111.570318,3.899722 C111.5035,4.05765467 111.470091,4.2368475 111.470091,4.4373005 C111.470091,4.6377535 111.5035,4.81694633 111.570318,4.974879 C111.637135,5.13281167 111.725213,5.266447 111.834551,5.375785 C111.943889,5.485123 112.069931,5.56864508 112.212678,5.62635125 C112.355425,5.68405742 112.505765,5.7129105 112.663697,5.7129105 Z" id="Shape"></path>
                    <polygon id="Path" points="115.725161 6.669618 115.725161 0.145784 116.918768 0.145784 116.918768 6.669618"></polygon>
                    <path d="M120.645371,6.19582 L120.57248,6.19582 C120.43277,6.36590133 120.264207,6.51168533 120.066791,6.633172 C119.869375,6.75465867 119.615772,6.815402 119.305981,6.815402 C119.075156,6.815402 118.857999,6.77743742 118.654509,6.70150825 C118.451019,6.62557908 118.273344,6.52079683 118.121486,6.3871615 C117.969628,6.25352617 117.851178,6.09255633 117.766137,5.904252 C117.681097,5.71594767 117.638577,5.50942033 117.638577,5.28467 C117.638577,5.05384533 117.684134,4.84579942 117.775249,4.66053225 C117.866364,4.47526508 117.993925,4.31581383 118.157932,4.1821785 C118.321939,4.04854317 118.514799,3.94679808 118.736512,3.87694325 C118.958225,3.80708842 119.19968,3.772161 119.460876,3.772161 C119.752444,3.772161 119.992381,3.79493975 120.180685,3.84049725 C120.368989,3.88605475 120.523885,3.93313083 120.645371,3.9817255 L120.645371,3.845053 C120.645371,3.608154 120.551219,3.41225675 120.362915,3.25736125 C120.174611,3.10246575 119.940749,3.025018 119.661329,3.025018 C119.248275,3.025018 118.899001,3.1981365 118.613507,3.5443735 L117.747914,2.952126 C118.221712,2.35684133 118.868629,2.059199 119.688664,2.059199 C120.381138,2.059199 120.909605,2.22168742 121.274065,2.54666425 C121.638525,2.87164108 121.820755,3.353032 121.820755,3.990837 L121.820755,6.669618 L120.645371,6.669618 L120.645371,6.19582 Z M120.645371,4.8564295 C120.505662,4.78961183 120.361396,4.73646142 120.212575,4.69697825 C120.063754,4.65749508 119.901266,4.6377535 119.72511,4.6377535 C119.439616,4.6377535 119.219422,4.70001542 119.064526,4.82453925 C118.909631,4.94906308 118.832183,5.10244 118.832183,5.28467 C118.832183,5.4669 118.906594,5.612684 119.055415,5.722022 C119.204236,5.83136 119.375836,5.886029 119.570215,5.886029 C119.728147,5.886029 119.873931,5.85717592 120.007567,5.79946975 C120.141202,5.74176358 120.255096,5.66583442 120.349248,5.57168225 C120.4434,5.47753008 120.516292,5.36819208 120.567924,5.24366825 C120.619556,5.11914442 120.645371,4.99006483 120.645371,4.8564295 Z" id="Shape"></path>
                    <path d="M126.959641,5.5306805 C126.765262,5.90728917 126.493436,6.21556158 126.144162,6.45549775 C125.794888,6.69543392 125.359054,6.815402 124.836662,6.815402 C124.490425,6.815402 124.173041,6.75617725 123.88451,6.63772775 C123.595979,6.51927825 123.346931,6.35375267 123.137367,6.141151 C122.927802,5.92854933 122.763795,5.67798308 122.645346,5.38945225 C122.526896,5.10092142 122.467672,4.7835375 122.467672,4.4373005 C122.467672,4.0910635 122.526896,3.772161 122.645346,3.480593 C122.763795,3.189025 122.927802,2.93845875 123.137367,2.72889425 C123.346931,2.51932975 123.595979,2.35532275 123.88451,2.23687325 C124.173041,2.11842375 124.490425,2.059199 124.836662,2.059199 C125.35298,2.059199 125.787295,2.1776485 126.139606,2.4145475 C126.491917,2.6514465 126.750076,2.95820033 126.914083,3.334809 L125.820703,3.790384 C125.71744,3.58385667 125.585323,3.42744258 125.424353,3.32114175 C125.263383,3.21484092 125.061412,3.1616905 124.818438,3.1616905 C124.660506,3.1616905 124.511685,3.19206217 124.371975,3.2528055 C124.232265,3.31354883 124.10926,3.3985895 124.002959,3.5079275 C123.896658,3.6172655 123.813136,3.75090083 123.752393,3.9088335 C123.69165,4.06676617 123.661278,4.24292183 123.661278,4.4373005 C123.661278,4.63167917 123.69165,4.80783483 123.752393,4.9657675 C123.813136,5.12370017 123.896658,5.2573355 124.002959,5.3666735 C124.10926,5.4760115 124.232265,5.56105217 124.371975,5.6217955 C124.511685,5.68253883 124.660506,5.7129105 124.818438,5.7129105 C125.067486,5.7129105 125.278569,5.65672292 125.451688,5.54434775 C125.624806,5.43197258 125.762997,5.26948417 125.866261,5.0568825 L126.959641,5.5306805 Z" id="Path"></path>
                    <path d="M131.87074,5.594461 C131.664212,5.958921 131.386311,6.25352617 131.037037,6.4782765 C130.687763,6.70302683 130.261041,6.815402 129.756871,6.815402 C129.416709,6.815402 129.102362,6.75617725 128.813831,6.63772775 C128.5253,6.51927825 128.274734,6.35375267 128.062132,6.141151 C127.849531,5.92854933 127.684005,5.67798308 127.565556,5.38945225 C127.447106,5.10092142 127.387882,4.7835375 127.387882,4.4373005 C127.387882,4.11536083 127.445588,3.81012558 127.561,3.52159475 C127.676412,3.23306392 127.837382,2.98097908 128.043909,2.76534025 C128.250437,2.54970142 128.494929,2.3781015 128.777385,2.2505405 C129.059842,2.1229795 129.371151,2.059199 129.711314,2.059199 C130.0697,2.059199 130.388602,2.11842375 130.668021,2.23687325 C130.947441,2.35532275 131.181303,2.51932975 131.369607,2.72889425 C131.557911,2.93845875 131.700658,3.18598783 131.797847,3.4714815 C131.895037,3.75697517 131.943631,4.06676617 131.943631,4.4008545 C131.943631,4.44337483 131.943631,4.47982083 131.943631,4.5101925 C131.937557,4.5466385 131.93452,4.58004733 131.93452,4.610419 C131.928446,4.64079067 131.925409,4.6741995 131.925409,4.7106455 L128.563265,4.7106455 C128.587562,4.8928755 128.637676,5.04928958 128.713605,5.17988775 C128.789534,5.31048592 128.883686,5.41982392 128.996061,5.50790175 C129.108436,5.59597958 129.231442,5.65976008 129.365077,5.69924325 C129.498712,5.73872642 129.635385,5.758468 129.775094,5.758468 C130.048439,5.758468 130.274708,5.69620608 130.453901,5.57168225 C130.633094,5.44715842 130.774322,5.29074433 130.877586,5.10244 L131.87074,5.594461 Z M130.786471,3.863276 C130.780397,3.78430967 130.754581,3.69623183 130.709023,3.5990425 C130.663466,3.50185317 130.596648,3.41073817 130.50857,3.3256975 C130.420492,3.24065683 130.311154,3.170802 130.180556,3.116133 C130.049958,3.061464 129.893544,3.0341295 129.711314,3.0341295 C129.456192,3.0341295 129.231442,3.1070215 129.037063,3.2528055 C128.842684,3.3985895 128.706012,3.60207967 128.627046,3.863276 L130.786471,3.863276 Z" id="Shape"></path>
                </g>
            </g>
        </g>
    </g>
</svg>