<svg width="220" height="61" viewBox="0 0 220 61" fill="none" xmlns="http://www.w3.org/2000/svg">
<g clip-path="url(#clip0_4003_2)">
<path d="M94.5999 4.99983L91.7999 4.59983L90.5999 2.09983C90.5999 1.99983 90.4999 1.99983 90.3999 1.89983C90.1999 1.79983 89.9999 1.89983 89.8999 2.09983L88.7 4.59983L85.9999 4.99983C85.8999 4.99983 85.8999 4.99983 85.7999 5.09983C85.6999 5.19983 85.7 5.29983 85.7 5.29983C85.7 5.39983 85.6999 5.49983 85.7999 5.49983L87.7999 7.39983L87.2999 10.0998C87.2999 10.1998 87.2999 10.1998 87.2999 10.2998C87.2999 10.3998 87.3999 10.3998 87.3999 10.4998C87.4999 10.4998 87.4999 10.5998 87.5999 10.5998C87.6999 10.5998 87.6999 10.5998 87.7999 10.5998L90.2999 9.29983L92.7999 10.5998C92.8999 10.5998 92.8999 10.5998 92.9999 10.5998C93.1999 10.5998 93.2999 10.3998 93.2999 10.1998L92.7999 7.49983L94.7999 5.59983C94.8999 5.49983 94.8999 5.49983 94.8999 5.39983C94.8999 5.19983 94.7999 4.99983 94.5999 4.99983Z" fill="#F6C244"/>
<path d="M109.9 4.99983L107.1 4.59983L105.9 2.09983C105.9 1.99983 105.8 1.99983 105.7 1.89983C105.5 1.79983 105.3 1.89983 105.2 2.09983L104 4.59983L101.3 4.99983C101.2 4.99983 101.2 4.99983 101.1 5.09983C101 5.09983 101 5.19983 101 5.29983C101 5.39983 101 5.49983 101.1 5.49983L103.1 7.39983L102.6 10.0998C102.6 10.1998 102.6 10.1998 102.6 10.2998C102.6 10.3998 102.7 10.3998 102.7 10.4998C102.8 10.4998 102.8 10.5998 102.9 10.5998C103 10.5998 103 10.5998 103.1 10.5998L105.6 9.29983L108.1 10.5998C108.2 10.5998 108.2 10.5998 108.3 10.5998C108.5 10.5998 108.6 10.3998 108.6 10.1998L108.1 7.49983L110.1 5.59983C110.2 5.49983 110.2 5.49983 110.2 5.39983C110.2 5.19983 110.1 4.99983 109.9 4.99983Z" fill="#F6C244"/>
<path d="M125.2 4.99983L122.4 4.59983L121.2 2.09983C121.2 1.99983 121.1 1.99983 121 1.89983C120.8 1.79983 120.6 1.89983 120.5 2.09983L119.3 4.59983L116.5 4.99983C116.4 4.99983 116.4 4.99983 116.3 5.09983C116.2 5.19983 116.2 5.29983 116.2 5.29983C116.2 5.39983 116.2 5.49983 116.3 5.49983L118.3 7.39983L117.8 10.0998C117.8 10.1998 117.8 10.1998 117.8 10.2998C117.8 10.3998 117.9 10.3998 117.9 10.4998C118 10.4998 118 10.5998 118.1 10.5998C118.2 10.5998 118.2 10.5998 118.3 10.5998L120.8 9.29983L123.3 10.5998C123.4 10.5998 123.4 10.5998 123.5 10.5998C123.7 10.5998 123.8 10.3998 123.8 10.1998L123.3 7.49983L125.3 5.59983C125.4 5.49983 125.4 5.49983 125.4 5.39983C125.5 5.19983 125.4 4.99983 125.2 4.99983Z" fill="#F6C244"/>
<path d="M140.5 4.99983L137.7 4.59983L136.5 2.09983C136.5 1.99983 136.4 1.99983 136.3 1.89983C136.1 1.79983 135.9 1.89983 135.8 2.09983L134.6 4.59983L131.8 4.99983C131.7 4.99983 131.7 4.99983 131.6 5.09983C131.5 5.19983 131.5 5.29983 131.5 5.29983C131.5 5.39983 131.5 5.49983 131.6 5.49983L133.6 7.39983L133.1 10.0998C133.1 10.1998 133.1 10.1998 133.1 10.2998C133.1 10.3998 133.2 10.3998 133.2 10.4998C133.3 10.4998 133.3 10.5998 133.4 10.5998C133.5 10.5998 133.5 10.5998 133.6 10.5998L136.1 9.29983L138.6 10.5998C138.7 10.5998 138.7 10.5998 138.8 10.5998C139 10.5998 139.1 10.3998 139.1 10.1998L138.6 7.49983L140.6 5.59983C140.7 5.49983 140.7 5.49983 140.7 5.39983C140.8 5.19983 140.7 4.99983 140.5 4.99983Z" fill="#F6C244"/>
<path d="M155.8 4.99983L153 4.59983L151.8 2.09983C151.8 1.99983 151.7 1.99983 151.6 1.89983C151.4 1.79983 151.2 1.89983 151.1 2.09983L149.9 4.59983L147.1 4.99983C147 4.99983 147 4.99983 146.9 5.09983C146.8 5.19983 146.8 5.29983 146.8 5.29983C146.8 5.39983 146.8 5.49983 146.9 5.49983L148.9 7.39983L148.4 10.0998C148.4 10.1998 148.4 10.1998 148.4 10.2998C148.4 10.3998 148.5 10.3998 148.5 10.4998C148.6 10.4998 148.6 10.5998 148.7 10.5998C148.8 10.5998 148.8 10.5998 148.9 10.5998L151.4 9.29983L153.9 10.5998C154 10.5998 154 10.5998 154.1 10.5998C154.3 10.5998 154.4 10.3998 154.4 10.1998L153.9 7.49983L155.9 5.59983C156 5.49983 156 5.49983 156 5.39983C156.1 5.19983 156 4.99983 155.8 4.99983Z" fill="#F6C244"/>
<path d="M28.8999 59.4999C27.4999 59.0999 26.0999 58.6999 24.7999 58.0999C24.7999 58.0999 24.7999 57.9999 24.6999 57.9999C24.5999 55.6999 22.7999 53.2999 21.1999 51.7999C20.9999 51.5999 20.4999 51.6999 20.5999 52.0999C20.7999 53.9999 21.5999 55.7999 22.8999 57.1999C20.6999 55.9999 18.7999 54.3999 16.9999 52.5999C16.9999 52.4999 16.9999 52.3999 16.9999 52.3999C16.9999 50.8999 16.7999 49.2999 16.2999 47.8999C15.8999 46.7999 15.3999 45.4999 14.3999 44.8999C14.1999 44.7999 13.8999 44.8999 13.8999 45.1999C13.8999 46.9999 14.2999 48.7999 15.0999 50.4999C14.7999 50.0999 14.4999 49.7999 14.1999 49.3999C12.3999 46.9999 10.7999 44.3999 9.3999 41.6999V41.5999C9.3999 41.4999 9.3999 41.4999 9.3999 41.3999C9.4999 41.3999 9.4999 41.2999 9.5999 41.2999C11.2999 38.7999 10.9999 35.0999 10.2999 32.3999C10.0999 31.9999 9.6999 31.9999 9.4999 32.1999C7.9999 34.4999 7.9999 36.9999 8.4999 39.4999C7.5999 37.3999 6.8999 35.1999 6.4999 32.9999C6.2999 32.0999 6.1999 31.0999 6.0999 30.1999C6.1999 30.1999 6.1999 30.1999 6.2999 30.1999C8.7999 28.6999 10.0999 25.3999 10.4999 22.6999C10.4999 22.2999 10.1999 22.0999 9.8999 22.2999C8.0999 23.9999 6.7999 25.8999 5.9999 28.0999C5.9999 24.5999 6.8999 21.1999 8.1999 17.9999C8.2999 17.9999 8.2999 18.0999 8.3999 18.0999C11.2999 17.9999 13.9999 15.3999 15.4999 13.0999C15.6999 12.7999 15.3999 12.3999 15.0999 12.4999C12.9999 13.1999 11.0999 14.1999 9.3999 15.5999C10.9999 12.5999 12.9999 9.7999 15.1999 7.1999C16.5999 6.4999 18.2999 5.8999 19.3999 4.7999C20.3999 3.7999 20.8999 2.4999 21.3999 1.1999C21.5999 0.799897 21.0999 0.599897 20.7999 0.799897H20.6999C19.3999 0.899897 18.2999 1.3999 17.2999 2.3999C16.2999 3.3999 15.7999 4.7999 14.9999 5.9999C13.2999 7.8999 11.6999 9.8999 10.2999 12.0999C10.6999 8.9999 11.1999 5.6999 10.3999 2.5999C10.2999 2.1999 9.8999 2.1999 9.6999 2.4999C7.4999 5.6999 7.1999 10.0999 9.5999 13.2999C8.0999 15.8999 6.8999 18.5999 6.1999 21.4999C6.0999 20.2999 5.9999 19.0999 5.8999 17.8999C5.7999 17.0999 5.9999 15.4999 5.2999 14.9999C5.1999 14.8999 4.9999 14.7999 4.7999 14.8999C2.1999 16.4999 3.2999 22.4999 5.5999 23.8999C5.5999 23.8999 5.5999 23.8999 5.6999 23.8999C5.2999 26.0999 5.1999 28.2999 5.3999 30.4999V30.5999C5.4999 31.3999 5.5999 32.1999 5.6999 32.8999C5.7999 33.3999 5.8999 33.9999 6.0999 34.4999C5.4999 33.4999 4.6999 32.4999 3.9999 31.5999C3.1999 30.5999 2.1999 29.6999 0.899902 29.3999C0.599902 29.2999 0.399902 29.5999 0.399902 29.8999C0.999902 32.8999 3.2999 35.4999 6.2999 36.3999C6.3999 36.3999 6.3999 36.3999 6.4999 36.3999C7.3999 39.3999 8.7999 42.2999 10.3999 44.9999C9.7999 44.4999 9.0999 43.9999 8.2999 43.5999C7.2999 42.9999 5.8999 42.1999 4.7999 42.5999C4.5999 42.6999 4.4999 42.8999 4.4999 43.0999C5.4999 46.0999 8.5999 48.0999 11.6999 47.2999C12.3999 48.2999 13.0999 49.2999 13.8999 50.2999C15.0999 51.7999 16.3999 53.2999 17.8999 54.5999C16.0999 53.6999 13.6999 53.4999 11.7999 53.5999C11.4999 53.5999 11.2999 53.9999 11.4999 54.2999C13.5999 56.3999 16.7999 57.1999 19.5999 56.0999H19.6999C22.3999 58.0999 25.3999 59.5999 28.6999 60.0999C29.0999 59.8999 29.1999 59.5999 28.8999 59.4999Z" fill="#317AF3"/>
<path d="M191.3 59.5C192.7 59.1 194.1 58.7 195.4 58.1C195.4 58.1 195.4 58 195.5 58C195.6 55.7 197.4 53.3 199 51.8C199.2 51.6 199.7 51.7 199.6 52.1C199.4 54 198.6 55.8 197.3 57.2C199.5 56 201.4 54.4 203.2 52.6C203.2 52.5 203.1 52.5 203.1 52.4C203.1 50.9 203.3 49.3 203.8 47.9C204.2 46.8 204.7 45.5 205.7 44.9C205.9 44.8 206.2 44.9 206.2 45.2C206.2 47 205.8 48.8 205 50.5C205.3 50.1 205.6 49.8 205.9 49.4C207.7 47 209.3 44.4 210.7 41.7V41.6C210.7 41.5 210.7 41.5 210.7 41.4C210.6 41.4 210.6 41.3 210.5 41.3C208.8 38.8 209.1 35.1 209.9 32.4C210 32.1 210.4 32.1 210.6 32.3C212.1 34.5 212.2 37.1 211.7 39.6C212.6 37.5 213.3 35.3 213.7 33.1C213.9 32.2 214 31.2 214.1 30.3C214 30.3 214 30.3 213.9 30.3C211.4 28.8 210.1 25.5 209.7 22.8C209.6 22.4 210 22.2 210.3 22.4C212 24 213.4 26 214.1 28.2C214.1 24.7 213.2 21.3 211.9 18.1C211.8 18.1 211.8 18.2 211.7 18.2C208.8 18.1 206.1 15.5 204.6 13.2C204.4 12.9 204.7 12.5 205 12.6C207.1 13.3 209 14.3 210.7 15.7C209.1 12.7 207.1 9.89999 204.9 7.29999C203.5 6.59999 201.8 5.99999 200.7 4.89999C199.7 3.89999 199.2 2.59999 198.7 1.29999C198.5 0.899994 199 0.699994 199.3 0.899994H199.4C200.7 0.999994 201.8 1.49999 202.8 2.49999C203.8 3.49999 204.3 4.89999 205.1 6.09999C206.8 7.99999 208.4 9.99999 209.8 12.2C209.4 9.09999 208.9 5.79999 209.7 2.69999C209.8 2.29999 210.2 2.29999 210.4 2.59999C212.6 5.79999 212.9 10.2 210.5 13.4C212 16 213.2 18.7 213.9 21.6C214 20.4 214.1 19.2 214.2 18C214.3 17.2 214.1 15.6 214.8 15.1C214.9 15 215.1 14.9 215.3 15C217.9 16.6 216.8 22.6 214.5 24C214.5 24 214.5 24 214.4 24C214.8 26.2 214.9 28.4 214.7 30.6V30.7C214.6 31.5 214.5 32.3 214.4 33C214.3 33.5 214.2 34.1 214 34.6C214.6 33.6 215.4 32.6 216.1 31.7C216.9 30.7 217.9 29.8 219.2 29.5C219.5 29.4 219.7 29.7 219.7 30C219.1 33 216.8 35.6 213.8 36.5C213.7 36.5 213.7 36.5 213.6 36.5C212.7 39.5 211.3 42.4 209.7 45.1C210.4 44.6 211 44.1 211.8 43.7C212.8 43.1 214.2 42.3 215.3 42.7C215.5 42.8 215.6 43 215.6 43.2C214.6 46.2 211.5 48.2 208.4 47.4C207.7 48.4 207 49.4 206.2 50.4C205 51.9 203.7 53.4 202.2 54.7C204 53.8 206.4 53.6 208.3 53.7C208.6 53.7 208.8 54.1 208.6 54.4C206.5 56.5 203.3 57.3 200.5 56.2H200.4C197.7 58.2 194.7 59.7 191.4 60.2C191.1 59.9 191 59.6 191.3 59.5Z" fill="#317AF3"/>
<path d="M68.6029 10.7202V9.31575H65.0806V8.13421L68.4691 3.09595H70.0519V7.95586H71.0106V9.31575H70.0519V10.7202H68.6029ZM68.6029 5.26953H68.5137L66.6968 7.95586H68.6029V5.26953Z" fill="#317AF3"/>
<path d="M73.0059 10.787C72.7384 10.787 72.5099 10.6923 72.3204 10.5028C72.1309 10.3133 72.0361 10.0848 72.0361 9.81725C72.0361 9.54973 72.1309 9.32308 72.3204 9.13731C72.5099 8.95153 72.7384 8.85864 73.0059 8.85864C73.2734 8.85864 73.5001 8.95153 73.6858 9.13731C73.8716 9.32308 73.9645 9.54973 73.9645 9.81725C73.9645 10.0848 73.8716 10.3133 73.6858 10.5028C73.5001 10.6923 73.2734 10.787 73.0059 10.787Z" fill="#317AF3"/>
<path d="M77.7097 10.8984C77.301 10.8984 76.9275 10.839 76.5894 10.7201C76.2513 10.6012 75.9597 10.4396 75.7144 10.2352C75.4692 10.0309 75.2797 9.78936 75.146 9.51069C75.0122 9.23203 74.9453 8.92921 74.9453 8.60225C74.9453 8.37931 74.9769 8.17124 75.0401 7.97804C75.1032 7.78483 75.1887 7.6102 75.2964 7.45415C75.4042 7.29809 75.5287 7.16062 75.6698 7.04172C75.811 6.92283 75.9597 6.82251 76.1157 6.74076V6.65159C75.8705 6.48811 75.6568 6.27261 75.4748 6.00509C75.2927 5.73757 75.2017 5.42547 75.2017 5.06877C75.2017 4.7641 75.2648 4.47986 75.3912 4.21606C75.5175 3.95226 75.6921 3.72375 75.9151 3.53054C76.138 3.33734 76.4018 3.18686 76.7065 3.07911C77.0111 2.97136 77.3455 2.91748 77.7097 2.91748C78.0738 2.91748 78.4082 2.97136 78.7129 3.07911C79.0175 3.18686 79.2813 3.33734 79.5043 3.53054C79.7272 3.72375 79.9018 3.95226 80.0282 4.21606C80.1545 4.47986 80.2177 4.7641 80.2177 5.06877C80.2177 5.42547 80.1266 5.73757 79.9446 6.00509C79.7625 6.27261 79.5489 6.48811 79.3036 6.65159V6.74076C79.4597 6.82251 79.6083 6.92283 79.7495 7.04172C79.8907 7.16062 80.0152 7.29809 80.1229 7.45415C80.2307 7.6102 80.3161 7.78483 80.3793 7.97804C80.4424 8.17124 80.474 8.37931 80.474 8.60225C80.474 8.92921 80.4071 9.23203 80.2734 9.51069C80.1396 9.78936 79.9501 10.0309 79.7049 10.2352C79.4597 10.4396 79.168 10.6012 78.8299 10.7201C78.4918 10.839 78.1184 10.8984 77.7097 10.8984ZM77.7097 6.10541C78.0218 6.10541 78.2819 6.01809 78.4899 5.84346C78.698 5.66883 78.802 5.44033 78.802 5.15795C78.802 4.86814 78.698 4.63963 78.4899 4.47243C78.2819 4.30523 78.0218 4.22163 77.7097 4.22163C77.3976 4.22163 77.1375 4.30523 76.9294 4.47243C76.7213 4.63963 76.6173 4.86814 76.6173 5.15795C76.6173 5.44033 76.7213 5.66883 76.9294 5.84346C77.1375 6.01809 77.3976 6.10541 77.7097 6.10541ZM77.7097 9.54971C78.0887 9.54971 78.4008 9.45125 78.646 9.25432C78.8912 9.0574 79.0138 8.79174 79.0138 8.45734C79.0138 8.30129 78.9804 8.15824 78.9135 8.0282C78.8466 7.89815 78.7556 7.78483 78.6404 7.68823C78.5252 7.59162 78.3878 7.51731 78.228 7.46529C78.0682 7.41328 77.8954 7.38727 77.7097 7.38727C77.5239 7.38727 77.3511 7.41328 77.1914 7.46529C77.0316 7.51731 76.8941 7.59162 76.7789 7.68823C76.6637 7.78483 76.5727 7.89815 76.5058 8.0282C76.439 8.15824 76.4055 8.30129 76.4055 8.45734C76.4055 8.79174 76.5281 9.0574 76.7734 9.25432C77.0186 9.45125 77.3307 9.54971 77.7097 9.54971Z" fill="#317AF3"/>
<path d="M75.1537 13.8752C75.303 13.8752 75.4417 13.8886 75.5697 13.9152C75.6977 13.9419 75.8123 13.9766 75.9137 14.0192L75.6177 14.9552C75.5643 14.9286 75.507 14.9072 75.4457 14.8912C75.3843 14.8752 75.3083 14.8672 75.2177 14.8672C75.063 14.8672 74.9403 14.9166 74.8497 15.0152C74.759 15.1139 74.7137 15.2512 74.7137 15.4272V15.7472H75.6897V16.6432H74.7137V19.6672H73.6657V16.6432H72.9617V15.7472H73.6657V15.3632C73.6657 15.1232 73.7017 14.9112 73.7737 14.7272C73.8457 14.5432 73.9483 14.3886 74.0817 14.2632C74.215 14.1379 74.3723 14.0419 74.5537 13.9752C74.735 13.9086 74.935 13.8752 75.1537 13.8752Z" fill="#317AF3"/>
<path d="M76.3936 15.7473H77.3776V16.2913H77.4416C77.4896 16.1953 77.5536 16.1073 77.6336 16.0273C77.7136 15.9473 77.8029 15.8779 77.9016 15.8193C78.0002 15.7606 78.1069 15.7153 78.2216 15.6833C78.3362 15.6513 78.4496 15.6353 78.5616 15.6353C78.7002 15.6353 78.8189 15.6486 78.9176 15.6753C79.0162 15.7019 79.1002 15.7366 79.1696 15.7793L78.8896 16.7313C78.8256 16.6993 78.7549 16.6739 78.6776 16.6553C78.6002 16.6366 78.5056 16.6273 78.3936 16.6273C78.2496 16.6273 78.1189 16.6553 78.0016 16.7113C77.8842 16.7673 77.7842 16.8459 77.7016 16.9473C77.6189 17.0486 77.5549 17.1673 77.5096 17.3033C77.4642 17.4393 77.4416 17.5873 77.4416 17.7473V19.6673H76.3936V15.7473Z" fill="#317AF3"/>
<path d="M81.2658 15.6191C81.5698 15.6191 81.8485 15.6711 82.1018 15.7751C82.3551 15.8791 82.5738 16.0231 82.7578 16.2071C82.9418 16.3911 83.0858 16.6111 83.1898 16.8671C83.2938 17.1231 83.3458 17.4031 83.3458 17.7071C83.3458 18.0111 83.2938 18.2911 83.1898 18.5471C83.0858 18.8031 82.9418 19.0231 82.7578 19.2071C82.5738 19.3911 82.3551 19.5351 82.1018 19.6391C81.8485 19.7431 81.5698 19.7951 81.2658 19.7951C80.9618 19.7951 80.6831 19.7431 80.4298 19.6391C80.1765 19.5351 79.9578 19.3911 79.7738 19.2071C79.5898 19.0231 79.4458 18.8031 79.3418 18.5471C79.2378 18.2911 79.1858 18.0111 79.1858 17.7071C79.1858 17.4031 79.2378 17.1231 79.3418 16.8671C79.4458 16.6111 79.5898 16.3911 79.7738 16.2071C79.9578 16.0231 80.1765 15.8791 80.4298 15.7751C80.6831 15.6711 80.9618 15.6191 81.2658 15.6191ZM81.2658 18.8271C81.3991 18.8271 81.5285 18.8018 81.6538 18.7511C81.7791 18.7005 81.8898 18.6271 81.9858 18.5311C82.0818 18.4351 82.1578 18.3178 82.2138 18.1791C82.2698 18.0405 82.2978 17.8831 82.2978 17.7071C82.2978 17.5311 82.2698 17.3738 82.2138 17.2351C82.1578 17.0965 82.0818 16.9791 81.9858 16.8831C81.8898 16.7871 81.7791 16.7138 81.6538 16.6631C81.5285 16.6125 81.3991 16.5871 81.2658 16.5871C81.1271 16.5871 80.9965 16.6125 80.8738 16.6631C80.7511 16.7138 80.6418 16.7871 80.5458 16.8831C80.4498 16.9791 80.3738 17.0965 80.3178 17.2351C80.2618 17.3738 80.2338 17.5311 80.2338 17.7071C80.2338 17.8831 80.2618 18.0405 80.3178 18.1791C80.3738 18.3178 80.4498 18.4351 80.5458 18.5311C80.6418 18.6271 80.7511 18.7005 80.8738 18.7511C80.9965 18.8018 81.1271 18.8271 81.2658 18.8271Z" fill="#317AF3"/>
<path d="M83.9377 15.7471H84.9217V16.2591H84.9857C85.1084 16.0671 85.2751 15.9125 85.4857 15.7951C85.6964 15.6778 85.9297 15.6191 86.1857 15.6191C86.4844 15.6191 86.7351 15.6885 86.9377 15.8271C87.1404 15.9658 87.2844 16.1365 87.3697 16.3391C87.4924 16.1418 87.6657 15.9725 87.8897 15.8311C88.1137 15.6898 88.3857 15.6191 88.7057 15.6191C88.9457 15.6191 89.1537 15.6578 89.3297 15.7351C89.5057 15.8125 89.6511 15.9205 89.7657 16.0591C89.8804 16.1978 89.9671 16.3645 90.0257 16.5591C90.0844 16.7538 90.1137 16.9658 90.1137 17.1951V19.6671H89.0657V17.3871C89.0657 16.8538 88.8471 16.5871 88.4097 16.5871C88.2711 16.5871 88.1484 16.6178 88.0417 16.6791C87.9351 16.7405 87.8457 16.8231 87.7737 16.9271C87.7017 17.0311 87.6457 17.1551 87.6057 17.2991C87.5657 17.4431 87.5457 17.5978 87.5457 17.7631V19.6671H86.4977V17.3871C86.4977 16.8538 86.2684 16.5871 85.8097 16.5871C85.6764 16.5871 85.5591 16.6178 85.4577 16.6791C85.3564 16.7405 85.2711 16.8231 85.2017 16.9271C85.1324 17.0311 85.0791 17.1551 85.0417 17.2991C85.0044 17.4431 84.9857 17.5978 84.9857 17.7631V19.6671H83.9377V15.7471Z" fill="#317AF3"/>
<path d="M94.8664 19.8197C94.6046 19.8181 94.3518 19.7741 94.1082 19.688C93.8663 19.6018 93.6492 19.4618 93.4569 19.2679C93.2647 19.074 93.1122 18.8171 92.9996 18.4973C92.8885 18.1774 92.833 17.7847 92.833 17.319C92.8347 16.8914 92.8836 16.5095 92.9797 16.1731C93.0774 15.835 93.2166 15.5483 93.3973 15.313C93.5796 15.0776 93.7975 14.8987 94.051 14.776C94.3046 14.6517 94.5888 14.5896 94.9037 14.5896C95.2434 14.5896 95.5434 14.6559 95.8035 14.7885C96.0637 14.9194 96.2725 15.0975 96.43 15.3229C96.589 15.5483 96.6852 15.801 96.7183 16.0811H95.6569C95.6154 15.9038 95.5284 15.7646 95.3959 15.6635C95.2633 15.5624 95.0992 15.5118 94.9037 15.5118C94.5722 15.5118 94.3203 15.656 94.148 15.9444C93.9773 16.2327 93.8903 16.6246 93.887 17.1201H93.9218C93.998 16.9693 94.1008 16.8409 94.23 16.7348C94.3609 16.6271 94.5093 16.5451 94.675 16.4887C94.8424 16.4307 95.0189 16.4017 95.2045 16.4017C95.5061 16.4017 95.7745 16.473 96.0099 16.6155C96.2452 16.7564 96.4308 16.9503 96.5667 17.1972C96.7026 17.4441 96.7705 17.7267 96.7705 18.0449C96.7705 18.3896 96.6901 18.6961 96.5294 18.9646C96.3703 19.2331 96.1474 19.4435 95.8607 19.596C95.5757 19.7468 95.2442 19.8214 94.8664 19.8197ZM94.8614 18.9745C95.0271 18.9745 95.1755 18.9348 95.3064 18.8552C95.4373 18.7757 95.54 18.668 95.6146 18.5321C95.6892 18.3962 95.7265 18.2437 95.7265 18.0747C95.7265 17.9057 95.6892 17.754 95.6146 17.6198C95.5417 17.4856 95.4406 17.3787 95.3113 17.2991C95.1821 17.2196 95.0346 17.1798 94.8689 17.1798C94.7446 17.1798 94.6294 17.203 94.5233 17.2494C94.4189 17.2958 94.327 17.3604 94.2474 17.4433C94.1695 17.5262 94.1082 17.6223 94.0635 17.7316C94.0187 17.8394 93.9964 17.9545 93.9964 18.0772C93.9964 18.2412 94.0336 18.3912 94.1082 18.5271C94.1845 18.663 94.2872 18.7715 94.4165 18.8527C94.5474 18.9339 94.6957 18.9745 94.8614 18.9745Z" fill="#317AF3"/>
<path d="M99.4258 15.7471H100.41V16.2591H100.474C100.596 16.0671 100.763 15.9125 100.974 15.7951C101.184 15.6778 101.418 15.6191 101.674 15.6191C101.972 15.6191 102.223 15.6885 102.426 15.8271C102.628 15.9658 102.772 16.1365 102.858 16.3391C102.98 16.1418 103.154 15.9725 103.378 15.8311C103.602 15.6898 103.874 15.6191 104.194 15.6191C104.434 15.6191 104.642 15.6578 104.818 15.7351C104.994 15.8125 105.139 15.9205 105.254 16.0591C105.368 16.1978 105.455 16.3645 105.514 16.5591C105.572 16.7538 105.602 16.9658 105.602 17.1951V19.6671H104.554V17.3871C104.554 16.8538 104.335 16.5871 103.898 16.5871C103.759 16.5871 103.636 16.6178 103.53 16.6791C103.423 16.7405 103.334 16.8231 103.262 16.9271C103.19 17.0311 103.134 17.1551 103.094 17.2991C103.054 17.4431 103.034 17.5978 103.034 17.7631V19.6671H101.986V17.3871C101.986 16.8538 101.756 16.5871 101.298 16.5871C101.164 16.5871 101.047 16.6178 100.946 16.6791C100.844 16.7405 100.759 16.8231 100.69 16.9271C100.62 17.0311 100.567 17.1551 100.53 17.2991C100.492 17.4431 100.474 17.5978 100.474 17.7631V19.6671H99.4258V15.7471Z" fill="#317AF3"/>
<path d="M107.05 15.1792C106.959 15.1792 106.872 15.1619 106.79 15.1272C106.707 15.0925 106.635 15.0445 106.574 14.9832C106.512 14.9219 106.464 14.8512 106.43 14.7712C106.395 14.6912 106.378 14.6032 106.378 14.5072C106.378 14.4112 106.395 14.3232 106.43 14.2432C106.464 14.1632 106.512 14.0925 106.574 14.0312C106.635 13.9699 106.707 13.9219 106.79 13.8872C106.872 13.8525 106.959 13.8352 107.05 13.8352C107.236 13.8352 107.396 13.9005 107.53 14.0312C107.663 14.1619 107.73 14.3205 107.73 14.5072C107.73 14.6939 107.663 14.8525 107.53 14.9832C107.396 15.1139 107.236 15.1792 107.05 15.1792ZM106.53 19.6672V15.7472H107.578V19.6672H106.53Z" fill="#317AF3"/>
<path d="M108.538 19.6672V13.9392H109.586V19.6672H108.538Z" fill="#317AF3"/>
<path d="M110.482 19.6672V13.9392H111.53V19.6672H110.482Z" fill="#317AF3"/>
<path d="M113.01 15.1792C112.919 15.1792 112.832 15.1619 112.75 15.1272C112.667 15.0925 112.595 15.0445 112.534 14.9832C112.472 14.9219 112.424 14.8512 112.39 14.7712C112.355 14.6912 112.338 14.6032 112.338 14.5072C112.338 14.4112 112.355 14.3232 112.39 14.2432C112.424 14.1632 112.472 14.0925 112.534 14.0312C112.595 13.9699 112.667 13.9219 112.75 13.8872C112.832 13.8525 112.919 13.8352 113.01 13.8352C113.196 13.8352 113.356 13.9005 113.49 14.0312C113.623 14.1619 113.69 14.3205 113.69 14.5072C113.69 14.6939 113.623 14.8525 113.49 14.9832C113.356 15.1139 113.196 15.1792 113.01 15.1792ZM112.49 19.6672V15.7472H113.538V19.6672H112.49Z" fill="#317AF3"/>
<path d="M116.314 15.6191C116.618 15.6191 116.896 15.6711 117.15 15.7751C117.403 15.8791 117.622 16.0231 117.806 16.2071C117.99 16.3911 118.134 16.6111 118.238 16.8671C118.342 17.1231 118.394 17.4031 118.394 17.7071C118.394 18.0111 118.342 18.2911 118.238 18.5471C118.134 18.8031 117.99 19.0231 117.806 19.2071C117.622 19.3911 117.403 19.5351 117.15 19.6391C116.896 19.7431 116.618 19.7951 116.314 19.7951C116.01 19.7951 115.731 19.7431 115.478 19.6391C115.224 19.5351 115.006 19.3911 114.822 19.2071C114.638 19.0231 114.494 18.8031 114.39 18.5471C114.286 18.2911 114.234 18.0111 114.234 17.7071C114.234 17.4031 114.286 17.1231 114.39 16.8671C114.494 16.6111 114.638 16.3911 114.822 16.2071C115.006 16.0231 115.224 15.8791 115.478 15.7751C115.731 15.6711 116.01 15.6191 116.314 15.6191ZM116.314 18.8271C116.447 18.8271 116.576 18.8018 116.702 18.7511C116.827 18.7005 116.938 18.6271 117.034 18.5311C117.13 18.4351 117.206 18.3178 117.262 18.1791C117.318 18.0405 117.346 17.8831 117.346 17.7071C117.346 17.5311 117.318 17.3738 117.262 17.2351C117.206 17.0965 117.13 16.9791 117.034 16.8831C116.938 16.7871 116.827 16.7138 116.702 16.6631C116.576 16.6125 116.447 16.5871 116.314 16.5871C116.175 16.5871 116.044 16.6125 115.922 16.6631C115.799 16.7138 115.69 16.7871 115.594 16.8831C115.498 16.9791 115.422 17.0965 115.366 17.2351C115.31 17.3738 115.282 17.5311 115.282 17.7071C115.282 17.8831 115.31 18.0405 115.366 18.1791C115.422 18.3178 115.498 18.4351 115.594 18.5311C115.69 18.6271 115.799 18.7005 115.922 18.7511C116.044 18.8018 116.175 18.8271 116.314 18.8271Z" fill="#317AF3"/>
<path d="M119.97 16.2591H120.034C120.156 16.0618 120.322 15.9058 120.53 15.7911C120.738 15.6765 120.975 15.6191 121.242 15.6191C121.487 15.6191 121.703 15.6591 121.89 15.7391C122.076 15.8191 122.23 15.9325 122.35 16.0791C122.47 16.2258 122.56 16.4018 122.622 16.6071C122.683 16.8125 122.714 17.0405 122.714 17.2911V19.6671H121.666V17.4191C121.666 17.1365 121.603 16.9271 121.478 16.7911C121.352 16.6551 121.17 16.5871 120.93 16.5871C120.786 16.5871 120.659 16.6178 120.55 16.6791C120.44 16.7405 120.347 16.8231 120.27 16.9271C120.192 17.0311 120.134 17.1538 120.094 17.2951C120.054 17.4365 120.034 17.5871 120.034 17.7471V19.6671H118.986V15.7471H119.97V16.2591Z" fill="#317AF3"/>
<path d="M128.05 19.1553H127.986C127.863 19.3526 127.698 19.5086 127.49 19.6233C127.282 19.738 127.044 19.7953 126.778 19.7953C126.282 19.7953 125.912 19.6433 125.67 19.3393C125.427 19.0353 125.306 18.63 125.306 18.1233V15.7473H126.354V17.9953C126.354 18.278 126.416 18.4873 126.542 18.6233C126.667 18.7593 126.85 18.8273 127.09 18.8273C127.234 18.8273 127.36 18.7966 127.47 18.7353C127.579 18.674 127.672 18.5913 127.75 18.4873C127.827 18.3833 127.886 18.2606 127.926 18.1193C127.966 17.978 127.986 17.8273 127.986 17.6673V15.7473H129.034V19.6673H128.05V19.1553Z" fill="#317AF3"/>
<path d="M131.442 19.7951C131.186 19.7951 130.958 19.7631 130.758 19.6991C130.558 19.6351 130.384 19.5511 130.238 19.4471C130.091 19.3431 129.967 19.2231 129.866 19.0871C129.764 18.9511 129.687 18.8138 129.634 18.6751L130.57 18.2751C130.66 18.4778 130.782 18.6285 130.934 18.7271C131.086 18.8258 131.255 18.8751 131.442 18.8751C131.634 18.8751 131.786 18.8405 131.898 18.7711C132.01 18.7018 132.066 18.6191 132.066 18.5231C132.066 18.4165 132.019 18.3298 131.926 18.2631C131.832 18.1965 131.671 18.1365 131.442 18.0831L130.89 17.9631C130.767 17.9365 130.64 17.8938 130.51 17.8351C130.379 17.7765 130.26 17.7018 130.154 17.6111C130.047 17.5205 129.959 17.4111 129.89 17.2831C129.82 17.1551 129.786 17.0058 129.786 16.8351C129.786 16.6431 129.827 16.4725 129.91 16.3231C129.992 16.1738 130.106 16.0471 130.25 15.9431C130.394 15.8391 130.563 15.7591 130.758 15.7031C130.952 15.6471 131.162 15.6191 131.386 15.6191C131.759 15.6191 132.092 15.6925 132.386 15.8391C132.679 15.9858 132.895 16.2191 133.034 16.5391L132.13 16.9071C132.055 16.7525 131.946 16.6405 131.802 16.5711C131.658 16.5018 131.514 16.4671 131.37 16.4671C131.22 16.4671 131.09 16.4978 130.978 16.5591C130.866 16.6205 130.81 16.6991 130.81 16.7951C130.81 16.8858 130.856 16.9578 130.95 17.0111C131.043 17.0645 131.17 17.1125 131.33 17.1551L131.93 17.2991C132.33 17.3951 132.627 17.5485 132.822 17.7591C133.016 17.9698 133.114 18.2191 133.114 18.5071C133.114 18.6778 133.074 18.8405 132.994 18.9951C132.914 19.1498 132.8 19.2871 132.654 19.4071C132.507 19.5271 132.331 19.6218 132.126 19.6911C131.92 19.7605 131.692 19.7951 131.442 19.7951Z" fill="#317AF3"/>
<path d="M137.506 18.7231C137.324 19.0431 137.08 19.3018 136.774 19.4991C136.467 19.6965 136.092 19.7951 135.65 19.7951C135.351 19.7951 135.075 19.7431 134.822 19.6391C134.568 19.5351 134.348 19.3898 134.162 19.2031C133.975 19.0165 133.83 18.7965 133.726 18.5431C133.622 18.2898 133.57 18.0111 133.57 17.7071C133.57 17.4245 133.62 17.1565 133.722 16.9031C133.823 16.6498 133.964 16.4285 134.146 16.2391C134.327 16.0498 134.542 15.8991 134.79 15.7871C135.038 15.6751 135.311 15.6191 135.61 15.6191C135.924 15.6191 136.204 15.6711 136.45 15.7751C136.695 15.8791 136.9 16.0231 137.066 16.2071C137.231 16.3911 137.356 16.6085 137.442 16.8591C137.527 17.1098 137.57 17.3818 137.57 17.6751C137.57 17.7125 137.57 17.7445 137.57 17.7711C137.564 17.8031 137.562 17.8325 137.562 17.8591C137.556 17.8858 137.554 17.9151 137.554 17.9471H134.602C134.623 18.1071 134.667 18.2445 134.734 18.3591C134.8 18.4738 134.883 18.5698 134.982 18.6471C135.08 18.7245 135.188 18.7805 135.306 18.8151C135.423 18.8498 135.543 18.8671 135.666 18.8671C135.906 18.8671 136.104 18.8125 136.262 18.7031C136.419 18.5938 136.543 18.4565 136.634 18.2911L137.506 18.7231ZM136.554 17.2031C136.548 17.1338 136.526 17.0565 136.486 16.9711C136.446 16.8858 136.387 16.8058 136.31 16.7311C136.232 16.6565 136.136 16.5951 136.022 16.5471C135.907 16.4991 135.77 16.4751 135.61 16.4751C135.386 16.4751 135.188 16.5391 135.018 16.6671C134.847 16.7951 134.727 16.9738 134.658 17.2031H136.554Z" fill="#317AF3"/>
<path d="M138.242 15.7473H139.226V16.2913H139.29C139.338 16.1953 139.402 16.1073 139.482 16.0273C139.562 15.9473 139.651 15.8779 139.75 15.8193C139.848 15.7606 139.955 15.7153 140.07 15.6833C140.184 15.6513 140.298 15.6353 140.41 15.6353C140.548 15.6353 140.667 15.6486 140.766 15.6753C140.864 15.7019 140.948 15.7366 141.018 15.7793L140.738 16.7313C140.674 16.6993 140.603 16.6739 140.526 16.6553C140.448 16.6366 140.354 16.6273 140.242 16.6273C140.098 16.6273 139.967 16.6553 139.85 16.7113C139.732 16.7673 139.632 16.8459 139.55 16.9473C139.467 17.0486 139.403 17.1673 139.358 17.3033C139.312 17.4393 139.29 17.5873 139.29 17.7473V19.6673H138.242V15.7473Z" fill="#317AF3"/>
<path d="M142.89 19.7951C142.634 19.7951 142.406 19.7631 142.206 19.6991C142.006 19.6351 141.832 19.5511 141.686 19.4471C141.539 19.3431 141.415 19.2231 141.314 19.0871C141.212 18.9511 141.135 18.8138 141.082 18.6751L142.018 18.2751C142.108 18.4778 142.23 18.6285 142.382 18.7271C142.534 18.8258 142.703 18.8751 142.89 18.8751C143.082 18.8751 143.234 18.8405 143.346 18.7711C143.458 18.7018 143.514 18.6191 143.514 18.5231C143.514 18.4165 143.467 18.3298 143.374 18.2631C143.28 18.1965 143.119 18.1365 142.89 18.0831L142.338 17.9631C142.215 17.9365 142.088 17.8938 141.958 17.8351C141.827 17.7765 141.708 17.7018 141.602 17.6111C141.495 17.5205 141.407 17.4111 141.338 17.2831C141.268 17.1551 141.234 17.0058 141.234 16.8351C141.234 16.6431 141.275 16.4725 141.358 16.3231C141.44 16.1738 141.554 16.0471 141.698 15.9431C141.842 15.8391 142.011 15.7591 142.206 15.7031C142.4 15.6471 142.61 15.6191 142.834 15.6191C143.207 15.6191 143.54 15.6925 143.834 15.8391C144.127 15.9858 144.343 16.2191 144.482 16.5391L143.578 16.9071C143.503 16.7525 143.394 16.6405 143.25 16.5711C143.106 16.5018 142.962 16.4671 142.818 16.4671C142.668 16.4671 142.538 16.4978 142.426 16.5591C142.314 16.6205 142.258 16.6991 142.258 16.7951C142.258 16.8858 142.304 16.9578 142.398 17.0111C142.491 17.0645 142.618 17.1125 142.778 17.1551L143.378 17.2991C143.778 17.3951 144.075 17.5485 144.27 17.7591C144.464 17.9698 144.562 18.2191 144.562 18.5071C144.562 18.6778 144.522 18.8405 144.442 18.9951C144.362 19.1498 144.248 19.2871 144.102 19.4071C143.955 19.5271 143.779 19.6218 143.574 19.6911C143.368 19.7605 143.14 19.7951 142.89 19.7951Z" fill="#317AF3"/>
<path d="M69 28.7769H73.7835C74.3074 28.7769 74.7972 28.8594 75.2527 29.0246C75.7083 29.1897 76.1041 29.4175 76.4401 29.7079C76.7761 29.9984 77.0409 30.3372 77.2345 30.7244C77.4281 31.1117 77.5249 31.5274 77.5249 31.9716C77.5249 32.6208 77.3683 33.1646 77.0551 33.6031C76.7419 34.0416 76.3518 34.3747 75.8849 34.6025V34.7392C76.5113 34.967 77.0152 35.3229 77.3968 35.8069C77.7783 36.291 77.9691 36.8918 77.9691 37.6093C77.9691 38.1332 77.8637 38.603 77.653 39.0187C77.4423 39.4344 77.1548 39.7903 76.7903 40.0865C76.4258 40.3826 76.0016 40.6104 75.5175 40.7698C75.0335 40.9293 74.5124 41.009 73.9544 41.009H69V28.7769ZM73.6127 33.7654C74.148 33.7654 74.5608 33.6202 74.8513 33.3297C75.1417 33.0393 75.2869 32.6948 75.2869 32.2962C75.2869 31.8975 75.1445 31.5559 74.8598 31.2711C74.5751 30.9864 74.1821 30.844 73.681 30.844H71.3063V33.7654H73.6127ZM73.8689 38.8906C74.4498 38.8906 74.894 38.7454 75.2015 38.4549C75.509 38.1645 75.6628 37.7915 75.6628 37.3359C75.6628 36.8804 75.5062 36.5017 75.1929 36.1999C74.8797 35.898 74.4156 35.7471 73.8006 35.7471H71.3063V38.8906H73.8689Z" fill="#317AF3"/>
<path d="M87.3995 38.9931C87.0122 39.6765 86.4912 40.2288 85.8363 40.6502C85.1814 41.0716 84.3813 41.2824 83.436 41.2824C82.7982 41.2824 82.2088 41.1713 81.6678 40.9492C81.1268 40.7271 80.657 40.4168 80.2584 40.0181C79.8597 39.6195 79.5494 39.1497 79.3273 38.6087C79.1052 38.0677 78.9941 37.4726 78.9941 36.8234C78.9941 36.2198 79.1023 35.6475 79.3187 35.1065C79.5351 34.5655 79.837 34.0928 80.2242 33.6885C80.6114 33.2842 81.0698 32.9624 81.5995 32.7233C82.1291 32.4841 82.7128 32.3645 83.3506 32.3645C84.0225 32.3645 84.6205 32.4755 85.1444 32.6976C85.6683 32.9197 86.1068 33.2272 86.4598 33.6202C86.8129 34.0131 87.0806 34.4772 87.2628 35.0125C87.445 35.5478 87.5361 36.1287 87.5361 36.7551C87.5361 36.8348 87.5361 36.9032 87.5361 36.9601C87.5248 37.0284 87.5191 37.0911 87.5191 37.148C87.5077 37.205 87.502 37.2676 87.502 37.3359H81.198C81.2435 37.6776 81.3375 37.9709 81.4799 38.2158C81.6222 38.4606 81.7988 38.6657 82.0095 38.8308C82.2202 38.9959 82.4508 39.1155 82.7014 39.1896C82.9519 39.2636 83.2082 39.3006 83.4701 39.3006C83.9827 39.3006 84.4069 39.1839 84.7429 38.9504C85.0789 38.7169 85.3437 38.4236 85.5373 38.0706L87.3995 38.9931ZM85.3665 35.7471C85.3551 35.5991 85.3067 35.4339 85.2213 35.2517C85.1358 35.0695 85.0106 34.8986 84.8454 34.7392C84.6803 34.5797 84.4753 34.4487 84.2304 34.3462C83.9855 34.2437 83.6922 34.1925 83.3506 34.1925C82.8722 34.1925 82.4508 34.3292 82.0863 34.6025C81.7219 34.8759 81.4656 35.2574 81.3176 35.7471H85.3665Z" fill="#317AF3"/>
<path d="M92.371 41.2824C91.8243 41.2824 91.3374 41.214 90.9103 41.0773C90.4832 40.9407 90.1131 40.7613 89.7999 40.5392C89.4866 40.3171 89.2218 40.0608 89.0054 39.7704C88.789 39.48 88.6239 39.1867 88.51 38.8906L90.5088 38.0364C90.7025 38.4692 90.9616 38.7909 91.2862 39.0016C91.6108 39.2123 91.9724 39.3177 92.371 39.3177C92.781 39.3177 93.1056 39.2437 93.3448 39.0956C93.584 38.9475 93.7035 38.771 93.7035 38.566C93.7035 38.3382 93.6039 38.1531 93.4046 38.0108C93.2053 37.8684 92.8607 37.7403 92.371 37.6264L91.1922 37.3701C90.9302 37.3132 90.6597 37.2221 90.3807 37.0968C90.1017 36.9715 89.8483 36.812 89.6205 36.6184C89.3927 36.4248 89.2048 36.1913 89.0567 35.918C88.9086 35.6446 88.8346 35.3257 88.8346 34.9613C88.8346 34.5513 88.9229 34.1868 89.0994 33.8679C89.2759 33.549 89.518 33.2785 89.8255 33.0564C90.133 32.8343 90.4946 32.6635 90.9103 32.5439C91.326 32.4243 91.7731 32.3645 92.2514 32.3645C93.0487 32.3645 93.7605 32.5211 94.3869 32.8343C95.0133 33.1475 95.4746 33.6458 95.7707 34.3292L93.8402 35.115C93.6808 34.7847 93.4473 34.5456 93.1398 34.3975C92.8323 34.2494 92.5247 34.1754 92.2172 34.1754C91.8983 34.1754 91.6193 34.2409 91.3801 34.3719C91.1409 34.5028 91.0214 34.6708 91.0214 34.8759C91.0214 35.0695 91.121 35.2232 91.3203 35.3371C91.5196 35.451 91.7901 35.5535 92.1318 35.6446L93.4131 35.9521C94.2673 36.1571 94.9023 36.4846 95.318 36.9345C95.7337 37.3844 95.9415 37.9168 95.9415 38.5318C95.9415 38.8963 95.8561 39.2437 95.6853 39.574C95.5144 39.9042 95.2724 40.1975 94.9592 40.4538C94.646 40.71 94.2702 40.9122 93.8317 41.0603C93.3932 41.2083 92.9063 41.2824 92.371 41.2824Z" fill="#317AF3"/>
<path d="M98.1452 34.5512H96.676V32.6378H98.1452V30.0752H100.383V32.6378H102.433V34.5512H100.383V37.7972C100.383 37.9908 100.403 38.1702 100.443 38.3353C100.483 38.5005 100.56 38.64 100.674 38.7539C100.833 38.9361 101.061 39.0272 101.357 39.0272C101.551 39.0272 101.704 39.0073 101.818 38.9674C101.932 38.9276 102.04 38.8735 102.143 38.8051L102.775 40.7698C102.513 40.8951 102.231 40.989 101.929 41.0517C101.628 41.1143 101.294 41.1456 100.93 41.1456C100.509 41.1456 100.13 41.0801 99.7939 40.9492C99.4579 40.8182 99.176 40.6388 98.9482 40.411C98.4129 39.8985 98.1452 39.1696 98.1452 38.2243V34.5512Z" fill="#317AF3"/>
<path d="M108.105 28.7769H112.564C113.179 28.7769 113.737 28.8737 114.238 29.0673C114.74 29.2609 115.169 29.5286 115.528 29.8702C115.887 30.2119 116.163 30.6191 116.357 31.0917C116.55 31.5644 116.647 32.0798 116.647 32.6378C116.647 33.0479 116.579 33.4322 116.442 33.791C116.306 34.1498 116.118 34.4744 115.878 34.7648C115.639 35.0552 115.36 35.3115 115.041 35.5336C114.722 35.7557 114.386 35.9294 114.033 36.0546L114.016 36.1742L117.296 40.8723V41.009H114.648L111.488 36.4134H110.412V41.009H108.105V28.7769ZM112.547 34.295C113.071 34.295 113.501 34.1355 113.837 33.8166C114.173 33.4977 114.341 33.0934 114.341 32.6037C114.341 32.3873 114.304 32.1766 114.23 31.9716C114.156 31.7666 114.045 31.5843 113.897 31.4249C113.749 31.2654 113.564 31.1373 113.341 31.0405C113.119 30.9437 112.866 30.8953 112.581 30.8953H110.412V34.295H112.547Z" fill="#317AF3"/>
<path d="M123.498 40.1206H123.361C123.099 40.4395 122.783 40.7129 122.413 40.9407C122.043 41.1685 121.568 41.2824 120.987 41.2824C120.554 41.2824 120.147 41.2112 119.765 41.0688C119.384 40.9264 119.051 40.73 118.766 40.4794C118.481 40.2288 118.259 39.927 118.1 39.574C117.94 39.2209 117.86 38.8336 117.86 38.4122C117.86 37.9794 117.946 37.5894 118.117 37.242C118.287 36.8946 118.527 36.5956 118.834 36.3451C119.142 36.0945 119.503 35.9037 119.919 35.7728C120.335 35.6418 120.787 35.5763 121.277 35.5763C121.824 35.5763 122.274 35.619 122.627 35.7044C122.98 35.7898 123.27 35.8781 123.498 35.9692V35.713C123.498 35.2688 123.322 34.9015 122.968 34.611C122.615 34.3206 122.177 34.1754 121.653 34.1754C120.879 34.1754 120.224 34.5 119.688 35.1492L118.065 34.0387C118.954 32.9226 120.167 32.3645 121.704 32.3645C123.003 32.3645 123.994 32.6692 124.677 33.2785C125.36 33.8878 125.702 34.7904 125.702 35.9863V41.009H123.498V40.1206ZM123.498 37.6093C123.236 37.484 122.966 37.3844 122.687 37.3103C122.408 37.2363 122.103 37.1993 121.773 37.1993C121.237 37.1993 120.824 37.316 120.534 37.5495C120.244 37.783 120.098 38.0706 120.098 38.4122C120.098 38.7539 120.238 39.0273 120.517 39.2323C120.796 39.4373 121.118 39.5398 121.482 39.5398C121.778 39.5398 122.052 39.4857 122.302 39.3775C122.553 39.2693 122.766 39.1269 122.943 38.9504C123.119 38.7738 123.256 38.5688 123.353 38.3354C123.45 38.1019 123.498 37.8599 123.498 37.6093Z" fill="#317AF3"/>
<path d="M128.23 34.5512H126.761V32.6378H128.23V30.0752H130.468V32.6378H132.518V34.5512H130.468V37.7972C130.468 37.9908 130.488 38.1702 130.528 38.3353C130.568 38.5005 130.645 38.64 130.759 38.7539C130.918 38.9361 131.146 39.0272 131.442 39.0272C131.636 39.0272 131.789 39.0073 131.903 38.9674C132.017 38.9276 132.125 38.8735 132.228 38.8051L132.86 40.7698C132.598 40.8951 132.316 40.989 132.014 41.0517C131.712 41.1143 131.379 41.1456 131.015 41.1456C130.593 41.1456 130.215 41.0801 129.879 40.9492C129.543 40.8182 129.261 40.6388 129.033 40.411C128.498 39.8985 128.23 39.1696 128.23 38.2243V34.5512Z" fill="#317AF3"/>
<path d="M142 38.9931C141.613 39.6765 141.092 40.2288 140.437 40.6502C139.782 41.0716 138.982 41.2824 138.037 41.2824C137.399 41.2824 136.809 41.1713 136.268 40.9492C135.727 40.7271 135.258 40.4168 134.859 40.0181C134.46 39.6195 134.15 39.1497 133.928 38.6087C133.706 38.0677 133.595 37.4726 133.595 36.8234C133.595 36.2198 133.703 35.6475 133.919 35.1065C134.136 34.5655 134.438 34.0928 134.825 33.6885C135.212 33.2842 135.67 32.9624 136.2 32.7233C136.73 32.4841 137.313 32.3645 137.951 32.3645C138.623 32.3645 139.221 32.4755 139.745 32.6976C140.269 32.9197 140.707 33.2272 141.06 33.6202C141.414 34.0131 141.681 34.4772 141.863 35.0125C142.046 35.5478 142.137 36.1287 142.137 36.7551C142.137 36.8348 142.137 36.9032 142.137 36.9601C142.125 37.0284 142.12 37.0911 142.12 37.148C142.108 37.205 142.103 37.2676 142.103 37.3359H135.799C135.844 37.6776 135.938 37.9709 136.08 38.2158C136.223 38.4606 136.399 38.6657 136.61 38.8308C136.821 38.9959 137.051 39.1155 137.302 39.1896C137.553 39.2636 137.809 39.3006 138.071 39.3006C138.583 39.3006 139.008 39.1839 139.343 38.9504C139.679 38.7169 139.944 38.4236 140.138 38.0706L142 38.9931ZM139.967 35.7471C139.956 35.5991 139.907 35.4339 139.822 35.2517C139.736 35.0695 139.611 34.8986 139.446 34.7392C139.281 34.5797 139.076 34.4487 138.831 34.3462C138.586 34.2437 138.293 34.1925 137.951 34.1925C137.473 34.1925 137.051 34.3292 136.687 34.6025C136.322 34.8759 136.066 35.2574 135.918 35.7471H139.967Z" fill="#317AF3"/>
<path d="M149.893 40.001H149.756C149.551 40.3541 149.232 40.6559 148.799 40.9065C148.367 41.1571 147.831 41.2823 147.193 41.2823C146.658 41.2823 146.148 41.1713 145.664 40.9492C145.18 40.7271 144.753 40.4196 144.383 40.0267C144.013 39.6337 143.72 39.1639 143.503 38.6172C143.287 38.0706 143.179 37.4726 143.179 36.8234C143.179 36.1742 143.287 35.5763 143.503 35.0296C143.72 34.4829 144.013 34.0131 144.383 33.6202C144.753 33.2272 145.18 32.9197 145.664 32.6976C146.148 32.4755 146.658 32.3645 147.193 32.3645C147.831 32.3645 148.367 32.4898 148.799 32.7403C149.232 32.9909 149.551 33.2927 149.756 33.6458H149.893L149.756 32.4499V28.7769H151.994V41.009H149.893V40.001ZM147.655 39.2152C147.951 39.2152 148.233 39.1611 148.5 39.0529C148.768 38.9447 149.004 38.7881 149.209 38.5831C149.414 38.3781 149.58 38.1275 149.705 37.8314C149.83 37.5353 149.893 37.1993 149.893 36.8234C149.893 36.4476 149.83 36.1116 149.705 35.8155C149.58 35.5193 149.414 35.2688 149.209 35.0638C149.004 34.8588 148.768 34.7022 148.5 34.594C148.233 34.4858 147.951 34.4317 147.655 34.4317C147.359 34.4317 147.077 34.4886 146.809 34.6025C146.541 34.7164 146.305 34.8758 146.1 35.0809C145.895 35.2859 145.73 35.5364 145.605 35.8325C145.479 36.1287 145.417 36.459 145.417 36.8234C145.417 37.1879 145.479 37.5182 145.605 37.8143C145.73 38.1104 145.895 38.361 146.1 38.566C146.305 38.771 146.541 38.9304 146.809 39.0443C147.077 39.1582 147.359 39.2152 147.655 39.2152Z" fill="#317AF3"/>
<path d="M47.9356 49.1264H51.1337C51.152 49.1993 51.1672 49.2874 51.1793 49.3906C51.1915 49.4939 51.1975 49.5972 51.1975 49.7004C51.1975 50.1195 51.1337 50.5144 51.0062 50.8849C50.8786 51.2555 50.6782 51.5865 50.4048 51.8781C50.1133 52.1879 49.764 52.4278 49.357 52.5979C48.95 52.768 48.4853 52.853 47.9629 52.853C47.4891 52.853 47.0427 52.768 46.6236 52.5979C46.2044 52.4278 45.84 52.1909 45.5302 51.8872C45.2204 51.5835 44.9744 51.2236 44.7921 50.8075C44.6099 50.3914 44.5188 49.9373 44.5188 49.4453C44.5188 48.9533 44.6099 48.4992 44.7921 48.0831C44.9744 47.667 45.2204 47.3071 45.5302 47.0034C45.84 46.6997 46.2044 46.4628 46.6236 46.2927C47.0427 46.1226 47.4891 46.0376 47.9629 46.0376C48.4914 46.0376 48.9637 46.1287 49.3798 46.3109C49.7959 46.4932 50.1527 46.7453 50.4504 47.0672L49.603 47.8963C49.3904 47.6716 49.1535 47.5 48.8923 47.3815C48.6311 47.2631 48.3183 47.2039 47.9538 47.2039C47.6562 47.2039 47.3737 47.257 47.1065 47.3633C46.8392 47.4696 46.6053 47.62 46.4049 47.8143C46.2044 48.0087 46.045 48.2441 45.9265 48.5205C45.8081 48.7969 45.7489 49.1051 45.7489 49.4453C45.7489 49.7855 45.8081 50.0937 45.9265 50.3701C46.045 50.6465 46.2059 50.8819 46.4094 51.0763C46.6129 51.2706 46.8483 51.421 47.1156 51.5273C47.3828 51.6336 47.6683 51.6867 47.9721 51.6867C48.3183 51.6867 48.6114 51.6366 48.8513 51.5364C49.0913 51.4362 49.2963 51.3071 49.4663 51.1491C49.5878 51.0398 49.6926 50.9016 49.7807 50.7346C49.8688 50.5675 49.9371 50.3807 49.9857 50.1742H47.9356V49.1264Z" fill="#317AF3"/>
<path d="M54.1405 48.0967C54.4867 48.0967 54.8041 48.1559 55.0926 48.2744C55.3812 48.3928 55.6302 48.5568 55.8398 48.7664C56.0493 48.9759 56.2133 49.2265 56.3318 49.5181C56.4502 49.8096 56.5095 50.1285 56.5095 50.4748C56.5095 50.821 56.4502 51.1399 56.3318 51.4315C56.2133 51.7231 56.0493 51.9736 55.8398 52.1832C55.6302 52.3928 55.3812 52.5568 55.0926 52.6752C54.8041 52.7937 54.4867 52.8529 54.1405 52.8529C53.7942 52.8529 53.4769 52.7937 53.1883 52.6752C52.8998 52.5568 52.6507 52.3928 52.4412 52.1832C52.2316 51.9736 52.0676 51.7231 51.9492 51.4315C51.8307 51.1399 51.7715 50.821 51.7715 50.4748C51.7715 50.1285 51.8307 49.8096 51.9492 49.5181C52.0676 49.2265 52.2316 48.9759 52.4412 48.7664C52.6507 48.5568 52.8998 48.3928 53.1883 48.2744C53.4769 48.1559 53.7942 48.0967 54.1405 48.0967ZM54.1405 51.7504C54.2923 51.7504 54.4396 51.7215 54.5824 51.6638C54.7251 51.6061 54.8512 51.5226 54.9605 51.4133C55.0698 51.3039 55.1564 51.1703 55.2202 51.0124C55.284 50.8544 55.3159 50.6752 55.3159 50.4748C55.3159 50.2743 55.284 50.0951 55.2202 49.9372C55.1564 49.7793 55.0698 49.6456 54.9605 49.5363C54.8512 49.427 54.7251 49.3434 54.5824 49.2857C54.4396 49.228 54.2923 49.1992 54.1405 49.1992C53.9825 49.1992 53.8337 49.228 53.694 49.2857C53.5543 49.3434 53.4298 49.427 53.3204 49.5363C53.2111 49.6456 53.1245 49.7793 53.0608 49.9372C52.997 50.0951 52.9651 50.2743 52.9651 50.4748C52.9651 50.6752 52.997 50.8544 53.0608 51.0124C53.1245 51.1703 53.2111 51.3039 53.3204 51.4133C53.4298 51.5226 53.5543 51.6061 53.694 51.6638C53.8337 51.7215 53.9825 51.7504 54.1405 51.7504Z" fill="#317AF3"/>
<path d="M59.3888 48.0967C59.735 48.0967 60.0524 48.1559 60.3409 48.2744C60.6294 48.3928 60.8785 48.5568 61.0881 48.7664C61.2976 48.9759 61.4616 49.2265 61.5801 49.5181C61.6985 49.8096 61.7578 50.1285 61.7578 50.4748C61.7578 50.821 61.6985 51.1399 61.5801 51.4315C61.4616 51.7231 61.2976 51.9736 61.0881 52.1832C60.8785 52.3928 60.6294 52.5568 60.3409 52.6752C60.0524 52.7937 59.735 52.8529 59.3888 52.8529C59.0425 52.8529 58.7251 52.7937 58.4366 52.6752C58.1481 52.5568 57.899 52.3928 57.6895 52.1832C57.4799 51.9736 57.3159 51.7231 57.1974 51.4315C57.079 51.1399 57.0198 50.821 57.0198 50.4748C57.0198 50.1285 57.079 49.8096 57.1974 49.5181C57.3159 49.2265 57.4799 48.9759 57.6895 48.7664C57.899 48.5568 58.1481 48.3928 58.4366 48.2744C58.7251 48.1559 59.0425 48.0967 59.3888 48.0967ZM59.3888 51.7504C59.5406 51.7504 59.6879 51.7215 59.8307 51.6638C59.9734 51.6061 60.0995 51.5226 60.2088 51.4133C60.3181 51.3039 60.4047 51.1703 60.4685 51.0124C60.5323 50.8544 60.5641 50.6752 60.5641 50.4748C60.5641 50.2743 60.5323 50.0951 60.4685 49.9372C60.4047 49.7793 60.3181 49.6456 60.2088 49.5363C60.0995 49.427 59.9734 49.3434 59.8307 49.2857C59.6879 49.228 59.5406 49.1992 59.3888 49.1992C59.2308 49.1992 59.082 49.228 58.9423 49.2857C58.8026 49.3434 58.6781 49.427 58.5687 49.5363C58.4594 49.6456 58.3728 49.7793 58.3091 49.9372C58.2453 50.0951 58.2134 50.2743 58.2134 50.4748C58.2134 50.6752 58.2453 50.8544 58.3091 51.0124C58.3728 51.1703 58.4594 51.3039 58.5687 51.4133C58.6781 51.5226 58.8026 51.6061 58.9423 51.6638C59.082 51.7215 59.2308 51.7504 59.3888 51.7504Z" fill="#317AF3"/>
<path d="M64.5824 54.821C64.2665 54.821 63.9856 54.78 63.7396 54.698C63.4936 54.616 63.2794 54.5097 63.0972 54.3791C62.915 54.2485 62.7631 54.1042 62.6416 53.9463C62.5202 53.7883 62.4321 53.6304 62.3774 53.4725L63.5163 53.0169C63.6014 53.2538 63.7411 53.4375 63.9355 53.5681C64.1298 53.6987 64.3455 53.764 64.5824 53.764C64.959 53.764 65.2566 53.6471 65.4753 53.4132C65.694 53.1794 65.8033 52.8529 65.8033 52.4338V52.124H65.7304C65.5907 52.3183 65.407 52.4717 65.1792 52.5841C64.9514 52.6965 64.6826 52.7527 64.3728 52.7527C64.1056 52.7527 63.8459 52.698 63.5938 52.5886C63.3417 52.4793 63.1185 52.3229 62.9241 52.1194C62.7297 51.9159 62.5718 51.6714 62.4503 51.3859C62.3288 51.1004 62.2681 50.7815 62.2681 50.4292C62.2681 50.0769 62.3288 49.7565 62.4503 49.468C62.5718 49.1794 62.7297 48.9334 62.9241 48.7299C63.1185 48.5264 63.3417 48.37 63.5938 48.2607C63.8459 48.1513 64.1056 48.0967 64.3728 48.0967C64.6826 48.0967 64.9514 48.1529 65.1792 48.2652C65.407 48.3776 65.5907 48.531 65.7304 48.7254H65.8033V48.2425H66.9423V52.3882C66.9423 52.7648 66.8846 53.1034 66.7691 53.4041C66.6537 53.7048 66.4928 53.9599 66.2862 54.1695C66.0797 54.3791 65.8322 54.54 65.5436 54.6524C65.2551 54.7648 64.9347 54.821 64.5824 54.821ZM64.6279 51.6775C64.7737 51.6775 64.918 51.6502 65.0607 51.5955C65.2035 51.5408 65.3295 51.4603 65.4389 51.354C65.5482 51.2477 65.6363 51.1171 65.7031 50.9622C65.7699 50.8074 65.8033 50.6297 65.8033 50.4292C65.8033 50.2288 65.7699 50.0496 65.7031 49.8916C65.6363 49.7337 65.5482 49.6016 65.4389 49.4953C65.3295 49.389 65.2035 49.3085 65.0607 49.2538C64.918 49.1992 64.7737 49.1718 64.6279 49.1718C64.4822 49.1718 64.3394 49.1992 64.1997 49.2538C64.06 49.3085 63.9355 49.3905 63.8261 49.4999C63.7168 49.6092 63.6287 49.7413 63.5619 49.8962C63.4951 50.0511 63.4617 50.2288 63.4617 50.4292C63.4617 50.6297 63.4951 50.8074 63.5619 50.9622C63.6287 51.1171 63.7168 51.2477 63.8261 51.354C63.9355 51.4603 64.06 51.5408 64.1997 51.5955C64.3394 51.6502 64.4822 51.6775 64.6279 51.6775Z" fill="#317AF3"/>
<path d="M67.9626 52.7072V46.1833H69.1563V52.7072H67.9626Z" fill="#317AF3"/>
<path d="M74.3591 51.6319C74.1526 51.9964 73.8747 52.291 73.5254 52.5158C73.1761 52.7405 72.7494 52.8529 72.2452 52.8529C71.905 52.8529 71.5907 52.7937 71.3022 52.6752C71.0136 52.5568 70.7631 52.3912 70.5505 52.1786C70.3379 51.966 70.1723 51.7155 70.0539 51.4269C69.9354 51.1384 69.8762 50.821 69.8762 50.4748C69.8762 50.1528 69.9339 49.8476 70.0493 49.5591C70.1648 49.2705 70.3257 49.0185 70.5322 48.8028C70.7388 48.5872 70.9833 48.4156 71.2657 48.288C71.5482 48.1605 71.8595 48.0967 72.1997 48.0967C72.558 48.0967 72.8769 48.1559 73.1564 48.2744C73.4358 48.3928 73.6696 48.5568 73.8579 48.7664C74.0463 48.9759 74.189 49.2235 74.2862 49.509C74.3834 49.7945 74.432 50.1042 74.432 50.4383C74.432 50.4809 74.432 50.5173 74.432 50.5477C74.4259 50.5841 74.4229 50.6175 74.4229 50.6479C74.4168 50.6783 74.4137 50.7117 74.4137 50.7481H71.0516C71.0759 50.9304 71.126 51.0868 71.2019 51.2174C71.2779 51.348 71.372 51.4573 71.4844 51.5454C71.5968 51.6335 71.7198 51.6972 71.8534 51.7367C71.9871 51.7762 72.1237 51.7959 72.2634 51.7959C72.5368 51.7959 72.763 51.7337 72.9422 51.6092C73.1214 51.4846 73.2627 51.3282 73.3659 51.1399L74.3591 51.6319ZM73.2748 49.9008C73.2687 49.8218 73.2429 49.7337 73.1974 49.6365C73.1518 49.5393 73.085 49.4482 72.9969 49.3632C72.9088 49.2781 72.7995 49.2083 72.6689 49.1536C72.5383 49.0989 72.3819 49.0716 72.1997 49.0716C71.9445 49.0716 71.7198 49.1445 71.5254 49.2903C71.331 49.4361 71.1944 49.6396 71.1154 49.9008H73.2748Z" fill="#317AF3"/>
<path d="M76.4729 46.1833H77.7758L78.7872 49.992L78.933 50.6935H79.0059L79.1972 49.992L80.1357 47.0581H81.2838L82.2314 49.992L82.4136 50.6844H82.4865L82.6232 49.992L83.5708 46.1833H84.8737L83.1425 52.7072H81.958L80.9375 49.5637L80.7462 48.8439H80.6733L80.482 49.5637L79.4615 52.7072H78.277L76.4729 46.1833Z" fill="#317AF3"/>
<path d="M87.1424 48.0967C87.4887 48.0967 87.806 48.1559 88.0946 48.2744C88.3831 48.3928 88.6322 48.5568 88.8417 48.7664C89.0513 48.9759 89.2153 49.2265 89.3337 49.5181C89.4522 49.8096 89.5114 50.1285 89.5114 50.4748C89.5114 50.821 89.4522 51.1399 89.3337 51.4315C89.2153 51.7231 89.0513 51.9736 88.8417 52.1832C88.6322 52.3928 88.3831 52.5568 88.0946 52.6752C87.806 52.7937 87.4887 52.8529 87.1424 52.8529C86.7962 52.8529 86.4788 52.7937 86.1903 52.6752C85.9017 52.5568 85.6527 52.3928 85.4431 52.1832C85.2336 51.9736 85.0696 51.7231 84.9511 51.4315C84.8327 51.1399 84.7734 50.821 84.7734 50.4748C84.7734 50.1285 84.8327 49.8096 84.9511 49.5181C85.0696 49.2265 85.2336 48.9759 85.4431 48.7664C85.6527 48.5568 85.9017 48.3928 86.1903 48.2744C86.4788 48.1559 86.7962 48.0967 87.1424 48.0967ZM87.1424 51.7504C87.2943 51.7504 87.4416 51.7215 87.5843 51.6638C87.7271 51.6061 87.8531 51.5226 87.9625 51.4133C88.0718 51.3039 88.1584 51.1703 88.2221 51.0124C88.2859 50.8544 88.3178 50.6752 88.3178 50.4748C88.3178 50.2743 88.2859 50.0951 88.2221 49.9372C88.1584 49.7793 88.0718 49.6456 87.9625 49.5363C87.8531 49.427 87.7271 49.3434 87.5843 49.2857C87.4416 49.228 87.2943 49.1992 87.1424 49.1992C86.9845 49.1992 86.8357 49.228 86.696 49.2857C86.5563 49.3434 86.4317 49.427 86.3224 49.5363C86.2131 49.6456 86.1265 49.7793 86.0627 49.9372C85.9989 50.0951 85.967 50.2743 85.967 50.4748C85.967 50.6752 85.9989 50.8544 86.0627 51.0124C86.1265 51.1703 86.2131 51.3039 86.3224 51.4133C86.4317 51.5226 86.5563 51.6061 86.696 51.6638C86.8357 51.7215 86.9845 51.7504 87.1424 51.7504Z" fill="#317AF3"/>
<path d="M90.1855 48.2426H91.3063V48.8621H91.3792C91.4338 48.7528 91.5067 48.6526 91.5978 48.5615C91.6889 48.4703 91.7907 48.3914 91.9031 48.3246C92.0154 48.2577 92.1369 48.2061 92.2675 48.1697C92.3981 48.1332 92.5272 48.115 92.6548 48.115C92.8127 48.115 92.9478 48.1302 93.0602 48.1605C93.1726 48.1909 93.2683 48.2304 93.3472 48.279L93.0283 49.3633C92.9554 49.3268 92.875 49.298 92.7869 49.2767C92.6988 49.2554 92.591 49.2448 92.4634 49.2448C92.2994 49.2448 92.1506 49.2767 92.017 49.3405C91.8833 49.4043 91.7694 49.4939 91.6753 49.6093C91.5811 49.7247 91.5082 49.8598 91.4566 50.0147C91.405 50.1696 91.3792 50.3382 91.3792 50.5204V52.7072H90.1855V48.2426Z" fill="#317AF3"/>
<path d="M93.9395 46.1833H95.1331V49.7368H95.1877L96.682 48.2425H98.1581V48.3154L96.4998 49.9282L98.2948 52.6343V52.7072H96.8825L95.6615 50.7482L95.1331 51.2676V52.7072H93.9395V46.1833Z" fill="#317AF3"/>
<path d="M100.445 52.8529C100.154 52.8529 99.8939 52.8164 99.6662 52.7435C99.4384 52.6707 99.241 52.575 99.0739 52.4565C98.9069 52.3381 98.7656 52.2014 98.6502 52.0465C98.5348 51.8916 98.4467 51.7352 98.386 51.5773L99.452 51.1217C99.5553 51.3525 99.6935 51.5241 99.8666 51.6365C100.04 51.7489 100.233 51.8051 100.445 51.8051C100.664 51.8051 100.837 51.7656 100.965 51.6866C101.092 51.6076 101.156 51.5135 101.156 51.4042C101.156 51.2827 101.103 51.184 100.996 51.108C100.89 51.0321 100.706 50.9638 100.445 50.903L99.8165 50.7663C99.6768 50.736 99.5325 50.6874 99.3837 50.6206C99.2349 50.5537 99.0997 50.4687 98.9782 50.3654C98.8567 50.2622 98.7565 50.1377 98.6776 49.9919C98.5986 49.8461 98.5591 49.676 98.5591 49.4816C98.5591 49.263 98.6062 49.0686 98.7003 48.8985C98.7945 48.7284 98.9236 48.5841 99.0876 48.4657C99.2516 48.3472 99.4444 48.2561 99.6662 48.1924C99.8879 48.1286 100.126 48.0967 100.381 48.0967C100.807 48.0967 101.186 48.1802 101.52 48.3472C101.854 48.5143 102.1 48.78 102.258 49.1445L101.229 49.5636C101.144 49.3875 101.019 49.2599 100.855 49.1809C100.691 49.102 100.527 49.0625 100.363 49.0625C100.193 49.0625 100.044 49.0974 99.9167 49.1673C99.7892 49.2371 99.7254 49.3267 99.7254 49.4361C99.7254 49.5393 99.7785 49.6213 99.8848 49.6821C99.9911 49.7428 100.135 49.7975 100.318 49.8461L101.001 50.0101C101.457 50.1194 101.795 50.2941 102.017 50.534C102.239 50.7739 102.349 51.0579 102.349 51.3859C102.349 51.5803 102.304 51.7656 102.213 51.9417C102.122 52.1179 101.993 52.2743 101.826 52.411C101.659 52.5476 101.458 52.6555 101.224 52.7344C100.99 52.8134 100.731 52.8529 100.445 52.8529Z" fill="#317AF3"/>
<path d="M102.996 48.2425H104.117V48.78H104.19C104.299 48.5917 104.469 48.4308 104.7 48.2971C104.931 48.1635 105.217 48.0967 105.557 48.0967C105.842 48.0967 106.114 48.1559 106.372 48.2744C106.63 48.3928 106.858 48.5568 107.056 48.7664C107.253 48.9759 107.409 49.2265 107.525 49.5181C107.64 49.8096 107.698 50.1285 107.698 50.4748C107.698 50.821 107.64 51.1399 107.525 51.4315C107.409 51.7231 107.253 51.9736 107.056 52.1832C106.858 52.3928 106.63 52.5568 106.372 52.6752C106.114 52.7937 105.842 52.8529 105.557 52.8529C105.217 52.8529 104.931 52.7861 104.7 52.6524C104.469 52.5188 104.299 52.3578 104.19 52.1695H104.117L104.19 52.8073V54.6752H102.996V48.2425ZM105.311 51.7504C105.469 51.7504 105.619 51.72 105.762 51.6593C105.904 51.5985 106.03 51.5135 106.14 51.4042C106.249 51.2948 106.337 51.1612 106.404 51.0032C106.471 50.8453 106.504 50.6692 106.504 50.4748C106.504 50.2804 106.471 50.1042 106.404 49.9463C106.337 49.7884 106.249 49.6547 106.14 49.5454C106.03 49.4361 105.904 49.351 105.762 49.2903C105.619 49.2295 105.469 49.1992 105.311 49.1992C105.153 49.1992 105.002 49.228 104.86 49.2857C104.717 49.3434 104.591 49.427 104.482 49.5363C104.372 49.6456 104.284 49.7793 104.217 49.9372C104.15 50.0951 104.117 50.2743 104.117 50.4748C104.117 50.6752 104.15 50.8544 104.217 51.0124C104.284 51.1703 104.372 51.3039 104.482 51.4133C104.591 51.5226 104.717 51.6061 104.86 51.6638C105.002 51.7215 105.153 51.7504 105.311 51.7504Z" fill="#317AF3"/>
<path d="M111.215 52.2333H111.142C111.002 52.4034 110.834 52.5492 110.636 52.6707C110.439 52.7921 110.185 52.8529 109.876 52.8529C109.645 52.8529 109.428 52.8149 109.224 52.739C109.021 52.6631 108.843 52.5583 108.691 52.4246C108.539 52.291 108.421 52.13 108.336 51.9417C108.251 51.7534 108.208 51.5469 108.208 51.3222C108.208 51.0913 108.254 50.8833 108.345 50.698C108.436 50.5127 108.564 50.3533 108.728 50.2197C108.892 50.086 109.084 49.9843 109.306 49.9144C109.528 49.8446 109.769 49.8096 110.031 49.8096C110.322 49.8096 110.562 49.8324 110.75 49.878C110.939 49.9235 111.094 49.9706 111.215 50.0192V49.8825C111.215 49.6456 111.121 49.4497 110.933 49.2948C110.744 49.1399 110.51 49.0625 110.231 49.0625C109.818 49.0625 109.469 49.2356 109.183 49.5819L108.318 48.9896C108.791 48.3943 109.438 48.0967 110.258 48.0967C110.951 48.0967 111.479 48.2592 111.844 48.5841C112.208 48.9091 112.39 49.3905 112.39 50.0283V52.7071H111.215V52.2333ZM111.215 50.8939C111.075 50.8271 110.931 50.7739 110.782 50.7345C110.633 50.695 110.471 50.6752 110.295 50.6752C110.009 50.6752 109.789 50.7375 109.634 50.862C109.479 50.9865 109.402 51.1399 109.402 51.3222C109.402 51.5044 109.476 51.6502 109.625 51.7595C109.774 51.8688 109.946 51.9235 110.14 51.9235C110.298 51.9235 110.444 51.8947 110.577 51.837C110.711 51.7792 110.825 51.7033 110.919 51.6092C111.013 51.515 111.086 51.4057 111.138 51.2811C111.189 51.1566 111.215 51.0275 111.215 50.8939Z" fill="#317AF3"/>
<path d="M117.529 51.5682C117.335 51.9448 117.063 52.253 116.714 52.493C116.365 52.7329 115.929 52.8529 115.406 52.8529C115.06 52.8529 114.743 52.7937 114.454 52.6752C114.166 52.5568 113.917 52.3912 113.707 52.1786C113.497 51.966 113.333 51.7155 113.215 51.4269C113.097 51.1384 113.037 50.821 113.037 50.4748C113.037 50.1285 113.097 49.8096 113.215 49.5181C113.333 49.2265 113.497 48.9759 113.707 48.7664C113.917 48.5568 114.166 48.3928 114.454 48.2744C114.743 48.1559 115.06 48.0967 115.406 48.0967C115.923 48.0967 116.357 48.2151 116.709 48.452C117.062 48.6889 117.32 48.9957 117.484 49.3723L116.39 49.8279C116.287 49.6213 116.155 49.4649 115.994 49.3586C115.833 49.2523 115.631 49.1992 115.388 49.1992C115.23 49.1992 115.081 49.2295 114.942 49.2903C114.802 49.351 114.679 49.4361 114.573 49.5454C114.466 49.6547 114.383 49.7884 114.322 49.9463C114.261 50.1042 114.231 50.2804 114.231 50.4748C114.231 50.6692 114.261 50.8453 114.322 51.0032C114.383 51.1612 114.466 51.2948 114.573 51.4042C114.679 51.5135 114.802 51.5985 114.942 51.6593C115.081 51.72 115.23 51.7504 115.388 51.7504C115.637 51.7504 115.848 51.6942 116.021 51.5818C116.194 51.4695 116.333 51.307 116.436 51.0944L117.529 51.5682Z" fill="#317AF3"/>
<path d="M122.44 51.6319C122.234 51.9964 121.956 52.291 121.607 52.5158C121.257 52.7405 120.831 52.8529 120.327 52.8529C119.986 52.8529 119.672 52.7937 119.383 52.6752C119.095 52.5568 118.844 52.3912 118.632 52.1786C118.419 51.966 118.254 51.7155 118.135 51.4269C118.017 51.1384 117.958 50.821 117.958 50.4748C117.958 50.1528 118.015 49.8476 118.131 49.5591C118.246 49.2705 118.407 49.0185 118.614 48.8028C118.82 48.5872 119.065 48.4156 119.347 48.288C119.629 48.1605 119.941 48.0967 120.281 48.0967C120.639 48.0967 120.958 48.1559 121.238 48.2744C121.517 48.3928 121.751 48.5568 121.939 48.7664C122.128 48.9759 122.27 49.2235 122.367 49.509C122.465 49.7945 122.513 50.1042 122.513 50.4383C122.513 50.4809 122.513 50.5173 122.513 50.5477C122.507 50.5841 122.504 50.6175 122.504 50.6479C122.498 50.6783 122.495 50.7117 122.495 50.7481H119.133C119.157 50.9304 119.207 51.0868 119.283 51.2174C119.359 51.348 119.453 51.4573 119.566 51.5454C119.678 51.6335 119.801 51.6972 119.935 51.7367C120.068 51.7762 120.205 51.7959 120.345 51.7959C120.618 51.7959 120.844 51.7337 121.024 51.6092C121.203 51.4846 121.344 51.3282 121.447 51.1399L122.44 51.6319ZM121.356 49.9008C121.35 49.8218 121.324 49.7337 121.279 49.6365C121.233 49.5393 121.166 49.4482 121.078 49.3632C120.99 49.2781 120.881 49.2083 120.75 49.1536C120.62 49.0989 120.463 49.0716 120.281 49.0716C120.026 49.0716 119.801 49.1445 119.607 49.2903C119.412 49.4361 119.276 49.6396 119.197 49.9008H121.356Z" fill="#317AF3"/>
<path d="M125.429 46.1833H126.641L128.636 49.6366H128.709L130.705 46.1833H131.925V52.7072H130.705V49.4908L130.777 48.3974H130.705L129.046 51.3222H128.308L126.641 48.3974H126.568L126.641 49.4908V52.7072H125.429V46.1833Z" fill="#317AF3"/>
<path d="M135.707 52.2333H135.634C135.494 52.4034 135.326 52.5492 135.128 52.6707C134.931 52.7921 134.677 52.8529 134.367 52.8529C134.137 52.8529 133.919 52.8149 133.716 52.739C133.512 52.6631 133.335 52.5583 133.183 52.4246C133.031 52.291 132.913 52.13 132.828 51.9417C132.742 51.7534 132.7 51.5469 132.7 51.3222C132.7 51.0913 132.746 50.8833 132.837 50.698C132.928 50.5127 133.055 50.3533 133.219 50.2197C133.383 50.086 133.576 49.9843 133.798 49.9144C134.02 49.8446 134.261 49.8096 134.522 49.8096C134.814 49.8096 135.054 49.8324 135.242 49.878C135.43 49.9235 135.585 49.9706 135.707 50.0192V49.8825C135.707 49.6456 135.613 49.4497 135.424 49.2948C135.236 49.1399 135.002 49.0625 134.723 49.0625C134.31 49.0625 133.96 49.2356 133.675 49.5819L132.809 48.9896C133.283 48.3943 133.93 48.0967 134.75 48.0967C135.443 48.0967 135.971 48.2592 136.335 48.5841C136.7 48.9091 136.882 49.3905 136.882 50.0283V52.7071H135.707V52.2333ZM135.707 50.8939C135.567 50.8271 135.423 50.7739 135.274 50.7345C135.125 50.695 134.963 50.6752 134.786 50.6752C134.501 50.6752 134.281 50.7375 134.126 50.862C133.971 50.9865 133.894 51.1399 133.894 51.3222C133.894 51.5044 133.968 51.6502 134.117 51.7595C134.266 51.8688 134.437 51.9235 134.632 51.9235C134.79 51.9235 134.935 51.8947 135.069 51.837C135.203 51.7792 135.316 51.7033 135.411 51.6092C135.505 51.515 135.578 51.4057 135.629 51.2811C135.681 51.1566 135.707 51.0275 135.707 50.8939Z" fill="#317AF3"/>
<path d="M137.83 48.2426H138.95V48.8621H139.023C139.078 48.7528 139.151 48.6526 139.242 48.5615C139.333 48.4703 139.435 48.3914 139.547 48.3246C139.659 48.2577 139.781 48.2061 139.912 48.1697C140.042 48.1332 140.171 48.115 140.299 48.115C140.457 48.115 140.592 48.1302 140.704 48.1605C140.817 48.1909 140.912 48.2304 140.991 48.279L140.672 49.3633C140.599 49.3268 140.519 49.298 140.431 49.2767C140.343 49.2554 140.235 49.2448 140.107 49.2448C139.943 49.2448 139.795 49.2767 139.661 49.3405C139.527 49.4043 139.413 49.4939 139.319 49.6093C139.225 49.7247 139.152 49.8598 139.101 50.0147C139.049 50.1696 139.023 50.3382 139.023 50.5204V52.7072H137.83V48.2426Z" fill="#317AF3"/>
<path d="M141.583 46.1833H142.777V49.7368H142.832L144.326 48.2425H145.802V48.3154L144.144 49.9282L145.939 52.6343V52.7072H144.527L143.306 50.7482L142.777 51.2676V52.7072H141.583V46.1833Z" fill="#317AF3"/>
<path d="M150.504 51.6319C150.297 51.9964 150.019 52.291 149.67 52.5158C149.321 52.7405 148.894 52.8529 148.39 52.8529C148.05 52.8529 147.735 52.7937 147.447 52.6752C147.158 52.5568 146.908 52.3912 146.695 52.1786C146.483 51.966 146.317 51.7155 146.199 51.4269C146.08 51.1384 146.021 50.821 146.021 50.4748C146.021 50.1528 146.079 49.8476 146.194 49.5591C146.31 49.2705 146.47 49.0185 146.677 48.8028C146.884 48.5872 147.128 48.4156 147.41 48.288C147.693 48.1605 148.004 48.0967 148.344 48.0967C148.703 48.0967 149.022 48.1559 149.301 48.2744C149.581 48.3928 149.814 48.5568 150.003 48.7664C150.191 48.9759 150.334 49.2235 150.431 49.509C150.528 49.7945 150.577 50.1042 150.577 50.4383C150.577 50.4809 150.577 50.5173 150.577 50.5477C150.571 50.5841 150.568 50.6175 150.568 50.6479C150.562 50.6783 150.559 50.7117 150.559 50.7481H147.196C147.221 50.9304 147.271 51.0868 147.347 51.2174C147.423 51.348 147.517 51.4573 147.629 51.5454C147.742 51.6335 147.865 51.6972 147.998 51.7367C148.132 51.7762 148.268 51.7959 148.408 51.7959C148.682 51.7959 148.908 51.7337 149.087 51.6092C149.266 51.4846 149.407 51.3282 149.511 51.1399L150.504 51.6319ZM149.42 49.9008C149.414 49.8218 149.388 49.7337 149.342 49.6365C149.297 49.5393 149.23 49.4482 149.142 49.3632C149.054 49.2781 148.944 49.2083 148.814 49.1536C148.683 49.0989 148.527 49.0716 148.344 49.0716C148.089 49.0716 147.865 49.1445 147.67 49.2903C147.476 49.4361 147.339 49.6396 147.26 49.9008H149.42Z" fill="#317AF3"/>
<path d="M151.697 49.2632H150.914V48.2427H151.697V46.876H152.891V48.2427H153.984V49.2632H152.891V50.9944C152.891 51.0976 152.902 51.1933 152.923 51.2814C152.944 51.3695 152.985 51.4439 153.046 51.5046C153.131 51.6018 153.252 51.6504 153.41 51.6504C153.514 51.6504 153.596 51.6398 153.656 51.6185C153.717 51.5973 153.775 51.5684 153.829 51.532L154.167 52.5798C154.027 52.6466 153.877 52.6967 153.716 52.7301C153.555 52.7635 153.377 52.7802 153.183 52.7802C152.958 52.7802 152.756 52.7453 152.577 52.6754C152.397 52.6056 152.247 52.5099 152.126 52.3884C151.84 52.1151 151.697 51.7263 151.697 51.2222V49.2632Z" fill="#317AF3"/>
<path d="M154.868 48.2425H155.989V48.78H156.062C156.171 48.5917 156.341 48.4308 156.572 48.2971C156.803 48.1635 157.088 48.0967 157.428 48.0967C157.714 48.0967 157.986 48.1559 158.244 48.2744C158.502 48.3928 158.73 48.5568 158.927 48.7664C159.125 48.9759 159.281 49.2265 159.397 49.5181C159.512 49.8096 159.57 50.1285 159.57 50.4748C159.57 50.821 159.512 51.1399 159.397 51.4315C159.281 51.7231 159.125 51.9736 158.927 52.1832C158.73 52.3928 158.502 52.5568 158.244 52.6752C157.986 52.7937 157.714 52.8529 157.428 52.8529C157.088 52.8529 156.803 52.7861 156.572 52.6524C156.341 52.5188 156.171 52.3578 156.062 52.1695H155.989L156.062 52.8073V54.6752H154.868V48.2425ZM157.182 51.7504C157.34 51.7504 157.491 51.72 157.633 51.6593C157.776 51.5985 157.902 51.5135 158.012 51.4042C158.121 51.2948 158.209 51.1612 158.276 51.0032C158.343 50.8453 158.376 50.6692 158.376 50.4748C158.376 50.2804 158.343 50.1042 158.276 49.9463C158.209 49.7884 158.121 49.6547 158.012 49.5454C157.902 49.4361 157.776 49.351 157.633 49.2903C157.491 49.2295 157.34 49.1992 157.182 49.1992C157.025 49.1992 156.874 49.228 156.731 49.2857C156.589 49.3434 156.463 49.427 156.353 49.5363C156.244 49.6456 156.156 49.7793 156.089 49.9372C156.022 50.0951 155.989 50.2743 155.989 50.4748C155.989 50.6752 156.022 50.8544 156.089 51.0124C156.156 51.1703 156.244 51.3039 156.353 51.4133C156.463 51.5226 156.589 51.6061 156.731 51.6638C156.874 51.7215 157.025 51.7504 157.182 51.7504Z" fill="#317AF3"/>
<path d="M160.244 52.7072V46.1833H161.438V52.7072H160.244Z" fill="#317AF3"/>
<path d="M165.164 52.2333H165.091C164.952 52.4034 164.783 52.5492 164.586 52.6707C164.388 52.7921 164.135 52.8529 163.825 52.8529C163.594 52.8529 163.377 52.8149 163.173 52.739C162.97 52.6631 162.792 52.5583 162.64 52.4246C162.489 52.291 162.37 52.13 162.285 51.9417C162.2 51.7534 162.157 51.5469 162.157 51.3222C162.157 51.0913 162.203 50.8833 162.294 50.698C162.385 50.5127 162.513 50.3533 162.677 50.2197C162.841 50.086 163.034 49.9843 163.255 49.9144C163.477 49.8446 163.719 49.8096 163.98 49.8096C164.271 49.8096 164.511 49.8324 164.7 49.878C164.888 49.9235 165.043 49.9706 165.164 50.0192V49.8825C165.164 49.6456 165.07 49.4497 164.882 49.2948C164.694 49.1399 164.46 49.0625 164.18 49.0625C163.767 49.0625 163.418 49.2356 163.132 49.5819L162.267 48.9896C162.741 48.3943 163.388 48.0967 164.208 48.0967C164.9 48.0967 165.428 48.2592 165.793 48.5841C166.157 48.9091 166.34 49.3905 166.34 50.0283V52.7071H165.164V52.2333ZM165.164 50.8939C165.025 50.8271 164.88 50.7739 164.731 50.7345C164.583 50.695 164.42 50.6752 164.244 50.6752C163.959 50.6752 163.738 50.7375 163.583 50.862C163.429 50.9865 163.351 51.1399 163.351 51.3222C163.351 51.5044 163.425 51.6502 163.574 51.7595C163.723 51.8688 163.895 51.9235 164.089 51.9235C164.247 51.9235 164.393 51.8947 164.526 51.837C164.66 51.7792 164.774 51.7033 164.868 51.6092C164.962 51.515 165.035 51.4057 165.087 51.2811C165.138 51.1566 165.164 51.0275 165.164 50.8939Z" fill="#317AF3"/>
<path d="M171.479 51.5682C171.284 51.9448 171.012 52.253 170.663 52.493C170.314 52.7329 169.878 52.8529 169.356 52.8529C169.009 52.8529 168.692 52.7937 168.403 52.6752C168.115 52.5568 167.866 52.3912 167.656 52.1786C167.447 51.966 167.283 51.7155 167.164 51.4269C167.046 51.1384 166.987 50.821 166.987 50.4748C166.987 50.1285 167.046 49.8096 167.164 49.5181C167.283 49.2265 167.447 48.9759 167.656 48.7664C167.866 48.5568 168.115 48.3928 168.403 48.2744C168.692 48.1559 169.009 48.0967 169.356 48.0967C169.872 48.0967 170.306 48.2151 170.659 48.452C171.011 48.6889 171.269 48.9957 171.433 49.3723L170.34 49.8279C170.236 49.6213 170.104 49.4649 169.943 49.3586C169.782 49.2523 169.58 49.1992 169.337 49.1992C169.179 49.1992 169.031 49.2295 168.891 49.2903C168.751 49.351 168.628 49.4361 168.522 49.5454C168.416 49.6547 168.332 49.7884 168.271 49.9463C168.211 50.1042 168.18 50.2804 168.18 50.4748C168.18 50.6692 168.211 50.8453 168.271 51.0032C168.332 51.1612 168.416 51.2948 168.522 51.4042C168.628 51.5135 168.751 51.5985 168.891 51.6593C169.031 51.72 169.179 51.7504 169.337 51.7504C169.586 51.7504 169.797 51.6942 169.971 51.5818C170.144 51.4695 170.282 51.307 170.385 51.0944L171.479 51.5682Z" fill="#317AF3"/>
<path d="M176.39 51.6319C176.183 51.9964 175.905 52.291 175.556 52.5158C175.207 52.7405 174.78 52.8529 174.276 52.8529C173.936 52.8529 173.621 52.7937 173.333 52.6752C173.044 52.5568 172.794 52.3912 172.581 52.1786C172.368 51.966 172.203 51.7155 172.084 51.4269C171.966 51.1384 171.907 50.821 171.907 50.4748C171.907 50.1528 171.964 49.8476 172.08 49.5591C172.195 49.2705 172.356 49.0185 172.563 48.8028C172.769 48.5872 173.014 48.4156 173.296 48.288C173.579 48.1605 173.89 48.0967 174.23 48.0967C174.589 48.0967 174.907 48.1559 175.187 48.2744C175.466 48.3928 175.7 48.5568 175.888 48.7664C176.077 48.9759 176.22 49.2235 176.317 49.509C176.414 49.7945 176.462 50.1042 176.462 50.4383C176.462 50.4809 176.462 50.5173 176.462 50.5477C176.456 50.5841 176.453 50.6175 176.453 50.6479C176.447 50.6783 176.444 50.7117 176.444 50.7481H173.082C173.106 50.9304 173.157 51.0868 173.232 51.2174C173.308 51.348 173.403 51.4573 173.515 51.5454C173.627 51.6335 173.75 51.6972 173.884 51.7367C174.018 51.7762 174.154 51.7959 174.294 51.7959C174.567 51.7959 174.794 51.7337 174.973 51.6092C175.152 51.4846 175.293 51.3282 175.396 51.1399L176.39 51.6319ZM175.305 49.9008C175.299 49.8218 175.273 49.7337 175.228 49.6365C175.182 49.5393 175.116 49.4482 175.027 49.3632C174.939 49.2781 174.83 49.2083 174.699 49.1536C174.569 49.0989 174.412 49.0716 174.23 49.0716C173.975 49.0716 173.75 49.1445 173.556 49.2903C173.362 49.4361 173.225 49.6396 173.146 49.9008H175.305Z" fill="#317AF3"/>
</g>
<defs>
<clipPath id="clip0_4003_2">
<rect width="220" height="61" fill="white"/>
</clipPath>
</defs>
</svg>
