<svg xmlns="http://www.w3.org/2000/svg" xmlns:xlink="http://www.w3.org/1999/xlink" viewBox="0 0 220 60" ><path d="M17.4 2.4c0 .1-.1.2-.1.3a1.38 1.38 0 0 0-.4.3c.1-.2.3-.4.5-.6zm11.1 56.3l-4.1-1.4s0-.1-.1-.1c-.1-2.3-1.9-4.7-3.5-6.2-.2-.2-.7-.1-.6.3.2 1.9 1 3.7 2.3 5.1-2.2-1.2-4.1-2.8-5.9-4.6 0-.1.1-.1.1-.2 0-1.5-.2-3.1-.7-4.5-.4-1.1-.9-2.4-1.9-3-.2-.1-.5 0-.5.3 0 1.8.4 3.6 1.2 5.3l-.9-1.1c-1.8-2.4-3.4-5-4.8-7.7v-.3c.1 0 .1-.1.2-.1 1.7-2.5 1.4-6.2.7-8.9-.1-.3-.5-.3-.7-.1-1.5 2.2-1.6 4.8-1.1 7.3-.9-2.1-1.6-4.3-2-6.5-.2-.9-.3-1.9-.4-2.8H6c2.5-1.5 3.8-4.8 4.2-7.5 0-.4-.3-.6-.6-.4-1.7 1.6-3.1 3.6-3.8 5.8 0-3.5.9-6.9 2.2-10.1.1 0 .1.1.2.1 2.9-.1 5.6-2.7 7.1-5 .2-.3-.1-.7-.4-.6-2.1.7-4 1.7-5.7 3.1 1.6-3 3.6-5.8 5.8-8.4 1.4-.7 3.1-1.3 4.2-2.4 1-1 1.5-2.3 2-3.6.2-.4-.3-.6-.6-.4h-.1c-1.3.1-2.4.6-3.4 1.6s-1.5 2.4-2.3 3.6C13 7 11.4 9.1 10 11.3c.4-3.1.9-6.4.1-9.5-.1-.3-.5-.3-.7-.1-2.2 3.2-2.5 7.7-.1 10.8-1.5 2.6-2.7 5.3-3.4 8.2l-.3-3.6c-.1-.8.1-2.4-.6-2.9-.1-.1-.3-.2-.5-.1-2.6 1.6-1.5 7.6.8 9h.1c-.4 2.2-.5 4.4-.3 6.6v.1l.3 2.3c.1.5.2 1.1.4 1.6-.6-1-1.4-2-2.1-2.9-.8-1-1.8-1.9-3.1-2.2-.3-.1-.5.2-.5.5.6 3 2.9 5.6 5.9 6.5h.2c.9 3 2.3 5.9 3.9 8.6-.6-.5-1.3-1-2.1-1.4-1-.6-2.4-1.4-3.5-1-.3 0-.5.2-.4.4 1 3 4.1 5 7.2 4.2h0c.7 1 1.4 2 2.2 3 1.2 1.5 2.5 3 4 4.3-1.8-.9-4.2-1.1-6.1-1-.3 0-.5.4-.3.7 2.1 2.1 5.3 2.9 8.1 1.8h.1c2.7 2 5.7 3.5 9 4 .3 0 .4-.4.2-.5zM201.9 2.4c0 .1.1.2.1.3l.3.3c0-.2-.2-.4-.4-.6zm-11.1 56.3c1.4-.4 2.8-.8 4.1-1.4 0 0 0-.1.1-.1.1-2.3 1.9-4.7 3.5-6.2.2-.2.7-.1.6.3-.2 1.9-1 3.7-2.3 5.1 2.2-1.2 4.1-2.8 5.9-4.6 0-.1-.1-.1-.1-.2 0-1.5.2-3.1.7-4.5.4-1.1.9-2.4 1.9-3 .2-.1.5 0 .5.3 0 1.8-.4 3.6-1.2 5.3l.9-1.1c1.8-2.4 3.4-5 4.8-7.7v-.3c-.1 0-.1-.1-.2-.1-1.7-2.5-1.4-6.2-.6-8.9.1-.3.5-.3.7-.1 1.5 2.2 1.6 4.8 1.1 7.3.9-2.1 1.6-4.3 2-6.5.2-.9.3-1.9.4-2.8h-.2c-2.5-1.5-3.8-4.8-4.2-7.5-.1-.4.3-.6.6-.4 1.7 1.6 3.1 3.6 3.8 5.8 0-3.5-.9-6.9-2.2-10.1-.1 0-.1.1-.2.1-2.9-.1-5.6-2.7-7.1-5-.2-.3.1-.7.4-.6 2.1.7 4 1.7 5.7 3.1-1.6-3-3.6-5.8-5.8-8.4-1.4-.7-3.1-1.3-4.2-2.4-1-1-1.5-2.3-2-3.6-.2-.4.3-.6.6-.4h.1c1.3.1 2.4.6 3.4 1.6s1.5 2.4 2.3 3.6c1.7 1.9 3.3 3.9 4.7 6.1-.4-3.1-.9-6.4-.1-9.5.1-.4.5-.4.7-.1 2.2 3.2 2.5 7.6.1 10.8 1.5 2.6 2.7 5.3 3.4 8.2l.3-3.6c.1-.8-.1-2.4.6-2.9.1-.1.3-.2.5-.1 2.6 1.6 1.5 7.6-.8 9h-.1c.4 2.2.5 4.4.3 6.6v.1l-.3 2.3c-.1.5-.2 1.1-.4 1.6.6-1 1.4-2 2.1-2.9.8-1 1.8-1.9 3.1-2.2.3-.1.5.2.5.5-.6 3-2.9 5.6-5.9 6.5h-.2c-.9 3-2.3 5.9-3.9 8.6.7-.5 1.3-1 2.1-1.4 1-.6 2.4-1.4 3.5-1a.55.55 0 0 1 .3.5c-1 3-4.1 5-7.2 4.2h0c-.7 1-1.4 2-2.2 3-1.2 1.5-2.5 3-4 4.3 1.8-.9 4.2-1.1 6.1-1 .3 0 .5.4.3.7-2.1 2.1-5.3 2.9-8.1 1.8h-.1c-2.7 2-5.7 3.5-9 4-.2-.2-.3-.6-.1-.7z" fill="#317af3"/><g fill="#f6c244"><path d="M97.1 4.6L94 4.2l-1.4-2.8c0-.1-.1-.1-.2-.2-.2-.1-.4 0-.5.2l-1.4 2.8-3.1.4c-.1 0-.2.1-.2.1-.1.1-.1.2-.1.3s0 .2.1.3l2.2 2.2-.4 3v.2c0 .1.1.1.1.2.1 0 .1.1.2.1h.2l2.8-1.4 2.8 1.4c.1 0 .2.1.2 0 .2 0 .4-.2.3-.4l-.5-3.1 2.2-2.2c.1-.1.1-.1.1-.2a.55.55 0 0 0-.3-.5z"/><use xlink:href="#B"/><path d="M131.2 4.6l-3.1-.4-1.4-2.8c0-.1-.1-.1-.2-.2-.2-.1-.4 0-.5.2l-1.4 2.8-3.1.4c-.1 0-.2.1-.2.1-.1.1-.1.2-.1.3s0 .2.1.3l2.2 2.2-.5 3.1v.2c0 .1.1.1.1.2.1 0 .1.1.2.1h.2l2.8-1.4 2.8 1.4c.1 0 .2.1.2 0 .2 0 .4-.2.3-.4l-.5-3.1 2.2-2.2c.1-.1.1-.1.1-.2.2-.3 0-.5-.2-.6zm17.1 0l-3.1-.4-1.4-2.8c0-.1-.1-.1-.2-.2-.2-.1-.4 0-.5.2l-1.4 2.8-3.1.4c-.1 0-.2.1-.2.1-.1.1-.1.2-.1.3s0 .2.1.3l2.2 2.2-.5 3.1v.2c0 .1.1.1.1.2.1 0 .1.1.2.1h.2l2.8-1.4 2.8 1.4c.1 0 .2.1.2 0 .2 0 .4-.2.3-.4l-.5-3.1 2.2-2.2c.1-.1.1-.1.1-.2.1-.3 0-.5-.2-.6z"/><use xlink:href="#B" x="51.2"/></g><g fill="#317af3"><path d="M68.1 11V9.5h-3.9V8.2L68 2.5h1.8V8h1.1v1.5h-1.1V11h-1.7zm0-6h0L66 8h2.1V5zm4.9 6c-.3 0-.6-.1-.8-.3a1.08 1.08 0 0 1-.3-.7c0-.3.1-.5.3-.7s.5-.3.8-.3.6.1.8.3.3.4.3.7-.1.5-.3.7-.5.3-.8.3zm4.7-3c-.3 0-.6-.1-.9-.2s-.6-.3-.8-.6c-.2-.2-.4-.5-.6-.9s-.2-.7-.2-1.1.1-.8.2-1.2c.2-.4.4-.7.7-.9.3-.3.6-.5 1-.6s.7-.2 1.1-.2a3.73 3.73 0 0 1 1.2.2c.4.2.7.4 1 .6.3.3.5.6.6.9.1.4.2.7.2 1.1 0 .6-.1 1.1-.3 1.6s-.5 1-.9 1.5l-2 3-1.3-.9 1.7-2.5-.1-.1c-.1.2-.3.3-.6.3zm.5-4.2c-.2 0-.4 0-.5.1s-.3.2-.5.3c-.1.1-.2.3-.3.4-.1.2-.1.4-.1.6s0 .4.1.6a1.38 1.38 0 0 0 .3.4c.1.1.3.2.5.3s.4.1.5.1c.2 0 .4 0 .5-.1.2-.1.3-.2.5-.3.1-.1.2-.3.3-.4.1-.2.1-.4.1-.6s0-.4-.1-.6-.2-.3-.3-.4-.3-.2-.5-.3c-.1 0-.3-.1-.5-.1zm-5.4 10.8h.5c.1 0 .3.1.4.1l-.3 1c-.1 0-.1-.1-.2-.1h-.3c-.2 0-.3.1-.4.2s-.2.3-.2.5v.4h1.1v1h-1.1V21h-1.2v-3.4h-.8v-1h.8v-.4c0-.3 0-.5.1-.7s.2-.4.3-.5.3-.2.5-.3c.3-.1.5-.1.8-.1zm1.3 2.1h1.1v.6h.1c.1-.1.1-.2.2-.3s.2-.2.3-.2c.1-.1.2-.1.4-.2.1 0 .3-.1.4-.1h.4c.1 0 .2.1.3.1l-.3 1c-.1 0-.1-.1-.2-.1h-.3c-.2 0-.3 0-.4.1l-.3.3c-.1.1-.2.2-.2.4-.1.2-.1.3-.1.5V21h-1.2v-4.3zm5.5-.2c.3 0 .6.1.9.2s.5.3.7.5a3.04 3.04 0 0 1 .5.7c.1.3.2.6.2.9a2.39 2.39 0 0 1-.2.9c-.1.3-.3.5-.5.7s-.4.4-.7.5-.6.2-.9.2-.6-.1-.9-.2-.5-.3-.7-.5a3.04 3.04 0 0 1-.5-.7c-.1-.3-.2-.6-.2-.9a2.39 2.39 0 0 1 .2-.9c.1-.3.3-.5.5-.7s.4-.4.7-.5c.2-.1.5-.2.9-.2zm0 3.6c.1 0 .3 0 .4-.1s.3-.1.4-.2a1.38 1.38 0 0 0 .3-.4c.1-.2.1-.3.1-.5s0-.4-.1-.5-.1-.3-.3-.4c-.1-.1-.2-.2-.4-.2-.1-.1-.3-.1-.4-.1-.2 0-.3 0-.4.1s-.3.1-.4.2-.2.2-.3.4-.1.3-.1.5 0 .4.1.5.1.3.3.4c.1.1.2.2.4.2.1.1.2.1.4.1zm3-3.4h1.1v.6h.1c.1-.2.3-.4.6-.5.2-.1.5-.2.8-.2s.6.1.8.2.4.3.5.6c.1-.2.3-.4.6-.6.2-.2.6-.2.9-.2s.5 0 .7.1.4.2.5.4.2.3.3.6.1.5.1.7V21h-1.2v-2.5c0-.6-.2-.9-.7-.9-.2 0-.3 0-.4.1l-.3.3c-.1.1-.1.3-.2.4s-.1.3-.1.5V21h-1.2v-2.5c0-.6-.3-.9-.8-.9-.1 0-.3 0-.4.1-.2.1-.3.2-.3.3-.1.1-.1.3-.2.4 0 .2-.1.3-.1.5V21h-1.2v-4.3zm11.8 4.5c-.2 0-.5 0-.7-.1l-.6-.3c-.2-.1-.4-.3-.5-.5s-.3-.4-.3-.7l1.1-.4c.1.3.2.5.4.7s.4.2.7.2c.1 0 .2 0 .4-.1.1 0 .2-.1.3-.2s.1-.2.2-.3.1-.2.1-.3c0-.3-.1-.5-.3-.6s-.5-.2-.8-.2h-.5v-1.1h.8c.1 0 .2-.1.3-.1s0-.2 0-.3c.1-.1.1-.2.1-.3 0-.2-.1-.4-.2-.5s-.3-.2-.6-.2-.5.1-.6.2-.2.3-.3.5l-1.1-.4c.1-.1.1-.3.2-.5a.78.78 0 0 1 .4-.4l.6-.3c.2-.1.5-.1.8-.1s.6 0 .8.1l.6.3c.2.1.3.3.4.5s.1.4.1.6 0 .3-.1.5a.76.76 0 0 1-.2.4c-.1.1-.2.2-.2.3-.1.1-.2.1-.3.2v.1c.3.1.5.3.7.5s.3.6.3.9-.1.5-.2.7-.2.4-.4.6-.4.3-.7.4c-.1.1-.4.2-.7.2zm4.9-4.5h1.1v.6h.1c.1-.2.3-.4.6-.5.2-.1.5-.2.8-.2s.6.1.8.2.4.3.5.6c.1-.2.3-.4.6-.6.2-.2.6-.2.9-.2s.5 0 .7.1.4.2.5.4.2.3.3.6.1.5.1.7V21h-1.2v-2.5c0-.6-.2-.9-.7-.9-.2 0-.3 0-.4.1l-.3.3c-.1.1-.1.3-.2.4s-.1.3-.1.5V21h-1.2v-2.5c0-.6-.3-.9-.8-.9-.1 0-.3 0-.4.1l-.3.3c-.1.1-.1.3-.2.4 0 .2-.1.3-.1.5V21h-1.2v-4.3zm8.5-.6c-.1 0-.2 0-.3-.1-.1 0-.2-.1-.2-.2s-.1-.1-.2-.2c0-.1-.1-.2-.1-.3s0-.2.1-.3c0-.1.1-.2.2-.2s.1-.1.2-.2c.1 0 .2-.1.3-.1.2 0 .4.1.5.2s.2.3.2.5-.1.4-.2.5c-.1.3-.3.4-.5.4zm-.5 4.9v-4.4h1.2V21h-1.2zm2.2 0v-6.4h1.2V21h-1.2zm2.2 0v-6.4h1.2V21h-1.2zm2.8-4.9c-.1 0-.2 0-.3-.1-.1 0-.2-.1-.2-.2s-.1-.1-.2-.2c0-.1-.1-.2-.1-.3s0-.2.1-.3c0-.1.1-.2.2-.2s.1-.1.2-.2c.1 0 .2-.1.3-.1.2 0 .4.1.5.2s.2.3.2.5-.1.4-.2.5-.3.4-.5.4zm-.6 4.9v-4.4h1.2V21h-1.2zm4.3-4.5c.3 0 .6.1.9.2s.5.3.7.5a3.04 3.04 0 0 1 .5.7c.1.3.2.6.2.9a2.39 2.39 0 0 1-.2.9c-.1.3-.3.5-.5.7s-.4.4-.7.5-.6.2-.9.2a2.39 2.39 0 0 1-.9-.2c-.3-.1-.5-.3-.7-.5a3.04 3.04 0 0 1-.5-.7c-.1-.3-.2-.6-.2-.9a2.39 2.39 0 0 1 .2-.9c.1-.3.3-.5.5-.7s.4-.4.7-.5c.2-.1.5-.2.9-.2zm0 3.6c.1 0 .3 0 .4-.1s.3-.1.4-.2a1.38 1.38 0 0 0 .3-.4c.1-.2.1-.3.1-.5s0-.4-.1-.5-.1-.3-.3-.4-.2-.2-.4-.2c-.1-.1-.3-.1-.4-.1-.2 0-.3 0-.4.1s-.3.1-.4.2a1.38 1.38 0 0 0-.3.4c-.1.2-.1.3-.1.5s0 .4.1.5.1.3.3.4c.1.1.2.2.4.2.1.1.2.1.4.1zm4.1-2.9h0c.2-.2.4-.4.6-.5s.5-.2.8-.2.5 0 .7.1.4.2.5.4l.3.6c.1.2.1.5.1.8V21h-1.2v-2.5c0-.3-.1-.5-.2-.7s-.3-.2-.6-.2c-.2 0-.3 0-.4.1l-.3.3a.76.76 0 0 0-.2.4c0 .2-.1.3-.1.5V21h-1.2v-4.4h1.1v.6zm9 3.3h0c-.2.2-.4.4-.6.5s-.5.2-.8.2c-.6 0-1-.2-1.2-.5-.3-.3-.4-.8-.4-1.4v-2.7h1.2v2.5c0 .3.1.5.2.7s.3.2.6.2c.2 0 .3 0 .4-.1l.3-.3a.76.76 0 0 0 .2-.4c0-.1.1-.3.1-.5v-2.1h1.2V21h-1.1v-.5z"/><use xlink:href="#C"/><path d="M141.8 20c-.2.4-.5.6-.8.9-.3.2-.8.3-1.3.3-.3 0-.6-.1-.9-.2s-.5-.3-.7-.5a3.04 3.04 0 0 1-.5-.7c-.1-.3-.2-.6-.2-.9s.1-.6.2-.9.3-.5.5-.7.4-.4.7-.5.6-.2.9-.2c.4 0 .7.1.9.2.3.1.5.3.7.5s.3.4.4.7.1.6.1.9v.3h-3.3c0 .2.1.3.1.5l.3.3c.1.1.2.1.4.2s.3.1.4.1c.3 0 .5-.1.7-.2s.3-.3.4-.5l1 .4zm-1-1.7c0-.1 0-.2-.1-.3 0-.1-.1-.2-.2-.3s-.2-.2-.3-.2c-.1-.1-.3-.1-.5-.1s-.5.1-.7.2-.3.3-.4.6h2.2zm1.8-1.6h1.1v.6h.1c.1-.1.1-.2.2-.3s.2-.2.3-.2.2-.1.4-.2c.1 0 .3-.1.4-.1h.4c.1 0 .2.1.3.1l-.3 1c-.1 0-.2-.1-.2-.1h-.3c-.2 0-.3 0-.4.1l-.3.3c-.1.1-.2.2-.2.4s-.1.3-.1.5V21h-1.2v-4.3z"/><use xlink:href="#C" x="12.8"/><path d="M31.2 27.2h5.3c.6 0 1.1.1 1.6.3s.9.4 1.3.8c.4.3.7.7.9 1.1s.3.9.3 1.4c0 .7-.2 1.3-.5 1.8s-.8.9-1.3 1.1v.2c.7.3 1.3.7 1.7 1.2s.6 1.2.6 2c0 .6-.1 1.1-.4 1.6-.2.5-.6.9-1 1.2s-.9.6-1.4.8-1.1.3-1.7.3h-5.5V27.2zm5.1 5.6c.6 0 1.1-.2 1.4-.5s.5-.7.5-1.2-.2-.8-.5-1.1-.8-.5-1.3-.5h-2.6v3.3h2.5zm.3 5.7c.6 0 1.1-.2 1.5-.5.3-.3.5-.7.5-1.2s-.2-.9-.5-1.3c-.3-.3-.9-.5-1.6-.5h-2.8v3.5h2.9zm15.1.1c-.4.8-1 1.4-1.7 1.8-.7.5-1.6.7-2.7.7-.7 0-1.4-.1-2-.4-.6-.2-1.1-.6-1.6-1-.4-.4-.8-1-1-1.6s-.4-1.3-.4-2 .1-1.3.4-1.9.6-1.1 1-1.6.9-.8 1.5-1.1 1.2-.4 2-.4c.7 0 1.4.1 2 .4.6.2 1.1.6 1.5 1s.7 1 .9 1.6.3 1.2.3 1.9v.6h-7l.3 1c.2.3.4.5.6.7s.5.3.8.4.6.1.9.1c.6 0 1-.1 1.4-.4s.7-.6.9-1l1.9 1.2zM49.4 35c0-.2-.1-.3-.2-.6-.1-.2-.2-.4-.4-.6s-.4-.3-.7-.4-.6-.2-1-.2c-.5 0-1 .2-1.4.5s-.7.7-.9 1.3h4.6zm7.9 6.1a6.96 6.96 0 0 1-1.6-.2c-.4-.1-.9-.4-1.2-.6s-.6-.5-.9-.9-.4-.7-.6-1l2.2-1c.2.5.5.8.9 1.1.4.2.8.4 1.2.4.5 0 .8-.1 1.1-.2.3-.2.4-.4.4-.6 0-.3-.1-.5-.3-.6-.2-.2-.6-.3-1.2-.4l-1.3-.3-.9-.3c-.3-.1-.6-.3-.8-.5-.3-.2-.5-.5-.6-.8-.2-.3-.2-.7-.2-1.1 0-.5.1-.9.3-1.2a2.36 2.36 0 0 1 .8-.9c.3-.2.7-.4 1.2-.6.5-.1 1-.2 1.5-.2.9 0 1.7.2 2.4.5s1.2.9 1.5 1.7l-2.2.9a1.56 1.56 0 0 0-.8-.8c-.3-.2-.7-.2-1-.2-.4 0-.7.1-.9.2-.3.1-.4.3-.4.6a.55.55 0 0 0 .3.5c.2.1.5.2.9.3l1.4.3c1 .2 1.7.6 2.1 1.1s.7 1.1.7 1.8c0 .4-.1.8-.3 1.2s-.5.7-.8 1-.8.5-1.3.7c-.5.1-1 .1-1.6.1z"/><use xlink:href="#D"/><path d="M74.8 27.2h5c.7 0 1.3.1 1.9.3s1 .5 1.4.9.7.8.9 1.4c.2.5.3 1.1.3 1.7 0 .5-.1.9-.2 1.3l-.6 1.1-.9.9-1.1.6v.1l3.7 5.2v.2h-3l-3.5-5.1h-1.2v5.1h-2.6V27.2zm5 6.1c.6 0 1.1-.2 1.4-.5.4-.4.6-.8.6-1.4 0-.2 0-.5-.1-.7s-.2-.4-.4-.6-.4-.3-.6-.4-.5-.2-.8-.2h-2.4v3.8h2.3zM92 39.8h-.2c-.3.4-.6.7-1.1.9-.4.3-.9.4-1.6.4-.5 0-.9-.1-1.4-.2-.4-.2-.8-.4-1.1-.7s-.6-.6-.7-1-.3-.8-.3-1.3.1-.9.3-1.3.5-.7.8-1 .7-.5 1.2-.6 1-.2 1.5-.2c.6 0 1.1 0 1.5.1l1 .3v-.3c0-.5-.2-.9-.6-1.2s-.9-.5-1.5-.5c-.9 0-1.6.4-2.2 1.1l-1.8-1.2c1-1.2 2.3-1.9 4.1-1.9 1.4 0 2.6.3 3.3 1s1.1 1.7 1.1 3v5.6H92v-1zm0-2.8c-.3-.1-.6-.3-.9-.3-.3-.1-.7-.1-1-.1-.6 0-1.1.1-1.4.4s-.5.6-.5 1 .2.7.5.9.7.3 1.1.3c.3 0 .6-.1.9-.2s.5-.3.7-.5.3-.4.5-.7c0-.2.1-.5.1-.8z"/><use xlink:href="#D" x="33.6"/><path d="M112.6 38.6c-.4.8-1 1.4-1.7 1.8a5.38 5.38 0 0 1-2.7.7c-.7 0-1.4-.1-2-.4-.6-.2-1.1-.6-1.6-1-.4-.4-.8-1-1-1.6s-.4-1.3-.4-2 .1-1.3.4-1.9.6-1.1 1-1.6.9-.8 1.5-1.1 1.2-.4 2-.4 1.4.1 2 .4c.6.2 1.1.6 1.5 1s.7 1 .9 1.6.3 1.2.3 1.9v.6h-7l.3 1c.2.3.4.5.6.7s.5.3.8.4.6.1.9.1c.6 0 1-.1 1.4-.4s.7-.6.9-1l1.9 1.2zm-2.2-3.6c0-.2-.1-.3-.2-.6-.1-.2-.2-.4-.4-.6s-.4-.3-.7-.4-.6-.2-1-.2c-.5 0-1 .2-1.4.5s-.7.7-.9 1.3h4.6zm11 4.7h-.2c-.2.4-.6.7-1.1 1s-1.1.4-1.8.4c-.6 0-1.2-.1-1.7-.4-.5-.2-1-.6-1.4-1s-.7-1-1-1.6-.4-1.3-.4-2 .1-1.4.4-2c.2-.6.6-1.1 1-1.6s.9-.8 1.4-1 1.1-.4 1.7-.4c.7 0 1.3.1 1.8.4s.8.6 1.1 1h.2l-.2-1.3v-4.1h2.5v13.6h-2.3v-1zm-2.5-.9c.3 0 .6-.1.9-.2s.6-.3.8-.5.4-.5.6-.8c.1-.3.2-.7.2-1.1s-.1-.8-.2-1.1-.3-.6-.6-.8-.5-.4-.8-.5-.6-.2-.9-.2-.6.1-.9.2-.6.3-.8.5-.4.5-.6.8c-.1.3-.2.7-.2 1.1s.1.8.2 1.1.3.6.6.8c.2.2.5.4.8.5s.6.2.9.2zm12.6-8.6c-.2 0-.4 0-.6-.1s-.4-.2-.5-.3-.3-.3-.3-.5c-.1-.2-.1-.4-.1-.6s0-.4.1-.6.2-.4.3-.5.3-.3.5-.3c.2-.1.4-.1.6-.1.4 0 .8.2 1.1.5s.5.7.5 1.1-.2.8-.5 1.1-.7.3-1.1.3zm-1.3 10.6v-9.3h2.5v9.3h-2.5zm7.2-8.1h.2c.3-.5.7-.8 1.2-1.1s1.1-.4 1.7-.4 1.1.1 1.5.3a4.44 4.44 0 0 1 1.1.8c.3.3.5.8.6 1.3s.2 1 .2 1.6v5.7h-2.5v-5.4c0-.7-.1-1.2-.4-1.5s-.7-.5-1.3-.5c-.3 0-.6.1-.9.2s-.5.3-.7.6c-.2.2-.3.5-.4.9-.1.3-.1.7-.1 1.1v4.6H135v-9.3h2.3v1.1zm12.6 8.1v-2.3l3.7-3.7c.3-.3.5-.5.6-.7s.3-.4.4-.5c.2-.2.4-.5.5-.6s.3-.4.4-.6.2-.4.2-.6c.1-.2.1-.4.1-.6 0-.4-.2-.8-.5-1.1s-.8-.5-1.4-.5-1 .2-1.3.5-.5.7-.6 1.1l-2.3-.9c.1-.3.3-.7.5-1.1s.5-.7.9-1 .8-.5 1.3-.7 1-.3 1.6-.3c.7 0 1.3.1 1.8.3s1 .5 1.4.8a2.73 2.73 0 0 1 .9 1.2c.2.5.3 1 .3 1.5 0 .8-.2 1.6-.6 2.2-.4.7-.9 1.3-1.5 1.9l-1.6 1.6-1.5 1.4.1.1h5.3v2.2H150zm15.8.3c-.8 0-1.6-.2-2.3-.5s-1.2-.8-1.7-1.4-.8-1.3-1.1-2.2c-.3-.8-.4-1.7-.4-2.7s.1-1.9.4-2.7.6-1.6 1.1-2.2 1.1-1.1 1.7-1.4c.7-.3 1.4-.5 2.3-.5.8 0 1.6.2 2.3.5s1.2.8 1.7 1.4.8 1.3 1.1 2.2.4 1.7.4 2.7-.1 1.9-.4 2.7-.6 1.6-1.1 2.2-1.1 1.1-1.7 1.4c-.7.4-1.5.5-2.3.5zm0-2.3c.5 0 .9-.1 1.2-.3a1.96 1.96 0 0 0 .9-.9c.3-.4.5-.9.6-1.4s.2-1.1.2-1.8c0-.6-.1-1.2-.2-1.8-.1-.5-.3-1-.6-1.4s-.6-.7-.9-.9c-.4-.2-.8-.3-1.2-.3-.5 0-.9.1-1.3.3a1.96 1.96 0 0 0-.9.9c-.3.4-.4.9-.6 1.4-.1.5-.2 1.1-.2 1.8 0 .6.1 1.2.2 1.8.1.5.3 1 .6 1.4s.6.7.9.9c.4.2.8.3 1.3.3zm7 2v-2.3l3.7-3.7c.3-.3.5-.5.6-.7s.3-.4.4-.5c.2-.2.4-.5.5-.6s.3-.4.4-.6.2-.4.2-.6c.1-.2.1-.4.1-.6 0-.4-.2-.8-.5-1.1s-.8-.5-1.4-.5-1 .2-1.3.5-.5.7-.6 1.1l-2.3-.9c.1-.3.3-.7.5-1.1s.5-.7.9-1 .8-.5 1.3-.7 1-.3 1.6-.3c.7 0 1.3.1 1.8.3s1 .5 1.4.8a2.73 2.73 0 0 1 .9 1.2c.2.5.3 1 .3 1.5 0 .8-.2 1.6-.6 2.2-.4.7-.9 1.3-1.5 1.9l-1.6 1.6-1.5 1.4.1.1h5.3v2.2h-8.7zm13.3 0V30.7l-2.3 1-.9-2.1 3.8-1.8h1.9v13h-2.5zM40.3 49.9h3.6c0 .1 0 .2.1.3s0 .2 0 .3c0 .5-.1.9-.2 1.3s-.4.8-.7 1.1-.7.6-1.2.8-1 .3-1.6.3c-.5 0-1-.1-1.5-.3s-.9-.5-1.2-.8-.6-.7-.8-1.2-.3-1-.3-1.5.1-1.1.3-1.5c.2-.5.5-.9.8-1.2s.8-.6 1.2-.8c.5-.2 1-.3 1.5-.3.6 0 1.1.1 1.6.3s.9.5 1.2.8l-.9.9c-.2-.3-.5-.4-.8-.6-.3-.1-.6-.2-1-.2-.3 0-.6.1-.9.2s-.6.3-.8.5-.4.5-.5.8-.2.7-.2 1c0 .4.1.7.2 1s.3.6.5.8.5.4.8.5.6.2 1 .2.7-.1 1-.2.5-.3.7-.4c.1-.1.3-.3.4-.5s.2-.4.2-.6h-2.3v-1zm6.9-1.2c.4 0 .7.1 1.1.2.3.1.6.3.8.5s.4.5.5.8.2.7.2 1.1-.1.7-.2 1.1c-.1.3-.3.6-.5.8s-.5.4-.8.5c-.4.3-.7.3-1.1.3s-.7-.1-1.1-.2c-.3-.1-.6-.3-.8-.5s-.4-.5-.5-.8-.2-.7-.2-1.1.1-.7.2-1.1c.1-.3.3-.6.5-.8s.5-.4.8-.5c.3-.2.7-.3 1.1-.3zm0 4.1c.2 0 .3 0 .5-.1s.3-.2.4-.3.2-.3.3-.4c.1-.2.1-.4.1-.6s0-.4-.1-.6-.2-.3-.3-.4-.3-.2-.4-.3-.3-.1-.5-.1-.3 0-.5.1-.3.2-.4.3-.2.3-.3.4c-.1.2-.1.4-.1.6s0 .4.1.6.2.3.3.4.3.2.4.3.3.1.5.1zm5.8-4.1c.4 0 .7.1 1.1.2.3.1.6.3.8.5s.4.5.5.8.2.7.2 1.1-.1.7-.2 1.1c-.1.3-.3.6-.5.8s-.5.4-.8.5c-.3.3-.7.3-1.1.3s-.7 0-1-.2c-.3-.1-.6-.3-.8-.5s-.4-.5-.5-.8-.2-.7-.2-1.1.1-.7.2-1.1c.1-.3.3-.6.5-.8s.5-.4.8-.5a1.93 1.93 0 0 1 1-.3zm0 4.1c.2 0 .3 0 .5-.1s.3-.2.4-.3.2-.3.3-.4c.1-.2.1-.4.1-.6s0-.4-.1-.6-.2-.3-.3-.4-.3-.2-.4-.3-.3-.1-.5-.1-.3 0-.5.1-.3.2-.4.3-.2.3-.3.4c-.1.2-.1.4-.1.6s0 .4.1.6.2.3.3.4.3.2.4.3c.2.1.4.1.5.1zm5.8 3.4c-.4 0-.7 0-.9-.1s-.5-.2-.7-.4c-.2-.1-.4-.3-.5-.5s-.2-.4-.3-.5l1.3-.5c.1.3.3.5.5.6s.5.2.7.2c.4 0 .8-.1 1-.4s.4-.6.4-1.1v-.3h-.1c-.2.2-.4.4-.6.5-.3.1-.6.2-.9.2s-.6-.1-.9-.2-.5-.3-.7-.5-.4-.5-.5-.8-.2-.7-.2-1.1.1-.7.2-1.1c.1-.3.3-.6.5-.8a3.04 3.04 0 0 1 .7-.5c.3-.1.6-.2.9-.2s.6.1.9.2.5.3.6.5h.1v-.5h1.3v4.6c0 .4-.1.8-.2 1.1s-.3.6-.5.9c-.2.2-.5.4-.8.5a5.07 5.07 0 0 1-1.3.2zm.1-3.5c.2 0 .3 0 .5-.1s.3-.1.4-.3c.1-.1.2-.3.3-.4s.1-.4.1-.6 0-.4-.1-.6-.2-.3-.3-.4-.3-.2-.4-.3c-.2-.1-.3-.1-.5-.1s-.3 0-.5.1-.3.1-.4.3c-.1.1-.2.3-.3.4-.1.2-.1.4-.1.6s0 .4.1.6.2.3.3.4.3.2.4.3a.9.9 0 0 0 .5.1zm3.7 1.2v-7.3h1.3v7.3h-1.3zm7.1-1.2c-.2.4-.5.7-.9 1s-.9.4-1.4.4c-.4 0-.7-.1-1.1-.2-.3-.1-.6-.3-.8-.6-.2-.2-.4-.5-.6-.8-.1-.3-.2-.7-.2-1.1s.1-.7.2-1 .3-.6.5-.8.5-.4.8-.6c.3-.1.7-.2 1-.2.4 0 .8.1 1.1.2s.6.3.8.5.4.5.5.8.2.7.2 1v.3H66c0 .2.1.4.2.5s.2.3.3.4a.76.76 0 0 0 .4.2c.1 0 .3.1.5.1.3 0 .6-.1.8-.2s.4-.3.5-.5l1 .6zm-1.2-1.9c0-.1 0-.2-.1-.3s-.1-.2-.2-.3-.2-.2-.4-.2c-.1-.1-.3-.1-.5-.1-.3 0-.5.1-.8.2-.2.2-.4.4-.5.7h2.5zm3.6-4.2h1.5l1.1 4.2.2.8h.1l.2-.8 1-3.3h1.3l1.1 3.3.2.8h.1l.2-.8 1.1-4.2h1.5l-1.9 7.3h-1.3l-1.1-3.5-.2-.8h-.1l-.2.8-1.1 3.5h-1.3l-2.4-7.3zM84 48.7c.4 0 .7.1 1.1.2.3.1.6.3.8.5s.4.5.5.8.2.7.2 1.1-.1.7-.2 1.1c-.1.3-.3.6-.5.8s-.5.4-.8.5c-.4.3-.7.3-1.1.3s-.7-.1-1.1-.2c-.3-.1-.6-.3-.8-.5s-.4-.5-.5-.8-.2-.7-.2-1.1.1-.7.2-1.1c.1-.3.3-.6.5-.8s.5-.4.8-.5c.4-.2.7-.3 1.1-.3zm0 4.1c.2 0 .3 0 .5-.1s.3-.2.4-.3.2-.3.3-.4c.1-.2.1-.4.1-.6s0-.4-.1-.6-.2-.3-.3-.4-.3-.2-.4-.3-.3-.1-.5-.1-.3 0-.5.1-.3.2-.4.3-.2.3-.3.4c-.1.2-.1.4-.1.6s0 .4.1.6.2.3.3.4.3.2.4.3a.9.9 0 0 0 .5.1z"/><use xlink:href="#E"/><path d="M91.6 46.6h1.3v4h.1l1.7-1.7h1.6v.1l-1.8 1.8 2 3v.1h-1.6l-1.4-2.2-.6.6v1.6h-1.3v-7.3zm7.2 7.4c-.3 0-.6 0-.9-.1s-.5-.2-.7-.3-.3-.3-.5-.5c-.1-.2-.2-.3-.3-.5l1.2-.5c.1.3.3.4.5.6.2.1.4.2.6.2s.4 0 .6-.1c.1-.1.2-.2.2-.3s-.1-.2-.2-.3-.3-.2-.6-.2l-.7-.2c-.2 0-.3-.1-.5-.2s-.3-.2-.5-.3c-.1-.1-.2-.3-.3-.4-.1-.2-.1-.4-.1-.6s.1-.5.2-.7.2-.4.4-.5l.6-.3c.2-.1.5-.1.8-.1.5 0 .9.1 1.3.3s.6.5.8.9l-1.1.5a.78.78 0 0 0-.4-.4c-.2-.1-.4-.1-.5-.1-.2 0-.4 0-.5.1-.1 0-.2.1-.2.2s.1.2.2.3.3.1.5.2l.8.2c.5.1.9.3 1.1.6s.4.6.4 1c0 .2-.1.4-.2.6s-.2.4-.4.5-.4.3-.7.4-.5 0-.9 0zm2.9-5.1h1.3v.6h.1c.1-.2.3-.4.6-.5s.6-.2 1-.2c.3 0 .6.1.9.2s.5.3.8.5c.2.2.4.5.5.8s.2.7.2 1.1-.1.7-.2 1.1c-.1.3-.3.6-.5.8s-.5.4-.8.5-.6.2-.9.2c-.4 0-.7-.1-1-.2s-.4-.3-.6-.5h-.1v2.8h-1.3v-7.2zm2.6 3.9c.2 0 .3 0 .5-.1s.3-.2.4-.3.2-.3.3-.4c.1-.2.1-.4.1-.6s0-.4-.1-.6-.2-.3-.3-.4-.3-.2-.4-.3c-.2-.1-.3-.1-.5-.1s-.3 0-.5.1-.3.2-.4.3-.2.3-.3.4c-.1.2-.1.4-.1.6s0 .4.1.6a1.38 1.38 0 0 0 .3.4c.1.1.3.2.4.3s.3.1.5.1zm6.6.6h0c-.2.2-.4.4-.6.5s-.5.2-.8.2-.5 0-.7-.1-.4-.2-.6-.4c-.2-.1-.3-.3-.4-.5s-.1-.4-.1-.7.1-.5.2-.7.2-.4.4-.5.4-.3.6-.3c.2-.1.5-.1.8-.1s.6 0 .8.1.4.1.5.2v-.2c0-.3-.1-.5-.3-.7s-.5-.3-.8-.3c-.5 0-.9.2-1.2.6l-1-.7c.5-.7 1.2-1 2.2-1 .8 0 1.4.2 1.8.5s.6.9.6 1.6v3H111v-.5zm0-1.5c-.2-.1-.3-.1-.5-.2-.2 0-.3-.1-.5-.1-.3 0-.6.1-.7.2a.55.55 0 0 0-.3.5c0 .2.1.4.2.5s.4.2.6.2.3 0 .5-.1c.1-.1.3-.1.4-.3.1-.1.2-.2.2-.4 0 0 .1-.2.1-.3zm7 .7c-.2.4-.5.8-.9 1s-.9.4-1.5.4c-.4 0-.7-.1-1.1-.2-.3-.1-.6-.3-.8-.6-.2-.2-.4-.5-.5-.8s-.2-.7-.2-1.1.1-.7.2-1.1c.1-.3.3-.6.5-.8s.5-.4.8-.5.7-.2 1.1-.2c.6 0 1.1.1 1.5.4s.7.6.9 1l-1.2.5c-.1-.2-.3-.4-.4-.5-.2-.1-.4-.2-.7-.2-.2 0-.3 0-.5.1s-.3.2-.4.3-.2.3-.3.4c-.1.2-.1.4-.1.6s0 .4.1.6.2.3.3.4.3.2.4.3c.2.1.3.1.5.1.3 0 .5-.1.7-.2s.3-.3.5-.5l1.1.6zm5.5.1c-.2.4-.5.7-.9 1s-.9.4-1.4.4c-.4 0-.7-.1-1.1-.2-.3-.1-.6-.3-.8-.6-.2-.2-.4-.5-.6-.8-.1-.3-.2-.7-.2-1.1s.1-.7.2-1 .3-.6.5-.8.5-.4.8-.6c.3-.1.7-.2 1-.2.4 0 .8.1 1.1.2s.6.3.8.5.4.5.5.8.2.7.2 1v.3h-3.8c0 .2.1.4.2.5s.2.3.3.4a.76.76 0 0 0 .4.2c.1 0 .3.1.5.1.3 0 .6-.1.8-.2s.4-.3.5-.5l1 .6zm-1.2-1.9c0-.1 0-.2-.1-.3s-.1-.2-.2-.3-.2-.2-.4-.2c-.1-.1-.3-.1-.5-.1-.3 0-.5.1-.8.2-.2.2-.4.4-.5.7h2.5zm4.5-4.2h1.4l2.2 3.9h.1l2.2-3.9h1.4v7.3h-1.4v-3.6l.1-1.2h-.1l-1.8 3.3h-.8l-1.9-3.3h-.1l.1 1.2v3.6h-1.4v-7.3zm11.5 6.8h0c-.2.2-.4.4-.6.5s-.5.2-.8.2-.5 0-.7-.1-.4-.2-.6-.4c-.2-.1-.3-.3-.4-.5s-.1-.4-.1-.7.1-.5.2-.7.2-.4.4-.5.4-.3.6-.3c.2-.1.5-.1.8-.1s.6 0 .8.1.4.1.5.2v-.2c0-.3-.1-.5-.3-.7s-.5-.3-.8-.3c-.5 0-.9.2-1.2.6l-1-.7c.5-.7 1.2-1 2.2-1 .8 0 1.4.2 1.8.5s.6.9.6 1.6v3h-1.3v-.5zm0-1.5c-.2-.1-.3-.1-.5-.2-.2 0-.3-.1-.5-.1-.3 0-.6.1-.7.2a.55.55 0 0 0-.3.5c0 .2.1.4.2.5s.4.2.6.2.3 0 .5-.1c.1-.1.3-.1.4-.3.1-.1.2-.2.2-.4 0 0 .1-.2.1-.3z"/><use xlink:href="#E" x="53.1"/><path d="M144.7 46.6h1.3v4h.1l1.7-1.7h1.6v.1l-1.8 1.8 2 3v.1H148l-1.4-2.2-.6.6v1.6h-1.3v-7.3zm10 6.1c-.2.4-.5.7-.9 1s-.9.4-1.4.4c-.4 0-.7-.1-1.1-.2-.3-.1-.6-.3-.8-.6-.2-.2-.4-.5-.6-.8-.1-.3-.2-.7-.2-1.1s.1-.7.2-1 .3-.6.5-.8.5-.4.8-.6c.3-.1.7-.2 1-.2.4 0 .8.1 1.1.2s.6.3.8.5.4.5.5.8.2.7.2 1v.3H151c0 .2.1.4.2.5s.2.3.3.4a.76.76 0 0 0 .4.2c.1 0 .3.1.5.1.3 0 .6-.1.8-.2s.4-.3.5-.5l1 .6zm-1.2-1.9c0-.1 0-.2-.1-.3s-.1-.2-.2-.3-.2-.2-.4-.2c-.1-.1-.3-.1-.5-.1-.3 0-.5.1-.8.2-.2.2-.4.4-.5.7h2.5zm2.5-.8h-.9v-1.1h.9v-1.5h1.3v1.5h1.2V50h-1.2v2.3c0 .1.1.2.1.3.1.1.2.2.4.2h.3c.1 0 .1-.1.2-.1l.4 1.2c-.2.1-.3.1-.5.2s-.4.1-.6.1c-.3 0-.5 0-.7-.1s-.4-.2-.5-.3c-.3-.3-.5-.8-.5-1.3V50zm3.5-1.1h1.2v.6h.1c.1-.2.3-.4.6-.5s.6-.2 1-.2c.3 0 .6.1.9.2s.5.3.8.5c.2.2.4.5.5.8s.2.7.2 1.1-.1.7-.2 1.1c-.1.3-.3.6-.5.8s-.5.4-.8.5-.6.2-.9.2c-.4 0-.7-.1-1-.2s-.4-.3-.6-.5h-.1l.1.7v2.1h-1.3v-7.2zm2.6 3.9c.2 0 .3 0 .5-.1s.3-.2.4-.3.2-.3.3-.4c.1-.2.1-.4.1-.6s0-.4-.1-.6a1.38 1.38 0 0 0-.3-.4c-.1-.1-.3-.2-.4-.3-.2-.1-.3-.1-.5-.1s-.3 0-.5.1a1.38 1.38 0 0 0-.4.3c-.1.1-.2.3-.3.4-.1.2-.1.4-.1.6s0 .4.1.6a1.38 1.38 0 0 0 .3.4c.1.1.3.2.4.3.2.1.4.1.5.1zm3.4 1.1v-7.3h1.3v7.3h-1.3zm5.5-.5h0c-.2.2-.4.4-.6.5s-.5.2-.8.2-.5 0-.7-.1-.4-.2-.6-.4c-.2-.1-.3-.3-.4-.5s-.1-.4-.1-.7.1-.5.2-.7.2-.4.4-.5.4-.3.6-.3c.2-.1.5-.1.8-.1s.6 0 .8.1.4.1.5.2v-.2c0-.3-.1-.5-.3-.7s-.5-.3-.8-.3c-.5 0-.9.2-1.2.6l-1-.7c.5-.7 1.2-1 2.2-1 .8 0 1.4.2 1.8.5s.6.9.6 1.6v3H171v-.5zm0-1.5c-.2-.1-.3-.1-.5-.2-.2 0-.3-.1-.5-.1-.3 0-.6.1-.7.2a.55.55 0 0 0-.3.5c0 .2.1.4.2.5s.4.2.6.2.3 0 .5-.1c.1-.1.3-.1.4-.3.1-.1.2-.2.2-.4.1 0 .1-.2.1-.3zm7.1.7c-.2.4-.5.8-.9 1s-.9.4-1.5.4c-.4 0-.7-.1-1.1-.2-.3-.1-.6-.3-.8-.6-.2-.2-.4-.5-.5-.8s-.2-.7-.2-1.1.1-.7.2-1.1c.1-.3.3-.6.5-.8s.5-.4.8-.5.7-.2 1.1-.2c.6 0 1.1.1 1.5.4s.7.6.9 1l-1.2.5c-.1-.2-.3-.4-.4-.5-.2-.1-.4-.2-.7-.2-.2 0-.3 0-.5.1a1.38 1.38 0 0 0-.4.3c-.1.1-.2.3-.3.4-.1.2-.1.4-.1.6s0 .4.1.6a1.38 1.38 0 0 0 .3.4c.1.1.3.2.4.3a.9.9 0 0 0 .5.1c.3 0 .5-.1.7-.2s.3-.3.5-.5l1.1.6zm5.5.1c-.2.4-.5.7-.9 1s-.9.4-1.4.4c-.4 0-.7-.1-1.1-.2-.3-.1-.6-.3-.8-.6-.2-.2-.4-.5-.6-.8-.1-.3-.2-.7-.2-1.1s.1-.7.2-1 .3-.6.5-.8.5-.4.8-.6c.3-.1.7-.2 1-.2.4 0 .8.1 1.1.2s.6.3.8.5.4.5.5.8.2.7.2 1v.3h-3.8c0 .2.1.4.2.5s.2.3.3.4a.76.76 0 0 0 .4.2c.1 0 .3.1.5.1.3 0 .6-.1.8-.2s.4-.3.5-.5l1 .6zm-1.3-1.9c0-.1 0-.2-.1-.3s-.1-.2-.2-.3-.2-.2-.4-.2c-.1-.1-.3-.1-.5-.1-.3 0-.5.1-.8.2-.2.2-.4.4-.5.7h2.5z"/></g><defs ><path id="B" d="M114.1 4.6l-3.1-.4-1.4-2.8c0-.1-.1-.1-.2-.2-.2-.1-.4 0-.5.2l-1.4 2.8-3.1.4c-.1 0-.2.1-.2.1-.1.1-.1.2-.1.3s0 .2.1.3l2.2 2.2-.5 3.1v.2c0 .1.1.1.1.2.1 0 .1.1.2.1h.2l2.8-1.4 2.8 1.4c.1 0 .2.1.2 0 .2 0 .4-.2.3-.4l-.5-3.1 2.2-2.2c.1-.1.1-.1.1-.2.2-.3.1-.5-.2-.6z"/><path id="C" d="M135 21.2c-.3 0-.5 0-.8-.1l-.6-.3a.78.78 0 0 1-.4-.4c-.1-.2-.2-.3-.3-.5l1-.4c.1.2.2.4.4.5s.4.2.6.2.4 0 .5-.1.2-.2.2-.3-.1-.2-.2-.3-.3-.1-.5-.2l-.6-.1c-.1 0-.3-.1-.4-.1a.76.76 0 0 1-.4-.2c-.1-.1-.2-.2-.3-.4-.1-.1-.1-.3-.1-.5s0-.4.1-.6a.78.78 0 0 1 .4-.4c.2-.1.3-.2.6-.3s.5-.1.7-.1c.4 0 .8.1 1.1.2s.6.4.7.8l-1 .4a.78.78 0 0 0-.4-.4c-.2-.1-.3-.1-.5-.1s-.3 0-.4.1-.2.2-.2.3.1.2.2.2c.1.1.2.1.4.2l.7.2c.4.1.8.3 1 .5s.3.5.3.8c0 .2 0 .4-.1.5-.1.2-.2.3-.4.5l-.6.3c-.1 0-.4.1-.7.1z"/><path id="D" d="M63.7 33.6h-1.6v-2.1h1.6v-2.9h2.5v2.9h2.3v2.1h-2.3v3.7c0 .2 0 .4.1.6a.55.55 0 0 0 .3.5c.2.2.4.3.8.3.2 0 .4 0 .5-.1.1 0 .2-.1.4-.2l.7 2.2-.9.3c-.3.1-.7.1-1.1.1-.5 0-.9-.1-1.3-.2s-.7-.4-.9-.6c-.6-.6-.9-1.4-.9-2.5v-4.1z"/><path id="E" d="M87.4 48.9h1.2v.7h.1c.1-.1.1-.2.2-.3l.3-.3c.1-.1.3-.1.4-.2.1 0 .3-.1.4-.1a.9.9 0 0 1 .5.1c.1 0 .2.1.3.1l-.4 1.2c-.1 0-.2-.1-.3-.1h-.4c-.2 0-.3 0-.5.1-.1.1-.3.2-.4.3s-.2.3-.2.5c-.1.2-.1.4-.1.6V54h-1.3v-5.1z"/></defs></svg>