<?xml version="1.0" encoding="UTF-8"?>
<svg width="25px" height="25px" viewBox="0 0 25 25" version="1.1" xmlns="http://www.w3.org/2000/svg" xmlns:xlink="http://www.w3.org/1999/xlink">
    <!-- Generator: Sketch 58 (84663) - https://sketch.com -->
    <title>logo</title>
    <desc>Created with Sketch.</desc>
    <g id="Page-1" stroke="none" stroke-width="1" fill="none" fill-rule="evenodd">
        <g id="logo">
            <rect id="Rectangle" fill="#4285F4" x="0" y="0" width="25" height="25" rx="6"></rect>
            <g id="labels" transform="translate(4.492188, 3.906250)" fill="#FFFFFF" fill-rule="nonzero">
                <path d="M0.373828125,4.915625 L0.390625,4.90664062 L0.390625,0.765625 C0.390625,0.506054687 0.56796875,0.390625 0.827539063,0.390625 L11.1835938,0.390625 C11.4960938,0.390625 11.9597656,0.540625 12.1757813,0.766210938 L13.2439453,1.85625 L14.2505859,2.31152344 L12.4671875,0.49921875 C12.1726563,0.1921875 11.6089844,0 11.1835938,0 L0.827539063,0 C0.345507813,0 0,0.283789062 0,0.765625 L0,5.20566406 C0,5.07636719 0.220117188,4.97558594 0.373828125,4.915625 Z" id="Path"></path>
                <path d="M8.30410156,8.41054688 L2.75820312,10.5744141 C2.70390625,10.5957031 2.646875,10.6064453 2.58886719,10.6064453 C2.3953125,10.6064453 2.21855469,10.4863281 2.14863281,10.3072266 L0.474023437,6.01582031 C0.3796875,5.77402344 0.499609375,5.50058594 0.741601562,5.40605469 L10.3890625,1.64140625 C10.5160156,1.59199219 10.6876953,1.56464844 10.8728516,1.56464844 C11.0996094,1.56464844 11.3164062,1.60507812 11.4675781,1.675 L13.3355469,2.54179688 L13.7871094,2.36640625 C13.8117187,2.35683594 13.8367187,2.3484375 13.8621094,2.34121094 L11.6373047,1.30917969 C11.4316406,1.21386719 11.1605469,1.16132812 10.8728516,1.16132812 C10.6353516,1.16132812 10.4173828,1.19746094 10.2425781,1.265625 L0.594726562,5.03027344 C0.145703125,5.20546875 -0.0771484375,5.71347656 0.098046875,6.1625 L1.77265625,10.4539063 C1.90253906,10.7865234 2.23046875,11.0101563 2.58886719,11.0101563 C2.69726562,11.0101563 2.80371094,10.9900391 2.90488281,10.9505859 L8.08945313,8.92753906 L8.30410156,8.41054688 Z" id="Path"></path>
                <path d="M11.1927734,17.1429688 C11.0779297,17.1429688 10.9658203,17.1207031 10.859375,17.0763672 L6.60488281,15.3105469 C6.39003906,15.2212891 6.22226563,15.0529297 6.13300781,14.8367188 C6.04355469,14.6205078 6.04355469,14.3828125 6.1328125,14.1677734 L10.1029297,4.60292969 C10.2658203,4.20996094 10.7041016,3.78164063 11.1007813,3.62734375 L13.6802734,2.62421875 C13.7824219,2.584375 13.890625,2.56425781 14.0015625,2.56425781 C14.3642578,2.56425781 14.6919922,2.77558594 14.8359375,3.10253906 L15.9568359,5.64414063 C16.1285156,6.03339844 16.1353516,6.64628906 15.9722656,7.03925781 L12.0019531,16.6042969 C11.8660156,16.9314453 11.5486328,17.1429688 11.1927734,17.1429688 Z M14.0015625,2.96796875 C13.9408203,2.96796875 13.8822266,2.97890625 13.8265625,3.00058594 L11.2470703,4.00371094 C10.9560547,4.11699219 10.5955078,4.46933594 10.4757813,4.7578125 L6.50527344,14.3226562 C6.45742188,14.4380859 6.45761719,14.5660156 6.50585938,14.6828125 C6.55410156,14.7994141 6.64414063,14.8900391 6.75957031,14.9380859 L11.0140625,16.7039062 C11.0710937,16.7275391 11.13125,16.7398437 11.1925781,16.7398437 C11.3845703,16.7398437 11.5560547,16.6257812 11.6291016,16.4498047 L15.5996094,6.88476562 C15.7191406,6.59628906 15.7136719,6.09277344 15.5875,5.80703125 L14.4667969,3.26542969 C14.3882813,3.0875 14.2013672,2.96796875 14.0015625,2.96796875 Z" id="Shape" stroke="#FFFFFF" stroke-width="0.2"></path>
                <path d="M13.6494141,5.19042969 C13.2089844,5.19042969 12.8507813,4.83222656 12.8507813,4.39179687 C12.8507813,3.95136719 13.2089844,3.59335937 13.6494141,3.59335937 C14.0896484,3.59335937 14.4478516,3.9515625 14.4478516,4.39179687 C14.4478516,4.83203125 14.0896484,5.19042969 13.6494141,5.19042969 Z M13.6494141,3.9296875 C13.3945312,3.9296875 13.1871094,4.13710937 13.1871094,4.39199219 C13.1871094,4.646875 13.3945312,4.85429688 13.6494141,4.85429688 C13.9042969,4.85429688 14.1117188,4.646875 14.1117188,4.39199219 C14.1117188,4.13710937 13.9041016,3.9296875 13.6494141,3.9296875 Z" id="Shape"></path>
            </g>
        </g>
    </g>
</svg>