<?xml version="1.0" encoding="utf-8"?>
<!-- Generator: Adobe Illustrator 23.1.1, SVG Export Plug-In . SVG Version: 6.00 Build 0)  -->
<svg version="1.1" id="Calque_1" xmlns="http://www.w3.org/2000/svg" xmlns:xlink="http://www.w3.org/1999/xlink" x="0px" y="0px"
	 viewBox="0 0 68.8 99.8" style="enable-background:new 0 0 68.8 99.8;" xml:space="preserve">
<style type="text/css">
	.st0{opacity:0.15;fill:#6B99D1;}
	.st1{opacity:0.3;}
	.st2{fill:#57F7E0;}
	.st3{fill:none;stroke:#E9FFFB;stroke-miterlimit:10;}
	.st4{opacity:0.8;fill:#0B3FA5;}
	.st5{opacity:0.8;}
	.st6{fill:#0B3FA5;}
	.st7{opacity:0.5;}
	.st8{opacity:0.7;}
	.st9{opacity:0.9;}
	.st10{fill:#FFA8A7;}
	.st11{fill:#2D2979;}
	.st12{fill:#291D51;}
	.st13{fill:#543354;}
	.st14{fill:#7FA8E6;}
	.st15{fill:#597BC6;}
	.st16{fill:#F28F8F;}
	.st17{fill:#F5FBFB;}
</style>
<g id="XMLID_3027_">
	<path id="XMLID_4190_" class="st0" d="M52.2,93l4.9-2.9c3.4-1.9,8-2.4,10.3-1c2.4,1.4,1.6,4-1.8,6L60.7,98c-3.4,1.9-8,2.4-10.3,1
		C48,97.6,48.8,95,52.2,93z"/>
	<g id="XMLID_446_">
		<g id="XMLID_726_" class="st1">
			<path id="XMLID_786_" class="st2" d="M2.3,18.4L32.8,0.7c1-0.6,1.8-0.1,1.8,1.1v22.1c0,1.2-0.8,2.6-1.8,3.2L2.3,44.7
				c-1,0.6-1.8,0.1-1.8-1.1l0-22.1C0.5,20.4,1.3,19,2.3,18.4z"/>
			<path id="XMLID_783_" class="st3" d="M2.3,18.4L32.8,0.7c1-0.6,1.8-0.1,1.8,1.1v22.1c0,1.2-0.8,2.6-1.8,3.2L2.3,44.7
				c-1,0.6-1.8,0.1-1.8-1.1l0-22.1C0.5,20.4,1.3,19,2.3,18.4z"/>
			<path id="XMLID_780_" class="st4" d="M4.3,21.7l12.4-7.2c0.5-0.3,0.9-0.1,0.9,0.5v0.1c0,0.6-0.4,1.3-0.9,1.6L4.3,23.8
				c-0.5,0.3-0.9,0.1-0.9-0.5v-0.1C3.3,22.7,3.8,22,4.3,21.7z"/>
			<path id="XMLID_777_" class="st4" d="M20.2,12.5l10.7-6.2c0.5-0.3,0.9-0.1,0.9,0.5v0.1c0,0.6-0.4,1.3-0.9,1.6l-10.7,6.2
				c-0.5,0.3-0.9,0.1-0.9-0.5V14C19.3,13.5,19.7,12.8,20.2,12.5z"/>
			<g id="XMLID_764_" class="st5">
				<g>
					<g id="XMLID_85_">
						<path class="st6" d="M4.3,31.8l12.4-7.2c0.5-0.3,0.9-0.1,0.9,0.5v0.1c0,0.6-0.4,1.3-0.9,1.6L4.3,34c-0.5,0.3-0.9,0.1-0.9-0.5
							v-0.1C3.3,32.8,3.8,32.1,4.3,31.8z"/>
					</g>
					<g id="XMLID_84_">
						<path class="st6" d="M20.2,22.6l10.7-6.2c0.5-0.3,0.9-0.1,0.9,0.5V17c0,0.6-0.4,1.3-0.9,1.6l-10.7,6.2
							c-0.5,0.3-0.9,0.1-0.9-0.5v-0.1C19.3,23.6,19.7,22.9,20.2,22.6z"/>
					</g>
				</g>
			</g>
			<g id="XMLID_746_" class="st5">
				<g>
					<g id="XMLID_115_">
						<path class="st6" d="M4.3,26.7l6.7-3.9c0.5-0.3,0.9-0.1,0.9,0.5v0.1c0,0.6-0.4,1.3-0.9,1.6l-6.7,3.9c-0.5,0.3-0.9,0.1-0.9-0.5
							v-0.1C3.3,27.7,3.8,27,4.3,26.7z"/>
					</g>
					<g id="XMLID_114_">
						<path class="st6" d="M14,21.1l5.7-3.3c0.5-0.3,0.9-0.1,0.9,0.5v0.1c0,0.6-0.4,1.3-0.9,1.6L14,23.3c-0.5,0.3-0.9,0.1-0.9-0.5
							v-0.1C13.1,22.1,13.5,21.4,14,21.1z"/>
					</g>
					<g id="XMLID_112_">
						<path class="st6" d="M22.9,15.9l8-4.6c0.5-0.3,0.9-0.1,0.9,0.5v0.1c0,0.6-0.4,1.3-0.9,1.6l-8,4.6c-0.5,0.3-0.9,0.1-0.9-0.5
							v-0.1C22,16.9,22.4,16.2,22.9,15.9z"/>
					</g>
				</g>
			</g>
			<g id="XMLID_727_" class="st5">
				<g>
					<g id="XMLID_111_">
						<path class="st6" d="M4.3,36.9l10.8-6.2c0.5-0.3,0.9-0.1,0.9,0.5v0.1c0,0.6-0.4,1.3-0.9,1.6L4.3,39.1
							c-0.5,0.3-0.9,0.1-0.9-0.5v-0.1C3.3,37.9,3.8,37.2,4.3,36.9z"/>
					</g>
					<g id="XMLID_109_">
						<path class="st6" d="M18.1,29l5.7-3.3c0.5-0.3,0.9-0.1,0.9,0.5v0.1c0,0.6-0.4,1.3-0.9,1.6l-5.7,3.3c-0.5,0.3-0.9,0.1-0.9-0.5
							v-0.1C17.2,29.9,17.6,29.2,18.1,29z"/>
					</g>
					<g id="XMLID_107_">
						<path class="st6" d="M27,23.8l3.9-2.2c0.5-0.3,0.9-0.1,0.9,0.5v0.1c0,0.6-0.4,1.3-0.9,1.6L27,25.9c-0.5,0.3-0.9,0.1-0.9-0.5
							v-0.1C26.1,24.8,26.5,24.1,27,23.8z"/>
					</g>
				</g>
			</g>
		</g>
		<g id="XMLID_664_" class="st7">
			<path id="XMLID_723_" class="st2" d="M8,21.7L38.5,4c1-0.6,1.8-0.1,1.8,1.1l0,22.1c0,1.2-0.8,2.6-1.8,3.2L8,48
				c-1,0.6-1.8,0.1-1.8-1.1V24.8C6.2,23.7,7,22.2,8,21.7z"/>
			<path id="XMLID_720_" class="st3" d="M8,21.7L38.5,4c1-0.6,1.8-0.1,1.8,1.1l0,22.1c0,1.2-0.8,2.6-1.8,3.2L8,48
				c-1,0.6-1.8,0.1-1.8-1.1V24.8C6.2,23.7,7,22.2,8,21.7z"/>
			<path id="XMLID_717_" class="st4" d="M10,25l12.4-7.2c0.5-0.3,0.9-0.1,0.9,0.5v0.1c0,0.6-0.4,1.3-0.9,1.6L10,27.1
				C9.5,27.4,9,27.2,9,26.6v-0.1C9,26,9.5,25.3,10,25z"/>
			<path id="XMLID_714_" class="st4" d="M25.9,15.8l10.7-6.2c0.5-0.3,0.9-0.1,0.9,0.5v0.1c0,0.6-0.4,1.3-0.9,1.6l-10.7,6.2
				C25.4,18.2,25,18,25,17.4v-0.1C25,16.8,25.4,16,25.9,15.8z"/>
			<g id="XMLID_701_" class="st5">
				<g>
					<g id="XMLID_83_">
						<path class="st6" d="M10,35.1l12.4-7.2c0.5-0.3,0.9-0.1,0.9,0.5v0.1c0,0.6-0.4,1.3-0.9,1.6L10,37.3C9.5,37.5,9,37.3,9,36.7
							v-0.1C9,36.1,9.5,35.4,10,35.1z"/>
					</g>
					<g id="XMLID_78_">
						<path class="st6" d="M25.9,25.9l10.7-6.2c0.5-0.3,0.9-0.1,0.9,0.5v0.1c0,0.6-0.4,1.3-0.9,1.6L25.9,28
							c-0.5,0.3-0.9,0.1-0.9-0.5v-0.1C25,26.9,25.4,26.2,25.9,25.9z"/>
					</g>
				</g>
			</g>
			<g id="XMLID_683_" class="st5">
				<g>
					<g id="XMLID_106_">
						<path class="st6" d="M10,30l6.7-3.9c0.5-0.3,0.9-0.1,0.9,0.5v0.1c0,0.6-0.4,1.3-0.9,1.6L10,32.2C9.5,32.5,9,32.2,9,31.7v-0.1
							C9,31,9.5,30.3,10,30z"/>
					</g>
					<g id="XMLID_105_">
						<path class="st6" d="M19.7,24.4l5.7-3.3c0.5-0.3,0.9-0.1,0.9,0.5v0.1c0,0.6-0.4,1.3-0.9,1.6l-5.7,3.3
							c-0.5,0.3-0.9,0.1-0.9-0.5V26C18.8,25.4,19.2,24.7,19.7,24.4z"/>
					</g>
					<g id="XMLID_102_">
						<path class="st6" d="M28.6,19.2l8-4.6c0.5-0.3,0.9-0.1,0.9,0.5v0.1c0,0.6-0.4,1.3-0.9,1.6l-8,4.6c-0.5,0.3-0.9,0.1-0.9-0.5
							v-0.1C27.7,20.2,28.1,19.5,28.6,19.2z"/>
					</g>
				</g>
			</g>
			<g id="XMLID_665_" class="st5">
				<g>
					<g id="XMLID_104_">
						<path class="st6" d="M10,40.2L20.8,34c0.5-0.3,0.9-0.1,0.9,0.5v0.1c0,0.6-0.4,1.3-0.9,1.6L10,42.4C9.5,42.7,9,42.4,9,41.8
							v-0.1C9,41.2,9.5,40.5,10,40.2z"/>
					</g>
					<g id="XMLID_103_">
						<path class="st6" d="M23.8,32.2l5.7-3.3c0.5-0.3,0.9-0.1,0.9,0.5v0.1c0,0.6-0.4,1.3-0.9,1.6l-5.7,3.3
							c-0.5,0.3-0.9,0.1-0.9-0.5v-0.1C22.9,33.2,23.3,32.5,23.8,32.2z"/>
					</g>
					<g id="XMLID_100_">
						<path class="st6" d="M32.7,27.1l3.9-2.2c0.5-0.3,0.9-0.1,0.9,0.5v0.1c0,0.6-0.4,1.3-0.9,1.6l-3.9,2.2
							c-0.5,0.3-0.9,0.1-0.9-0.5v-0.1C31.8,28.1,32.2,27.3,32.7,27.1z"/>
					</g>
				</g>
			</g>
		</g>
		<g id="XMLID_579_" class="st8">
			<path id="XMLID_661_" class="st2" d="M13.7,24.9L44.2,7.3c1-0.6,1.8-0.1,1.8,1.1v22.1c0,1.2-0.8,2.6-1.8,3.2L13.7,51.3
				c-1,0.6-1.8,0.1-1.8-1.1V28.1C11.9,26.9,12.7,25.5,13.7,24.9z"/>
			<path id="XMLID_658_" class="st3" d="M13.7,24.9L44.2,7.3c1-0.6,1.8-0.1,1.8,1.1v22.1c0,1.2-0.8,2.6-1.8,3.2L13.7,51.3
				c-1,0.6-1.8,0.1-1.8-1.1V28.1C11.9,26.9,12.7,25.5,13.7,24.9z"/>
			<path id="XMLID_655_" class="st4" d="M15.6,28.3l12.4-7.2c0.5-0.3,0.9-0.1,0.9,0.5v0.1c0,0.6-0.4,1.3-0.9,1.6l-12.4,7.2
				c-0.5,0.3-0.9,0.1-0.9-0.5v-0.1C14.7,29.2,15.1,28.5,15.6,28.3z"/>
			<path id="XMLID_652_" class="st4" d="M31.6,19l10.7-6.2c0.5-0.3,0.9-0.1,0.9,0.5v0.1c0,0.6-0.4,1.3-0.9,1.6l-10.7,6.2
				c-0.5,0.3-0.9,0.1-0.9-0.5v-0.1C30.7,20,31.1,19.3,31.6,19z"/>
			<g id="XMLID_639_" class="st5">
				<g>
					<g id="XMLID_80_">
						<path class="st6" d="M15.6,38.4l12.4-7.2c0.5-0.3,0.9-0.1,0.9,0.5v0.1c0,0.6-0.4,1.3-0.9,1.6l-12.4,7.2
							c-0.5,0.3-0.9,0.1-0.9-0.5V40C14.7,39.4,15.1,38.7,15.6,38.4z"/>
					</g>
					<g id="XMLID_79_">
						<path class="st6" d="M31.6,29.2L42.3,23c0.5-0.3,0.9-0.1,0.9,0.5v0.1c0,0.6-0.4,1.3-0.9,1.6l-10.7,6.2
							c-0.5,0.3-0.9,0.1-0.9-0.5v-0.1C30.7,30.2,31.1,29.5,31.6,29.2z"/>
					</g>
				</g>
			</g>
			<g id="XMLID_613_" class="st5">
				<g>
					<g id="XMLID_99_">
						<path class="st6" d="M15.6,33.3l6.7-3.9c0.5-0.3,0.9-0.1,0.9,0.5V30c0,0.6-0.4,1.3-0.9,1.6l-6.7,3.9c-0.5,0.3-0.9,0.1-0.9-0.5
							v-0.1C14.7,34.3,15.1,33.6,15.6,33.3z"/>
					</g>
					<g id="XMLID_98_">
						<path class="st6" d="M25.4,27.7l5.7-3.3c0.5-0.3,0.9-0.1,0.9,0.5V25c0,0.6-0.4,1.3-0.9,1.6l-5.7,3.3c-0.5,0.3-0.9,0.1-0.9-0.5
							v-0.1C24.5,28.7,24.9,28,25.4,27.7z"/>
					</g>
					<g id="XMLID_97_">
						<path class="st6" d="M34.3,22.5l8-4.6c0.5-0.3,0.9-0.1,0.9,0.5v0.1c0,0.6-0.4,1.3-0.9,1.6l-8,4.6c-0.5,0.3-0.9,0.1-0.9-0.5
							v-0.1C33.4,23.5,33.8,22.8,34.3,22.5z"/>
					</g>
				</g>
			</g>
			<g id="XMLID_580_" class="st5">
				<g>
					<g id="XMLID_110_">
						<path class="st6" d="M15.6,43.5l10.8-6.2c0.5-0.3,0.9-0.1,0.9,0.5v0.1c0,0.6-0.4,1.3-0.9,1.6l-10.8,6.2
							c-0.5,0.3-0.9,0.1-0.9-0.5v-0.1C14.7,44.5,15.1,43.8,15.6,43.5z"/>
					</g>
					<g id="XMLID_108_">
						<path class="st6" d="M29.5,35.5l5.7-3.3c0.5-0.3,0.9-0.1,0.9,0.5v0.1c0,0.6-0.4,1.3-0.9,1.6l-5.7,3.3
							c-0.5,0.3-0.9,0.1-0.9-0.5v-0.1C28.6,36.5,29,35.8,29.5,35.5z"/>
					</g>
					<g id="XMLID_101_">
						<path class="st6" d="M38.4,30.3l3.9-2.2c0.5-0.3,0.9-0.1,0.9,0.5v0.1c0,0.6-0.4,1.3-0.9,1.6l-3.9,2.2
							c-0.5,0.3-0.9,0.1-0.9-0.5v-0.1C37.5,31.3,37.9,30.6,38.4,30.3z"/>
					</g>
				</g>
			</g>
		</g>
		<g id="XMLID_487_" class="st9">
			<path id="XMLID_388_" class="st2" d="M19.4,28.2l30.5-17.6c1-0.6,1.8-0.1,1.8,1.1v22.1c0,1.2-0.8,2.6-1.8,3.2L19.4,54.5
				c-1,0.6-1.8,0.1-1.8-1.1l0-22.1C17.6,30.2,18.4,28.8,19.4,28.2z"/>
			<path id="XMLID_433_" class="st3" d="M19.4,28.2l30.5-17.6c1-0.6,1.8-0.1,1.8,1.1v22.1c0,1.2-0.8,2.6-1.8,3.2L19.4,54.5
				c-1,0.6-1.8,0.1-1.8-1.1l0-22.1C17.6,30.2,18.4,28.8,19.4,28.2z"/>
			<path id="XMLID_435_" class="st4" d="M21.3,31.5l12.4-7.2c0.5-0.3,0.9-0.1,0.9,0.5v0.1c0,0.6-0.4,1.3-0.9,1.6l-12.4,7.2
				c-0.5,0.3-0.9,0.1-0.9-0.5v-0.1C20.4,32.5,20.8,31.8,21.3,31.5z"/>
			<path id="XMLID_470_" class="st4" d="M37.3,22.3L48,16.2c0.5-0.3,0.9-0.1,0.9,0.5v0.1c0,0.6-0.4,1.3-0.9,1.6l-10.7,6.2
				c-0.5,0.3-0.9,0.1-0.9-0.5v-0.1C36.4,23.3,36.8,22.6,37.3,22.3z"/>
			<g id="XMLID_482_" class="st5">
				<g>
					<g id="XMLID_82_">
						<path class="st6" d="M21.3,41.7l12.4-7.2c0.5-0.3,0.9-0.1,0.9,0.5v0.1c0,0.6-0.4,1.3-0.9,1.6l-12.4,7.2
							c-0.5,0.3-0.9,0.1-0.9-0.5v-0.1C20.4,42.7,20.8,42,21.3,41.7z"/>
					</g>
					<g id="XMLID_81_">
						<path class="st6" d="M37.3,32.5L48,26.3c0.5-0.3,0.9-0.1,0.9,0.5v0.1c0,0.6-0.4,1.3-0.9,1.6l-10.7,6.2
							c-0.5,0.3-0.9,0.1-0.9-0.5V34C36.4,33.5,36.8,32.8,37.3,32.5z"/>
					</g>
				</g>
			</g>
			<g id="XMLID_492_" class="st5">
				<g>
					<g id="XMLID_120_">
						<path class="st6" d="M21.3,36.6l6.7-3.9c0.5-0.3,0.9-0.1,0.9,0.5v0.1c0,0.6-0.4,1.3-0.9,1.6l-6.7,3.9
							c-0.5,0.3-0.9,0.1-0.9-0.5v-0.1C20.4,37.6,20.8,36.9,21.3,36.6z"/>
					</g>
					<g id="XMLID_119_">
						<path class="st6" d="M31.1,31l5.7-3.3c0.5-0.3,0.9-0.1,0.9,0.5v0.1c0,0.6-0.4,1.3-0.9,1.6l-5.7,3.3c-0.5,0.3-0.9,0.1-0.9-0.5
							v-0.1C30.2,32,30.6,31.3,31.1,31z"/>
					</g>
					<g id="XMLID_113_">
						<path class="st6" d="M40,25.8l8-4.6c0.5-0.3,0.9-0.1,0.9,0.5v0.1c0,0.6-0.4,1.3-0.9,1.6L40,28c-0.5,0.3-0.9,0.1-0.9-0.5v-0.1
							C39.1,26.8,39.5,26.1,40,25.8z"/>
					</g>
				</g>
			</g>
			<g id="XMLID_466_" class="st5">
				<g>
					<g id="XMLID_118_">
						<path class="st6" d="M21.3,46.8l10.8-6.2c0.5-0.3,0.9-0.1,0.9,0.5v0.1c0,0.6-0.4,1.3-0.9,1.6L21.3,49
							c-0.5,0.3-0.9,0.1-0.9-0.5v-0.1C20.4,47.8,20.8,47.1,21.3,46.8z"/>
					</g>
					<g id="XMLID_117_">
						<path class="st6" d="M35.2,38.8l5.7-3.3c0.5-0.3,0.9-0.1,0.9,0.5v0.1c0,0.6-0.4,1.3-0.9,1.6L35.2,41c-0.5,0.3-0.9,0.1-0.9-0.5
							v-0.1C34.3,39.8,34.7,39.1,35.2,38.8z"/>
					</g>
					<g id="XMLID_116_">
						<path class="st6" d="M44.1,33.6l3.9-2.2c0.5-0.3,0.9-0.1,0.9,0.5V32c0,0.6-0.4,1.3-0.9,1.6l-3.9,2.2c-0.5,0.3-0.9,0.1-0.9-0.5
							v-0.1C43.2,34.6,43.6,33.9,44.1,33.6z"/>
					</g>
				</g>
			</g>
		</g>
	</g>
	<g id="XMLID_6_">
		<path id="XMLID_3081_" class="st10" d="M59.3,90.9c0.5-0.5,1-2.9,1-2.9s0.3-0.9,0.2-1.3c0-0.4-0.4-2.9-0.4-2.9l2.5-0.2
			c0,0-0.1,2.1-0.2,2.8c0,0.7,0.1,1.6,0.3,2.3c-0.1,0.4-1.5,2.8-1.5,2.9c0,0-1.5,0.4-1.5,0.4L59,91.5L59.3,90.9z"/>
		<path id="XMLID_3073_" class="st11" d="M58.9,92.3c-0.3-0.1-1.5-0.9-0.8-1.2c0.6-0.3,1.1-0.1,1.1-0.1s-0.1,0.3,0.1,0.3
			c0.4,0,0.8-2,0.8-2.7l1.2,0.5l-0.5,2.7l-0.6,0.4l-1,0.2H58.9z"/>
		<path id="XMLID_3060_" class="st12" d="M60.5,89.5c0,1.6-0.3,1.8-0.5,2.1c-0.2,0.5-0.7,0.6-1.1,0.6c0.5,0.2,2.9,0.2,3.5-0.2
			c0.3-0.2,0.1-0.8,0.1-1.5c0-0.7,0.2-1.4,0.2-1.8C62.7,88.4,60.5,89.5,60.5,89.5z"/>
		<path id="XMLID_2557_" class="st11" d="M61.4,87.2c-0.8,0-1.3,0.7-1.3,1.4c0,0.7,0.6,0.7,1.1,2c0.3,0.7,0.3,1.7,0.4,2.6
			c0,0,0.2,0.2,0.4,0c0,0,0-0.7,0-1.5c0-0.4,0.1-1.2,0.2-1.5c0.2-0.7,0.6-1,0.5-1.7c0-0.3-0.2-0.8-0.4-1.1
			C62.2,87.3,61.8,87.2,61.4,87.2z"/>
		<g id="XMLID_467_">
			<path id="XMLID_2544_" class="st12" d="M56.4,96.1c0,0,0.2,0.4,1.4-0.1c0.5-0.2,0.8-0.4,1-0.6c0.2-0.6,0.5-1.3,0.5-1.3
				s-0.2-1.6-1-1C57.6,93.7,56.4,96.1,56.4,96.1z"/>
			<path id="XMLID_2536_" class="st10" d="M59.2,87.5c0.1,0.9,0.2,1.5,0.3,2.1c0.1,0.4,0.2,0.7,0.4,0.9c0.5,0.7,0.5,1.2,0.5,1.2
				s-1.4,0.2-2.2,1.2c-0.7,1-0.7,2-1.4,2.2c-0.7,0.2-1.8-0.6-1.8-0.6s0.7,0,1-0.9c0.3-0.9,1-2.9,1.1-3.4c0.1-0.7-0.5-2.2-0.5-2.2
				L59.2,87.5z"/>
			<path id="XMLID_2470_" class="st11" d="M59.5,90.6c-0.6,0-1.6,1-1.9,1.8c-0.3,0.7-0.9,1.8-1.3,2c-0.4,0.2-1.1-0.1-1.8-0.1
				c-0.6,0-1.1,0.3-1.1,0.7c0,0,2,0.9,2.6,1.2c0.6,0.3,1.1,0.3,1.6-0.9c0.5-1.2,0.9-2.3,1.5-1.4c0.5,0.8,0.7,2.2,0.7,2.2
				s0.2,0.2,0.5-0.1c0,0-0.1-0.5-0.1-1.3c0-1.7,0.6-2.1,0.4-2.7C60.4,91,60.1,90.5,59.5,90.6z"/>
		</g>
		<g id="XMLID_9_">
			<path id="XMLID_375_" class="st13" d="M52.5,26c0,0-1.6-1-1.5-2.4s2.3-4.9,6.2-3.2C60.9,21.2,52.5,26,52.5,26z"/>
			<path id="XMLID_324_" class="st10" d="M61.8,32.3c1.1,0.3,1.8,1.6,2.7,4.2c1,2.6,2,6.5,1.9,7.5c-0.3,2.5-1.9,4.6-4.5,6.4
				l-1.2-2.2c0,0,2.6-2.1,2.9-4.6c0.1-1.4-1.7-6.2-1.7-6.3C61.9,37.2,61.8,32.3,61.8,32.3z"/>
			<path id="XMLID_323_" class="st14" d="M63,75.3c-0.4-2.8-0.3-4.1-0.3-4.1s0.4-4.2,0.8-7.8c0.5-5.3,1.5-6.6,1-9.8
				c-0.5-2.8-2.4-5-3.2-7l-8.7,0.7c0,0-0.8,2.5-1.7,7.4s-0.6,11.6,0.1,18.5c0.2,2,1.5,4.7,2.9,8c1.3,3.1,3.3,8.2,3.3,8.2
				c1.3,0.8,2.4-0.6,2.4-0.6s-1-6.7-1.4-9c-0.7-3.9-2.5-5.7-2.5-5.7s0.4-2.8,0.7-5.3c0.3-2.7,1.2-7.2,1.2-7.2s0,6.9,0.2,8.9
				c0.1,2,0.2,2.2,0.9,6.1c0.6,3.2,1.8,9.5,1.8,9.5c1.2,0.4,2-0.1,2-0.1S63.3,78.1,63,75.3z"/>
			<path id="XMLID_322_" class="st15" d="M62.7,56.8c-1.7,1.8-4.8,2.2-4.8,2.2l-0.4,2.7c-0.1,2.2,0.2,4.9,0.1,7.5
				c0,0,0.6-6.7,1.5-7.8C59.9,60.2,62.1,58.3,62.7,56.8z"/>
			<path id="XMLID_305_" class="st10" d="M61.3,32.2c-1.9-0.1-2,0.2-2.2-0.5c-0.1-0.2-0.2-1.9-0.2-1.9c0.2-0.2,0.5-0.7,0.5-0.7
				c1.2-0.8,2.1-2,2.3-3.5c0.3-2.6-1.6-5-4.2-5.2c-2.5-0.3-4.3,1.5-4.8,3.9c-0.3,1.2-0.5,3.6,0.2,5.5c0.4,1.1,0.8,1.8,1.8,1.8
				c0.2,0,0.5-0.1,1-0.2c0,0.4,0.1,0.9,0.1,1.4c0,0.5,0.1,0.7-0.9,1.3c-0.9,0.6,1.4,1.8,2.9,1.6c1.5-0.1,3.2-1,3.7-2
				C62,32.6,62.2,32.3,61.3,32.2z"/>
			<path id="XMLID_294_" class="st16" d="M60,28.8l-1.6,0.1l-1.7,0l-0.5-0.6c0,0-0.1,2-0.7,2.5c-0.5,0.5-1.2,0.8-1.3,0.8
				c0.1,0,0.3,0.1,0.5,0.1c0.2,0,0.5-0.1,1-0.2c0,0.4,0.1,0.9,0.1,1.4c0,0.5,0.1,0.7-0.9,1.3c-0.9,0.6,1.4,1.8,2.9,1.6
				c1.5-0.1,3.2-1,3.7-2c0.5-1.1,0.7-1.4-0.1-1.4c-1.9-0.1-2,0.2-2.2-0.5c-0.1-0.2-0.2-1.9-0.2-1.9c0.2-0.2,0.5-0.7,0.5-0.7
				C59.6,29.1,59.8,28.9,60,28.8z"/>
			<path id="XMLID_272_" class="st13" d="M60,29.4c1.2-1.1,1.6-2.2,1.7-3.7c0.3-2.6-1.6-5-4.2-5.2c-1.7-0.2-3.5,0.4-4.3,2.5
				c0,0,0.1,0.3,0.6,0.4c0,0-0.1,0.6,0.3,1c0.3,0.3,0.5,0.8,0.6,1.4c0,0.5,0,1.1,0.1,1.6c0.2,0.6,0.8,0.6,0.8,0.6s0-1,0.1-1.9
				c0.3-0.7,1.5-0.8,1.7,0c0.2,0.8,0,1.3-0.3,1.8c-0.2,0.4-0.6,0.6-0.9,0.5c0,1.2,0.4,1.7,1.5,2c1,0.3,1.1-0.1,1.7-0.4
				C59.6,29.7,60,29.4,60,29.4z"/>
			<path id="XMLID_15_" class="st17" d="M59.5,32.2c0.3,0.4,0.4,1-0.9,1.3c-1.7,0.4-2.9-0.2-2.9-0.2s-1.8,0.7-3,1.6
				c-3,2.1-3.7,5.6-0.7,6.9c0.2,1.3,0.4,4.8,0.5,5.6c2.5,1.8,7.7,1.2,8.8-0.7c0-0.6,0.1-1.7,0.2-1.9c1.2-4.5,2.1-5.7,1.8-9
				c-0.2-1.9-0.3-2.9-1.4-3.4C61.2,32.1,59.9,32.2,59.5,32.2z"/>
			<path id="XMLID_12_" class="st13" d="M56.1,28.2V40c0,0,1.2,0.8,3.3-0.2c2.1-1,2.3-1.6,2.3-2.8l0-12c0,0-2.4,2.9-4.2,3.5
				C56.2,29,56.1,28.2,56.1,28.2z"/>
			<path id="XMLID_11_" class="st10" d="M34.5,46.6c0.6,0.2,1.2,0.2,1.9,0.5c0.7,0.3,1.2,0.5,1.9,0.6c0.7,0.1,1.8-0.2,3.7-1.1
				c2.2-1.1,4.6-3.1,5.5-4.2c2-2.2,4.1-5.6,4.8-6.9c0.8-1.5,1.9-1.9,2.8-1.6c1.1,0.4,1.2,1.4,0,3.4c-1.2,2-3.2,5-5.5,7.2
				c-1.1,1.1-2.9,2.7-5.8,4.1c-2,1-2.7,1.2-4.8,1.7c-0.6,0.1-1,0.4-2.1,0.8c-1.1,0.4-2.4,0.6-3.4,0.4c-0.9-0.2-1.3-0.4-1.3-0.6
				c-0.1-0.3,0.2-0.4,0.6-0.4c0.4,0,1.2,0.2,2.1-0.1c0,0-1,0-1.6-0.1c-0.6-0.1-1.1-0.2-1.5-0.4c-0.5-0.2-0.6-0.9-0.2-0.9
				c0.5,0,0.8,0.2,1.7,0.3c0.8,0.1,1.4,0,1.4,0S33.7,49.2,33,49c-0.8-0.3-1-0.5-1.2-0.7c-0.2-0.2-0.1-0.6,0.4-0.5
				c0.5,0.1,1.1,0.4,2.1,0.5c0.7,0,1.2-0.1,1.1-0.2c-0.1-0.1-0.5-0.1-1-0.4c-0.5-0.3-0.8-0.9-0.7-1.2C33.9,46.2,33.9,46.4,34.5,46.6
				z"/>
		</g>
	</g>
</g>
</svg>
