<?xml version="1.0" encoding="UTF-8"?>
<svg width="15px" height="15px" viewBox="0 0 15 15" version="1.1" xmlns="http://www.w3.org/2000/svg" xmlns:xlink="http://www.w3.org/1999/xlink">
    <!-- Generator: Sketch 58 (84663) - https://sketch.com -->
    <title>Crossmark</title>
    <g id="Page-1" stroke="none" stroke-width="1" fill="none" fill-rule="evenodd">
        <path d="M12.558236,14.5799882 L7.5,9.52329438 L2.44176405,14.5799882 C2.17406956,14.8488539 1.81029422,15 1.43088793,15 C1.05148164,15 0.687706299,14.8488539 0.420011812,14.5799882 L0.420011812,14.5799882 C0.151146059,14.3122937 0,13.9485184 0,13.5691121 C0,13.1897058 0.151146059,12.8259304 0.420011812,12.558236 L5.47670562,7.5 L0.420011812,2.44176405 C0.151146059,2.17406956 0,1.81029422 0,1.43088793 C0,1.05148164 0.151146059,0.687706299 0.420011812,0.420011812 L0.420011812,0.420011812 C0.687706299,0.151146059 1.05148164,0 1.43088793,0 C1.81029422,0 2.17406956,0.151146059 2.44176405,0.420011812 L7.5,5.47670562 L12.558236,0.420011812 C12.8259304,0.151146059 13.1897058,0 13.5691121,0 C13.9485184,0 14.3122937,0.151146059 14.5799882,0.420011812 L14.5799882,0.420011812 C14.8488539,0.687706299 15,1.05148164 15,1.43088793 C15,1.81029422 14.8488539,2.17406956 14.5799882,2.44176405 L9.52329438,7.5 L14.5799882,12.558236 C14.8488539,12.8259304 15,13.1897058 15,13.5691121 C15,13.9485184 14.8488539,14.3122937 14.5799882,14.5799882 L14.5799882,14.5799882 C14.3122937,14.8488539 13.9485184,15 13.5691121,15 C13.1897058,15 12.8259304,14.8488539 12.558236,14.5799882 Z" id="Path" fill="#D9D9D9" fill-rule="nonzero"></path>
    </g>
</svg>