<?xml version="1.0" encoding="utf-8"?>
<!-- Generator: Adobe Illustrator 23.1.1, SVG Export Plug-In . SVG Version: 6.00 Build 0)  -->
<svg version="1.1" id="labelmaker-compatibilities" xmlns="http://www.w3.org/2000/svg" xmlns:xlink="http://www.w3.org/1999/xlink"
	 x="0px" y="0px" viewBox="0 0 521.5 150" style="enable-background:new 0 0 521.5 150;" xml:space="preserve">
<style type="text/css">
	.st0{fill:#22A466;}
	.st1{fill:#1A8E5A;}
	.st2{fill:#8ECEAF;}
	.st3{fill:#FFFFFF;}
	.st4{fill:#4285F4;}
	.st5{fill:url(#SVGID_1_);}
	.st6{fill:#F1F1F1;}
	.st7{fill:#A1C2FA;}
	.st8{fill:#1A237E;fill-opacity:0.2;}
	.st9{fill:#1A237E;fill-opacity:0.1;}
	.st10{fill:#0039A6;}
	.st11{fill:#DE1D37;}
	.st12{fill:#4D4D4F;}
</style>
<path class="st0" d="M248.8,105.4c0,2.3-1.9,4.1-4.3,4.1l0,0h-44.1c-2.3,0-4.2-1.8-4.3-4.1l0,0V42.2c0-2.3,1.9-4.1,4.3-4.1l0,0h28.4
	l20,19.9V105.4z"/>
<polygon class="st1" points="231,57.6 248.8,74.2 248.7,58.1 "/>
<path class="st2" d="M248.8,58.1h-15.8c-2.3,0-4.2-1.8-4.3-4.1l0,0V38.1L248.8,58.1z"/>
<path class="st3" d="M224.2,93v-3.6h8.6V93H224.2z M212.2,89.4h8.6V93h-8.6V89.4z M220.8,87h-8.6v-3.8h8.6V87z M220.8,76.5v4.1h-8.6
	v-4.1H220.8z M224.2,83.1h8.6v3.8h-8.6V83.1z M232.7,80.6h-8.5v-4.1h8.6L232.7,80.6L232.7,80.6z M208.8,73.2v23.1h27.3V73.2H208.8z"
	/>
<g>
	<path id="Path" class="st4" d="M306.1,38.8h-27.3c-2.6,0-4.8,2.2-4.8,4.8v61.3c0,2.6,2.2,4.8,4.8,4.8h41.8c2.6,0,4.8-2.2,4.8-4.8
		V58.2l-11.3-8.1L306.1,38.8z"/>
	
		<linearGradient id="SVGID_1_" gradientUnits="userSpaceOnUse" x1="1548.3862" y1="-3912.4048" x2="1548.3862" y2="-3913.585" gradientTransform="matrix(13.8352 0 0 -13.9123 -21105.7305 -54372.3164)">
		<stop  offset="0" style="stop-color:#1A237E;stop-opacity:0.2"/>
		<stop  offset="1" style="stop-color:#1A237E;stop-opacity:2.000000e-02"/>
	</linearGradient>
	<polygon class="st5" points="307.5,56.7 325.4,74.8 325.4,58.2 	"/>
	<path id="Shape" class="st6" d="M286.9,90.5h25.7v-3.3h-25.7V90.5z M286.9,97h19.2v-3.3h-19.2V97z M286.9,74.3v3.3h25.7v-3.3H286.9
		z M286.9,84.1h25.7v-3.3h-25.7V84.1z"/>
	<g transform="translate(26.437500, -2.954545)">
		<path class="st7" d="M279.6,41.8v14.5c0,2.6,2.2,4.8,4.8,4.8h14.4L279.6,41.8z"/>
	</g>
	<path class="st8" d="M320.5,109.4h-41.8c-2.6,0-4.8-2.2-4.8-4.8v0.4c0,2.6,2.2,4.8,4.8,4.8h41.8c2.6,0,4.8-2.2,4.8-4.8v-0.4
		C325.4,107.2,323.2,109.4,320.5,109.4z"/>
	<path class="st9" d="M310.9,58.2c-2.6,0-4.8-2.2-4.8-4.8v0.4c0,2.6,2.2,4.8,4.8,4.8h14.4v-0.4H310.9z"/>
</g>
<polygon class="st10" points="484.5,60.1 478.3,71 472,60.1 464.1,60.1 474.3,77.8 470.1,85.1 478,85.1 492.4,60.1 "/>
<path class="st10" d="M452.9,72h-7.3v-6h7.3c2.3,0,3.7,1,3.7,2.9C456.6,70.7,455.3,72,452.9,72z M463.5,68.7L463.5,68.7
	c0.1-2.2-0.7-4.3-2.2-5.8c-1.7-1.7-4.4-2.7-8.1-2.7h-14.5v24.9h6.9v-7.6h5.7l5.1,7.6h8l-6-8.7C461.6,75.1,463.6,72.1,463.5,68.7z"/>
<polygon class="st11" points="362,83.6 365.5,106.4 424.1,97.6 422.6,87.8 419.2,87.8 420.2,94.8 368.3,102.6 365.5,83.6 "/>
<polygon class="st10" points="418,75.2 429.9,75.2 429.9,69.7 418,69.7 418,66 433.5,66 433.5,60.1 411.2,60.1 411.2,85.1 
	433.6,85.1 433.6,79.2 418,79.2 "/>
<polygon class="st10" points="393.5,75.7 385.6,60.1 377.6,60.1 390.3,85.1 396.8,85.1 409.5,60.1 401.5,60.1 "/>
<path class="st10" d="M366.9,68l3.9,7.5h-7.8L366.9,68z M363.2,60.1l-13.1,24.9h7.8l2.3-4.3h13.5l2.3,4.3h7.8l-13.1-24.9H363.2z"/>
<polygon class="st11" points="415.3,39 356.7,47.8 358.9,62.4 360.8,58.8 361.5,57.4 360.5,50.6 412.5,42.9 414.7,57.3 418,57.3 "/>
<g>
	<path class="st12" d="M51.7,64.3h3.2l-5.2,18.4h-3.2L42,68.8l-4.5,13.9h-3.2l-5.2-18.4h3.3l3.7,13.5l4.3-13.5h3.2L48,77.9
		L51.7,64.3z"/>
	<path class="st12" d="M68.4,76.4c0,3.9-2.8,6.7-6.6,6.7c-3.8,0-6.6-2.8-6.6-6.7c0-3.9,2.8-6.7,6.6-6.7
		C65.6,69.7,68.4,72.6,68.4,76.4z M65.3,76.4c0-2.6-1.7-4-3.5-4c-1.8,0-3.5,1.4-3.5,4c0,2.6,1.7,4,3.5,4
		C63.6,80.5,65.3,79.1,65.3,76.4z"/>
	<path class="st12" d="M78.7,73.1c-0.3-0.1-0.7-0.1-1-0.1c-2.3,0-3.4,1.4-3.4,3.7v6h-3V70.1h2.9v2c0.6-1.4,2-2.2,3.7-2.2
		c0.4,0,0.7,0.1,0.8,0.1V73.1z"/>
	<path class="st12" d="M87.9,75.5l5.3,7.3h-3.7l-3.7-5.2l-1.6,1.6v3.5h-3V64h3v11.3l4.9-5.1h4L87.9,75.5z"/>
	<path class="st12" d="M96.8,78.6c0.1,1.1,1,2.2,2.6,2.2c1.2,0,1.9-0.7,1.9-1.5c0-0.7-0.5-1.2-1.5-1.4L98,77.5
		c-2.2-0.5-3.4-2-3.4-3.7c0-2.2,2-4.1,4.7-4.1c3.5,0,4.7,2.3,4.9,3.5l-2.5,0.7c-0.1-0.7-0.6-1.9-2.3-1.9c-1.1,0-1.8,0.7-1.8,1.5
		c0,0.7,0.5,1.2,1.3,1.3l1.9,0.4c2.4,0.5,3.6,2,3.6,3.8c0,1.9-1.6,4.1-4.8,4.1c-3.7,0-5.1-2.4-5.2-3.8L96.8,78.6z"/>
	<path class="st12" d="M124,70.1l3,8.8l2.5-8.8h3.1l-4.1,12.7h-3l-3.1-9.1l-3.1,9.1h-3.1l-4.1-12.7h3.2l2.6,8.8l3-8.8H124z"/>
	<path class="st12" d="M136.3,63.7c1.1,0,2,0.9,2,2c0,1.1-0.9,1.9-2,1.9c-1.1,0-2-0.9-2-1.9C134.4,64.6,135.2,63.7,136.3,63.7z
		 M134.8,82.8V70.1h3v12.7H134.8z"/>
	<path class="st12" d="M145.5,70.1h2.6v2.7h-2.6v5.9c0,1.1,0.5,1.6,1.6,1.6c0.4,0,0.9-0.1,1-0.1v2.5c-0.2,0.1-0.8,0.3-1.8,0.3
		c-2.3,0-3.8-1.4-3.8-3.8v-6.4h-2.3v-2.7h0.6c1.4,0,2-0.9,2-2v-1.9h2.7V70.1z"/>
	<path class="st12" d="M153.9,82.8h-3V64h3v7.4c0.9-1.1,2.3-1.6,3.6-1.6c3.1,0,4.6,2.2,4.6,5v8h-3v-7.5c0-1.6-0.7-2.8-2.6-2.8
		c-1.7,0-2.6,1.2-2.6,2.9V82.8z"/>
</g>
</svg>
