<?xml version="1.0" encoding="utf-8"?>
<!-- Generator: Adobe Illustrator 23.1.1, SVG Export Plug-In . SVG Version: 6.00 Build 0)  -->
<svg version="1.1" id="Object" xmlns="http://www.w3.org/2000/svg" xmlns:xlink="http://www.w3.org/1999/xlink" x="0px" y="0px"
	 viewBox="0 0 1132 750" style="enable-background:new 0 0 1132 750;" xml:space="preserve">
<style type="text/css">
	.st0{fill:#F2F2F2;}
	.st1{fill:#353535;}
	.st2{fill:#EDEDED;}
	.st3{enable-background:new    ;}
	.st4{fill:#222323;}
	.st5{fill:#48494A;}
	.st6{fill:#4D4D4F;}
	.st7{fill:#38393A;}
	.st8{fill:#7A7A7D;}
	.st9{fill-rule:evenodd;clip-rule:evenodd;fill:#DBDBDB;}
	.st10{fill-rule:evenodd;clip-rule:evenodd;fill:#0037F1;}
	.st11{fill-rule:evenodd;clip-rule:evenodd;fill:#FFFFFF;}
	.st12{fill:#434345;}
	.st13{fill:#F1F1F2;}
	.st14{fill:#D8D8D8;}
	.st15{fill:#FFFFFF;}
	.st16{display:none;}
	.st17{display:inline;fill:#FFFFFF;}
	.st18{display:inline;fill:#F1F1F2;}
	.st19{display:inline;}
	.st20{fill:#DBDBDB;}
	.st21{fill:#7F8081;}
	.st22{fill:url(#XMLID_2_);}
	.st23{fill:#6D6E6F;}
	.st24{fill:url(#XMLID_3_);}
	.st25{fill:url(#XMLID_4_);}
	.st26{fill:#A7A7A7;}
	.st27{opacity:0.21;fill:#575759;}
</style>
<g>
	<path class="st0" d="M894.4,373.8C890.9,324.9,850,307,850,307L437.8,549.5l-3,0.6l47.9,140.7l388.7-223.1
		C871.3,467.6,898,422.7,894.4,373.8z"/>
	<g>
		<g>
			<g>
				<polygon class="st0" points="479.7,726.2 894.2,485.3 894.4,373.8 479.9,614.7 				"/>
			</g>
		</g>
		<g>
			<polygon class="st0" points="174.9,397.3 444,552.6 858.5,311.7 589.4,156.4 			"/>
		</g>
		<g>
			<polygon class="st1" points="543.7,647.4 830.2,480.9 830.4,423.8 543.9,590.3 			"/>
		</g>
		<g>
			<path class="st2" d="M444,552.6L174.9,397.3L174.6,550l305.1,176.2l0.2-111.4C480.8,587.1,463.9,564.1,444,552.6z"/>
		</g>
	</g>
	<g>
		<g class="st3">
			<g>
				<polygon class="st4" points="544.2,623.4 687.5,708.1 687.5,697.7 544.2,613 				"/>
			</g>
			<g>
				<polygon class="st5" points="687.5,708.1 957.4,551.2 957.4,540.8 687.5,697.7 				"/>
			</g>
		</g>
	</g>
	<g>
		<g>
			<polygon class="st1" points="246.4,401.9 317,442.4 669.2,237.7 598.6,197.2 			"/>
		</g>
	</g>
	<g>
		<polygon class="st6" points="355.7,466.3 426.3,506.8 778.5,302.1 708,261.6 		"/>
	</g>
	<g>
		<g class="st3">
			<g>
				<polygon class="st4" points="214.8,195.9 278,419.9 291.8,428.4 224.8,197.2 				"/>
			</g>
			<g>
				<polygon class="st7" points="214.8,195.9 224.8,197.2 544.9,11.2 534.9,9.8 				"/>
			</g>
		</g>
	</g>
	<polygon class="st8" points="543.9,612.8 687.5,697.7 957.4,540.8 813.8,455.9 	"/>
	<g id="Page-1_3_">
		<g id="Artboard_3_" transform="translate(-10.000000, -10.000000)">
			<g id="Labels_3_" transform="translate(10.000000, 10.000000)">
				<path class="st9" d="M917.1,539L770,457.5c-12.5,7.5-218.4,127-218.4,127l146.6,79.7c3.9,2.1,9.8,2.2,13.2,0.2l206.4-118
					C921.2,544.5,920.9,541.2,917.1,539z"/>
				<g id="Etiquettes_3_" transform="translate(7.000000, 3.000000)">
					<g id="Blue-etiquettes_3_" transform="translate(4.000000, 0.000000)">
						<path id="Rectangle-Copy-5_3_" class="st10" d="M739,611.2l14,7.6c3.9,2.1,4.2,5.4,0.7,7.4l-43.8,25c-3.5,2-9.4,1.9-13.2-0.2
							l-14-7.6c-3.9-2.1-4.2-5.4-0.7-7.4l43.8-25C729.3,609,735.2,609.1,739,611.2z"/>
						<path id="Rectangle-Copy-6_3_" class="st10" d="M806.6,572.6l14,7.6c3.9,2.1,4.2,5.4,0.7,7.4l-43.8,25
							c-3.5,2-9.4,1.9-13.2-0.2l-14-7.6c-3.9-2.1-4.2-5.4-0.7-7.4l43.8-25C796.8,570.4,802.8,570.5,806.6,572.6z"/>
						<path id="Rectangle-Copy-7_3_" class="st10" d="M874.2,534l14,7.6c3.9,2.1,4.2,5.4,0.7,7.4l-43.8,25c-3.5,2-9.4,1.9-13.2-0.2
							l-14-7.6c-3.9-2.1-4.2-5.4-0.7-7.4l43.8-25C864.4,531.8,870.3,531.9,874.2,534z"/>
					</g>
					<g id="White-etiquettes_3_" transform="translate(0.000000, 7.000000)">
						<g id="Group-Copy-6_3_" transform="translate(0.000000, 126.000000)">
							<path class="st11" d="M785.5,344.7l14,7.6c3.9,2.1,4.2,5.4,0.7,7.4l-53.8,30.8c-3.5,2-9.4,1.9-13.2-0.2l-14-7.6
								c-3.9-2.1-4.2-5.4-0.7-7.4l53.8-30.8C775.7,342.5,781.7,342.6,785.5,344.7z"/>
							<path class="st11" d="M718,383.3l14,7.6c3.9,2.1,4.2,5.4,0.7,7.4l-53.8,30.8c-3.5,2-9.4,1.9-13.2-0.2l-14-7.6
								c-3.9-2.1-4.2-5.4-0.7-7.4l53.8-30.8C708.2,381.1,714.1,381.2,718,383.3z"/>
							<path class="st11" d="M650.4,421.9l14,7.6c3.9,2.1,4.2,5.4,0.7,7.4l-53.8,30.8c-3.5,2-9.4,1.9-13.2-0.2l-14-7.6
								c-3.9-2.1-4.2-5.4-0.7-7.4l53.8-30.8C640.6,419.7,646.5,419.8,650.4,421.9z"/>
						</g>
						<g id="Group-Copy-7_3_" transform="translate(0.000000, 147.000000)">
							<path class="st11" d="M814.8,339.7l14,7.6c3.9,2.1,4.2,5.4,0.7,7.4l-53.8,30.8c-3.5,2-9.4,1.9-13.2-0.2l-14-7.6
								c-3.9-2.1-4.2-5.4-0.7-7.4l53.8-30.8C805,337.5,811,337.6,814.8,339.7z"/>
							<path class="st11" d="M747.2,378.3l14,7.6c3.9,2.1,4.2,5.4,0.7,7.4l-53.8,30.8c-3.5,2-9.4,1.9-13.2-0.2l-14-7.6
								c-3.9-2.1-4.2-5.4-0.7-7.4l53.8-30.8C737.5,376.1,743.4,376.2,747.2,378.3z"/>
							<path class="st11" d="M679.7,417l14,7.6c3.9,2.1,4.2,5.4,0.7,7.4l-53.8,30.8c-3.5,2-9.4,1.9-13.2-0.2l-14-7.6
								c-3.9-2.1-4.2-5.4-0.7-7.4l53.8-30.8C669.9,414.8,675.8,414.9,679.7,417z"/>
						</g>
						<g id="Group-Copy-8_3_" transform="translate(0.000000, 168.000000)">
							<path class="st11" d="M844.1,334.7l14,7.6c3.9,2.1,4.2,5.4,0.7,7.4L805,380.5c-3.5,2-9.4,1.9-13.2-0.2l-14-7.6
								c-3.9-2.1-4.2-5.4-0.7-7.4l53.8-30.8C834.3,332.5,840.3,332.6,844.1,334.7z"/>
							<path class="st11" d="M776.5,373.4l14,7.6c3.9,2.1,4.2,5.4,0.7,7.4l-53.8,30.8c-3.5,2-9.4,1.9-13.2-0.2l-14-7.6
								c-3.9-2.1-4.2-5.4-0.7-7.4l53.8-30.8C766.8,371.2,772.7,371.3,776.5,373.4z"/>
							<path class="st11" d="M709,412l14,7.6c3.9,2.1,4.2,5.4,0.7,7.4l-53.8,30.8c-3.5,2-9.4,1.9-13.2-0.2l-14-7.6
								c-3.9-2.1-4.2-5.4-0.7-7.4l53.8-30.8C699.2,409.8,705.1,409.9,709,412z"/>
						</g>
						<g id="Group-Copy-9_3_" transform="translate(0.000000, 189.000000)">
							<path class="st11" d="M873.4,329.8l14,7.6c3.9,2.1,4.2,5.4,0.7,7.4l-53.8,30.8c-3.5,2-9.4,1.9-13.2-0.2l-14-7.6
								c-3.9-2.1-4.2-5.4-0.7-7.4l53.8-30.8C863.6,327.6,869.6,327.7,873.4,329.8z"/>
							<path class="st11" d="M805.8,368.4l14,7.6c3.9,2.1,4.2,5.4,0.7,7.4l-53.8,30.8c-3.5,2-9.4,1.9-13.2-0.2l-14-7.6
								c-3.9-2.1-4.2-5.4-0.7-7.4l53.8-30.8C796.1,366.2,802,366.3,805.8,368.4z"/>
							<path class="st11" d="M738.3,407l14,7.6c3.9,2.1,4.2,5.4,0.7,7.4l-53.8,30.8c-3.5,2-9.4,1.9-13.2-0.2l-14-7.6
								c-3.9-2.1-4.2-5.4-0.7-7.4l53.8-30.8C728.5,404.8,734.4,404.9,738.3,407z"/>
						</g>
					</g>
				</g>
			</g>
		</g>
	</g>
	<g>
		<polygon class="st8" points="224.8,197.2 283,399.5 603.1,213.5 544.9,11.2 		"/>
		<polygon class="st12" points="283,399.5 291.2,428.2 317,442.4 618.6,267.1 603.1,213.5 		"/>
	</g>
	<g>
		<g class="st3">
			<g>
				<polygon class="st13" points="267.6,221.6 328.4,435.8 335.5,432.8 275.9,222.8 				"/>
			</g>
			<g>
				<polygon class="st14" points="267.6,221.6 275.9,222.8 541,68.7 532.8,67.5 				"/>
			</g>
		</g>
	</g>
	<polygon class="st15" points="275.9,222.8 335.3,432.3 602.3,276.8 541,68.7 	"/>
	<polygon class="st12" points="300.4,394 314.2,386 267.6,221.6 	"/>
	<g class="st16">
		<path class="st17" d="M934.3,534.2l-145.1-86.6L543.3,590.7l144.9,94.2C688.4,684.6,933.9,534,934.3,534.2z"/>
		<path class="st18" d="M934.4,534.1l-144-86.4l-0.3,0.1l143.9,86.3c-1.1,0.6-7,4.1-38.4,23.3c-20.8,12.7-50,30.6-84.5,51.7
			c-51.4,31.5-120.1,73.7-122.9,75.5l-144.3-93.4v-0.6L688.1,685l0.1,0.1l0.1-0.1c0.5-0.4,62.5-38.4,122.7-75.3
			c77.6-47.6,122.6-75,123.4-75.3l0-0.1L934.4,534.1z"/>
		<g class="st19">
			<g id="XMLID_725_">
				<g class="st3">
					<g>
						<polygon class="st20" points="826.4,542.4 831.8,545.4 681.4,632.4 675.8,629 						"/>
					</g>
					<g>
						<polygon class="st20" points="860.3,533.4 865.8,536.3 691.1,638.3 685.5,634.9 						"/>
					</g>
					<g>
						<polygon class="st20" points="869.7,538.5 875.2,541.4 700.9,644.3 695.2,640.8 						"/>
					</g>
				</g>
			</g>
			<g id="XMLID_622_">
				<g id="XMLID_723_">
					<path id="XMLID_724_" class="st21" d="M727.2,538.9c-10.4,9-26.3,14.8-41.4,20.5c-3.4,1.3-6.9,2.6-10.2,3.9
						c-2.1,0.8-4.3,1.7-6.4,2.6c-4.9,2-9.9,4-14.9,5.7c-25.3,8.6-28.5,23.6-28.5,23.7l-0.4,0c0-0.2,3.2-15.3,28.7-23.9
						c5-1.7,10-3.7,14.8-5.7c2.1-0.8,4.3-1.7,6.4-2.6c3.3-1.3,6.8-2.6,10.2-3.9c18.7-7,38.6-14.4,47.7-27.5
						c2.4-3.4,3.1-7.7,1.8-11.1c-1.7-4.4-5.2-11-8.3-14.6c0,0-2.1-2.1-3.5-5.1c-1.2-2.8-2.1-7,0.9-11.1c3.9-5.4,13.3-9.4,28.2-12.1
						l0.1,0.3c-14.7,2.6-24,6.6-27.8,11.9c-3,4-2.1,8.2-0.9,10.9c1.3,3,3.4,5,3.4,5.1c3.2,3.6,6.7,10.2,8.4,14.6
						c1.3,3.5,0.6,7.8-1.8,11.3C732,534.3,729.8,536.7,727.2,538.9z"/>
				</g>
				<g id="XMLID_721_">
					<polygon id="XMLID_722_" class="st21" points="643.1,611.3 641.1,612.5 640.7,612.3 642.7,611 					"/>
				</g>
				<g id="XMLID_719_">
					<polygon id="XMLID_720_" class="st21" points="682.4,596.7 682,597 679.9,595.7 680.3,595.4 					"/>
				</g>
				<g id="XMLID_716_">
					<path id="XMLID_717_" class="st21" d="M639.9,613.9l-0.2,0.2l-1.6-1c0,0.1,0,0.2-0.1,0.3c0,0.1-0.1,0.2-0.1,0.2l-0.2-0.2
						c0.1-0.1,0.1-0.3,0.1-0.4c0-0.1,0-0.2-0.1-0.3l0.2-0.1L639.9,613.9z"/>
				</g>
				<g id="XMLID_714_">
					<polygon id="XMLID_715_" class="st21" points="636.6,607.1 634.7,608.4 634.2,608.2 636.2,606.9 					"/>
				</g>
				<g id="XMLID_712_">
					<polygon id="XMLID_713_" class="st21" points="630.2,603 628.2,604.3 627.8,604.1 629.8,602.8 					"/>
				</g>
				<g id="XMLID_710_">
					<polygon id="XMLID_711_" class="st21" points="623.8,599 621.9,600.2 621.5,600 623.4,598.7 					"/>
				</g>
				<g id="XMLID_708_">
					<polygon id="XMLID_709_" class="st21" points="617.5,594.9 615.5,596.2 615.1,596 617.1,594.7 					"/>
				</g>
				<g id="XMLID_706_">
					<polygon id="XMLID_707_" class="st21" points="611.2,590.9 609.3,592.2 608.9,592 610.8,590.7 					"/>
				</g>
				<g id="XMLID_704_">
					<polygon id="XMLID_705_" class="st21" points="604.9,587 603,588.2 602.7,588 604.6,586.7 					"/>
				</g>
				<g id="XMLID_702_">
					<polygon id="XMLID_703_" class="st21" points="598.8,583 596.9,584.3 596.5,584.1 598.4,582.8 					"/>
				</g>
				<g id="XMLID_700_">
					<polygon id="XMLID_701_" class="st21" points="592.6,579.1 590.7,580.4 590.4,580.2 592.2,578.9 					"/>
				</g>
				<g id="XMLID_698_">
					<polygon id="XMLID_699_" class="st21" points="713.9,576.9 713.5,577.2 711.2,575.9 711.7,575.6 					"/>
				</g>
				<g id="XMLID_696_">
					<polygon id="XMLID_697_" class="st21" points="746.9,556.2 746.4,556.4 744.1,555.1 744.6,554.8 					"/>
				</g>
				<g id="XMLID_694_">
					<polygon id="XMLID_695_" class="st21" points="781.5,534.4 781,534.7 778.6,533.4 779,533.1 					"/>
				</g>
				<g id="XMLID_692_">
					<path id="XMLID_693_" class="st21" d="M780.6,492.6c-10,6.2-21.4,10.5-33.2,12.7c-4.5,0.8-9.3,1-14.5,1.1
						c-9.1,0.3-18.4,0.6-24.8,4.9c-3.9,2.6-6.7,6.8-7.3,10.9c-0.9,6.3-2,12-5.9,17.9c-7,10.5-19.3,18.4-34.4,22.4
						c-3.8,1-8.1,1.7-13.7,2.2c-7.1,0.6-14.6,0.8-24,0.5l-0.4,0c-6-0.2-14.1-0.5-17,4.2c-2.2,3.6,4.8,14.5,7,17.3l-0.4,0.1
						c-2.2-2.8-9.3-13.9-7-17.5c3-4.9,11.3-4.6,17.4-4.4l0.4,0c9.4,0.3,16.8,0.2,24-0.5c5.6-0.5,9.9-1.2,13.6-2.1
						c15-3.9,27.1-11.8,34.1-22.2c3.9-5.8,4.9-11.5,5.8-17.8c0.5-3.3,2.7-7.9,7.4-11.1c6.5-4.4,15.9-4.7,25.2-5
						c5.1-0.2,9.9-0.3,14.3-1.1c11.7-2.1,23.1-6.5,32.9-12.6L780.6,492.6z"/>
				</g>
				
					<linearGradient id="XMLID_2_" gradientUnits="userSpaceOnUse" x1="745.3047" y1="166.0016" x2="745.3047" y2="48.895" gradientTransform="matrix(1 1.700000e-03 -1.700000e-03 1 -34.9751 443.9018)">
					<stop  offset="0" style="stop-color:#009BE3"/>
					<stop  offset="3.928423e-02" style="stop-color:#079CE2"/>
					<stop  offset="0.3502" style="stop-color:#37A7DE"/>
					<stop  offset="0.6242" style="stop-color:#5AAEDB"/>
					<stop  offset="0.8482" style="stop-color:#6FB2D9"/>
					<stop  offset="0.9942" style="stop-color:#77B4D8"/>
				</linearGradient>
				<path id="XMLID_691_" class="st22" d="M783.6,494.2c-9.4,5.8-20.9,10.4-33.2,12.6c-12.6,2.3-29.5-0.6-39.5,6
					c-4.3,2.9-6.9,7.3-7.4,11c-0.9,6.1-1.9,11.9-5.9,17.8c-6.7,10-18.6,18.2-34.3,22.3c-9.1,2.4-24.6,3.2-34,2.8
					c-6.6-0.3-22.6-1.8-21.2,5.2c1,4.8,3.5,11.2,8.3,17.3l34.5,21.9l161.6-102.3L783.6,494.2z"/>
				<path id="XMLID_690_" class="st23" d="M608.2,566.5c0.4,0.3,0.4,0.7,0,1c-0.4,0.3-1.1,0.3-1.6,0c-0.4-0.3-0.4-0.7,0-1
					C607.1,566.3,607.8,566.2,608.2,566.5z"/>
				<path id="XMLID_689_" class="st23" d="M685.1,559.1c0.5,0.3,0.5,0.8,0,1.1c-0.5,0.3-1.2,0.3-1.7,0.1c-0.5-0.3-0.5-0.8,0-1.1
					C683.8,558.8,684.6,558.8,685.1,559.1z"/>
				<path id="XMLID_688_" class="st23" d="M723.1,541.9c0.5,0.3,0.5,0.8,0,1.1c-0.5,0.3-1.3,0.4-1.8,0.1c-0.5-0.3-0.5-0.8,0-1.1
					C721.8,541.6,722.6,541.6,723.1,541.9z"/>
				<path id="XMLID_687_" class="st23" d="M728.4,505.3c0.5,0.3,0.5,0.8,0,1.1c-0.5,0.3-1.3,0.4-1.8,0.1c-0.5-0.3-0.5-0.8,0-1.1
					C727,505.1,727.8,505.1,728.4,505.3z"/>
				<path id="XMLID_686_" class="st23" d="M727.8,486.6c0.5,0.3,0.5,0.8,0,1.1c-0.5,0.3-1.3,0.4-1.8,0.1c-0.5-0.3-0.5-0.8,0-1.1
					C726.4,486.4,727.3,486.3,727.8,486.6z"/>
				<g id="XMLID_684_">
					<path id="XMLID_685_" class="st21" d="M721,543.5c-10,6.5-22.8,11.3-35.1,15.8c-3.4,1.3-6.9,2.6-10.2,3.9
						c-2.1,0.8-4.3,1.7-6.4,2.6c-4.9,2-9.8,4-14.9,5.7c-25.3,8.6-28.5,23.6-28.5,23.7l-0.4,0c0-0.2,3.2-15.3,28.7-23.9
						c5-1.7,10-3.7,14.8-5.7c2.1-0.8,4.3-1.7,6.4-2.6c3.3-1.3,6.8-2.6,10.2-3.9c18.7-7,38.6-14.4,47.7-27.5
						c2.4-3.4,3.1-7.7,1.8-11.1c-1.7-4.4-5.2-11-8.3-14.6c0,0-2.1-2.1-3.5-5.1c-1.2-2.8-2.1-7,0.9-11.1c3.9-5.4,13.3-9.4,28.2-12.1
						l0.1,0.3c-14.7,2.6-24,6.6-27.8,11.9c-3,4-2.1,8.2-0.9,10.9c1.3,3,3.4,5,3.4,5.1c3.2,3.6,6.7,10.2,8.4,14.6
						c1.3,3.5,0.6,7.8-1.8,11.3C730.7,536.2,726.3,540.1,721,543.5z"/>
				</g>
				<g id="XMLID_682_">
					<polygon id="XMLID_683_" class="st21" points="816.1,509.4 649.1,614.8 590.4,577.5 590,577.7 649.1,615.3 816.6,509.7 					
						"/>
				</g>
				<g id="XMLID_680_">
					<polygon id="XMLID_681_" class="st21" points="643.1,611.3 641.1,612.5 640.7,612.3 642.7,611 					"/>
				</g>
				<g id="XMLID_678_">
					<polygon id="XMLID_679_" class="st21" points="682.4,596.7 682,597 679.9,595.7 680.3,595.4 					"/>
				</g>
				<g id="XMLID_676_">
					<polygon id="XMLID_677_" class="st21" points="636.6,607.1 634.7,608.4 634.2,608.2 636.2,606.9 					"/>
				</g>
				<g id="XMLID_674_">
					<polygon id="XMLID_675_" class="st21" points="630.2,603 628.2,604.3 627.8,604.1 629.8,602.8 					"/>
				</g>
				<g id="XMLID_672_">
					<polygon id="XMLID_673_" class="st21" points="623.8,599 621.9,600.2 621.5,600 623.4,598.7 					"/>
				</g>
				<g id="XMLID_670_">
					<polygon id="XMLID_671_" class="st21" points="617.5,594.9 615.5,596.2 615.1,596 617.1,594.7 					"/>
				</g>
				<g id="XMLID_668_">
					<polygon id="XMLID_669_" class="st21" points="611.2,590.9 609.3,592.2 608.9,592 610.8,590.7 					"/>
				</g>
				<g id="XMLID_666_">
					<polygon id="XMLID_667_" class="st21" points="604.9,587 603,588.2 602.7,588 604.6,586.7 					"/>
				</g>
				<g id="XMLID_664_">
					<polygon id="XMLID_665_" class="st21" points="598.8,583 596.9,584.3 596.5,584.1 598.4,582.8 					"/>
				</g>
				<g id="XMLID_662_">
					<polygon id="XMLID_663_" class="st21" points="592.6,579.1 590.7,580.4 590.4,580.2 592.2,578.9 					"/>
				</g>
				<g id="XMLID_660_">
					<polygon id="XMLID_661_" class="st21" points="713.9,576.9 713.5,577.2 711.2,575.9 711.7,575.6 					"/>
				</g>
				<g id="XMLID_658_">
					<polygon id="XMLID_659_" class="st21" points="746.9,556.2 746.4,556.4 744.1,555.1 744.6,554.8 					"/>
				</g>
				<g id="XMLID_656_">
					<polygon id="XMLID_657_" class="st21" points="781.5,534.4 781,534.7 778.6,533.4 779,533.1 					"/>
				</g>
				<g id="XMLID_654_">
					<path id="XMLID_655_" class="st21" d="M780.6,492.6c-10,6.2-21.4,10.5-33.2,12.7c-4.5,0.8-9.3,1-14.4,1.1
						c-9.1,0.3-18.4,0.6-24.8,4.9c-3.9,2.6-6.7,6.8-7.3,10.9c-0.9,6.3-2,12-5.9,17.9c-7,10.5-19.3,18.4-34.4,22.4
						c-3.8,1-8.1,1.7-13.7,2.2c-7.1,0.6-14.6,0.8-24,0.5l-0.4,0c-6-0.2-14.1-0.5-17,4.2c-2.2,3.6,4.8,14.5,7,17.3l-0.4,0.1
						c-2.2-2.8-9.3-13.9-7-17.5c3-4.9,11.3-4.6,17.4-4.4l0.4,0c9.4,0.3,16.8,0.2,24-0.5c5.6-0.5,9.9-1.2,13.6-2.1
						c15-3.9,27.1-11.8,34.1-22.2c3.9-5.8,4.9-11.5,5.8-17.8c0.5-3.3,2.6-7.9,7.4-11.1c6.5-4.4,15.9-4.7,25.2-5
						c5.1-0.2,9.9-0.3,14.3-1.1c11.7-2.1,23.1-6.5,32.9-12.6L780.6,492.6z"/>
				</g>
				<path id="XMLID_653_" class="st23" d="M608.2,566.5c0.4,0.3,0.4,0.7,0,1c-0.4,0.3-1.1,0.3-1.6,0c-0.4-0.3-0.4-0.7,0-1
					C607.1,566.3,607.8,566.2,608.2,566.5z"/>
				<path id="XMLID_652_" class="st23" d="M685.1,559.1c0.5,0.3,0.5,0.8,0,1.1c-0.5,0.3-1.2,0.3-1.7,0.1c-0.5-0.3-0.5-0.8,0-1.1
					C683.8,558.8,684.6,558.8,685.1,559.1z"/>
				<path id="XMLID_651_" class="st23" d="M723.1,541.9c0.5,0.3,0.5,0.8,0,1.1c-0.5,0.3-1.3,0.4-1.8,0.1c-0.5-0.3-0.5-0.8,0-1.1
					C721.8,541.6,722.6,541.6,723.1,541.9z"/>
				<path id="XMLID_650_" class="st23" d="M728.4,505.3c0.5,0.3,0.5,0.8,0,1.1c-0.5,0.3-1.3,0.4-1.8,0.1c-0.5-0.3-0.5-0.8,0-1.1
					C727,505.1,727.8,505.1,728.4,505.3z"/>
				<path id="XMLID_649_" class="st23" d="M727.8,486.6c0.5,0.3,0.5,0.8,0,1.1c-0.5,0.3-1.3,0.4-1.8,0.1c-0.5-0.3-0.5-0.8,0-1.1
					C726.4,486.4,727.3,486.3,727.8,486.6z"/>
				
					<linearGradient id="XMLID_3_" gradientUnits="userSpaceOnUse" x1="663.4278" y1="99.7115" x2="846.1799" y2="99.7115" gradientTransform="matrix(1 1.700000e-03 -1.700000e-03 1 -34.9751 443.9018)">
					<stop  offset="0" style="stop-color:#EF833A"/>
					<stop  offset="0.1461" style="stop-color:#EC7E4A"/>
					<stop  offset="0.5083" style="stop-color:#E5736D"/>
					<stop  offset="0.8059" style="stop-color:#E16C82"/>
					<stop  offset="1" style="stop-color:#E06A8A"/>
				</linearGradient>
				<path id="XMLID_648_" class="st24" d="M628.2,596.7c0,0,2.9-15.2,28.7-23.8c7.2-2.4,14.2-5.5,21.3-8.2
					c21.8-8.5,46.6-15.7,58.2-31.8c4.2-5.8,3.5-11.8,0.5-17.3c-4.8-8.9-17.4-17.4-7.4-27.7c5.4-5.6,16.5-7.7,26.1-8.5l55.6,28.8
					L649.8,610.4L628.2,596.7z"/>
				
					<linearGradient id="XMLID_4_" gradientUnits="userSpaceOnUse" x1="663.4278" y1="100.1031" x2="847.7106" y2="100.1031" gradientTransform="matrix(1 1.700000e-03 -1.700000e-03 1 -34.9751 443.9018)">
					<stop  offset="0" style="stop-color:#EF833A"/>
					<stop  offset="0.3473" style="stop-color:#EA7B53"/>
					<stop  offset="1" style="stop-color:#E06A8A"/>
				</linearGradient>
				<path id="XMLID_647_" class="st25" d="M628.2,596.7c0,0,2.9-15.2,28.7-23.8c7.2-2.4,14.2-5.5,21.3-8.2
					c21.8-8.5,46.6-15.7,58.2-31.8c4.2-5.8,3.5-11.8,0.5-17.3c-4.8-8.9-17.4-17.4-7.4-27.7c5.4-5.6,16.5-7.7,26.1-8.5l57.1,29.6
					L651,611.2L628.2,596.7z"/>
				<polygon id="XMLID_646_" class="st26" points="668.5,612.5 657.1,619.6 652.6,616.8 663.9,609.7 				"/>
				<polygon id="XMLID_645_" class="st26" points="693.8,596.7 682,604.1 677.4,601.2 689.2,593.8 				"/>
				<polygon id="XMLID_644_" class="st26" points="725.9,576.7 713.5,584.4 708.7,581.5 721,573.8 				"/>
				<polygon id="XMLID_643_" class="st26" points="759.1,556 746.2,564.1 741.1,561.2 754,553.1 				"/>
				<polygon id="XMLID_642_" class="st26" points="794.1,534.2 780.5,542.6 775.3,539.8 788.8,531.3 				"/>
				<polygon id="XMLID_641_" class="st26" points="831.5,510.8 817.2,519.7 811.7,516.9 825.9,507.9 				"/>
				<g id="XMLID_638_">
					<path id="XMLID_640_" class="st15" d="M647.2,573.7c0.8,0.5,0.8,1.3,0,1.8c-0.8,0.5-2,0.5-2.8,0.1c-0.8-0.5-0.8-1.3,0-1.8
						C645.2,573.3,646.5,573.2,647.2,573.7z"/>
					<path id="XMLID_639_" class="st23" d="M646.8,574c0.5,0.3,0.5,0.9,0,1.2c-0.5,0.4-1.4,0.4-1.9,0c-0.5-0.3-0.5-0.9,0-1.2
						C645.4,573.7,646.3,573.6,646.8,574z"/>
				</g>
				<g id="XMLID_635_">
					<path id="XMLID_637_" class="st15" d="M685.7,558.7c0.8,0.5,0.8,1.3,0,1.8c-0.8,0.5-2.1,0.6-2.9,0.1c-0.8-0.5-0.8-1.3,0-1.8
						C683.5,558.3,684.8,558.2,685.7,558.7z"/>
					<path id="XMLID_636_" class="st23" d="M685.2,559c0.6,0.3,0.6,0.9,0,1.3c-0.6,0.4-1.5,0.4-2,0.1c-0.6-0.3-0.6-0.9,0-1.3
						C683.7,558.7,684.7,558.7,685.2,559z"/>
				</g>
				<g id="XMLID_632_">
					<path id="XMLID_634_" class="st15" d="M723.8,541.5c0.9,0.5,0.9,1.3,0,1.9c-0.8,0.5-2.2,0.6-3.1,0.1c-0.8-0.5-0.8-1.3,0-1.9
						C721.5,541,722.9,541,723.8,541.5z"/>
					<path id="XMLID_633_" class="st23" d="M723.3,541.8c0.6,0.3,0.6,0.9,0,1.3c-0.6,0.4-1.6,0.4-2.2,0.1c-0.6-0.3-0.6-0.9,0-1.3
						C721.7,541.5,722.7,541.4,723.3,541.8z"/>
				</g>
				<g id="XMLID_629_">
					<path id="XMLID_631_" class="st15" d="M729,504.9c0.9,0.5,0.9,1.3,0,1.9c-0.9,0.6-2.2,0.7-3.1,0.2c-0.9-0.5-0.9-1.3,0-1.9
						C726.7,504.5,728.1,504.4,729,504.9z"/>
					<path id="XMLID_630_" class="st23" d="M728.5,505.2c0.6,0.3,0.6,0.9,0,1.3c-0.6,0.4-1.6,0.5-2.2,0.1c-0.6-0.3-0.6-0.9,0-1.3
						C726.9,505,727.9,504.9,728.5,505.2z"/>
				</g>
				<g id="XMLID_626_">
					<path id="XMLID_628_" class="st15" d="M728.4,486.1c0.9,0.5,0.9,1.3,0,1.9c-0.9,0.6-2.2,0.7-3.1,0.2c-0.9-0.5-0.9-1.3,0-1.9
						C726.1,485.8,727.5,485.7,728.4,486.1z"/>
					<path id="XMLID_627_" class="st23" d="M727.9,486.4c0.6,0.3,0.6,0.9,0,1.3c-0.6,0.4-1.6,0.5-2.2,0.2c-0.6-0.3-0.6-0.9,0-1.3
						C726.4,486.2,727.3,486.1,727.9,486.4z"/>
				</g>
				<g id="XMLID_623_">
					<path id="XMLID_625_" class="st15" d="M608.2,566c0.7,0.5,0.7,1.2,0,1.7c-0.7,0.5-1.9,0.5-2.6,0.1c-0.7-0.5-0.7-1.2,0-1.7
						C606.3,565.6,607.5,565.5,608.2,566z"/>
					<path id="XMLID_624_" class="st23" d="M607.8,566.3c0.5,0.3,0.5,0.9,0,1.2c-0.5,0.3-1.3,0.4-1.8,0c-0.5-0.3-0.5-0.9,0-1.2
						C606.5,566,607.3,565.9,607.8,566.3z"/>
				</g>
			</g>
		</g>
	</g>
	<polyline class="st27" points="543.9,590.3 543.7,612.7 543.9,612.8 813.8,455.9 794.6,444.6 	"/>
	<polygon class="st27" points="324.9,397.3 334.4,432.7 603.2,276.3 592.1,242.6 	"/>
</g>
</svg>
