<svg width="18px" height="20px" viewBox="0 0 18 20" version="1.1" xmlns="http://www.w3.org/2000/svg" xmlns:xlink="http://www.w3.org/1999/xlink">
    <g stroke="none" stroke-width="1" fill="none" fill-rule="evenodd">
        <g transform="translate(-3.000000, -2.000000)">
            <polygon points="0 0 24 0 24 24 0 24"></polygon>
            <path d="M9,11 L7,11 L7,13 L9,13 L9,11 M13,11 L11,11 L11,13 L13,13 L13,11 M17,11 L15,11 L15,13 L17,13 L17,11 M19,4 L18,4 L18,2 L16,2 L16,4 L8,4 L8,2 L6,2 L6,4 L5,4 C3.89,4 3,4.9 3,6 L3,20 C3,21.1045695 3.8954305,22 5,22 L19,22 C20.1045695,22 21,21.1045695 21,20 L21,6 C21,4.8954305 20.1045695,4 19,4 M19,20 L5,20 L5,9 L19,9 L19,20 Z" id="Shape" fill="#2C7BFF" fill-rule="nonzero"></path>
        </g>
    </g>
</svg>