<?xml version="1.0" encoding="UTF-8"?>
<svg width="59px" height="107px" viewBox="0 0 59 107" version="1.1" xmlns="http://www.w3.org/2000/svg" xmlns:xlink="http://www.w3.org/1999/xlink">
    <g stroke="none" stroke-width="1" fill="none" fill-rule="evenodd">
        <g fill="#5F6368">
            <g id="Bold" transform="translate(3.000000, 65.000000)" fill-rule="nonzero">
                <path d="M8.082031,5.820312 C8.914062,5.242188 9.5,4.304688 9.5,3.425781 C9.5,1.492188 8,0 6.074219,0 L0.5,0 L0.5,12 L6.746094,12 C8.539062,12 9.925781,10.546875 9.925781,8.753906 C9.925781,7.449219 9.191406,6.335938 8.082031,5.820312 Z M2.75,1.875 L5.75,1.875 C6.582031,1.875 7.25,2.542969 7.25,3.375 C7.25,4.207031 6.582031,4.875 5.75,4.875 L2.75,4.875 L2.75,1.875 Z M6.253906,10.125 L2.75,10.125 L2.75,7.125 L6.253906,7.125 C7.085938,7.125 7.753906,7.792969 7.753906,8.625 C7.753906,9.457031 7.078125,10.125 6.253906,10.125 Z" id="Shape"></path>
            </g>
            <g id="Italic" transform="translate(24.000000, 65.000000)" fill-rule="nonzero">
                <polygon id="Path" points="3.75 0 3.75 2.25 6.375 2.25 3.375 9.75 0.75 9.75 0.75 12 8.25 12 8.25 9.75 5.625 9.75 8.625 2.25 11.25 2.25 11.25 0"></polygon>
            </g>
            <g id="Size" transform="translate(0.000000, 95.000000)">
                <path d="M0,6 L3,6 L3,12 L5,12 L5,6 L8,6 L8,4 L0,4 L0,6 L0,6 Z M6,0 L6,2 L10,2 L10,12 L12,12 L12,2 L16,2 L16,0 L6,0 L6,0 Z" id="Shape"></path>
            </g>
            <g id="Group" transform="translate(46.000000, 65.000000)" fill-rule="nonzero">
                <path d="M6,10.75 C8.484375,10.75 10.5,8.734375 10.5,6.25 L10.5,0.25 L8.625,0.25 L8.625,6.25 C8.625,7.699219 7.449219,8.875 6,8.875 C4.550781,8.875 3.375,7.699219 3.375,6.25 L3.375,0.25 L1.5,0.25 L1.5,6.25 C1.5,8.734375 3.515625,10.75 6,10.75 Z M0.75,12.25 L0.75,13.75 L11.25,13.75 L11.25,12.25 L0.75,12.25 Z" id="Shape"></path>
            </g>
            <g id="Group" transform="translate(1.000000, 0.000000)" fill-rule="nonzero">
                <path d="M9.25,9.25 L0.25,9.25 L0.25,10.75 L9.25,10.75 L9.25,9.25 Z M9.25,3.25 L0.25,3.25 L0.25,4.75 L9.25,4.75 L9.25,3.25 Z M0.25,7.75 L13.75,7.75 L13.75,6.25 L0.25,6.25 L0.25,7.75 Z M0.25,13.75 L13.75,13.75 L13.75,12.25 L0.25,12.25 L0.25,13.75 Z M0.25,0.25 L0.25,1.75 L13.75,1.75 L13.75,0.25 L0.25,0.25 Z" id="Shape"></path>
            </g>
            <g id="Group" transform="translate(52.000000, 7.000000) scale(-1, 1) translate(-52.000000, -7.000000) translate(45.000000, 0.000000)" fill-rule="nonzero">
                <path d="M9.25,9.25 L0.25,9.25 L0.25,10.75 L9.25,10.75 L9.25,9.25 Z M9.25,3.25 L0.25,3.25 L0.25,4.75 L9.25,4.75 L9.25,3.25 Z M0.25,7.75 L13.75,7.75 L13.75,6.25 L0.25,6.25 L0.25,7.75 Z M0.25,13.75 L13.75,13.75 L13.75,12.25 L0.25,12.25 L0.25,13.75 Z M0.25,0.25 L0.25,1.75 L13.75,1.75 L13.75,0.25 L0.25,0.25 Z" id="Shape"></path>
            </g>
            <g id="Group" transform="translate(23.000000, 0.000000)" fill-rule="nonzero">
                <path d="M3.25,9.25 L3.25,10.75 L10.75,10.75 L10.75,9.25 L3.25,9.25 Z M0.25,13.75 L13.75,13.75 L13.75,12.25 L0.25,12.25 L0.25,13.75 Z M0.25,7.75 L13.75,7.75 L13.75,6.25 L0.25,6.25 L0.25,7.75 Z M3.25,3.25 L3.25,4.75 L10.75,4.75 L10.75,3.25 L3.25,3.25 Z M0.25,0.25 L0.25,1.75 L13.75,1.75 L13.75,0.25 L0.25,0.25 Z" id="Shape"></path>
            </g>
            <g id="Group" transform="translate(23.000000, 96.000000)">
                <path d="M4,0 L2,0 C0.895,0 0,0.895 0,2 L0,10 L2,10 L2,8 L4,8 L4,10 L6,10 L6,2 C6,0.895 5.105,0 4,0 Z M2,6 L4,6 L4,2 L2,2 L2,6 Z M14,3.5 L14,2 C14,0.895 13.105,0 12,0 L8,0 L8,10 L12,10 C13.105,10 14,9.105 14,8 L14,6.5 C14,5.672 13.328,5 12.5,5 C13.328,5 14,4.328 14,3.5 Z M10,8 L12,8 L12,6 L10,6 L10,8 Z M10,4 L12,4 L12,2 L10,2 L10,4 Z" id="Shape"></path>
            </g>
            <g id="Group" transform="translate(2.000000, 31.000000)">
                <path d="M9.5,7 L7,7 L7,0 L5,0 L5,7 L2.5,7 L6,10.5 L9.5,7 L9.5,7 Z M0,12 L0,14 L12,14 L12,12 L0,12 L0,12 Z" id="Shape"></path>
            </g>
            <g id="Group" transform="translate(46.000000, 32.000000)" fill-rule="nonzero">
                <path d="M0,1.5 L0,0 L12,0 L12,1.5 L0,1.5 Z M3.308594,7.808594 L5.25,5.871094 L5.25,12 L6.75,12 L6.75,5.871094 L8.691406,7.816406 L9.75,6.75 L6,3 L2.25,6.75 L3.308594,7.808594 Z" id="Shape"></path>
            </g>
            <g id="Group" transform="translate(24.000000, 29.000000)">
                <path d="M9.5,3 L7,3 L7,0 L5,0 L5,3 L2.5,3 L6,6.5 L9.5,3 L9.5,3 Z M0,8 L0,10 L12,10 L12,8 L0,8 L0,8 Z M2.5,15 L5,15 L5,18 L7,18 L7,15 L9.5,15 L6,11.5 L2.5,15 L2.5,15 Z" id="Shape"></path>
            </g>
        </g>
    </g>
</svg>