<?xml version="1.0" encoding="UTF-8"?>
<svg width="576px" height="414px" viewBox="0 0 576 414" version="1.1" xmlns="http://www.w3.org/2000/svg" xmlns:xlink="http://www.w3.org/1999/xlink">
    <!-- Generator: Sketch 52.4 (67378) - http://www.bohemiancoding.com/sketch -->
    <title>Payment-success Copy 2</title>
    <desc>Created with Sketch.</desc>
    <defs>
        <rect id="path-1" x="0" y="0" width="450" height="45"></rect>
        <polygon id="path-3" points="0 0.173287059 52.9181326 0.173287059 52.9181326 53.576431 0 53.576431"></polygon>
    </defs>
    <g id="Page-1" stroke="none" stroke-width="1" fill="none" fill-rule="evenodd">
        <g id="Payment-success-Copy-2">
            <g id="Card-">
                <g id="Group-3">
                    <rect id="Rectangle" stroke="#BBD4FF" stroke-width="8" fill="#FFFFFF" fill-rule="nonzero" x="4" y="4" width="448" height="284" rx="33"></rect>
                    <g id="Group" transform="translate(6.000000, 97.000000)">
                        <g id="Rectangle-Copy-8">
                            <mask id="mask-2" fill="white">
                                <use xlink:href="#path-1"></use>
                            </mask>
                            <use id="Mask" fill="#D4E1F4" fill-rule="nonzero" xlink:href="#path-1"></use>
                            <rect stroke="#BBD4FF" stroke-width="8" fill-rule="nonzero" mask="url(#mask-2)" x="-2" y="-93" width="448" height="284" rx="33"></rect>
                        </g>
                    </g>
                </g>
            </g>
            <g id="Name" transform="translate(38.000000, 196.000000)" fill="#BBD4FF" fill-rule="nonzero">
                <rect id="Rectangle" x="0" y="0" width="83" height="12" rx="6"></rect>
                <rect id="Rectangle-Copy-10" x="93" y="0" width="83" height="12" rx="6"></rect>
                <rect id="Rectangle-Copy-11" x="93" y="0" width="83" height="12" rx="6"></rect>
            </g>
            <g id="Details" transform="translate(40.000000, 231.000000)" fill="#BBD4FF" fill-rule="nonzero">
                <rect id="Rectangle" x="0" y="0" width="36" height="12" rx="6"></rect>
                <rect id="Rectangle-Copy" x="45" y="0" width="25" height="12" rx="6"></rect>
                <rect id="Rectangle-Copy-3" x="79" y="0" width="36" height="12" rx="6"></rect>
                <rect id="Rectangle-Copy-2" x="124" y="0" width="25" height="12" rx="6"></rect>
                <rect id="Rectangle-Copy-5" x="79" y="0" width="36" height="12" rx="6"></rect>
                <rect id="Rectangle-Copy-4" x="124" y="0" width="25" height="12" rx="6"></rect>
                <rect id="Rectangle-Copy-7" x="158" y="0" width="36" height="12" rx="6"></rect>
            </g>
            <g id="Check" transform="translate(318.000000, 156.000000)">
                <circle id="Oval" stroke="#1AE5BE" stroke-width="12" fill="#1AE5BE" fill-rule="nonzero" cx="126" cy="126" r="126"></circle>
                <path d="M178.222656,89.300781 L105.8125,148.210938 L76.570312,113.96875 C74.414062,111.46875 70.644531,111.183594 68.132812,113.328125 C65.621094,115.472656 65.316406,119.242188 67.445312,121.761719 L100.488281,160.457031 C102.605469,162.9375 106.3125,163.273438 108.839844,161.214844 L185.800781,98.609375 C188.371094,96.515625 188.761719,92.738281 186.667969,90.167969 C184.578125,87.597656 180.796875,87.207031 178.226562,89.300781 L178.222656,89.300781 Z" id="Path" fill="#FFFFFF"></path>
            </g>
            <g id="Chip" transform="translate(38.000000, 31.000000)" fill-rule="nonzero">
                <rect id="Rectangle" stroke="#EEC31C" stroke-width="3" fill="#F1D253" x="1.5" y="1.5" width="72" height="45" rx="7"></rect>
                <rect id="Rectangle" fill="#EEC31C" x="11" y="10" width="15" height="7"></rect>
                <rect id="Rectangle-Copy-6" fill="#EEC31C" x="11" y="21" width="15" height="7"></rect>
                <rect id="Rectangle-Copy-9" fill="#EEC31C" x="11" y="32" width="15" height="7"></rect>
                <rect id="Rectangle-Copy-14" fill="#EEC31C" x="49" y="10" width="15" height="7"></rect>
                <rect id="Rectangle-Copy-13" fill="#EEC31C" x="49" y="21" width="15" height="7"></rect>
                <rect id="Rectangle-Copy-12" fill="#EEC31C" x="49" y="32" width="15" height="7"></rect>
            </g>
            <g id="Logo" transform="translate(351.000000, 27.000000)">
                <g id="Group-6" transform="translate(0.000000, 0.038541)">
                    <mask id="mask-4" fill="white">
                        <use xlink:href="#path-3"></use>
                    </mask>
                    <g id="Clip-5"></g>
                    <path d="M15.9137968,25.5693812 C12.2769873,24.2663929 8.6849754,22.9792871 5.09317381,21.6921812 C5.07718968,21.7099694 5.06120556,21.7277576 5.04522143,21.7455459 C5.26794762,22.1377341 5.48751905,22.5316165 5.71361032,22.9216871 C8.77457063,28.20204 12.0567849,33.3396635 15.5415349,38.3457812 C17.5936024,41.2937576 19.7281143,44.17884 22.0971302,46.8809576 C23.5735587,48.5646988 25.178281,50.1029576 27.1407532,51.2013812 C32.434023,54.1639694 37.8602135,54.4083459 43.2594833,51.6333812 C48.2387492,49.0742047 51.4355746,44.9682988 52.5580389,39.4170988 C53.6176183,34.1788871 52.3098643,29.4611929 49.0171341,25.2909106 C48.6730548,24.8546753 48.316777,24.4158988 47.9039238,24.0491224 C46.4815468,22.7855224 45.0730508,21.5003224 43.5842135,20.3188871 C38.9364079,16.6303694 33.9920548,13.3687694 28.9957532,10.1850988 C25.4476976,7.92408706 21.8487452,5.75032235 18.1540984,3.73940471 C18.1023603,3.71124 18.049781,3.68498118 17.9454635,3.63076941 C19.139646,5.85048706 20.3090111,8.02171059 21.4756421,10.1944165 C22.6454278,12.37284 23.8120587,14.5529576 24.9799516,16.7322282 L24.9227452,16.7830518 C16.6391817,11.2464635 8.35561825,5.70987529 0.0720547619,0.173287059 C0.0480785714,0.192769412 0.024102381,0.21204 -8.41269841e-05,0.231522353 C5.29360635,8.65975765 10.5870865,17.0882047 15.9137968,25.5693812" id="Fill-4" fill="#D4E1F4" mask="url(#mask-4)"></path>
                </g>
                <path d="M46.4145397,30.9380188 C46.3238929,30.8029129 46.2082183,30.6864424 46.0740357,30.59496 C46.0069444,30.5492188 45.9352262,30.5100424 45.8595119,30.4778541 C45.7089246,30.4134776 45.5427738,30.3779012 45.3684206,30.3779012 L45.3114246,30.3779012 L44.4979167,30.9763482 L44.4375556,31.0208188 L37.0705556,36.4381835 L29.5727381,30.9242541 L28.8301071,30.3779012 L28.6416627,30.3779012 C27.944881,30.3779012 27.3803889,30.9469129 27.3803889,31.6480659 L27.3803889,32.3369365 L27.3803889,43.1684894 C27.3803889,43.2927953 27.3980556,43.4128659 27.4317063,43.5265835 C27.5850278,44.0538776 28.0683373,44.4384424 28.6416627,44.4384424 L29.5727381,44.4384424 L29.5727381,33.9488894 L35.0142817,37.9506071 L36.8032421,39.2658776 L37.1328095,39.5087718 L39.189504,37.9963482 L44.4375556,34.1369365 L44.4375556,44.4384424 L45.3684206,44.4382306 C45.9419563,44.4382306 46.4254762,44.0538776 46.578377,43.5265835 C46.6122381,43.4128659 46.6296944,43.2925835 46.6296944,43.1684894 L46.6296944,32.5251953 L46.6296944,31.6480659 C46.6296944,31.3850541 46.5504048,31.1406776 46.4145397,30.9380188" id="Fill-7" fill="#FFFFFF"></path>
            </g>
        </g>
    </g>
</svg>