<?xml version="1.0" encoding="UTF-8"?>
<svg width="187px" height="59px" viewBox="0 0 187 59" version="1.1" xmlns="http://www.w3.org/2000/svg" xmlns:xlink="http://www.w3.org/1999/xlink">
    <!-- Generator: Sketch 52.4 (67378) - http://www.bohemiancoding.com/sketch -->
    <title>Secure_payments</title>
    <desc>Created with Sketch.</desc>
    <g id="Page-1" stroke="none" stroke-width="1" fill="none" fill-rule="evenodd">
        <g id="Secure_payments" transform="translate(0.000000, -2.000000)">
            <g id="powered_by_stripe" transform="translate(38.000000, 20.000000)">
                <path d="M6,0 L143,0 C146.314,0 149,2.686 149,6 L149,35 C149,38.314 146.314,41 143,41 L6,41 C2.686,41 0,38.314 0,35 L0,6 C0,2.686 2.686,0 6,0 Z" id="Path" fill="#32364E"></path>
                <path d="M71.403,26.625 L69.941,26.625 L71.073,23.829 L68.82,18.144 L70.365,18.144 L71.781,22.013 L73.208,18.144 L74.753,18.144 L71.403,26.625 Z M65.788,24.183 C65.281,24.183 64.762,23.995 64.29,23.629 L64.29,24.042 L62.781,24.042 L62.781,15.561 L64.29,15.561 L64.29,18.546 C64.762,18.192 65.281,18.003 65.788,18.003 C67.369,18.003 68.454,19.277 68.454,21.093 C68.454,22.909 67.369,24.183 65.788,24.183 Z M65.47,19.3 C65.057,19.3 64.644,19.477 64.29,19.831 L64.29,22.355 C64.644,22.709 65.057,22.886 65.47,22.886 C66.319,22.886 66.909,22.155 66.909,21.093 C66.909,20.032 66.319,19.3 65.47,19.3 Z M56.67,23.629 C56.21,23.995 55.691,24.183 55.172,24.183 C53.603,24.183 52.507,22.909 52.507,21.093 C52.507,19.277 53.603,18.003 55.172,18.003 C55.691,18.003 56.21,18.192 56.67,18.546 L56.67,15.561 L58.192,15.561 L58.192,24.042 L56.67,24.042 L56.67,23.629 Z M56.67,19.831 C56.328,19.477 55.915,19.3 55.502,19.3 C54.641,19.3 54.052,20.032 54.052,21.093 C54.052,22.155 54.641,22.886 55.502,22.886 C55.915,22.886 56.328,22.709 56.67,22.355 L56.67,19.831 Z M47.682,21.506 C47.776,22.402 48.484,23.016 49.475,23.016 C50.017,23.016 50.619,22.815 51.232,22.461 L51.232,23.723 C50.56,24.03 49.888,24.183 49.227,24.183 C47.446,24.183 46.196,22.886 46.196,21.046 C46.196,19.265 47.423,18.003 49.109,18.003 C50.654,18.003 51.704,19.218 51.704,20.952 C51.704,21.117 51.704,21.305 51.68,21.506 L47.682,21.506 Z M49.05,19.171 C48.319,19.171 47.753,19.713 47.682,20.527 L50.253,20.527 C50.206,19.725 49.722,19.171 49.05,19.171 Z M43.707,20.102 L43.707,24.042 L42.197,24.042 L42.197,18.144 L43.707,18.144 L43.707,18.734 C44.131,18.262 44.65,18.003 45.157,18.003 C45.323,18.003 45.488,18.015 45.653,18.062 L45.653,19.407 C45.488,19.359 45.299,19.336 45.122,19.336 C44.627,19.336 44.096,19.607 43.707,20.102 Z M36.971,21.506 C37.066,22.402 37.773,23.016 38.764,23.016 C39.307,23.016 39.908,22.815 40.522,22.461 L40.522,23.723 C39.849,24.03 39.177,24.183 38.516,24.183 C36.735,24.183 35.485,22.886 35.485,21.046 C35.485,19.265 36.712,18.003 38.398,18.003 C39.944,18.003 40.993,19.218 40.993,20.952 C40.993,21.117 40.993,21.305 40.97,21.506 L36.971,21.506 Z M38.339,19.171 C37.608,19.171 37.042,19.713 36.971,20.527 L39.543,20.527 C39.495,19.725 39.012,19.171 38.339,19.171 Z M31.698,24.042 L30.495,20.032 L29.304,24.042 L27.947,24.042 L25.919,18.144 L27.428,18.144 L28.62,22.155 L29.811,18.144 L31.179,18.144 L32.37,22.155 L33.562,18.144 L35.071,18.144 L33.054,24.042 L31.698,24.042 Z M22.474,24.183 C20.693,24.183 19.431,22.898 19.431,21.093 C19.431,19.277 20.693,18.003 22.474,18.003 C24.255,18.003 25.505,19.277 25.505,21.093 C25.505,22.898 24.255,24.183 22.474,24.183 Z M22.474,19.265 C21.589,19.265 20.976,20.008 20.976,21.093 C20.976,22.178 21.589,22.921 22.474,22.921 C23.347,22.921 23.96,22.178 23.96,21.093 C23.96,20.008 23.347,19.265 22.474,19.265 Z M15.845,21.129 L14.488,21.129 L14.488,24.042 L12.979,24.042 L12.979,15.927 L15.845,15.927 C17.496,15.927 18.675,17 18.675,18.534 C18.675,20.067 17.496,21.129 15.845,21.129 Z M15.632,17.154 L14.488,17.154 L14.488,19.902 L15.632,19.902 C16.505,19.902 17.118,19.348 17.118,18.534 C17.118,17.708 16.505,17.154 15.632,17.154 Z" id="Shape" fill="#FFFFFF"></path>
                <path d="M136.827,21.868 L129.577,21.868 C129.742,23.604 131.014,24.115 132.457,24.115 C133.928,24.115 135.086,23.806 136.096,23.296 L136.096,26.28 C135.089,26.837 133.761,27.24 131.99,27.24 C128.383,27.24 125.855,24.981 125.855,20.514 C125.855,16.742 127.999,13.746 131.523,13.746 C135.041,13.746 136.877,16.741 136.877,20.534 C136.877,20.892 136.844,21.668 136.827,21.868 Z M131.499,16.766 C130.573,16.766 129.544,17.465 129.544,19.134 L133.373,19.134 C133.373,17.467 132.409,16.766 131.499,16.766 Z M119.981,27.24 C118.685,27.24 117.893,26.693 117.361,26.303 L117.353,30.494 L113.65,31.282 L113.648,13.993 L116.91,13.993 L117.102,14.908 C117.615,14.429 118.552,13.746 120.004,13.746 C122.605,13.746 125.055,16.089 125.055,20.401 C125.055,25.108 122.631,27.24 119.981,27.24 Z M119.119,17.027 C118.268,17.027 117.736,17.338 117.35,17.761 L117.372,23.265 C117.731,23.654 118.25,23.968 119.119,23.968 C120.488,23.968 121.406,22.477 121.406,20.483 C121.406,18.545 120.474,17.027 119.119,17.027 Z M108.417,13.993 L112.135,13.993 L112.135,26.975 L108.417,26.975 L108.417,13.993 Z M108.417,9.848 L112.135,9.057 L112.135,12.074 L108.417,12.864 L108.417,9.848 Z M104.576,18.174 L104.576,26.975 L100.874,26.975 L100.874,13.993 L104.076,13.993 L104.309,15.088 C105.175,13.494 106.907,13.817 107.4,13.994 L107.4,17.398 C106.929,17.246 105.451,17.024 104.576,18.174 Z M96.759,22.42 C96.759,24.603 99.096,23.924 99.571,23.734 L99.571,26.749 C99.077,27.02 98.182,27.24 96.971,27.24 C94.773,27.24 93.124,25.621 93.124,23.428 L93.14,11.545 L96.756,10.777 L96.759,13.993 L99.572,13.993 L99.572,17.151 L96.759,17.151 L96.759,22.42 Z M92.265,23.052 C92.265,25.718 90.143,27.24 87.063,27.24 C85.786,27.24 84.39,26.992 83.013,26.399 L83.013,22.863 C84.256,23.539 85.84,24.046 87.067,24.046 C87.893,24.046 88.488,23.824 88.488,23.14 C88.488,21.372 82.857,22.038 82.857,17.937 C82.857,15.315 84.86,13.746 87.864,13.746 C89.091,13.746 90.318,13.935 91.545,14.424 L91.545,17.912 C90.418,17.304 88.988,16.959 87.861,16.959 C87.085,16.959 86.603,17.183 86.603,17.762 C86.603,19.428 92.265,18.636 92.265,23.052 Z" id="Shape" fill="#FFFFFF"></path>
            </g>
            <path d="M54.54322,11.19024 C53.7981096,11.19024 53.1402029,10.9801854 52.56948,10.56007 C51.9987571,10.1399546 51.5984645,9.54546051 51.36859,8.77657 L52.87862,8.18207 C52.9975206,8.63389226 53.1996486,8.99455199 53.48501,9.26406 C53.7703714,9.53356801 54.1270679,9.66832 54.55511,9.66832 C54.9118118,9.66832 55.2169854,9.57914589 55.47064,9.400795 C55.7242946,9.22244411 55.85112,8.97473825 55.85112,8.65767 C55.85112,8.34060175 55.7302395,8.08100601 55.488475,7.878875 C55.2467105,7.67674399 54.8166931,7.46074448 54.19841,7.23087 L53.67525,7.04063 C53.1283073,6.85038905 52.6606386,6.55908696 52.27223,6.166715 C51.8838214,5.77434304 51.68962,5.28091297 51.68962,4.68641 C51.68962,4.24251445 51.8045555,3.83825849 52.03443,3.47363 C52.2643045,3.10900151 52.5892946,2.82166272 53.00941,2.611605 C53.4295254,2.40154728 53.9051207,2.29652 54.43621,2.29652 C55.2051005,2.29652 55.8114844,2.47684986 56.25538,2.837515 C56.6992756,3.19818014 57.0044492,3.62027092 57.17091,4.1038 L55.756,4.6983 C55.6688062,4.43671869 55.5162194,4.21675589 55.298235,4.038405 C55.0802506,3.86005411 54.8008384,3.77088 54.45999,3.77088 C54.1112149,3.77088 53.8238761,3.85212752 53.597965,4.014625 C53.3720539,4.17712248 53.2591,4.38915869 53.2591,4.65074 C53.2591,4.9043946 53.3661089,5.12039411 53.58013,5.298745 C53.7941511,5.47709589 54.1468842,5.64949917 54.63834,5.81596 L55.17339,5.99431 C55.9105737,6.2479646 56.475343,6.58286292 56.867715,6.999015 C57.260087,7.41516708 57.45627,7.96011996 57.45627,8.63389 C57.45627,9.18875944 57.3135914,9.65840974 57.02823,10.042855 C56.7428686,10.4273003 56.3762639,10.714639 55.928405,10.90488 C55.4805461,11.095121 55.0188224,11.19024 54.54322,11.19024 Z M61.60588,11.19024 C61.0034503,11.19024 60.4604791,11.0515247 59.97695,10.77409 C59.4934209,10.4966553 59.1149264,10.1141974 58.841455,9.626705 C58.5679836,9.13921256 58.43125,8.59029639 58.43125,7.97994 C58.43125,7.40129044 58.566002,6.86426414 58.83551,6.368845 C59.105018,5.87342586 59.4775676,5.47907813 59.95317,5.18579 C60.4287724,4.89250187 60.9598537,4.74586 61.54643,4.74586 C62.1726398,4.74586 62.7116477,4.88061199 63.16347,5.15012 C63.6152923,5.41962801 63.9581172,5.78821433 64.191955,6.25589 C64.4257928,6.72356567 64.54271,7.24275715 64.54271,7.81348 C64.54271,7.99579424 64.5308201,8.17017917 64.50704,8.33664 L59.95317,8.33664 C60.0324371,8.82016908 60.2246568,9.18677375 60.529835,9.436465 C60.8350132,9.68615625 61.2016179,9.811 61.62966,9.811 C61.9863618,9.811 62.293517,9.73371577 62.551135,9.579145 C62.808753,9.42457423 63.0128626,9.21650131 63.16347,8.95492 L64.42381,9.5732 C63.8055269,10.6512321 62.8662263,11.19024 61.60588,11.19024 Z M63.04457,7.23087 C63.0287166,7.04062905 62.9593589,6.8523726 62.836495,6.666095 C62.7136311,6.4798174 62.5432094,6.32524895 62.325225,6.202385 C62.1072406,6.07952105 61.8516081,6.01809 61.55832,6.01809 C61.1857648,6.01809 60.8667197,6.12708058 60.601175,6.345065 C60.3356303,6.56304942 60.1434106,6.8583148 60.02451,7.23087 L63.04457,7.23087 Z M68.65665,11.19024 C68.0462936,11.19024 67.4993591,11.0535064 67.01583,10.780035 C66.5323009,10.5065636 66.1538064,10.1241058 65.880335,9.63265 C65.6068636,9.14119421 65.47013,8.58633309 65.47013,7.96805 C65.47013,7.34976691 65.6068636,6.79688744 65.880335,6.309395 C66.1538064,5.82190256 66.5323009,5.43944472 67.01583,5.16201 C67.4993591,4.88457528 68.0462936,4.74586 68.65665,4.74586 C69.33042,4.74586 69.9090609,4.89052022 70.39259,5.179845 C70.8761191,5.46916978 71.2248889,5.87937068 71.43891,6.41046 L70.01211,7.00496 C69.7584554,6.46594397 69.3066399,6.19644 68.65665,6.19644 C68.1810476,6.19644 67.7906632,6.35893504 67.485485,6.68393 C67.1803068,7.00892496 67.02772,7.43696068 67.02772,7.96805 C67.02772,8.50706603 67.1803068,8.93906504 67.485485,9.26406 C67.7906632,9.58905496 68.1810476,9.75155 68.65665,9.75155 C69.3145666,9.75155 69.7901619,9.46619285 70.08345,8.89547 L71.49836,9.51375 C71.2367787,10.0448393 70.8642291,10.4570219 70.3807,10.75031 C69.8971709,11.0435981 69.3224933,11.19024 68.65665,11.19024 Z M74.80378,11.19024 C74.074523,11.19024 73.5196619,10.9643323 73.13918,10.51251 C72.7586981,10.0606877 72.56846,9.43052404 72.56846,8.622 L72.56846,4.9361 L74.12605,4.9361 L74.12605,8.43176 C74.12605,8.84394873 74.2251323,9.16695716 74.4233,9.400795 C74.6214677,9.63463284 74.883045,9.75155 75.20804,9.75155 C75.6519356,9.75155 76.0046687,9.58905496 76.26625,9.26406 C76.5278313,8.93906504 76.65862,8.5268825 76.65862,8.0275 L76.65862,4.9361 L78.21621,4.9361 L78.21621,11 L76.75374,11 L76.75374,10.23904 L76.65862,10.23904 C76.4763058,10.5323281 76.2206733,10.7641808 75.891715,10.934605 C75.5627567,11.1050292 75.2001153,11.19024 74.80378,11.19024 Z M79.73813,4.9361 L81.2006,4.9361 L81.2006,5.74462 L81.29572,5.74462 C81.4463274,5.45925857 81.6801617,5.2234426 81.99723,5.037165 C82.3142983,4.8508874 82.6630681,4.75775 83.04355,4.75775 C83.3209847,4.75775 83.5746355,4.80134623 83.80451,4.88854 L83.80451,6.44613 C83.5904889,6.36686294 83.4101591,6.30939518 83.263515,6.273725 C83.1168709,6.23805482 82.9603208,6.22022 82.79386,6.22022 C82.334111,6.22022 81.969488,6.38667834 81.69998,6.7196 C81.430472,7.05252166 81.29572,7.4726308 81.29572,7.97994 L81.29572,11 L79.73813,11 L79.73813,4.9361 Z M87.30017,11.19024 C86.6977403,11.19024 86.1547691,11.0515247 85.67124,10.77409 C85.1877109,10.4966553 84.8092164,10.1141974 84.535745,9.626705 C84.2622736,9.13921256 84.12554,8.59029639 84.12554,7.97994 C84.12554,7.40129044 84.260292,6.86426414 84.5298,6.368845 C84.799308,5.87342586 85.1718576,5.47907813 85.64746,5.18579 C86.1230624,4.89250187 86.6541437,4.74586 87.24072,4.74586 C87.8669298,4.74586 88.4059377,4.88061199 88.85776,5.15012 C89.3095823,5.41962801 89.6524072,5.78821433 89.886245,6.25589 C90.1200828,6.72356567 90.237,7.24275715 90.237,7.81348 C90.237,7.99579424 90.2251101,8.17017917 90.20133,8.33664 L85.64746,8.33664 C85.7267271,8.82016908 85.9189468,9.18677375 86.224125,9.436465 C86.5293032,9.68615625 86.8959079,9.811 87.32395,9.811 C87.6806518,9.811 87.987807,9.73371577 88.245425,9.579145 C88.503043,9.42457423 88.7071526,9.21650131 88.85776,8.95492 L90.1181,9.5732 C89.4998169,10.6512321 88.5605163,11.19024 87.30017,11.19024 Z M88.73886,7.23087 C88.7230066,7.04062905 88.6536489,6.8523726 88.530785,6.666095 C88.4079211,6.4798174 88.2374994,6.32524895 88.019515,6.202385 C87.8015306,6.07952105 87.5458981,6.01809 87.25261,6.01809 C86.8800548,6.01809 86.5610097,6.12708058 86.295465,6.345065 C86.0299203,6.56304942 85.8377006,6.8583148 85.7188,7.23087 L88.73886,7.23087 Z M94.17259,4.9361 L95.63506,4.9361 L95.63506,5.67328 L95.73018,5.67328 C95.8966408,5.41169869 96.1384017,5.19173589 96.45547,5.013385 C96.7725383,4.83503411 97.1371613,4.74586 97.54935,4.74586 C98.0962927,4.74586 98.5936861,4.88259363 99.041545,5.156065 C99.4894039,5.42953637 99.8401554,5.81199421 100.09381,6.30345 C100.347465,6.79490579 100.47429,7.34976691 100.47429,7.96805 C100.47429,8.5942598 100.347465,9.15110256 100.09381,9.638595 C99.8401554,10.1260874 99.4894039,10.5065636 99.041545,10.780035 C98.5936861,11.0535064 98.0962927,11.19024 97.54935,11.19024 C97.1371613,11.19024 96.7705566,11.1030475 96.449525,10.92866 C96.1284934,10.7542725 95.8887141,10.5362913 95.73018,10.27471 L95.63506,10.27471 L95.73018,11.13079 L95.73018,13.56824 L94.17259,13.56824 L94.17259,4.9361 Z M97.27588,9.75155 C97.5691681,9.75155 97.8426354,9.67624742 98.09629,9.52564 C98.3499446,9.37503258 98.5520726,9.16497801 98.70268,8.89547 C98.8532874,8.62596199 98.92859,8.31682508 98.92859,7.96805 C98.92859,7.61927492 98.8532874,7.31013801 98.70268,7.04063 C98.5520726,6.77112199 98.3499446,6.56304907 98.09629,6.416405 C97.8426354,6.26976093 97.5691681,6.19644 97.27588,6.19644 C96.9905186,6.19644 96.7210146,6.26976093 96.46736,6.416405 C96.2137054,6.56304907 96.0115774,6.77112199 95.86097,7.04063 C95.7103626,7.31013801 95.63506,7.61927492 95.63506,7.96805 C95.63506,8.31682508 95.7103626,8.62596199 95.86097,8.89547 C96.0115774,9.16497801 96.2137054,9.37503258 96.46736,9.52564 C96.7210146,9.67624742 96.9905186,9.75155 97.27588,9.75155 Z M103.53002,11.19024 C102.887957,11.19024 102.360839,11.0019835 101.94865,10.625465 C101.536461,10.2489465 101.33037,9.75551639 101.33037,9.14516 C101.33037,8.74089798 101.437379,8.38420155 101.6514,8.07506 C101.865421,7.76591845 102.158705,7.52812083 102.53126,7.36166 C102.903815,7.19519917 103.315998,7.11197 103.76782,7.11197 C104.39403,7.11197 104.929074,7.20312576 105.37297,7.38544 L105.37297,7.12386 C105.37297,6.79093834 105.248126,6.52143436 104.998435,6.31534 C104.748744,6.10924564 104.413845,6.0062 103.99373,6.0062 C103.708369,6.0062 103.43292,6.07159435 103.167375,6.202385 C102.90183,6.33317565 102.681868,6.50557893 102.50748,6.7196 L101.50872,5.93486 C101.802008,5.5543781 102.170594,5.26109436 102.61449,5.055 C103.058386,4.84890564 103.541907,4.74586 104.06507,4.74586 C104.992495,4.74586 105.697961,4.95987786 106.18149,5.38792 C106.665019,5.81596214 106.90678,6.44216254 106.90678,7.26654 L106.90678,11 L105.37297,11 L105.37297,10.38172 L105.27785,10.38172 C105.095536,10.6195212 104.855756,10.8137226 104.558505,10.96433 C104.261254,11.1149374 103.918429,11.19024 103.53002,11.19024 Z M103.89861,9.97746 C104.350432,9.97746 104.70911,9.83279978 104.974655,9.543475 C105.2402,9.25415022 105.37297,8.91528861 105.37297,8.52688 C104.968708,8.33663905 104.544636,8.24152 104.10074,8.24152 C103.292216,8.24152 102.88796,8.54273032 102.88796,9.14516 C102.88796,9.3908879 102.975152,9.59103423 103.14954,9.745605 C103.323928,9.90017577 103.573615,9.97746 103.89861,9.97746 Z M110.11708,10.71464 L107.56073,4.9361 L109.33234,4.9361 L110.90182,8.70523 L110.99694,8.70523 L112.50697,4.9361 L114.24291,4.9361 L110.49756,13.56824 L108.82107,13.56824 L110.11708,10.71464 Z M115.09899,4.9361 L116.56146,4.9361 L116.56146,5.69706 L116.65658,5.69706 C116.846821,5.40377187 117.102453,5.17191919 117.423485,5.001495 C117.744517,4.83107081 118.103195,4.74586 118.49953,4.74586 C118.927572,4.74586 119.300122,4.84692399 119.61719,5.049055 C119.934258,5.25118601 120.160166,5.50681845 120.29492,5.81596 C120.493088,5.49889175 120.764573,5.24127766 121.109385,5.04311 C121.454197,4.84494234 121.860434,4.74586 122.32811,4.74586 C123.017733,4.74586 123.54287,4.95789621 123.903535,5.381975 C124.2642,5.80605379 124.44453,6.37874973 124.44453,7.10008 L124.44453,11 L122.89883,11 L122.89883,7.38544 C122.89883,7.0049581 122.809656,6.71167436 122.631305,6.50558 C122.452954,6.29948564 122.205248,6.19644 121.88818,6.19644 C121.483918,6.19644 121.16091,6.35695339 120.919145,6.677985 C120.67738,6.99901661 120.5565,7.42110738 120.5565,7.94427 L120.5565,11 L118.99891,11 L118.99891,7.38544 C118.99891,7.0049581 118.905773,6.71167436 118.719495,6.50558 C118.533217,6.29948564 118.269658,6.19644 117.92881,6.19644 C117.548328,6.19644 117.241173,6.35695339 117.007335,6.677985 C116.773497,6.99901661 116.65658,7.42110738 116.65658,7.94427 L116.65658,11 L115.09899,11 L115.09899,4.9361 Z M128.77249,11.19024 C128.17006,11.19024 127.627089,11.0515247 127.14356,10.77409 C126.660031,10.4966553 126.281536,10.1141974 126.008065,9.626705 C125.734594,9.13921256 125.59786,8.59029639 125.59786,7.97994 C125.59786,7.40129044 125.732612,6.86426414 126.00212,6.368845 C126.271628,5.87342586 126.644178,5.47907813 127.11978,5.18579 C127.595382,4.89250187 128.126464,4.74586 128.71304,4.74586 C129.33925,4.74586 129.878258,4.88061199 130.33008,5.15012 C130.781902,5.41962801 131.124727,5.78821433 131.358565,6.25589 C131.592403,6.72356567 131.70932,7.24275715 131.70932,7.81348 C131.70932,7.99579424 131.69743,8.17017917 131.67365,8.33664 L127.11978,8.33664 C127.199047,8.82016908 127.391267,9.18677375 127.696445,9.436465 C128.001623,9.68615625 128.368228,9.811 128.79627,9.811 C129.152972,9.811 129.460127,9.73371577 129.717745,9.579145 C129.975363,9.42457423 130.179473,9.21650131 130.33008,8.95492 L131.59042,9.5732 C130.972137,10.6512321 130.032836,11.19024 128.77249,11.19024 Z M130.21118,7.23087 C130.195327,7.04062905 130.125969,6.8523726 130.003105,6.666095 C129.880241,6.4798174 129.709819,6.32524895 129.491835,6.202385 C129.273851,6.07952105 129.018218,6.01809 128.72493,6.01809 C128.352375,6.01809 128.03333,6.12708058 127.767785,6.345065 C127.50224,6.56304942 127.310021,6.8583148 127.19112,7.23087 L130.21118,7.23087 Z M132.91021,4.9361 L134.37268,4.9361 L134.37268,5.69706 L134.4678,5.69706 C134.650114,5.40377187 134.907728,5.17191919 135.24065,5.001495 C135.573572,4.83107081 135.934231,4.74586 136.32264,4.74586 C137.051897,4.74586 137.606758,4.96780445 137.98724,5.4117 C138.367722,5.85559555 138.55796,6.46197949 138.55796,7.23087 L138.55796,11 L137.00037,11 L137.00037,7.42111 C137.00037,7.03270139 136.901288,6.73149107 136.70312,6.51747 C136.504952,6.30344893 136.227522,6.19644 135.87082,6.19644 C135.450705,6.19644 135.111843,6.35893504 134.854225,6.68393 C134.596607,7.00892496 134.4678,7.41714421 134.4678,7.9086 L134.4678,11 L132.91021,11 L132.91021,4.9361 Z M142.37465,11.09512 C142.073435,11.09512 141.796005,11.0495421 141.54235,10.958385 C141.288695,10.8672279 141.082604,10.7423841 140.92407,10.58385 C140.551515,10.2271482 140.36524,9.71984662 140.36524,9.06193 L140.36524,6.26778 L139.30703,6.26778 L139.30703,4.9361 L140.36524,4.9361 L140.36524,3.22394 L141.92283,3.22394 L141.92283,4.9361 L143.40908,4.9361 L143.40908,6.26778 L141.92283,6.26778 L141.92283,8.77657 C141.92283,9.08571155 141.990206,9.30765599 142.12496,9.44241 C142.235934,9.5692373 142.426172,9.63265 142.69568,9.63265 C142.846287,9.63265 142.971131,9.61283353 143.070215,9.5732 C143.169299,9.53356647 143.298106,9.46619048 143.45664,9.37107 L143.45664,10.89299 C143.115792,11.027744 142.755132,11.09512 142.37465,11.09512 Z M147.13065,11.19024 C146.393466,11.19024 145.796991,11.0396348 145.341205,10.73842 C144.885419,10.4372052 144.566374,10.0448391 144.38406,9.56131 L145.77519,8.95492 C145.902017,9.24028143 146.082347,9.45628093 146.316185,9.602925 C146.550023,9.74956907 146.821508,9.82289 147.13065,9.82289 C147.416011,9.82289 147.653809,9.77731212 147.84405,9.686155 C148.034291,9.59499788 148.12941,9.44637436 148.12941,9.24028 C148.12941,9.04211234 148.042218,8.89348883 147.86783,8.794405 C147.693442,8.69532117 147.431865,8.60614706 147.08309,8.52688 L146.36969,8.37231 C145.878234,8.25340941 145.470015,8.0374099 145.14502,7.724305 C144.820025,7.4112001 144.65753,7.02081567 144.65753,6.55314 C144.65753,6.20436492 144.762557,5.89126472 144.972615,5.61383 C145.182673,5.33639528 145.46803,5.12237742 145.828695,4.97177 C146.18936,4.82116258 146.587671,4.74586 147.02364,4.74586 C148.27606,4.74586 149.112315,5.1857856 149.53243,6.06565 L148.20075,6.64826 C147.962949,6.22021786 147.582473,6.0062 147.05931,6.0062 C146.789802,6.0062 146.575784,6.05574117 146.41725,6.154825 C146.258716,6.25390883 146.17945,6.37875258 146.17945,6.52936 C146.17945,6.81472143 146.448954,7.02873929 146.98797,7.17142 L147.87972,7.38544 C148.48215,7.53604742 148.935947,7.76591845 149.241125,8.07506 C149.546303,8.38420155 149.69889,8.76467774 149.69889,9.2165 C149.69889,9.60490861 149.585936,9.94773351 149.360025,10.244985 C149.134114,10.5422365 148.824977,10.7740892 148.432605,10.94055 C148.040233,11.1070108 147.606252,11.19024 147.13065,11.19024 Z" id="Secure-payments" fill="#32364E"></path>
            <path d="M21.3683849,38.1152459 L20.7853095,38.1152459 L20.7853095,35.3793723 C20.7853095,30.3191647 16.7798325,26.0920833 11.7734626,26.0018491 C11.6366698,25.9993836 11.3633302,25.9993836 11.2265989,26.0018491 C6.22010607,26.0920833 2.21469049,30.3191647 2.21469049,35.3793723 L2.21469049,38.1152459 L1.63155362,38.1152459 C0.732963385,38.1152459 0,39.0448316 0,40.1929148 L0,53.9149349 C0,55.0617238 0.732963385,56 1.6316151,56 L21.3683849,56 C22.2669751,56 23,55.0617238 23,53.9149349 L23,40.1929148 C23,39.0448932 22.2670366,38.1152459 21.3683849,38.1152459 Z M13.2941429,47.1385677 L13.2941429,51.1515923 C13.2941429,51.6111117 12.9094174,52 12.4495245,52 L10.5504158,52 C10.0904633,52 9.70573777,51.6111117 9.70573777,51.1515923 L9.70573777,47.1385677 C9.25968525,46.6995098 9,46.092405 9,45.4208135 C9,44.1481423 9.98379726,43.0545541 11.2346772,43.0040267 C11.3672342,42.9986578 11.6327658,42.9986578 11.7653228,43.0040267 C13.0162027,43.0545541 14,44.1481423 14,45.4208135 C13.9998807,46.092405 13.7401954,46.6995098 13.2941429,47.1385677 Z M17,38 L11.7763048,38 L11.2236331,38 L6,38 L6,35.3446198 C6,32.4190234 8.46940804,30 11.4999379,30 C14.5304677,30 17,32.4190234 17,35.3446198 L17,38 Z" id="Shape" fill="#32364E" fill-rule="nonzero"></path>
        </g>
    </g>
</svg>